<svg width="111" height="27" viewBox="0 0 111 27" fill="none" xmlns="http://www.w3.org/2000/svg">
<path d="M41.084 21.132C43.174 21.132 44.912 20.252 45.836 18.624L44.23 17.612C43.482 18.756 42.338 19.284 41.062 19.284C38.774 19.284 37.058 17.7 37.058 15.17C37.058 12.684 38.774 11.078 41.062 11.078C42.338 11.078 43.482 11.606 44.23 12.75L45.836 11.716C44.912 10.088 43.174 9.23 41.084 9.23C37.498 9.23 34.924 11.694 34.924 15.17C34.924 18.646 37.498 21.132 41.084 21.132ZM52.8164 9.23C50.9464 9.23 49.2084 9.758 47.9984 10.726L48.8784 12.31C49.7804 11.54 51.1884 11.056 52.5744 11.056C54.6644 11.056 55.6984 12.09 55.6984 13.872V14.29H52.3544C48.8784 14.29 47.6684 15.83 47.6684 17.7C47.6684 19.724 49.3404 21.132 51.9804 21.132C53.8064 21.132 55.1044 20.516 55.8084 19.46V21H57.8104V13.96C57.8104 10.77 56.0064 9.23 52.8164 9.23ZM52.3324 19.504C50.7264 19.504 49.7584 18.778 49.7584 17.612C49.7584 16.622 50.3524 15.808 52.4424 15.808H55.6984V17.436C55.1704 18.778 53.9164 19.504 52.3324 19.504ZM63.7428 11.298V9.34H61.7188V21H63.8308V15.192C63.8308 12.64 65.2388 11.254 67.5048 11.254C67.6588 11.254 67.8128 11.254 67.9888 11.276V9.23C65.9428 9.23 64.4908 9.934 63.7428 11.298ZM71.6478 7.096C72.4838 7.096 73.0778 6.48 73.0778 5.688C73.0778 4.94 72.4618 4.346 71.6478 4.346C70.8338 4.346 70.2178 4.962 70.2178 5.732C70.2178 6.502 70.8338 7.096 71.6478 7.096ZM70.5918 21H72.7038V9.34H70.5918V21ZM87.2744 15.236C87.2744 11.65 84.8764 9.23 81.5104 9.23C78.1444 9.23 75.6584 11.716 75.6584 15.17C75.6584 18.646 78.1664 21.132 81.9284 21.132C83.8644 21.132 85.4704 20.472 86.5264 19.24L85.3604 17.876C84.5024 18.822 83.3584 19.284 81.9944 19.284C79.6844 19.284 78.0344 17.92 77.7704 15.874H87.2304C87.2524 15.676 87.2744 15.412 87.2744 15.236ZM81.5104 11.012C83.5564 11.012 85.0304 12.398 85.2504 14.356H77.7704C77.9904 12.376 79.4864 11.012 81.5104 11.012ZM92.2311 11.298V9.34H90.2071V21H92.3191V15.192C92.3191 12.64 93.7271 11.254 95.9931 11.254C96.1471 11.254 96.3011 11.254 96.4771 11.276V9.23C94.4311 9.23 92.9791 9.934 92.2311 11.298ZM103.305 9.23C101.435 9.23 99.6966 9.758 98.4866 10.726L99.3666 12.31C100.269 11.54 101.677 11.056 103.063 11.056C105.153 11.056 106.187 12.09 106.187 13.872V14.29H102.843C99.3666 14.29 98.1566 15.83 98.1566 17.7C98.1566 19.724 99.8286 21.132 102.469 21.132C104.295 21.132 105.593 20.516 106.297 19.46V21H108.299V13.96C108.299 10.77 106.495 9.23 103.305 9.23ZM102.821 19.504C101.215 19.504 100.247 18.778 100.247 17.612C100.247 16.622 100.841 15.808 102.931 15.808H106.187V17.436C105.659 18.778 104.405 19.504 102.821 19.504Z" fill="black"/>
<path d="M11.9705 24.9932C8.40753 24.9932 4.84455 24.9871 1.28158 25C0.809525 25 0.464101 24.7911 0.192934 24.4574C0.0755624 24.3169 0.0111317 24.1382 0.011271 23.9534C0.017238 23.8266 0.00596702 23.699 0.00596702 23.5722C0.00596702 17.9605 0.00397801 12.3487 0 6.73699C0 6.24048 0.120666 5.83758 0.530401 5.54456C0.740265 5.3954 0.990974 5.31822 1.24644 5.32411C3.12716 5.32728 5.0081 5.32728 6.88925 5.32411C7.20153 5.32411 7.20219 5.32411 7.20219 4.9931C7.20219 4.086 7.20219 3.1789 7.20219 2.2718C7.20219 1.70135 7.51181 1.31473 8.02895 1.10378C8.26432 1.01153 8.48642 1.00407 8.72245 1.00339C10.968 1.00339 13.2136 1.00339 15.4586 1C15.7708 1 16.0679 1.06783 16.2946 1.27132C16.5598 1.51415 16.8058 1.79496 16.8051 2.20532C16.8051 3.16307 16.8117 4.1215 16.8011 5.07925C16.8011 5.28273 16.8615 5.33089 17.0517 5.33021C18.9406 5.32343 20.8309 5.33496 22.7191 5.32004C23.1958 5.31665 23.5253 5.56965 23.819 5.88302C23.9167 6.00318 23.972 6.15345 23.9761 6.30967C23.9795 6.47042 23.992 6.63118 23.992 6.79261C23.992 12.379 23.9945 17.9654 23.9993 23.5518C23.9993 23.9392 23.9264 24.2905 23.6924 24.5693C23.5807 24.7038 23.4411 24.8112 23.2838 24.8836C23.1264 24.956 22.9552 24.9916 22.7827 24.9878C19.1787 24.9905 15.5746 24.9923 11.9705 24.9932ZM12.0003 13.9737C15.1151 13.9737 18.2297 13.9753 21.344 13.9784C21.5867 13.9784 21.6689 13.9201 21.6676 13.6569C21.6565 11.7839 21.6565 9.91095 21.6676 8.03796C21.6676 7.77071 21.5807 7.71577 21.3394 7.71577C15.1182 7.72165 8.89704 7.72323 2.67588 7.72052C2.34437 7.72052 2.34437 7.72052 2.34437 8.05559C2.34437 9.90959 2.34437 11.7656 2.34437 13.6237C2.34437 13.9723 2.34437 13.973 2.67985 13.973L12.0003 13.9737ZM11.9937 22.508C15.1169 22.508 18.2403 22.508 21.3639 22.508C21.5118 22.508 21.6689 22.5595 21.6676 22.2862C21.657 20.4134 21.6603 18.5399 21.6642 16.6665C21.6642 16.4427 21.586 16.3497 21.3593 16.3504C19.5285 16.3558 17.6975 16.3558 15.8663 16.3504C15.6608 16.3504 15.5832 16.4488 15.5587 16.6217C15.5295 16.8252 15.5076 17.0287 15.4055 17.2207C15.0806 17.8264 14.5787 18.1703 13.9131 18.1805C12.6627 18.2049 11.4109 18.19 10.1605 18.1872C9.93442 18.1872 9.72027 18.1737 9.4975 18.0645C8.91141 17.7755 8.51029 17.3665 8.47847 16.6719C8.46786 16.4393 8.39758 16.3477 8.15426 16.3491C6.32349 16.3581 4.4925 16.3581 2.66129 16.3491C2.41996 16.3491 2.33708 16.4074 2.33907 16.6719C2.351 18.5033 2.3457 20.3347 2.34504 22.1661C2.34504 22.5107 2.34504 22.5113 2.67322 22.5113L11.9937 22.508ZM12.005 5.32954C12.717 5.32954 13.4284 5.3214 14.1398 5.33496C14.3414 5.34107 14.3871 5.27324 14.3871 5.07653C14.3745 4.61937 14.3772 4.1622 14.3871 3.70503C14.3871 3.53952 14.3387 3.48933 14.1756 3.49001C12.7272 3.49589 11.279 3.49589 9.83099 3.49001C9.66325 3.49001 9.62082 3.55173 9.62281 3.71113C9.6301 4.17644 9.63342 4.64243 9.62281 5.10774C9.61817 5.28952 9.67916 5.33496 9.84956 5.33293C10.5643 5.32411 11.2843 5.32886 12.0043 5.32886L12.005 5.32954Z" fill="#0199FE"/>
<path d="M12.0004 13.9736H2.67996C2.34515 13.9736 2.34448 13.9736 2.34448 13.6242C2.34448 11.7702 2.34448 9.9142 2.34448 8.05613C2.34448 7.72241 2.34448 7.72106 2.67598 7.72106C8.89715 7.72106 15.1183 7.71947 21.3395 7.71631C21.5808 7.71631 21.671 7.77125 21.6677 8.0385C21.6566 9.91149 21.6566 11.7845 21.6677 13.6575C21.6677 13.92 21.5874 13.9797 21.3441 13.979C18.2289 13.9708 15.1143 13.969 12.0004 13.9736Z" fill="#E4F3FE"/>
<path d="M11.993 22.507H2.67253C2.34103 22.507 2.34435 22.507 2.34435 22.1618C2.34435 20.3304 2.35031 18.499 2.33838 16.6676C2.33838 16.4031 2.41927 16.3434 2.6606 16.3447C4.49137 16.3533 6.32236 16.3533 8.15357 16.3447C8.39689 16.3447 8.46717 16.435 8.47778 16.6676C8.50894 17.3622 8.91072 17.7719 9.49681 18.0601C9.71892 18.1694 9.93373 18.1822 10.1598 18.1829C11.4109 18.1829 12.662 18.2006 13.9124 18.1761C14.5754 18.1632 15.0799 17.8227 15.4048 17.2164C15.5069 17.0264 15.5288 16.8236 15.558 16.6174C15.5825 16.4424 15.6601 16.3461 15.8656 16.3461C17.6964 16.3538 19.5274 16.3538 21.3586 16.3461C21.586 16.3461 21.6642 16.4384 21.6636 16.6622C21.6596 18.5356 21.6563 20.4084 21.6669 22.2818C21.6669 22.5532 21.5111 22.5036 21.3632 22.5036C18.2396 22.5064 15.1162 22.5075 11.993 22.507Z" fill="#E4F3FE"/>
</svg>
