<svg width="36" height="36" viewBox="0 0 36 36" fill="none" xmlns="http://www.w3.org/2000/svg">
<path d="M30.2097 20.0285L30.2167 20.032C30.3257 19.3676 30.3784 18.6891 30.3784 18.0176C30.3784 17.4164 30.3327 16.8117 30.2484 16.2211C30.3327 16.8082 30.3749 17.4023 30.3749 17.9965C30.3749 18.6785 30.3187 19.3605 30.2097 20.0285ZM3.48037 13.9957C3.46279 13.9816 3.44873 13.9676 3.43115 13.95C3.45576 13.9746 3.48037 13.9992 3.5085 14.0238L5.81123 15.9891V15.9855L3.48037 13.9957ZM22.3452 6.40195H22.3488L21.8038 3.45586C21.7968 3.4207 21.7898 3.38906 21.7792 3.35742C21.7827 3.375 21.7898 3.39609 21.7933 3.41367L22.3452 6.40195ZM24.2437 25.6148L25.3476 24.7078L28.6101 25.8645C29.2077 25.0594 29.7105 24.1945 30.1077 23.277L27.4816 21.0305L27.7136 19.6207C27.8015 19.0898 27.8472 18.5449 27.8472 18C27.8472 17.4551 27.8015 16.9102 27.7136 16.3793L27.4851 14.9766L30.1113 12.7301C29.7105 11.816 29.2113 10.9477 28.6136 10.1426L25.3511 11.2992L24.2472 10.3922C23.407 9.70312 22.4683 9.16172 21.4593 8.78203L20.1198 8.2793L19.4905 4.86914C18.4976 4.75664 17.4952 4.75664 16.5023 4.86914L15.873 8.28633L14.5405 8.78906C13.5386 9.16875 12.6069 9.71016 11.7737 10.3957L10.6698 11.3063L7.38623 10.1391C6.78858 10.9441 6.28584 11.809 5.88858 12.7266L8.54288 14.9941L8.31436 16.4004C8.22647 16.9242 8.18428 17.4621 8.18428 18C8.18428 18.5344 8.22999 19.0758 8.31436 19.5996L8.54288 21.0059L5.88858 23.2734C6.28936 24.1875 6.78858 25.0559 7.38623 25.8609L10.6698 24.6938L11.7737 25.6043C12.6069 26.2898 13.5386 26.8312 14.5405 27.2109L15.8694 27.7207L16.4987 31.1379C17.4902 31.2504 18.4991 31.2504 19.487 31.1379L20.1163 27.7277L21.4558 27.225C22.4683 26.8453 23.4034 26.3039 24.2437 25.6148ZM18.0175 23.8465C16.9452 23.8465 15.9362 23.5723 15.0538 23.0906C13.1237 22.043 11.8124 20.0004 11.8124 17.6484C11.8124 14.2312 14.5827 11.4609 17.9999 11.4609C20.3519 11.4609 22.3945 12.7723 23.4421 14.7023C23.9238 15.5813 24.198 16.5902 24.198 17.666C24.198 21.0797 21.4312 23.8465 18.0175 23.8465ZM7.28428 28.575C7.09092 28.6418 6.89053 28.6559 6.70069 28.6172C6.90108 28.6594 7.11202 28.6523 7.31592 28.582L10.1776 27.5625C10.1741 27.559 10.1671 27.5555 10.1636 27.552L7.28428 28.575ZM32.5124 13.9957L30.2097 15.9645C30.2097 15.9715 30.2132 15.982 30.2132 15.9891L32.5124 14.0238C32.762 13.8094 32.9027 13.5 32.9062 13.1801C32.8956 13.4895 32.755 13.7883 32.5124 13.9957Z" fill="#FFFFE9"/>
<path d="M32.8993 22.7321C32.9168 22.8973 32.8993 23.066 32.8395 23.2278L32.8079 23.3192C32.1723 25.0902 31.2232 26.7324 30.0059 28.1672L29.9426 28.241C29.7951 28.4154 29.5981 28.5407 29.3777 28.6003C29.1573 28.66 28.9239 28.6512 28.7086 28.575L25.8504 27.559C24.8019 28.4229 23.6175 29.1071 22.3454 29.584L21.7934 32.5723C21.7518 32.7971 21.6427 33.004 21.4807 33.1654C21.3187 33.3268 21.1114 33.435 20.8864 33.4758L20.7915 33.4934C19.8726 33.6595 18.9408 33.743 18.0071 33.743H18.0176C18.9563 33.743 19.895 33.6586 20.809 33.4934L20.904 33.4758C21.129 33.435 21.3362 33.3268 21.4983 33.1654C21.6603 33.004 21.7693 32.7971 21.811 32.5723L22.3629 29.5875C23.6356 29.1094 24.8098 28.4309 25.8645 27.566L28.7192 28.5821C28.9345 28.6582 29.1678 28.667 29.3882 28.6074C29.6086 28.5477 29.8057 28.4224 29.9532 28.2481L30.0165 28.1742C31.2399 26.7293 32.1786 25.1016 32.8149 23.3332L32.8465 23.2418C32.9028 23.0766 32.9204 22.9008 32.8993 22.7321Z" fill="#FFFFE9"/>
<path d="M24.1875 17.6484C24.1875 16.5832 23.9168 15.5777 23.4422 14.7023C22.3945 12.7723 20.352 11.4609 18 11.4609C14.5828 11.4609 11.8125 14.2313 11.8125 17.6484C11.8125 20.0004 13.1238 22.043 15.0539 23.0906C15.9293 23.5652 16.9313 23.8359 18 23.8359C21.4172 23.8359 24.1875 21.0656 24.1875 17.6484ZM14.0625 17.6484C14.0625 16.5973 14.4738 15.6094 15.2156 14.8641C15.9609 14.1187 16.9488 13.7109 18 13.7109C19.0512 13.7109 20.0391 14.1187 20.7844 14.8641C21.1506 15.2293 21.441 15.6633 21.6389 16.1411C21.8368 16.619 21.9383 17.1312 21.9375 17.6484C21.9375 18.6996 21.5262 19.6875 20.7844 20.4328C20.4192 20.7991 19.9852 21.0895 19.5073 21.2874C19.0295 21.4853 18.5172 21.5867 18 21.5859C16.9488 21.5859 15.9609 21.1746 15.2156 20.4328C14.8494 20.0676 14.559 19.6336 14.3611 19.1558C14.1632 18.6779 14.0617 18.1656 14.0625 17.6484Z" fill="#DDDF70"/>
<path d="M20.8863 33.4758C21.1113 33.4351 21.3186 33.3268 21.4806 33.1654C21.6426 33.004 21.7517 32.7972 21.7933 32.5723L22.3453 29.584C23.6174 29.1072 24.8018 28.4229 25.8503 27.559L28.7085 28.575C28.9238 28.6512 29.1572 28.66 29.3776 28.6004C29.598 28.5407 29.795 28.4154 29.9425 28.2411L30.0058 28.1672C31.2293 26.7223 32.1714 25.0911 32.8078 23.3192L32.8394 23.2278C32.8992 23.0661 32.9168 22.8973 32.8992 22.7321C32.8675 22.4543 32.7339 22.1907 32.5125 21.9973L30.2168 20.0321L30.2097 20.0286C30.3187 19.3606 30.375 18.6786 30.375 17.9965C30.375 17.4024 30.3328 16.8047 30.2484 16.2211C30.2378 16.1438 30.2238 16.0664 30.2132 15.9891C30.2132 15.9821 30.2097 15.9715 30.2097 15.9645L32.5125 13.9957C32.755 13.7883 32.8957 13.4895 32.9062 13.1801C32.9097 13.0395 32.8886 12.8953 32.8394 12.7582L32.8078 12.6668C32.1738 10.895 31.2246 9.25258 30.0058 7.81878L29.9425 7.74495C29.7947 7.57111 29.5976 7.44615 29.3774 7.38652C29.1571 7.3269 28.9239 7.33543 28.7085 7.41097L25.8503 8.42698C24.7957 7.56214 23.6214 6.88011 22.3488 6.40198H22.3453L21.7933 3.4137C21.7898 3.39612 21.7863 3.37503 21.7793 3.35745C21.7285 3.14489 21.6171 2.95166 21.4586 2.80124C21.3 2.65083 21.1012 2.54971 20.8863 2.51018L20.7914 2.4926C18.9597 2.16213 17.0332 2.16213 15.2015 2.4926L15.1066 2.51018C14.8816 2.55095 14.6743 2.65922 14.5123 2.8206C14.3503 2.98199 14.2412 3.18885 14.1996 3.4137L13.6441 6.41604C12.3816 6.89427 11.2059 7.57594 10.1636 8.43401L7.28433 7.41097C7.06906 7.33483 6.83571 7.326 6.61529 7.38565C6.39488 7.44531 6.19784 7.57063 6.05035 7.74495L5.98707 7.81878C4.76977 9.25359 3.82065 10.8958 3.18511 12.6668L3.15347 12.7582C3.08021 12.9626 3.06745 13.1837 3.11671 13.3951C3.16597 13.6065 3.27517 13.7992 3.43121 13.95C3.44879 13.9641 3.46285 13.9817 3.48043 13.9957L5.81129 15.9856V15.9891C5.7023 16.65 5.64957 17.3215 5.64957 17.993C5.64957 18.668 5.7023 19.343 5.81129 20.0004L3.48043 21.9903C3.30674 22.139 3.18243 22.337 3.12403 22.5581C3.06562 22.7791 3.07589 23.0127 3.15347 23.2278L3.18511 23.3192C3.82144 25.0911 4.76363 26.7258 5.98707 28.1672L6.05035 28.2411C6.22261 28.4415 6.45113 28.5715 6.70074 28.6172C6.89058 28.6524 7.09097 28.6418 7.28433 28.575L10.1636 27.552C10.1671 27.5555 10.1742 27.559 10.1777 27.5625C11.2218 28.4168 12.3855 29.0954 13.6441 29.57L14.1996 32.5723C14.2412 32.7972 14.3503 33.004 14.5123 33.1654C14.6743 33.3268 14.8816 33.4351 15.1066 33.4758L15.2015 33.4934C16.1191 33.6586 17.0578 33.743 17.9964 33.743H18.007C18.9421 33.743 19.8808 33.6586 20.7914 33.4934L20.8863 33.4758ZM19.4871 31.1379C18.4941 31.2504 17.4917 31.2504 16.4988 31.1379L15.8695 27.7208L14.5406 27.211C13.5386 26.8313 12.607 26.2899 11.7738 25.6043L10.6699 24.6938L7.38629 25.861C6.78863 25.0559 6.28941 24.1875 5.88863 23.2735L8.54293 21.0059L8.31441 19.5996C8.23004 19.0758 8.18433 18.5344 8.18433 18C8.18433 17.4621 8.22652 16.9243 8.31441 16.4004L8.54293 14.9942L5.88863 12.7266C6.2859 11.809 6.78863 10.9442 7.38629 10.1391L10.6699 11.3063L11.7738 10.3957C12.607 9.71019 13.5386 9.16878 14.5406 8.78909L15.873 8.28636L16.5023 4.86917C17.4902 4.75667 18.4992 4.75667 19.4906 4.86917L20.1199 8.27933L21.4593 8.78206C22.4683 9.16175 23.407 9.70316 24.2472 10.3922L25.3511 11.2993L28.6136 10.1426C29.2113 10.9477 29.7105 11.816 30.1113 12.7301L27.4851 14.9766L27.7136 16.3793C27.8015 16.9102 27.8472 17.4551 27.8472 18C27.8472 18.545 27.8015 19.0899 27.7136 19.6207L27.4816 21.0305L30.1078 23.277C29.7096 24.1942 29.2071 25.0624 28.6101 25.8645L25.3476 24.7079L24.2437 25.6149C23.4035 26.304 22.4683 26.8454 21.4558 27.225L20.1164 27.7278L19.4871 31.1379Z" fill="#DDDF70"/>
</svg>
