<svg width="158" height="150" viewBox="0 0 158 150" fill="none" xmlns="http://www.w3.org/2000/svg">
<path d="M78.9959 150C122.624 150 157.992 129.91 157.992 105.127C157.992 80.3451 122.624 60.255 78.9959 60.255C35.3677 60.255 0 80.3451 0 105.127C0 129.91 35.3677 150 78.9959 150Z" fill="white"/>
<path d="M53.0943 141.791C60.6127 141.791 66.7076 138.292 66.7076 133.976C66.7076 129.66 60.6127 126.162 53.0943 126.162C45.5758 126.162 39.481 129.66 39.481 133.976C39.481 138.292 45.5758 141.791 53.0943 141.791Z" fill="#F4F4F4"/>
<path d="M72.4153 134.641H80.8744L141.694 99.5595L81.7657 62.9258L54.2754 80.1344L95.5025 104.29L57.8974 126.169L72.4153 134.641Z" fill="#F4F4F4"/>
<path d="M92.4284 64.4912V51.6123L74.422 41.1102V28.2314L56.4189 17.726V82.1171L74.422 92.6225L92.4284 103.125L110.431 113.63V74.9966L92.4284 64.4912Z" fill="#BA68C8"/>
<path opacity="0.3" d="M92.4285 64.4911V77.37L110.432 87.8754V74.9965L92.4285 64.4911Z" fill="white"/>
<path d="M110.432 74.9965V87.8754L92.4285 98.3808V111.256L74.4221 121.762V134.641L92.4285 124.135L110.432 113.63L128.438 103.124V64.4911L110.432 74.9965Z" fill="#BA68C8"/>
<path opacity="0.1" d="M110.432 74.9965V87.8754L92.4285 98.3808V111.256L74.4221 121.762V134.641L92.4285 124.135L110.432 113.63L128.438 103.124V64.4911L110.432 74.9965Z" fill="white"/>
<path d="M74.422 28.2314L56.4189 17.726L74.422 7.22058L92.4284 17.726L74.422 28.2314Z" fill="#BA68C8"/>
<path opacity="0.7" d="M74.422 28.2314L56.4189 17.726L74.422 7.22058L92.4284 17.726L74.422 28.2314Z" fill="white"/>
<path d="M74.4221 41.1102V28.2314L92.4285 17.726V30.6048L74.4221 41.1102Z" fill="#BA68C8"/>
<path opacity="0.1" d="M74.4221 41.1102V28.2314L92.4285 17.726V30.6048L74.4221 41.1102Z" fill="black"/>
<path d="M92.4285 51.6123L74.4221 41.1103L92.4285 30.6049L110.432 41.1103L92.4285 51.6123Z" fill="#BA68C8"/>
<path d="M92.4285 64.4912V51.6123L110.432 41.1102V53.9858L92.4285 64.4912Z" fill="#BA68C8"/>
<path opacity="0.7" d="M92.4285 51.6123L74.4221 41.1103L92.4285 30.6049L110.432 41.1103L92.4285 51.6123Z" fill="white"/>
<path opacity="0.1" d="M92.4285 64.4912V51.6123L110.432 41.1102V53.9858L92.4285 64.4912Z" fill="black"/>
<path d="M110.432 74.9968L92.4285 64.4914L110.432 53.986L128.438 64.4914L110.432 74.9968Z" fill="#BA68C8"/>
<g opacity="0.7">
<path opacity="0.7" d="M110.432 74.9968L92.4285 64.4914L110.432 53.986L128.438 64.4914L110.432 74.9968Z" fill="white"/>
</g>
<path d="M92.4285 98.3811L110.432 87.8756L92.4285 77.3702L74.4221 87.8756L92.4285 98.3811Z" fill="#BA68C8"/>
<path opacity="0.7" d="M92.4285 98.3811L110.432 87.8756L92.4285 77.3702L74.4221 87.8756L92.4285 98.3811Z" fill="white"/>
<path d="M92.4285 111.256V98.3808L74.4221 87.8754V100.754L92.4285 111.256Z" fill="#BA68C8"/>
<path opacity="0.3" d="M92.4285 111.256V98.3808L74.4221 87.8754V100.754L92.4285 111.256Z" fill="white"/>
<path d="M74.422 121.762L92.4284 111.257L74.422 100.755L56.4189 111.257L74.422 121.762Z" fill="#BA68C8"/>
<path d="M74.422 134.641V121.762L56.4189 111.257V124.135L74.422 134.641Z" fill="#BA68C8"/>
<path opacity="0.7" d="M74.422 121.762L92.4284 111.257L74.422 100.755L56.4189 111.257L74.422 121.762Z" fill="white"/>
<path opacity="0.3" d="M74.422 134.641V121.762L56.4189 111.257V124.135L74.422 134.641Z" fill="white"/>
<path d="M88.9466 109.227L70.9435 119.732L59.9006 113.29L77.907 102.784L88.9466 109.227Z" fill="#BA68C8"/>
<path opacity="0.4" d="M88.9466 109.227L70.9435 119.732L59.9006 113.29L77.907 102.784L88.9466 109.227Z" fill="white"/>
<path d="M70.9437 119.732V132.608L59.8975 126.168V113.29H59.9008L70.9437 119.732Z" fill="#BA68C8"/>
<path d="M106.953 85.8428L88.9468 96.3482L77.9072 89.9087L95.9103 79.4033L106.953 85.8428Z" fill="#BA68C8"/>
<path opacity="0.4" d="M106.953 85.8428L88.9468 96.3482L77.9072 89.9087L95.9103 79.4033L106.953 85.8428Z" fill="white"/>
<path d="M88.9467 96.3481V109.227L77.9038 102.784V89.9087H77.9072L88.9467 96.3481Z" fill="#BA68C8"/>
<path d="M106.953 72.967V85.8425L95.9067 79.4031V66.5242H95.9101L106.953 72.967Z" fill="#BA68C8"/>
<path d="M106.953 72.967V85.8425L95.9067 79.4031V66.5242H95.9101L106.953 72.967Z" fill="#BA68C8"/>
<path d="M77.9038 39.0772L95.9069 49.5826L106.95 43.1431L88.9433 32.6344L77.9038 39.0772Z" fill="#BA68C8"/>
<g style="mix-blend-mode:overlay" opacity="0.5">
<path d="M77.9038 39.0772L95.9069 49.5826L106.95 43.1431L88.9433 32.6344L77.9038 39.0772Z" fill="white"/>
</g>
<path d="M95.9067 49.5828V62.4616L106.953 56.0189V43.1433H106.95L95.9067 49.5828Z" fill="#BA68C8"/>
<path opacity="0.3" d="M95.9067 49.5828V62.4616L106.953 56.0189V43.1433H106.95L95.9067 49.5828Z" fill="black"/>
<path d="M59.8975 15.693L77.9039 26.2017L88.9434 19.7589L70.9403 9.25354L59.8975 15.693Z" fill="#BA68C8"/>
<g style="mix-blend-mode:overlay" opacity="0.5">
<path d="M59.8975 15.693L77.9039 26.2017L88.9434 19.7589L70.9403 9.25354L59.8975 15.693Z" fill="white"/>
</g>
<path d="M77.9038 26.2018V39.0774L88.9467 32.6346V19.759H88.9433L77.9038 26.2018Z" fill="#BA68C8"/>
<path opacity="0.3" d="M77.9038 26.2018V39.0774L88.9467 32.6346V19.759H88.9433L77.9038 26.2018Z" fill="black"/>
<path d="M110.431 58.0516L106.95 56.0153L95.9067 62.458L99.3919 64.491L95.9101 66.524L106.953 72.9634L110.431 70.9338L121.474 64.491L110.431 58.0516Z" fill="#BA68C8"/>
<path opacity="0.4" d="M110.431 58.0516L106.95 56.0153L95.9067 62.458L99.3919 64.491L95.9101 66.524L106.953 72.9634L110.431 70.9338L121.474 64.491L110.431 58.0516Z" fill="white"/>
<path d="M67.2514 13.7035C67.2235 13.7033 67.196 13.6964 67.1713 13.6835L66.5036 13.2896C66.4854 13.2789 66.4694 13.2647 66.4567 13.2479C66.4439 13.231 66.4347 13.2117 66.4294 13.1913C66.4241 13.1708 66.4229 13.1495 66.4259 13.1285C66.429 13.1076 66.4361 13.0875 66.4469 13.0693C66.4679 13.0327 66.5024 13.006 66.5431 12.9947C66.5837 12.9835 66.6271 12.9887 66.6639 13.0092L67.3315 13.4031C67.3683 13.4247 67.3952 13.4599 67.4064 13.501C67.4176 13.5422 67.4123 13.5861 67.3916 13.6234C67.3777 13.6482 67.3573 13.6688 67.3326 13.6829C67.3079 13.697 67.2798 13.7042 67.2514 13.7035Z" fill="#BA68C8"/>
<path d="M80.4742 21.4215C80.4458 21.4216 80.418 21.4135 80.3941 21.3982L79.0588 20.627C79.0404 20.6165 79.0243 20.6025 79.0113 20.5857C78.9983 20.5689 78.9887 20.5498 78.9832 20.5293C78.9776 20.5089 78.9761 20.4875 78.9788 20.4665C78.9814 20.4454 78.9882 20.4251 78.9987 20.4067C79.0093 20.3883 79.0233 20.3721 79.0401 20.3592C79.0568 20.3462 79.076 20.3366 79.0965 20.331C79.1169 20.3255 79.1383 20.324 79.1593 20.3266C79.1804 20.3293 79.2007 20.3361 79.2191 20.3466L80.5544 21.1177C80.5726 21.1284 80.5886 21.1426 80.6013 21.1595C80.6141 21.1764 80.6233 21.1956 80.6286 21.2161C80.6339 21.2366 80.6351 21.2579 80.6321 21.2788C80.629 21.2998 80.6219 21.3199 80.6111 21.3381C80.5982 21.3632 80.5786 21.3844 80.5544 21.3991C80.5303 21.4138 80.5025 21.4216 80.4742 21.4215ZM77.8304 19.8759C77.8024 19.8757 77.775 19.8688 77.7502 19.8559L76.415 19.0848C76.3965 19.0742 76.3804 19.0602 76.3674 19.0434C76.3544 19.0267 76.3449 19.0075 76.3393 18.987C76.3337 18.9666 76.3322 18.9452 76.3349 18.9242C76.3376 18.9032 76.3443 18.8829 76.3549 18.8644C76.3654 18.846 76.3794 18.8299 76.3962 18.8169C76.413 18.8039 76.4321 18.7943 76.4526 18.7888C76.473 18.7832 76.4944 18.7817 76.5154 18.7844C76.5365 18.787 76.5568 18.7938 76.5752 18.8044L77.9105 19.5755C77.9287 19.5862 77.9447 19.6004 77.9574 19.6172C77.9702 19.6341 77.9795 19.6533 77.9847 19.6738C77.99 19.6943 77.9912 19.7156 77.9882 19.7366C77.9852 19.7575 77.9781 19.7776 77.9672 19.7958C77.9542 19.8206 77.9344 19.8412 77.9102 19.8554C77.886 19.8696 77.8584 19.8767 77.8304 19.8759ZM75.1865 18.3337C75.1585 18.3338 75.131 18.3269 75.1064 18.3136L73.7711 17.5425C73.7341 17.5202 73.7071 17.4845 73.6959 17.4428C73.6847 17.4011 73.6901 17.3567 73.711 17.3188C73.7217 17.3006 73.7359 17.2846 73.7527 17.2719C73.7696 17.2591 73.7888 17.2499 73.8093 17.2446C73.8298 17.2393 73.8511 17.2381 73.8721 17.2411C73.893 17.2441 73.9131 17.2513 73.9313 17.2621L75.2666 18.0332C75.2979 18.0505 75.3225 18.0778 75.3365 18.1107C75.3505 18.1436 75.3531 18.1802 75.3439 18.2147C75.3347 18.2493 75.3142 18.2797 75.2857 18.3013C75.2571 18.3228 75.2222 18.3342 75.1865 18.3337ZM72.5426 16.7914C72.5141 16.7924 72.486 16.7842 72.4625 16.768L71.1272 15.9969C71.0904 15.9753 71.0636 15.9401 71.0523 15.899C71.0411 15.8578 71.0464 15.8139 71.0671 15.7766C71.0775 15.7584 71.0913 15.7425 71.1079 15.7298C71.1245 15.7171 71.1435 15.7079 71.1637 15.7026C71.1839 15.6973 71.2049 15.6961 71.2256 15.6991C71.2463 15.702 71.2662 15.7091 71.2841 15.7198L72.6194 16.491C72.6556 16.5131 72.6817 16.5485 72.6923 16.5896C72.7029 16.6308 72.6971 16.6744 72.6761 16.7113C72.6623 16.7347 72.6428 16.7543 72.6195 16.7683C72.5962 16.7822 72.5698 16.7902 72.5426 16.7914ZM69.8954 15.2491C69.867 15.2493 69.8392 15.2411 69.8153 15.2258L68.48 14.4546C68.4438 14.4325 68.4176 14.3971 68.407 14.356C68.3964 14.3148 68.4022 14.2712 68.4232 14.2343C68.4442 14.1978 68.4788 14.171 68.5194 14.1597C68.56 14.1485 68.6034 14.1537 68.6402 14.1742L69.9755 14.9454C70.0123 14.967 70.0391 15.0021 70.0504 15.0433C70.0616 15.0845 70.0563 15.1284 70.0356 15.1657C70.0218 15.1909 70.0016 15.2119 69.9769 15.2266C69.9522 15.2413 69.9241 15.2491 69.8954 15.2491Z" fill="#BA68C8"/>
<path d="M82.4704 22.5865C82.442 22.5866 82.4142 22.5785 82.3903 22.5631L81.7226 22.1692C81.7044 22.1585 81.6884 22.1443 81.6757 22.1274C81.6629 22.1106 81.6536 22.0913 81.6484 22.0708C81.6431 22.0504 81.6419 22.029 81.6449 22.0081C81.6479 21.9872 81.6551 21.967 81.6659 21.9489C81.6759 21.9304 81.6896 21.9141 81.7061 21.9011C81.7227 21.8882 81.7417 21.8787 81.7621 21.8734C81.7824 21.8681 81.8036 21.867 81.8244 21.8702C81.8452 21.8734 81.8651 21.8809 81.8829 21.8921L82.5505 22.2827C82.5873 22.3043 82.6142 22.3395 82.6254 22.3806C82.6366 22.4218 82.6313 22.4657 82.6106 22.503C82.5969 22.5282 82.5766 22.5492 82.5519 22.5639C82.5273 22.5786 82.4991 22.5864 82.4704 22.5865Z" fill="#BA68C8"/>
<g opacity="0.3">
<path opacity="0.3" d="M67.2514 13.7035C67.2235 13.7033 67.196 13.6964 67.1713 13.6835L66.5036 13.2896C66.4854 13.2789 66.4694 13.2647 66.4567 13.2479C66.4439 13.231 66.4347 13.2117 66.4294 13.1913C66.4241 13.1708 66.4229 13.1495 66.4259 13.1285C66.429 13.1076 66.4361 13.0875 66.4469 13.0693C66.4679 13.0327 66.5024 13.006 66.5431 12.9947C66.5837 12.9835 66.6271 12.9887 66.6639 13.0092L67.3315 13.4031C67.3683 13.4247 67.3952 13.4599 67.4064 13.501C67.4176 13.5422 67.4123 13.5861 67.3916 13.6234C67.3777 13.6482 67.3573 13.6688 67.3326 13.6829C67.3079 13.697 67.2798 13.7042 67.2514 13.7035Z" fill="black"/>
<path opacity="0.3" d="M80.4742 21.4216C80.4458 21.4218 80.418 21.4137 80.3941 21.3983L79.0588 20.6271C79.0404 20.6166 79.0243 20.6026 79.0113 20.5858C78.9983 20.5691 78.9887 20.5499 78.9832 20.5294C78.9776 20.509 78.9761 20.4876 78.9788 20.4666C78.9814 20.4455 78.9882 20.4252 78.9987 20.4068C79.0093 20.3884 79.0233 20.3723 79.0401 20.3593C79.0568 20.3463 79.076 20.3367 79.0965 20.3312C79.1169 20.3256 79.1383 20.3241 79.1593 20.3268C79.1804 20.3294 79.2007 20.3362 79.2191 20.3467L80.5544 21.1179C80.5726 21.1285 80.5886 21.1427 80.6013 21.1596C80.6141 21.1765 80.6233 21.1957 80.6286 21.2162C80.6339 21.2367 80.6351 21.258 80.6321 21.279C80.629 21.2999 80.6219 21.32 80.6111 21.3382C80.5982 21.3634 80.5786 21.3845 80.5544 21.3992C80.5303 21.4139 80.5025 21.4217 80.4742 21.4216ZM77.8304 19.876C77.8024 19.8758 77.775 19.8689 77.7502 19.856L76.415 19.0849C76.3965 19.0744 76.3804 19.0603 76.3674 19.0436C76.3544 19.0268 76.3449 19.0076 76.3393 18.9872C76.3337 18.9667 76.3322 18.9454 76.3349 18.9243C76.3376 18.9033 76.3443 18.883 76.3549 18.8646C76.3654 18.8462 76.3794 18.83 76.3962 18.817C76.413 18.804 76.4321 18.7945 76.4526 18.7889C76.473 18.7833 76.4944 18.7818 76.5154 18.7845C76.5365 18.7872 76.5568 18.794 76.5752 18.8045L77.9105 19.5756C77.9287 19.5863 77.9447 19.6005 77.9574 19.6174C77.9702 19.6342 77.9795 19.6535 77.9847 19.6739C77.99 19.6944 77.9912 19.7158 77.9882 19.7367C77.9852 19.7576 77.9781 19.7778 77.9672 19.7959C77.9542 19.8207 77.9344 19.8414 77.9102 19.8555C77.886 19.8697 77.8584 19.8768 77.8304 19.876ZM75.1865 18.3338C75.1585 18.3339 75.131 18.327 75.1064 18.3138L73.7711 17.5426C73.7341 17.5204 73.7071 17.4846 73.6959 17.4429C73.6847 17.4012 73.6901 17.3568 73.711 17.319C73.7217 17.3007 73.7359 17.2847 73.7527 17.272C73.7696 17.2593 73.7888 17.25 73.8093 17.2447C73.8298 17.2394 73.8511 17.2383 73.8721 17.2413C73.893 17.2443 73.9131 17.2514 73.9313 17.2622L75.2666 18.0333C75.2979 18.0506 75.3225 18.0779 75.3365 18.1108C75.3505 18.1437 75.3531 18.1803 75.3439 18.2149C75.3347 18.2494 75.3142 18.2799 75.2857 18.3014C75.2571 18.323 75.2222 18.3344 75.1865 18.3338ZM72.5426 16.7915C72.5141 16.7925 72.486 16.7843 72.4625 16.7682L71.1272 15.997C71.0904 15.9754 71.0636 15.9402 71.0523 15.8991C71.0411 15.8579 71.0464 15.814 71.0671 15.7767C71.0775 15.7586 71.0913 15.7427 71.1079 15.73C71.1245 15.7173 71.1435 15.708 71.1637 15.7027C71.1839 15.6974 71.2049 15.6962 71.2256 15.6992C71.2463 15.7021 71.2662 15.7092 71.2841 15.72L72.6194 16.4911C72.6556 16.5133 72.6817 16.5486 72.6923 16.5898C72.7029 16.6309 72.6971 16.6745 72.6761 16.7114C72.6623 16.7348 72.6428 16.7544 72.6195 16.7684C72.5962 16.7824 72.5698 16.7903 72.5426 16.7915ZM69.8954 15.2493C69.867 15.2494 69.8392 15.2413 69.8153 15.2259L68.48 14.4548C68.4438 14.4326 68.4176 14.3972 68.407 14.3561C68.3964 14.315 68.4022 14.2714 68.4232 14.2344C68.4442 14.1979 68.4788 14.1711 68.5194 14.1599C68.56 14.1486 68.6034 14.1538 68.6402 14.1744L69.9755 14.9455C70.0123 14.9671 70.0391 15.0023 70.0504 15.0434C70.0616 15.0846 70.0563 15.1285 70.0356 15.1658C70.0218 15.191 70.0016 15.212 69.9769 15.2267C69.9522 15.2414 69.9241 15.2492 69.8954 15.2493Z" fill="black"/>
<path opacity="0.3" d="M82.4704 22.5866C82.442 22.5867 82.4142 22.5786 82.3903 22.5632L81.7226 22.1693C81.7044 22.1586 81.6884 22.1444 81.6757 22.1276C81.6629 22.1107 81.6536 22.0914 81.6484 22.071C81.6431 22.0505 81.6419 22.0291 81.6449 22.0082C81.6479 21.9873 81.6551 21.9671 81.6659 21.949C81.6759 21.9305 81.6896 21.9142 81.7061 21.9013C81.7227 21.8883 81.7417 21.8788 81.7621 21.8735C81.7824 21.8682 81.8036 21.8671 81.8244 21.8703C81.8452 21.8736 81.8651 21.881 81.8829 21.8922L82.5505 22.2828C82.5873 22.3044 82.6142 22.3396 82.6254 22.3807C82.6366 22.4219 82.6313 22.4658 82.6106 22.5031C82.5969 22.5283 82.5766 22.5494 82.5519 22.564C82.5273 22.5787 82.4991 22.5865 82.4704 22.5866Z" fill="black"/>
</g>
<path d="M85.1611 37.031C85.1327 37.0312 85.1048 37.023 85.081 37.0077L84.4133 36.6138C84.3951 36.6031 84.3791 36.5889 84.3663 36.572C84.3536 36.5551 84.3443 36.5359 84.339 36.5154C84.3338 36.4949 84.3326 36.4736 84.3356 36.4527C84.3386 36.4317 84.3457 36.4116 84.3566 36.3934C84.3669 36.3753 84.3808 36.3594 84.3974 36.3467C84.414 36.334 84.4329 36.3247 84.4531 36.3194C84.4733 36.3142 84.4944 36.313 84.5151 36.3159C84.5358 36.3189 84.5556 36.3259 84.5736 36.3367L85.2412 36.7306C85.2725 36.7479 85.2971 36.7752 85.3111 36.8081C85.3251 36.8409 85.3277 36.8776 85.3185 36.9121C85.3093 36.9467 85.2888 36.9771 85.2603 36.9987C85.2317 37.0202 85.1968 37.0316 85.1611 37.031Z" fill="#BA68C8"/>
<path d="M98.3972 44.7557C98.3698 44.7562 98.3429 44.7481 98.3204 44.7324L96.9851 43.9613C96.9667 43.9507 96.9505 43.9367 96.9375 43.9199C96.9246 43.9032 96.915 43.884 96.9094 43.8635C96.9038 43.8431 96.9023 43.8217 96.905 43.8007C96.9077 43.7796 96.9145 43.7593 96.925 43.7409C96.9355 43.7225 96.9496 43.7064 96.9663 43.6934C96.9831 43.6804 97.0023 43.6708 97.0227 43.6653C97.0432 43.6597 97.0645 43.6582 97.0856 43.6609C97.1066 43.6635 97.1269 43.6703 97.1453 43.6808L98.4806 44.4553C98.5174 44.4769 98.5443 44.5121 98.5555 44.5532C98.5667 44.5944 98.5614 44.6383 98.5407 44.6756C98.526 44.7005 98.5049 44.721 98.4797 44.735C98.4545 44.7491 98.426 44.7563 98.3972 44.7557ZM95.75 43.2102C95.722 43.2099 95.6946 43.203 95.6698 43.1901L94.3345 42.4157C94.2974 42.3944 94.2701 42.3593 94.2589 42.3179C94.2476 42.2766 94.2532 42.2325 94.2745 42.1953C94.2957 42.1581 94.3309 42.1309 94.3722 42.1197C94.4135 42.1084 94.4576 42.114 94.4948 42.1352L95.8301 42.9097C95.8614 42.927 95.8859 42.9543 95.9 42.9872C95.914 43.02 95.9166 43.0567 95.9073 43.0912C95.8981 43.1258 95.8777 43.1562 95.8491 43.1778C95.8206 43.1993 95.7857 43.2107 95.75 43.2102ZM93.1027 41.6645C93.0748 41.6643 93.0474 41.6574 93.0226 41.6445L91.6873 40.87C91.6506 40.8484 91.6237 40.8133 91.6125 40.7721C91.6012 40.731 91.6065 40.687 91.6272 40.6497C91.6379 40.6315 91.6521 40.6155 91.669 40.6028C91.6859 40.59 91.7051 40.5807 91.7256 40.5755C91.7461 40.5702 91.7674 40.569 91.7883 40.572C91.8093 40.575 91.8294 40.5822 91.8476 40.593L93.1829 41.3641C93.2196 41.3857 93.2465 41.4209 93.2577 41.462C93.2689 41.5032 93.2636 41.5471 93.2429 41.5844C93.229 41.6092 93.2086 41.6298 93.1839 41.6439C93.1592 41.658 93.1312 41.6652 93.1027 41.6645ZM90.4555 40.1356C90.4276 40.1354 90.4002 40.1285 90.3754 40.1156L89.0401 39.3445C89.0033 39.3228 88.9765 39.2877 88.9653 39.2465C88.954 39.2054 88.9593 39.1615 88.98 39.1242C88.9904 39.1056 89.0044 39.0893 89.0212 39.0763C89.0379 39.0632 89.0571 39.0536 89.0776 39.048C89.0981 39.0424 89.1195 39.0409 89.1406 39.0437C89.1617 39.0465 89.182 39.0534 89.2003 39.0641L90.5356 39.8352C90.5724 39.8568 90.5993 39.892 90.6105 39.9331C90.6217 39.9743 90.6164 40.0182 90.5957 40.0555C90.5818 40.0803 90.5614 40.1009 90.5367 40.115C90.512 40.1291 90.484 40.1362 90.4555 40.1356ZM87.8083 38.5934C87.7799 38.5935 87.7521 38.5854 87.7282 38.57L86.3929 37.7989C86.3745 37.7884 86.3583 37.7743 86.3453 37.7575C86.3323 37.7408 86.3228 37.7216 86.3172 37.7012C86.3116 37.6807 86.3101 37.6593 86.3128 37.6383C86.3155 37.6173 86.3223 37.597 86.3328 37.5786C86.3433 37.5601 86.3574 37.544 86.3741 37.531C86.3909 37.518 86.4101 37.5085 86.4305 37.5029C86.451 37.4973 86.4723 37.4958 86.4934 37.4985C86.5144 37.5012 86.5347 37.5079 86.5531 37.5185L87.8884 38.2896C87.9254 38.3119 87.9524 38.3476 87.9636 38.3893C87.9748 38.431 87.9694 38.4754 87.9485 38.5133C87.9321 38.5345 87.9108 38.5514 87.8863 38.5625C87.8619 38.5736 87.8351 38.5784 87.8083 38.5767V38.5934Z" fill="#BA68C8"/>
<path d="M100.397 45.9207C100.369 45.9205 100.341 45.9136 100.317 45.9007L99.6489 45.5068C99.6307 45.4961 99.6147 45.4819 99.602 45.465C99.5892 45.4482 99.5799 45.4289 99.5746 45.4084C99.5694 45.388 99.5682 45.3666 99.5712 45.3457C99.5742 45.3248 99.5813 45.3046 99.5922 45.2865C99.6022 45.268 99.6159 45.2518 99.6324 45.2388C99.6488 45.2257 99.6677 45.2161 99.688 45.2105C99.7082 45.2049 99.7293 45.2034 99.7502 45.2062C99.771 45.2089 99.791 45.2157 99.8091 45.2264L100.477 45.6203C100.495 45.631 100.511 45.6451 100.524 45.662C100.536 45.6789 100.546 45.6981 100.551 45.7186C100.556 45.7391 100.558 45.7604 100.554 45.7814C100.551 45.8023 100.544 45.8224 100.534 45.8406C100.519 45.8645 100.499 45.8843 100.475 45.8984C100.452 45.9124 100.424 45.9201 100.397 45.9207Z" fill="#BA68C8"/>
<g opacity="0.3">
<path opacity="0.3" d="M85.1611 37.031C85.1327 37.0312 85.1048 37.023 85.081 37.0077L84.4133 36.6138C84.3951 36.6031 84.3791 36.5889 84.3663 36.572C84.3536 36.5551 84.3443 36.5359 84.339 36.5154C84.3338 36.4949 84.3326 36.4736 84.3356 36.4527C84.3386 36.4317 84.3457 36.4116 84.3566 36.3934C84.3669 36.3753 84.3808 36.3594 84.3974 36.3467C84.414 36.334 84.4329 36.3247 84.4531 36.3194C84.4733 36.3142 84.4944 36.313 84.5151 36.3159C84.5358 36.3189 84.5556 36.3259 84.5736 36.3367L85.2412 36.7306C85.2725 36.7479 85.2971 36.7752 85.3111 36.8081C85.3251 36.8409 85.3277 36.8776 85.3185 36.9121C85.3093 36.9467 85.2888 36.9771 85.2603 36.9987C85.2317 37.0202 85.1968 37.0316 85.1611 37.031Z" fill="black"/>
<path opacity="0.3" d="M98.3972 44.7559C98.3698 44.7564 98.3429 44.7482 98.3204 44.7325L96.9851 43.9614C96.9667 43.9509 96.9505 43.9368 96.9375 43.92C96.9246 43.9033 96.915 43.8841 96.9094 43.8637C96.9038 43.8432 96.9023 43.8218 96.905 43.8008C96.9077 43.7798 96.9145 43.7595 96.925 43.7411C96.9355 43.7226 96.9496 43.7065 96.9663 43.6935C96.9831 43.6805 97.0023 43.671 97.0227 43.6654C97.0432 43.6598 97.0645 43.6583 97.0856 43.661C97.1066 43.6636 97.1269 43.6704 97.1453 43.681L98.4806 44.4554C98.5174 44.4771 98.5443 44.5122 98.5555 44.5534C98.5667 44.5945 98.5614 44.6384 98.5407 44.6758C98.526 44.7006 98.5049 44.7211 98.4797 44.7352C98.4545 44.7492 98.426 44.7564 98.3972 44.7559ZM95.75 43.2103C95.722 43.21 95.6946 43.2031 95.6698 43.1902L94.3345 42.4158C94.2974 42.3945 94.2701 42.3594 94.2589 42.3181C94.2476 42.2767 94.2532 42.2326 94.2745 42.1954C94.2957 42.1583 94.3309 42.131 94.3722 42.1198C94.4135 42.1085 94.4576 42.1141 94.4948 42.1354L95.8301 42.9098C95.8614 42.9271 95.8859 42.9544 95.9 42.9873C95.914 43.0202 95.9166 43.0568 95.9073 43.0913C95.8981 43.1259 95.8777 43.1564 95.8491 43.1779C95.8206 43.1995 95.7857 43.2109 95.75 43.2103ZM93.1027 41.6647C93.0748 41.6644 93.0474 41.6575 93.0226 41.6446L91.6873 40.8702C91.6506 40.8485 91.6237 40.8134 91.6125 40.7722C91.6012 40.7311 91.6065 40.6872 91.6272 40.6498C91.6379 40.6316 91.6521 40.6156 91.669 40.6029C91.6859 40.5901 91.7051 40.5809 91.7256 40.5756C91.7461 40.5703 91.7674 40.5691 91.7883 40.5721C91.8093 40.5752 91.8294 40.5823 91.8476 40.5931L93.1829 41.3642C93.2196 41.3859 93.2465 41.421 93.2577 41.4622C93.2689 41.5033 93.2636 41.5472 93.2429 41.5846C93.229 41.6094 93.2086 41.6299 93.1839 41.644C93.1592 41.6581 93.1312 41.6653 93.1027 41.6647ZM90.4555 40.1358C90.4276 40.1355 90.4002 40.1286 90.3754 40.1157L89.0401 39.3446C89.0033 39.323 88.9765 39.2878 88.9653 39.2467C88.954 39.2055 88.9593 39.1616 88.98 39.1243C88.9904 39.1057 89.0044 39.0895 89.0212 39.0764C89.0379 39.0633 89.0571 39.0537 89.0776 39.0481C89.0981 39.0425 89.1195 39.0411 89.1406 39.0438C89.1617 39.0466 89.182 39.0535 89.2003 39.0642L90.5356 39.8353C90.5724 39.857 90.5993 39.8921 90.6105 39.9333C90.6217 39.9744 90.6164 40.0183 90.5957 40.0556C90.5818 40.0805 90.5614 40.101 90.5367 40.1151C90.512 40.1292 90.484 40.1364 90.4555 40.1358ZM87.8083 38.5935C87.7799 38.5936 87.7521 38.5855 87.7282 38.5701L86.3929 37.799C86.3745 37.7885 86.3583 37.7744 86.3453 37.7577C86.3323 37.7409 86.3228 37.7217 86.3172 37.7013C86.3116 37.6808 86.3101 37.6595 86.3128 37.6384C86.3155 37.6174 86.3223 37.5971 86.3328 37.5787C86.3433 37.5603 86.3574 37.5441 86.3741 37.5311C86.3909 37.5181 86.4101 37.5086 86.4305 37.503C86.451 37.4974 86.4723 37.4959 86.4934 37.4986C86.5144 37.5013 86.5347 37.5081 86.5531 37.5186L87.8884 38.2897C87.9254 38.312 87.9524 38.3477 87.9636 38.3894C87.9748 38.4311 87.9694 38.4756 87.9485 38.5134C87.9321 38.5346 87.9108 38.5516 87.8863 38.5626C87.8619 38.5737 87.8351 38.5785 87.8083 38.5768V38.5935Z" fill="black"/>
<path opacity="0.3" d="M100.397 45.9208C100.369 45.9206 100.341 45.9137 100.317 45.9008L99.6489 45.5069C99.6307 45.4962 99.6147 45.482 99.602 45.4652C99.5892 45.4483 99.5799 45.429 99.5746 45.4086C99.5694 45.3881 99.5682 45.3667 99.5712 45.3458C99.5742 45.3249 99.5813 45.3047 99.5922 45.2866C99.6022 45.2682 99.6159 45.2519 99.6324 45.2389C99.6488 45.2259 99.6677 45.2162 99.688 45.2106C99.7082 45.205 99.7293 45.2036 99.7502 45.2063C99.771 45.209 99.791 45.2159 99.8091 45.2265L100.477 45.6204C100.495 45.6311 100.511 45.6453 100.524 45.6621C100.536 45.679 100.546 45.6983 100.551 45.7187C100.556 45.7392 100.558 45.7605 100.554 45.7815C100.551 45.8024 100.544 45.8225 100.534 45.8407C100.519 45.8646 100.499 45.8845 100.475 45.8985C100.452 45.9125 100.424 45.9202 100.397 45.9208Z" fill="black"/>
</g>
<path d="M101.432 69.9024C101.404 69.9017 101.377 69.894 101.353 69.88C101.329 69.866 101.309 69.8461 101.295 69.8223C101.274 69.7854 101.268 69.7417 101.279 69.7006C101.289 69.6595 101.315 69.6241 101.352 69.602L102.019 69.208C102.056 69.1875 102.099 69.1823 102.14 69.1936C102.181 69.2048 102.215 69.2316 102.236 69.2681C102.257 69.3054 102.262 69.3494 102.251 69.3905C102.24 69.4317 102.213 69.4668 102.176 69.4885L101.508 69.8824C101.485 69.8954 101.459 69.9023 101.432 69.9024Z" fill="#BA68C8"/>
<path d="M103.638 68.6174C103.61 68.6178 103.583 68.6105 103.559 68.5964C103.535 68.5823 103.515 68.5619 103.501 68.5373C103.49 68.5193 103.483 68.4991 103.479 68.4781C103.476 68.457 103.477 68.4356 103.482 68.415C103.488 68.3944 103.497 68.375 103.51 68.3582C103.523 68.3414 103.54 68.3273 103.558 68.317L105.087 67.4223C105.105 67.4117 105.126 67.4047 105.147 67.402C105.168 67.3992 105.189 67.4007 105.21 67.4063C105.23 67.4118 105.25 67.4215 105.266 67.4345C105.283 67.4476 105.297 67.4639 105.307 67.4824C105.328 67.5197 105.333 67.5637 105.322 67.6048C105.311 67.646 105.284 67.6811 105.247 67.7028L103.715 68.5941C103.692 68.6088 103.666 68.6169 103.638 68.6174ZM106.699 66.8315C106.671 66.8314 106.643 66.824 106.619 66.8099C106.594 66.7959 106.574 66.7757 106.559 66.7514C106.539 66.714 106.533 66.6701 106.544 66.629C106.556 66.5878 106.583 66.5527 106.619 66.531L108.148 65.6364C108.185 65.6151 108.23 65.6095 108.271 65.6208C108.312 65.6321 108.347 65.6593 108.369 65.6965C108.39 65.7337 108.395 65.7778 108.384 65.8191C108.373 65.8604 108.346 65.8956 108.308 65.9168L106.78 66.8081C106.757 66.827 106.729 66.8387 106.699 66.8415V66.8315Z" fill="#BA68C8"/>
<path d="M109.761 65.0453C109.732 65.0452 109.704 65.0378 109.68 65.0238C109.655 65.0097 109.635 64.9896 109.62 64.9652C109.6 64.9279 109.594 64.884 109.606 64.8428C109.617 64.8017 109.644 64.7665 109.68 64.7449L110.111 64.4912L109.68 64.2375C109.662 64.227 109.646 64.2129 109.633 64.1961C109.62 64.1794 109.61 64.1602 109.605 64.1398C109.599 64.1193 109.598 64.0979 109.6 64.0769C109.603 64.0559 109.61 64.0356 109.62 64.0172C109.631 63.9987 109.645 63.9826 109.662 63.9696C109.678 63.9566 109.698 63.9471 109.718 63.9415C109.739 63.9359 109.76 63.9344 109.781 63.9371C109.802 63.9398 109.822 63.9465 109.841 63.9571L110.508 64.351C110.539 64.3698 110.562 64.3977 110.575 64.4307C110.588 64.4638 110.591 64.5001 110.582 64.5346C110.575 64.5596 110.562 64.5826 110.545 64.6017C110.528 64.6209 110.506 64.6356 110.482 64.6447L109.814 65.022C109.798 65.0337 109.78 65.0417 109.761 65.0453Z" fill="#BA68C8"/>
<path d="M108.432 63.4831C108.404 63.4835 108.376 63.4766 108.352 63.463L107.016 62.6886C106.98 62.6669 106.953 62.6318 106.942 62.5906C106.93 62.5495 106.936 62.5055 106.956 62.4682C106.966 62.4498 106.98 62.4336 106.996 62.4206C107.013 62.4075 107.032 62.3979 107.052 62.3923C107.072 62.3867 107.093 62.3852 107.114 62.3879C107.135 62.3907 107.155 62.3975 107.173 62.4081L108.509 63.1826C108.545 63.2048 108.571 63.2402 108.582 63.2813C108.592 63.3224 108.586 63.366 108.565 63.4029C108.552 63.4268 108.533 63.4467 108.509 63.4607C108.486 63.4748 108.459 63.4825 108.432 63.4831ZM105.761 61.9341C105.734 61.9346 105.707 61.9264 105.684 61.9108L104.349 61.1363C104.313 61.1141 104.287 61.0787 104.276 61.0376C104.266 60.9965 104.271 60.9529 104.292 60.916C104.313 60.8794 104.348 60.8526 104.389 60.8414C104.429 60.8301 104.473 60.8353 104.509 60.8559L105.845 61.6303C105.882 61.6526 105.909 61.6883 105.92 61.7301C105.931 61.7718 105.926 61.8162 105.905 61.854C105.891 61.8774 105.871 61.897 105.848 61.911C105.825 61.925 105.798 61.9329 105.771 61.9341H105.761Z" fill="#BA68C8"/>
<path d="M103.114 60.3818C103.086 60.3815 103.059 60.3746 103.034 60.3617L102.366 59.9678C102.33 59.9456 102.304 59.9103 102.293 59.8691C102.283 59.828 102.288 59.7844 102.309 59.7475C102.33 59.711 102.365 59.6842 102.406 59.6729C102.446 59.6617 102.49 59.6669 102.526 59.6874L103.194 60.0813C103.225 60.0986 103.25 60.1259 103.264 60.1588C103.278 60.1917 103.281 60.2283 103.271 60.2628C103.262 60.2974 103.242 60.3278 103.213 60.3494C103.185 60.3709 103.15 60.3823 103.114 60.3818Z" fill="#BA68C8"/>
<path d="M100.754 83.1719C100.726 83.1719 100.699 83.1645 100.675 83.1504C100.65 83.1364 100.631 83.1161 100.617 83.0918C100.596 83.0545 100.591 83.0106 100.602 82.9694C100.613 82.9283 100.64 82.8931 100.677 82.8715L101.345 82.4776C101.382 82.457 101.425 82.4518 101.466 82.4631C101.506 82.4743 101.541 82.5011 101.562 82.5377C101.582 82.575 101.588 82.6189 101.576 82.66C101.565 82.7012 101.538 82.7363 101.502 82.758L100.834 83.1519C100.809 83.1655 100.782 83.1724 100.754 83.1719Z" fill="#BA68C8"/>
<path d="M85.3848 92.1417C85.3569 92.1417 85.3295 92.1343 85.3055 92.1202C85.2814 92.1061 85.2616 92.0859 85.2479 92.0616C85.2371 92.0434 85.23 92.0233 85.227 92.0023C85.224 91.9814 85.2251 91.9601 85.2304 91.9396C85.2357 91.9191 85.245 91.8999 85.2577 91.883C85.2705 91.8661 85.2864 91.8519 85.3047 91.8412L86.5865 91.0935C86.6234 91.0729 86.6668 91.0677 86.7074 91.079C86.748 91.0902 86.7825 91.117 86.8035 91.1536C86.8144 91.1717 86.8215 91.1919 86.8245 91.2128C86.8275 91.2337 86.8263 91.2551 86.821 91.2755C86.8158 91.296 86.8065 91.3153 86.7938 91.3321C86.781 91.349 86.765 91.3632 86.7468 91.3739L85.4649 92.1217C85.4403 92.1349 85.4127 92.1418 85.3848 92.1417ZM87.9485 90.6462C87.9201 90.6468 87.892 90.6396 87.8673 90.6255C87.8427 90.6114 87.8223 90.5908 87.8083 90.566C87.7876 90.5287 87.7823 90.4848 87.7936 90.4437C87.8048 90.4025 87.8317 90.3673 87.8684 90.3457L89.147 89.598C89.1654 89.5874 89.1857 89.5806 89.2067 89.578C89.2278 89.5753 89.2491 89.5768 89.2696 89.5824C89.29 89.5879 89.3092 89.5975 89.326 89.6105C89.3427 89.6235 89.3568 89.6396 89.3673 89.658C89.3778 89.6765 89.3846 89.6968 89.3873 89.7178C89.39 89.7388 89.3885 89.7602 89.3829 89.7806C89.3773 89.8011 89.3677 89.8203 89.3548 89.837C89.3418 89.8538 89.3256 89.8678 89.3072 89.8784L88.0253 90.6261C88.0019 90.6394 87.9754 90.6463 87.9485 90.6462ZM90.509 89.154C90.481 89.1543 90.4535 89.1471 90.4294 89.1329C90.4053 89.1188 90.3855 89.0984 90.3721 89.0738C90.3501 89.0366 90.3437 88.9922 90.3543 88.9503C90.3649 88.9084 90.3918 88.8724 90.4289 88.8502L91.6974 88.1058C91.7153 88.095 91.7352 88.0879 91.7559 88.085C91.7765 88.082 91.7976 88.0832 91.8178 88.0885C91.838 88.0938 91.857 88.1031 91.8735 88.1158C91.8901 88.1285 91.904 88.1444 91.9144 88.1625C91.9353 88.1994 91.9412 88.243 91.9306 88.2842C91.92 88.3253 91.8938 88.3607 91.8576 88.3828L90.5757 89.1306C90.5557 89.1437 90.5328 89.1517 90.509 89.154ZM93.0694 87.6584C93.0416 87.6578 93.0145 87.6501 92.9906 87.6361C92.9667 87.6221 92.9467 87.6022 92.9325 87.5783C92.9115 87.5414 92.9057 87.4978 92.9163 87.4567C92.9269 87.4156 92.9531 87.3802 92.9893 87.358L94.2711 86.6102C94.2889 86.599 94.3088 86.5916 94.3296 86.5883C94.3504 86.5851 94.3716 86.5862 94.392 86.5915C94.4123 86.5969 94.4313 86.6063 94.4479 86.6193C94.4644 86.6323 94.4781 86.6485 94.4881 86.667C94.4994 86.685 94.5069 86.7052 94.5102 86.7262C94.5134 86.7472 94.5124 86.7687 94.5071 86.7893C94.5018 86.8099 94.4923 86.8293 94.4793 86.8461C94.4663 86.8629 94.45 86.877 94.4314 86.8873L93.1495 87.6351C93.1258 87.6508 93.0978 87.659 93.0694 87.6584ZM95.6332 86.1629C95.5974 86.1635 95.5625 86.1521 95.534 86.1305C95.5055 86.109 95.485 86.0785 95.4757 86.044C95.4665 86.0094 95.4691 85.9728 95.4831 85.9399C95.4971 85.907 95.5217 85.8798 95.553 85.8625L96.8349 85.1147C96.853 85.1041 96.8731 85.0972 96.8939 85.0945C96.9147 85.0918 96.9359 85.0933 96.9561 85.0989C96.9763 85.1045 96.9952 85.1141 97.0117 85.1271C97.0282 85.1402 97.0418 85.1564 97.0519 85.1748C97.0726 85.2121 97.0779 85.256 97.0667 85.2972C97.0554 85.3383 97.0286 85.3735 96.9918 85.3951L95.7033 86.1429C95.6815 86.1544 95.6577 86.1612 95.6332 86.1629ZM98.1936 84.6674C98.1656 84.6681 98.1379 84.661 98.1137 84.6469C98.0895 84.6327 98.0698 84.6121 98.0567 84.5873C98.0459 84.5691 98.0388 84.549 98.0358 84.528C98.0327 84.5071 98.0339 84.4858 98.0392 84.4653C98.0445 84.4448 98.0537 84.4256 98.0665 84.4087C98.0792 84.3918 98.0952 84.3776 98.1135 84.3669L99.3953 83.6192C99.4321 83.5987 99.4755 83.5934 99.5162 83.6047C99.5568 83.6159 99.5913 83.6427 99.6123 83.6793C99.6231 83.6974 99.6303 83.7176 99.6333 83.7385C99.6363 83.7594 99.6351 83.7808 99.6298 83.8013C99.6246 83.8217 99.6153 83.841 99.6025 83.8578C99.5898 83.8747 99.5738 83.8889 99.5556 83.8996L98.2737 84.6474C98.2489 84.6603 98.2215 84.6671 98.1936 84.6674Z" fill="#BA68C8"/>
<path d="M83.4285 93.2834C83.4008 93.2827 83.3737 93.275 83.3497 93.261C83.3258 93.247 83.3058 93.2271 83.2916 93.2033C83.2707 93.1664 83.2648 93.1227 83.2754 93.0816C83.286 93.0405 83.3122 93.0051 83.3484 92.9829L84.016 92.589C84.0341 92.5784 84.0542 92.5715 84.075 92.5688C84.0958 92.5661 84.117 92.5676 84.1372 92.5732C84.1575 92.5788 84.1764 92.5884 84.1928 92.6014C84.2093 92.6145 84.223 92.6307 84.233 92.6491C84.2537 92.6864 84.259 92.7303 84.2478 92.7715C84.2366 92.8127 84.2097 92.8478 84.1729 92.8694L83.5053 93.2634C83.4818 93.2764 83.4554 93.2833 83.4285 93.2834Z" fill="#BA68C8"/>
<path d="M82.7509 106.566C82.723 106.566 82.6956 106.559 82.6716 106.545C82.6475 106.531 82.6277 106.51 82.614 106.486C82.5939 106.449 82.5885 106.406 82.599 106.365C82.6096 106.324 82.6352 106.288 82.6708 106.266L83.3384 105.872C83.3752 105.851 83.4186 105.846 83.4592 105.857C83.4998 105.868 83.5344 105.895 83.5554 105.932C83.5761 105.969 83.5814 106.013 83.5702 106.054C83.5589 106.095 83.5321 106.131 83.4953 106.152L82.8277 106.546C82.8041 106.559 82.7777 106.566 82.7509 106.566Z" fill="#BA68C8"/>
<path d="M67.3816 115.523C67.3536 115.524 67.3259 115.516 67.3017 115.502C67.2776 115.488 67.2578 115.467 67.2447 115.443C67.2339 115.424 67.2268 115.404 67.2238 115.383C67.2208 115.362 67.222 115.341 67.2272 115.321C67.2325 115.3 67.2418 115.281 67.2545 115.264C67.2673 115.247 67.2832 115.233 67.3015 115.222L68.5834 114.475C68.6202 114.454 68.6636 114.449 68.7042 114.46C68.7448 114.471 68.7794 114.498 68.8004 114.535C68.8112 114.553 68.8183 114.573 68.8213 114.594C68.8243 114.615 68.8231 114.636 68.8179 114.657C68.8126 114.677 68.8033 114.696 68.7906 114.713C68.7778 114.73 68.7619 114.744 68.7436 114.755L67.4617 115.503C67.437 115.516 67.4095 115.523 67.3816 115.523ZM69.942 114.027C69.9142 114.027 69.8868 114.02 69.8627 114.006C69.8387 113.992 69.8188 113.971 69.8052 113.947C69.785 113.91 69.7797 113.867 69.7902 113.826C69.8007 113.785 69.8263 113.75 69.8619 113.727L71.1438 112.979C71.1622 112.969 71.1825 112.962 71.2036 112.959C71.2246 112.956 71.2459 112.958 71.2664 112.963C71.2869 112.969 71.306 112.979 71.3228 112.992C71.3396 113.005 71.3536 113.021 71.3641 113.039C71.3746 113.058 71.3814 113.078 71.3841 113.099C71.3868 113.12 71.3853 113.141 71.3797 113.162C71.3741 113.182 71.3646 113.201 71.3516 113.218C71.3386 113.235 71.3224 113.249 71.304 113.259L70.0222 114.007C69.9977 114.021 69.97 114.028 69.942 114.027ZM72.5058 112.535C72.4771 112.535 72.4489 112.527 72.4243 112.513C72.3996 112.498 72.3793 112.477 72.3656 112.452C72.3449 112.414 72.3396 112.37 72.3508 112.329C72.362 112.288 72.3889 112.253 72.4257 112.231L73.7076 111.487C73.7255 111.476 73.7453 111.469 73.766 111.466C73.7867 111.463 73.8078 111.464 73.828 111.47C73.8482 111.475 73.8671 111.484 73.8837 111.497C73.9003 111.51 73.9142 111.525 73.9245 111.544C73.9452 111.581 73.9505 111.625 73.9393 111.666C73.9281 111.707 73.9012 111.742 73.8644 111.764L72.5859 112.512C72.562 112.527 72.5342 112.535 72.5058 112.535ZM75.0662 111.04C75.0305 111.04 74.9956 111.029 74.967 111.007C74.9385 110.986 74.918 110.955 74.9088 110.921C74.8996 110.886 74.9022 110.849 74.9162 110.817C74.9302 110.784 74.9548 110.756 74.9861 110.739L76.268 109.991C76.2858 109.98 76.3057 109.973 76.3264 109.969C76.3472 109.966 76.3684 109.967 76.3888 109.973C76.4091 109.978 76.4282 109.987 76.4447 110C76.4612 110.013 76.4749 110.03 76.485 110.048C76.4962 110.066 76.5038 110.086 76.507 110.107C76.5103 110.128 76.5092 110.15 76.5039 110.17C76.4986 110.191 76.4891 110.21 76.4761 110.227C76.4631 110.244 76.4468 110.258 76.4282 110.268L75.1463 111.016C75.1226 111.032 75.0947 111.04 75.0662 111.04ZM77.63 109.544C77.5942 109.545 77.5593 109.533 77.5308 109.512C77.5023 109.49 77.4818 109.46 77.4726 109.425C77.4634 109.391 77.466 109.354 77.48 109.321C77.494 109.288 77.5186 109.261 77.5499 109.244L78.8284 108.496C78.8468 108.485 78.8671 108.478 78.8882 108.475C78.9092 108.473 78.9306 108.474 78.9511 108.48C78.9716 108.485 78.9908 108.495 79.0076 108.508C79.0243 108.521 79.0383 108.537 79.0487 108.556C79.0694 108.593 79.0747 108.637 79.0635 108.678C79.0523 108.719 79.0254 108.755 78.9886 108.776L77.7068 109.524C77.6834 109.537 77.6569 109.544 77.63 109.544ZM80.1904 108.048C80.1624 108.049 80.1347 108.042 80.1105 108.028C80.0863 108.014 80.0666 107.993 80.0535 107.968C80.0427 107.95 80.0356 107.93 80.0326 107.909C80.0296 107.888 80.0307 107.867 80.036 107.846C80.0413 107.826 80.0506 107.807 80.0633 107.79C80.0761 107.773 80.092 107.759 80.1103 107.748L81.3922 107C81.429 106.98 81.4724 106.975 81.513 106.986C81.5536 106.997 81.5881 107.024 81.6091 107.06C81.6293 107.097 81.6346 107.141 81.6241 107.182C81.6136 107.223 81.588 107.258 81.5524 107.281L80.2705 108.028C80.2458 108.041 80.2183 108.048 80.1904 108.048Z" fill="#BA68C8"/>
<path d="M65.4256 116.664C65.3978 116.664 65.3707 116.656 65.3468 116.642C65.3228 116.628 65.3029 116.608 65.2887 116.584C65.2677 116.547 65.2619 116.504 65.2725 116.463C65.2831 116.422 65.3093 116.386 65.3455 116.364L66.0131 115.97C66.0315 115.959 66.0518 115.952 66.0729 115.95C66.0939 115.947 66.1153 115.948 66.1358 115.954C66.1564 115.96 66.1755 115.969 66.1923 115.982C66.209 115.995 66.223 116.012 66.2334 116.03C66.2541 116.068 66.2594 116.111 66.2482 116.153C66.237 116.194 66.2101 116.229 66.1733 116.251L65.5057 116.644C65.4811 116.658 65.4535 116.665 65.4256 116.664Z" fill="#BA68C8"/>
<path d="M75.961 18.624C75.4845 18.8691 74.9563 18.997 74.4204 18.997C73.8845 18.997 73.3564 18.8691 72.8798 18.624C72.0319 18.13 72.0319 17.3254 72.8798 16.828C73.3564 16.5829 73.8845 16.4551 74.4204 16.4551C74.9563 16.4551 75.4845 16.5829 75.961 16.828C76.8123 17.3254 76.8123 18.13 75.961 18.624Z" fill="#455A64"/>
<path d="M74.4221 9.07667V1.84607L83.7658 5.46137L74.4221 9.07667Z" fill="#BA68C8"/>
<path d="M74.4219 18.0498C74.3333 18.0498 74.2484 18.0146 74.1858 17.952C74.1232 17.8894 74.0881 17.8045 74.0881 17.716V0.427293C74.0735 0.377542 74.0708 0.325095 74.0801 0.274107C74.0894 0.223118 74.1104 0.174988 74.1415 0.133528C74.1726 0.0920689 74.2129 0.0584188 74.2592 0.0352423C74.3056 0.0120657 74.3567 0 74.4085 0C74.4604 0 74.5115 0.0120657 74.5578 0.0352423C74.6042 0.0584188 74.6445 0.0920689 74.6756 0.133528C74.7067 0.174988 74.7277 0.223118 74.737 0.274107C74.7462 0.325095 74.7435 0.377542 74.729 0.427293V17.726C74.7268 17.8084 74.6942 17.887 74.6375 17.9468C74.5808 18.0065 74.504 18.0432 74.4219 18.0498Z" fill="#263238"/>
<path d="M80.5904 30.9063C80.7131 30.6909 80.8005 30.5272 80.8523 30.415C80.9042 30.3029 80.9301 30.2048 80.9301 30.1208C80.9301 30.0368 80.9025 29.9819 80.8471 29.956C80.7918 29.9282 80.7218 29.9389 80.6371 29.9882C80.4884 30.0746 80.3648 30.2345 80.2662 30.4678L80.0198 30.446C80.0993 30.2618 80.1867 30.107 80.2818 29.9818C80.3786 29.8555 80.5022 29.7486 80.6526 29.6611C80.8048 29.5727 80.9379 29.5513 81.052 29.5969C81.1661 29.6406 81.2232 29.7584 81.2232 29.9504C81.2232 30.0584 81.199 30.1755 81.1506 30.3016C81.1022 30.4278 81.0131 30.6055 80.8835 30.8349L80.4581 31.5832L81.2803 31.1052V31.4442L80.0406 32.165V31.865L80.5904 30.9063ZM81.9724 29.4128C81.9015 29.598 81.8661 29.8077 81.8661 30.0417C81.8661 30.2757 81.9015 30.444 81.9724 30.5468C82.045 30.6486 82.1574 30.6553 82.3095 30.5668C82.4617 30.4783 82.5724 30.343 82.6415 30.1608C82.7124 29.9756 82.7479 29.765 82.7479 29.529C82.7479 29.293 82.7124 29.1246 82.6415 29.0238C82.5724 28.92 82.4617 28.9123 82.3095 29.0008C82.1574 29.0893 82.045 29.2266 81.9724 29.4128ZM81.7545 30.8985C81.6318 30.7719 81.5704 30.5435 81.5704 30.2135C81.5704 29.8835 81.6318 29.5849 81.7545 29.3175C81.8773 29.0481 82.0623 28.8416 82.3095 28.6978C82.5568 28.5541 82.7418 28.5455 82.8646 28.6721C82.9873 28.7968 83.0487 29.0241 83.0487 29.3541C83.0487 29.6841 82.9873 29.9838 82.8646 30.2531C82.7418 30.5205 82.5568 30.7261 82.3095 30.8698C82.0623 31.0136 81.8773 31.0231 81.7545 30.8985ZM84.1211 27.9746C83.9603 28.0681 83.8418 28.1999 83.7657 28.3702C83.6897 28.5404 83.6508 28.733 83.649 28.948C83.6923 28.8669 83.7545 28.7787 83.8358 28.6835C83.917 28.5862 84.0069 28.5089 84.1055 28.4516C84.268 28.3572 84.4038 28.3412 84.5127 28.4039C84.6233 28.4636 84.6787 28.5974 84.6787 28.8054C84.6787 29.0114 84.619 29.2121 84.4997 29.4075C84.3821 29.6018 84.2334 29.7513 84.0536 29.8558C83.7632 30.0247 83.5626 29.9913 83.4519 29.7556C83.3897 29.6198 83.3586 29.4439 83.3586 29.2279C83.3586 29.0119 83.3785 28.8204 83.4182 28.6532C83.458 28.4861 83.5124 28.3404 83.5816 28.2162C83.7165 27.9738 83.8816 27.7958 84.077 27.6822C84.2741 27.5676 84.4522 27.5351 84.6112 27.5846L84.4582 27.9346C84.4185 27.9177 84.3649 27.9129 84.2974 27.9201C84.2317 27.9263 84.1729 27.9444 84.1211 27.9746ZM84.064 28.7878C83.9603 28.8481 83.8729 28.9329 83.8021 29.0421C83.7329 29.1483 83.6983 29.2554 83.6983 29.3634C83.6983 29.4694 83.732 29.5418 83.7995 29.5806C83.8669 29.6174 83.9516 29.6061 84.0536 29.5468C84.1556 29.4875 84.2404 29.4042 84.3078 29.297C84.3752 29.1878 84.4089 29.0802 84.4089 28.9742C84.4089 28.8662 84.3778 28.7933 84.3156 28.7555C84.2533 28.7157 84.1695 28.7265 84.064 28.7878ZM85.3663 27.4397C85.2954 27.6249 85.2599 27.8345 85.2599 28.0685C85.2599 28.3025 85.2954 28.4709 85.3663 28.5737C85.4389 28.6754 85.5513 28.6821 85.7034 28.5936C85.8556 28.5052 85.9662 28.3698 86.0354 28.1876C86.1063 28.0024 86.1417 27.7918 86.1417 27.5558C86.1417 27.3198 86.1063 27.1514 86.0354 27.0506C85.9662 26.9468 85.8556 26.9392 85.7034 27.0276C85.5513 27.1161 85.4389 27.2534 85.3663 27.4397ZM85.1484 28.9253C85.0256 28.7987 84.9643 28.5704 84.9643 28.2404C84.9643 27.9104 85.0256 27.6117 85.1484 27.3443C85.2712 27.0749 85.4562 26.8684 85.7034 26.7246C85.9507 26.5809 86.1357 26.5723 86.2584 26.6989C86.3812 26.8236 86.4426 27.0509 86.4426 27.3809C86.4426 27.7109 86.3812 28.0106 86.2584 28.2799C86.1357 28.5473 85.9507 28.7529 85.7034 28.8966C85.4562 29.0404 85.2712 29.0499 85.1484 28.9253Z" fill="#F4F4F4"/>
<path d="M98.6534 54.2539C98.7761 54.0385 98.8635 53.8747 98.9153 53.7626C98.9672 53.6504 98.9931 53.5523 98.9931 53.4683C98.9931 53.3843 98.9655 53.3294 98.9101 53.3036C98.8548 53.2757 98.7848 53.2865 98.7001 53.3357C98.5514 53.4222 98.4277 53.582 98.3292 53.8153L98.0828 53.7936C98.1623 53.6093 98.2497 53.4546 98.3447 53.3293C98.4416 53.203 98.5652 53.0961 98.7156 53.0087C98.8678 52.9202 99.0009 52.8988 99.115 52.9445C99.2291 52.9881 99.2862 53.1059 99.2862 53.2979C99.2862 53.4059 99.262 53.523 99.2136 53.6492C99.1652 53.7753 99.0761 53.9531 98.9464 54.1825L98.5211 54.9308L99.3433 54.4528V54.7918L98.1035 55.5125V55.2125L98.6534 54.2539ZM100.035 52.7604C99.9645 52.9456 99.929 53.1552 99.929 53.3892C99.929 53.6232 99.9645 53.7916 100.035 53.8944C100.108 53.9961 100.22 54.0028 100.373 53.9143C100.525 53.8259 100.635 53.6905 100.705 53.5083C100.775 53.3231 100.811 53.1125 100.811 52.8765C100.811 52.6405 100.775 52.4721 100.705 52.3713C100.635 52.2675 100.525 52.2599 100.373 52.3483C100.22 52.4368 100.108 52.5741 100.035 52.7604ZM99.8175 54.246C99.6948 54.1194 99.6334 53.8911 99.6334 53.5611C99.6334 53.2311 99.6948 52.9324 99.8175 52.665C99.9403 52.3957 100.125 52.1891 100.373 52.0453C100.62 51.9016 100.805 51.893 100.928 52.0197C101.05 52.1443 101.112 52.3716 101.112 52.7016C101.112 53.0316 101.05 53.3313 100.928 53.6007C100.805 53.868 100.62 54.0736 100.373 54.2173C100.125 54.3611 99.9403 54.3707 99.8175 54.246ZM102.526 50.8411V51.1621L101.761 51.6069V52.1229C101.837 52.0307 101.924 51.9564 102.021 51.9001C102.19 51.8016 102.336 51.7757 102.459 51.8223C102.582 51.8689 102.643 51.9932 102.643 52.1952C102.643 52.3972 102.579 52.6024 102.451 52.8108C102.323 53.0172 102.166 53.1747 101.979 53.2833C101.735 53.425 101.541 53.4441 101.396 53.3405L101.559 52.9875C101.573 52.9955 101.591 53.0039 101.613 53.0129C101.638 53.0208 101.686 53.0226 101.759 53.0184C101.831 53.0122 101.911 52.984 101.997 52.9337C102.084 52.8834 102.162 52.8077 102.233 52.7065C102.304 52.6053 102.34 52.4977 102.34 52.3837C102.34 52.2677 102.302 52.2008 102.226 52.183C102.151 52.1622 102.056 52.1855 101.94 52.2529C101.826 52.3192 101.717 52.4156 101.613 52.5419L101.484 52.4553V51.4473L102.526 50.8411ZM103.323 50.849C103.252 51.0342 103.217 51.2439 103.217 51.4779C103.217 51.7119 103.252 51.8802 103.323 51.983C103.395 52.0848 103.508 52.0915 103.66 52.003C103.812 51.9145 103.923 51.7792 103.992 51.597C104.063 51.4118 104.098 51.2012 104.098 50.9652C104.098 50.7292 104.063 50.5608 103.992 50.46C103.923 50.3562 103.812 50.3485 103.66 50.437C103.508 50.5255 103.395 50.6628 103.323 50.849ZM103.105 52.3347C102.982 52.2081 102.921 51.9797 102.921 51.6497C102.921 51.3197 102.982 51.0211 103.105 50.7537C103.228 50.4843 103.413 50.2778 103.66 50.134C103.907 49.9903 104.092 49.9817 104.215 50.1083C104.338 50.233 104.399 50.4603 104.399 50.7903C104.399 51.1203 104.338 51.42 104.215 51.6893C104.092 51.9567 103.907 52.1623 103.66 52.306C103.413 52.4498 103.228 52.4593 103.105 52.3347Z" fill="#F4F4F4"/>
<path d="M98.5167 74.3065C98.6394 74.2339 98.7267 74.1716 98.7786 74.1198C98.8305 74.068 98.8564 74 98.8564 73.916C98.8564 73.832 98.8287 73.7449 98.7734 73.6548C98.7181 73.5626 98.6481 73.4919 98.5633 73.4426C98.4146 73.3562 98.291 73.3723 98.1925 73.491L97.9461 73.1828C98.0256 73.091 98.1129 73.0378 98.208 73.0231C98.3049 73.0094 98.4285 73.0462 98.5789 73.1337C98.7311 73.2222 98.8642 73.3556 98.9783 73.5339C99.0924 73.7102 99.1495 73.8944 99.1495 74.0864C99.1495 74.1944 99.1253 74.2833 99.0769 74.3532C99.0284 74.4231 98.9394 74.4973 98.8097 74.5759L98.3844 74.8296L99.2065 75.3076V75.6466L97.9668 74.9258V74.6258L98.5167 74.3065ZM99.8987 74.42C99.8278 74.5228 99.7923 74.6912 99.7923 74.9252C99.7923 75.1592 99.8278 75.3688 99.8987 75.554C99.9713 75.7402 100.084 75.8776 100.236 75.966C100.388 76.0545 100.499 76.0478 100.568 75.946C100.639 75.8432 100.674 75.6738 100.674 75.4378C100.674 75.2018 100.639 74.9922 100.568 74.809C100.499 74.6248 100.388 74.4885 100.236 74.4C100.084 74.3116 99.9713 74.3182 99.8987 74.42ZM99.6808 75.6523C99.558 75.383 99.4967 75.0833 99.4967 74.7533C99.4967 74.4233 99.558 74.196 99.6808 74.0713C99.8036 73.9447 99.9886 73.9533 100.236 74.097C100.483 74.2408 100.668 74.4473 100.791 74.7167C100.914 74.9841 100.975 75.2828 100.975 75.6128C100.975 75.9428 100.914 76.1711 100.791 76.2977C100.668 76.4223 100.483 76.4128 100.236 76.269C99.9886 76.1253 99.8036 75.9197 99.6808 75.6523ZM102.003 76.4236V76.0396L102.294 76.2085V76.5925L102.512 76.7191V77.0401L102.294 76.9135V77.4415L102.003 77.2726V76.7446L101.225 76.2922V75.9802L101.892 75.1107L102.226 75.3053L101.57 76.1718L102.003 76.4236ZM103.168 76.321C103.098 76.4238 103.062 76.5922 103.062 76.8262C103.062 77.0602 103.098 77.2698 103.168 77.455C103.241 77.6412 103.353 77.7786 103.506 77.867C103.658 77.9555 103.768 77.9488 103.838 77.847C103.908 77.7443 103.944 77.5749 103.944 77.3389C103.944 77.1029 103.908 76.8933 103.838 76.71C103.768 76.5258 103.658 76.3895 103.506 76.301C103.353 76.2126 103.241 76.2192 103.168 76.321ZM102.951 77.5534C102.828 77.284 102.766 76.9843 102.766 76.6543C102.766 76.3243 102.828 76.097 102.951 75.9724C103.073 75.8457 103.258 75.8543 103.506 75.998C103.753 76.1418 103.938 76.3483 104.061 76.6177C104.183 76.8851 104.245 77.1838 104.245 77.5138C104.245 77.8438 104.183 78.0721 104.061 78.1987C103.938 78.3233 103.753 78.3138 103.506 78.17C103.258 78.0263 103.073 77.8207 102.951 77.5534Z" fill="#F4F4F4"/>
<path d="M80.7003 97.7993C80.823 97.7267 80.9103 97.6644 80.9622 97.6126C81.0141 97.5608 81.04 97.4928 81.04 97.4088C81.04 97.3248 81.0123 97.2377 80.957 97.1476C80.9017 97.0554 80.8317 96.9847 80.7469 96.9354C80.5982 96.849 80.4746 96.8651 80.3761 96.9838L80.1297 96.6756C80.2092 96.5838 80.2965 96.5306 80.3916 96.5159C80.4884 96.5022 80.6121 96.539 80.7625 96.6265C80.9146 96.7149 81.0478 96.8484 81.1619 97.0267C81.276 97.203 81.3331 97.3872 81.3331 97.5792C81.3331 97.6872 81.3089 97.7761 81.2605 97.846C81.212 97.9159 81.123 97.9901 80.9933 98.0687L80.568 98.3224L81.3901 98.8004V99.1394L80.1504 98.4186V98.1186L80.7003 97.7993ZM82.0823 97.9128C82.0114 98.0156 81.9759 98.184 81.9759 98.418C81.9759 98.652 82.0114 98.8616 82.0823 99.0468C82.1549 99.233 82.2673 99.3703 82.4194 99.4588C82.5716 99.5473 82.6822 99.5406 82.7514 99.4388C82.8223 99.336 82.8577 99.1666 82.8577 98.9306C82.8577 98.6946 82.8223 98.485 82.7514 98.3018C82.6822 98.1176 82.5716 97.9813 82.4194 97.8928C82.2673 97.8043 82.1549 97.811 82.0823 97.9128ZM81.8644 99.1451C81.7416 98.8758 81.6803 98.5761 81.6803 98.2461C81.6803 97.9161 81.7416 97.6888 81.8644 97.5641C81.9872 97.4375 82.1722 97.4461 82.4194 97.5898C82.6667 97.7336 82.8517 97.9401 82.9744 98.2095C83.0972 98.4769 83.1586 98.7756 83.1586 99.1056C83.1586 99.4356 83.0972 99.6639 82.9744 99.7905C82.8517 99.9151 82.6667 99.9056 82.4194 99.7618C82.1722 99.6181 81.9872 99.4125 81.8644 99.1451ZM83.5073 98.6723V98.2733L84.6174 98.9187V99.2427L84.2465 99.5161C84.3917 99.6285 84.5041 99.7648 84.5836 99.9251C84.6632 100.083 84.7029 100.236 84.7029 100.384C84.7029 100.604 84.6381 100.74 84.5084 100.79C84.3805 100.84 84.2162 100.806 84.0157 100.69C83.8151 100.573 83.6119 100.373 83.4062 100.09L83.5722 99.814C83.7433 100.054 83.8964 100.213 84.0312 100.291C84.1125 100.338 84.1791 100.354 84.2309 100.338C84.2845 100.323 84.3113 100.273 84.3113 100.187C84.3113 100.099 84.2811 100.012 84.2206 99.927C84.16 99.8398 84.0762 99.765 83.969 99.7027C83.9119 99.6696 83.8315 99.6418 83.7278 99.6195V99.2745L84.0753 99.0025L83.5073 98.6723ZM85.4728 99.947C85.4157 100.042 85.3872 100.194 85.3872 100.404C85.3872 100.614 85.4157 100.8 85.4728 100.961C85.5298 101.122 85.6189 101.238 85.7399 101.308C85.8609 101.379 85.95 101.366 86.007 101.272C86.0641 101.177 86.0926 101.024 86.0926 100.814C86.0926 100.604 86.0641 100.419 86.007 100.258C85.95 100.096 85.8609 99.9807 85.7399 99.9103C85.6189 99.84 85.5298 99.8522 85.4728 99.947ZM85.7399 101.692C85.4892 101.547 85.3016 101.339 85.1771 101.071C85.0526 100.801 84.9904 100.502 84.9904 100.174C84.9904 99.8435 85.0526 99.6167 85.1771 99.4931C85.3016 99.3675 85.4892 99.3776 85.7399 99.5233C85.9906 99.6691 86.1782 99.8771 86.3027 100.148C86.4272 100.416 86.4894 100.715 86.4894 101.045C86.4894 101.373 86.4272 101.6 86.3027 101.726C86.1782 101.849 85.9906 101.838 85.7399 101.692Z" fill="#F4F4F4"/>
<path d="M62.7003 121.468C62.823 121.395 62.9103 121.333 62.9622 121.281C63.0141 121.23 63.04 121.162 63.04 121.078C63.04 120.994 63.0123 120.907 62.957 120.816C62.9017 120.724 62.8317 120.654 62.7469 120.604C62.5982 120.518 62.4746 120.534 62.3761 120.653L62.1297 120.344C62.2092 120.253 62.2965 120.199 62.3916 120.185C62.4884 120.171 62.6121 120.208 62.7625 120.295C62.9146 120.384 63.0478 120.517 63.1619 120.696C63.276 120.872 63.3331 121.056 63.3331 121.248C63.3331 121.356 63.3089 121.445 63.2605 121.515C63.212 121.585 63.123 121.659 62.9933 121.738L62.568 121.991L63.3901 122.469V122.808L62.1504 122.087V121.787L62.7003 121.468ZM64.0823 121.582C64.0114 121.684 63.9759 121.853 63.9759 122.087C63.9759 122.321 64.0114 122.53 64.0823 122.716C64.1549 122.902 64.2673 123.039 64.4194 123.128C64.5716 123.216 64.6822 123.209 64.7514 123.108C64.8223 123.005 64.8577 122.835 64.8577 122.599C64.8577 122.363 64.8223 122.154 64.7514 121.971C64.6822 121.786 64.5716 121.65 64.4194 121.562C64.2673 121.473 64.1549 121.48 64.0823 121.582ZM63.8644 122.814C63.7416 122.545 63.6803 122.245 63.6803 121.915C63.6803 121.585 63.7416 121.358 63.8644 121.233C63.9872 121.106 64.1722 121.115 64.4194 121.259C64.6667 121.402 64.8517 121.609 64.9744 121.878C65.0972 122.146 65.1586 122.444 65.1586 122.774C65.1586 123.104 65.0972 123.333 64.9744 123.459C64.8517 123.584 64.6667 123.574 64.4194 123.431C64.1722 123.287 63.9872 123.081 63.8644 122.814ZM65.9949 123.345C66.1021 123.281 66.1782 123.225 66.2231 123.177C66.2698 123.128 66.2932 123.069 66.2932 122.999C66.2932 122.929 66.2733 122.859 66.2335 122.79C66.1938 122.719 66.1427 122.666 66.0805 122.629C65.9664 122.563 65.8583 122.594 65.7563 122.723L65.4321 122.312C65.5168 122.21 65.6093 122.148 65.7096 122.129C65.8116 122.11 65.9405 122.146 66.0961 122.236C66.2534 122.328 66.3909 122.466 66.5084 122.65C66.6277 122.834 66.6874 123.024 66.6874 123.222C66.6874 123.33 66.6632 123.42 66.6148 123.492C66.5681 123.563 66.4808 123.638 66.3528 123.718L66.026 123.921L66.7418 124.337V124.757L65.4632 124.014V123.666L65.9949 123.345ZM67.5107 123.638C67.4537 123.733 67.4252 123.885 67.4252 124.095C67.4252 124.305 67.4537 124.491 67.5107 124.652C67.5678 124.813 67.6568 124.929 67.7779 124.999C67.8989 125.07 67.988 125.057 68.045 124.963C68.1021 124.868 68.1306 124.715 68.1306 124.505C68.1306 124.295 68.1021 124.11 68.045 123.949C67.988 123.787 67.8989 123.672 67.7779 123.601C67.6568 123.531 67.5678 123.543 67.5107 123.638ZM67.7779 125.383C67.5272 125.237 67.3396 125.03 67.2151 124.762C67.0906 124.492 67.0284 124.192 67.0284 123.864C67.0284 123.534 67.0906 123.308 67.2151 123.184C67.3396 123.058 67.5272 123.068 67.7779 123.214C68.0286 123.36 68.2162 123.568 68.3407 123.838C68.4652 124.107 68.5274 124.406 68.5274 124.736C68.5274 125.064 68.4652 125.291 68.3407 125.416C68.2162 125.54 68.0286 125.529 67.7779 125.383Z" fill="#F4F4F4"/>
<path d="M58.5185 73.4912H54.6128V79.7871H58.5185V73.4912Z" fill="#FFA8A7"/>
<path d="M60.8521 72.049L61.7801 73.3842C61.8204 73.4416 61.8388 73.5115 61.8321 73.5813C61.8254 73.6511 61.7939 73.7162 61.7434 73.7648C61.5109 74.0183 61.194 74.1785 60.8521 74.2155V72.049Z" fill="#F28F8F"/>
<path d="M56.9397 67.1117C56.9397 67.1117 59.9808 64.9552 60.9456 72.4528C61.7401 78.6853 57.8711 77.2566 56.4323 76.3953C54.9935 75.534 52.2428 72.9369 54.0521 69.2849C54.87 67.6258 56.9397 67.1117 56.9397 67.1117Z" fill="#FFA8A7"/>
<path d="M59.7439 69.5118C59.7439 69.5118 59.7672 70.8771 58.5187 70.9439C58.8276 71.3022 58.9845 71.7669 58.956 72.2391C58.956 73.1271 58.6523 72.9568 58.5187 72.7866C58.3852 72.6163 56.9998 72.7866 56.9998 72.7866L57.7075 74.1219C57.7942 74.6278 57.7498 75.1474 57.5786 75.6313C57.4073 76.1152 57.115 76.5471 56.7294 76.8859C56.7294 76.8859 54.8734 77.3967 54.0288 76.8859C54.0288 76.8859 51.692 74.2921 51.2614 72.4527C50.8308 70.6134 50.8241 69.0077 51.9024 68.2566C51.9024 68.2566 52.2362 65.9365 54.7031 65.9365C57.1701 65.9365 57.8945 66.5708 59.2264 66.2703C59.7672 66.1502 60.5784 65.7596 60.5784 66.3037C60.5784 66.8479 59.9108 67.3052 59.9108 67.3052C59.9108 67.3052 60.5784 67.2685 60.9389 67.2351C61.2995 67.2017 62.104 67.0815 61.9671 68.1231C61.8303 69.1646 60.8989 69.692 59.7439 69.5118Z" fill="#263238"/>
<path d="M52.2295 68.3402C52.2295 68.3402 51.5819 67.0317 50.774 67.7861C50.7676 67.7917 50.7625 67.7987 50.759 67.8064C50.7555 67.8142 50.7537 67.8226 50.7537 67.8312C50.7537 67.8397 50.7555 67.8481 50.759 67.8559C50.7625 67.8637 50.7676 67.8706 50.774 67.8762L52.2195 68.7475L52.2295 68.3402Z" fill="#263238"/>
<path d="M58.5185 72.7966V74.8229C58.5185 74.8229 56.4221 74.7829 56.4221 73.2306C56.4221 71.8018 58.1079 72.1223 58.5185 72.7966Z" fill="#FFA8A7"/>
<path d="M43.1995 125.384C43.1995 125.384 43.1026 128.078 46.8415 129.183C46.8415 129.183 47.3989 125.384 43.1995 125.384Z" fill="#253239"/>
<path d="M46.1137 131.446V129.824C46.1134 129.481 46.1914 129.143 46.3418 128.835C46.4923 128.527 46.7111 128.258 46.9816 128.048C46.9816 128.048 46.4275 125.681 44.1842 125.821C43.4591 126.101 42.8346 126.591 42.3916 127.23C42.2284 127.448 42.1142 127.698 42.0566 127.965C41.999 128.231 41.9994 128.506 42.0577 128.772C42.043 128.712 42.0452 128.649 42.0642 128.59C42.0832 128.531 42.1182 128.479 42.1653 128.438C42.2124 128.398 42.2697 128.372 42.3309 128.362C42.3921 128.353 42.4547 128.361 42.5117 128.385L43.0525 128.608C43.3898 128.747 43.688 128.966 43.9208 129.247C44.1536 129.527 44.314 129.86 44.3878 130.218L45.0555 133.372C45.1111 133.665 45.2556 133.935 45.4694 134.143C45.6832 134.351 45.9559 134.489 46.2505 134.537H46.2973C46.3584 134.54 46.4197 134.54 46.4809 134.537H46.531C46.5913 134.535 46.6515 134.529 46.7112 134.52H46.7613C46.8232 134.51 46.8844 134.497 46.9449 134.48H46.985C47.0596 134.459 47.1322 134.431 47.2019 134.397C47.2774 134.363 47.3499 134.323 47.4189 134.277L47.9864 133.906C48.0689 133.853 48.1359 133.779 48.181 133.692C48.2261 133.604 48.2476 133.507 48.2435 133.409C48.2001 132.768 47.9163 131.446 46.1137 131.446Z" fill="#37474F"/>
<path d="M47.9665 133.9L47.399 134.27C47.33 134.316 47.2574 134.356 47.182 134.39C47.1122 134.424 47.0396 134.452 46.965 134.474H46.9249C46.8645 134.49 46.8032 134.504 46.7413 134.514H46.6913H46.6212H46.511H46.3942H46.2773H46.2406C45.9512 134.466 45.683 134.333 45.4709 134.13C45.2588 133.927 45.1129 133.666 45.0522 133.379C45.0538 133.369 45.0538 133.359 45.0522 133.349L44.3846 130.194C44.3107 129.837 44.1503 129.504 43.9175 129.223C43.6847 128.943 43.3866 128.723 43.0493 128.585L42.5085 128.361C42.2715 128.255 42.1179 128.438 42.0211 128.532C41.9317 128.611 41.8671 128.714 41.8351 128.829C41.8031 128.944 41.8051 129.065 41.8408 129.179L42.5085 132.114C42.6576 132.784 43.0547 133.373 43.6201 133.763L45.0455 134.741C45.2777 134.888 45.5395 134.983 45.8123 135.018C46.0852 135.054 46.3625 135.028 46.6245 134.944H46.6312H46.6646C46.7653 134.909 46.8635 134.867 46.9583 134.818L47.5692 134.484C47.7008 134.412 47.8147 134.312 47.9026 134.191C47.9904 134.069 48.0499 133.93 48.0766 133.783C48.0473 133.828 48.0099 133.868 47.9665 133.9Z" fill="#263238"/>
<path d="M43.7202 126.035C43.7202 126.035 46.284 126.282 46.274 128.993L47.8663 126.506L45.2525 123.775L43.7202 126.035Z" fill="#FFA8A7"/>
<path d="M49.4219 94.6554V98.9751C49.4219 100.695 49.4998 102.411 49.6556 104.123L50.1797 109.904C50.2468 110.61 50.1585 111.321 49.9208 111.988C49.6832 112.656 49.3021 113.263 48.8043 113.767C48.009 114.582 47.3466 115.517 46.8415 116.537C45.2558 119.659 43.1995 125.38 43.1995 125.38C43.1995 125.38 46.8415 125.38 46.8415 129.179L55.137 115.332C55.7244 114.351 56.0933 113.255 56.2186 112.118L57.9811 96.2911L49.4219 94.6554Z" fill="#455A64"/>
<path d="M67.6821 119.562C67.8358 119.839 68.0763 120.057 68.3665 120.183H68.3999C69.003 120.45 69.6864 120.473 70.306 120.246L75.5871 118.327C75.9609 118.163 75.9676 117.606 75.9442 117.375H67.6821V119.562Z" fill="#263238"/>
<path d="M67.9958 116.434C67.9958 116.434 67.2513 117.209 67.5251 118.674C67.5698 118.905 67.67 119.122 67.8172 119.306C67.9643 119.489 68.1539 119.635 68.3696 119.729L68.403 119.746C69.0066 120.012 69.69 120.033 70.3091 119.806L75.5902 117.886C75.719 117.836 75.8247 117.74 75.8864 117.617C75.9482 117.493 75.9616 117.351 75.9241 117.219C75.6804 116.361 74.8191 115.496 72.8228 116.02C72.3186 116.186 71.7983 116.297 71.2706 116.354L71.0002 115.913L67.9958 116.434Z" fill="#37474F"/>
<path d="M71.2707 116.337C70.9936 117.078 69.9354 117.339 68.7136 116.928C68.4347 116.833 68.1748 116.689 67.9458 116.504V113.576H71.284L71.2707 116.337Z" fill="#FFA8A7"/>
<path d="M53.2007 95.7603V96.2543C53.1965 97.7457 53.6852 99.1967 54.5907 100.382C55.4962 101.567 56.7679 102.42 58.2081 102.807L66.7139 105.057C66.8347 105.089 66.9416 105.16 67.0177 105.259C67.0938 105.358 67.1349 105.48 67.1345 105.605V115.76C67.1345 115.76 71.2405 117.823 72.4289 114.625V103.655C72.4321 102.761 72.1656 101.886 71.6642 101.145C71.1628 100.404 70.4498 99.8319 69.6181 99.5024L60.7885 96.0373L53.2007 95.7603Z" fill="#455A64"/>
<path d="M56.9197 105.768L57.2535 102.41C57.2535 102.41 54.5161 101.492 54.0955 100.234C53.9553 101.539 55.788 102.734 56.2487 103.001C56.4189 104.013 56.9197 105.768 56.9197 105.768Z" fill="#37474F"/>
<path d="M53.8884 79.65C53.8884 79.65 53.9652 78.0376 54.5194 78.0376C54.9633 78.0376 57.2133 78.6752 58.0812 78.9289C58.3181 78.9933 58.522 79.1447 58.6521 79.3529C58.9991 79.8566 59.2033 80.4449 59.2429 81.0553L53.8884 79.65Z" fill="#37474F"/>
<path d="M63.8298 85.1815C63.8298 85.1815 66.3435 82.6244 66.6974 82.8448C67.1313 83.1185 66.6072 84.1033 66.21 84.5139L68.1829 83.2253C68.2443 83.185 68.3133 83.1579 68.3857 83.1456C68.4581 83.1334 68.5323 83.1363 68.6035 83.1542C68.6747 83.1721 68.7415 83.2045 68.7995 83.2495C68.8575 83.2945 68.9056 83.3511 68.9407 83.4156C69.4915 84.4171 70.0857 86.7538 64.8146 88.3028L63.8298 85.1815Z" fill="#FFA8A7"/>
<path d="M65.5589 88.6067C65.5589 88.6067 64.2503 89.2076 62.5545 89.942C59.7104 91.1838 55.7746 92.8229 55.0535 92.706C53.1623 92.4019 51.2949 91.9646 49.4653 91.3974L49.8292 86.3367L55.2772 87.939L63.4425 84.7377L63.7763 84.6041C66.0797 85.452 65.5589 88.6067 65.5589 88.6067Z" fill="#263238"/>
<path d="M53.2076 78.8122L51.1746 78.2547C50.8449 78.1655 50.499 78.1539 50.164 78.2208C49.829 78.2876 49.514 78.4311 49.2438 78.6399C48.9735 78.8488 48.7552 79.1174 48.606 79.4247C48.4568 79.7319 48.3808 80.0696 48.3839 80.4112V81.1356C48.3821 82.0753 48.5996 83.0025 49.0192 83.8434C49.4388 84.6843 50.0488 85.4157 50.8008 85.9793L53.1676 87.7486L53.2076 78.8122Z" fill="#37474F"/>
<path d="M61.9137 92.7626L63.506 99.9265C63.506 99.9265 59.0962 102.14 54.3192 100.744C49.5422 99.349 48.978 98.1505 48.978 98.1505L49.4654 91.404L49.8293 86.3432L50.2566 80.4446C50.2753 80.1574 50.3565 79.8777 50.4948 79.6252C50.633 79.3728 50.8247 79.1536 51.0566 78.9831C51.2885 78.8126 51.5549 78.6949 51.8371 78.6383C52.1193 78.5817 52.4104 78.5875 52.6901 78.6553L59.3866 80.3244C60.5711 80.6282 61.6204 81.3185 62.3684 82.286C63.1163 83.2534 63.5202 84.4427 63.516 85.6656L62.5546 89.9552L61.9137 92.7626Z" fill="#263238"/>
<path d="M65.1015 101.258C65.1015 101.258 67.7287 103.642 67.5618 104.026C67.3949 104.41 66.3099 103.999 65.8927 103.625L67.2714 105.545C67.3147 105.605 67.3452 105.673 67.3612 105.745C67.3771 105.817 67.378 105.892 67.364 105.964C67.3499 106.037 67.3211 106.106 67.2793 106.167C67.2375 106.228 67.1837 106.28 67.1211 106.319C66.1664 106.93 63.8797 107.654 62.0737 102.417L65.1015 101.258Z" fill="#FFA8A7"/>
<path d="M60.4047 80.6917C60.4047 80.6917 57.9711 85.3652 57.1933 92.7927C57.0698 93.9644 61.8101 103.185 61.8101 103.185C61.8101 103.185 64.9547 103.542 65.6657 101.182L61.9135 92.7727L63.4859 85.9827C63.6268 85.3887 63.6154 84.7686 63.4525 84.1801C63.1287 83.0151 62.3208 81.2458 60.4047 80.6917Z" fill="#37474F"/>
</svg>
