<svg width="410" height="410" viewBox="0 0 410 410" fill="none" xmlns="http://www.w3.org/2000/svg">
<g clip-path="url(#clip0)">
<path d="M206.024 383.748C318.703 383.748 410.048 378.966 410.048 373.069C410.048 367.171 318.703 362.39 206.024 362.39C93.3447 362.39 2 367.171 2 373.069C2 378.966 93.3447 383.748 206.024 383.748Z" fill="#D7E3F5"/>
<path d="M231.935 222.779H172.55C171.713 222.779 171.034 223.458 171.034 224.296V249.064C171.034 249.902 171.713 250.581 172.55 250.581H231.935C232.772 250.581 233.451 249.902 233.451 249.064V224.296C233.451 223.458 232.772 222.779 231.935 222.779Z" fill="#18A0FB"/>
<path opacity="0.6" d="M231.935 222.779H172.55C171.713 222.779 171.034 223.458 171.034 224.296V249.064C171.034 249.902 171.713 250.581 172.55 250.581H231.935C232.772 250.581 233.451 249.902 233.451 249.064V224.296C233.451 223.458 232.772 222.779 231.935 222.779Z" fill="white"/>
<path opacity="0.1" d="M231.925 222.779H172.521C172.119 222.779 171.733 222.939 171.449 223.223C171.164 223.508 171.005 223.893 171.005 224.296V232.238L201.917 238.323C202.106 238.362 202.301 238.362 202.49 238.323L233.412 232.238V224.296C233.413 223.898 233.257 223.517 232.979 223.234C232.701 222.95 232.322 222.787 231.925 222.779Z" fill="black"/>
<path d="M233.228 212.611H215.089V209.568C215.086 208.311 214.585 207.106 213.696 206.217C212.807 205.328 211.602 204.827 210.345 204.825H194.14C192.883 204.827 191.678 205.328 190.789 206.217C189.9 207.106 189.399 208.311 189.396 209.568V212.611H171.267C170.87 212.611 170.489 212.769 170.209 213.049C169.928 213.33 169.77 213.711 169.77 214.108V229.088C169.772 229.434 169.893 229.768 170.112 230.036C170.332 230.303 170.637 230.487 170.975 230.556L201.956 236.651C202.146 236.68 202.339 236.68 202.529 236.651L233.51 230.556C233.849 230.487 234.155 230.304 234.377 230.036C234.598 229.769 234.721 229.435 234.725 229.088V214.108C234.725 213.711 234.567 213.33 234.286 213.049C234.006 212.769 233.625 212.611 233.228 212.611ZM193.003 209.568C193.005 209.267 193.126 208.978 193.338 208.763C193.551 208.549 193.838 208.426 194.14 208.421H210.345C210.647 208.426 210.934 208.549 211.147 208.763C211.359 208.978 211.48 209.267 211.482 209.568V212.611H193.013L193.003 209.568Z" fill="#18A0FB"/>
<path opacity="0.6" d="M233.228 212.611H215.089V209.568C215.086 208.311 214.585 207.106 213.696 206.217C212.807 205.328 211.602 204.827 210.345 204.825H194.14C192.883 204.827 191.678 205.328 190.789 206.217C189.9 207.106 189.399 208.311 189.396 209.568V212.611H171.267C170.87 212.611 170.489 212.769 170.209 213.049C169.928 213.33 169.77 213.711 169.77 214.108V229.088C169.772 229.434 169.893 229.768 170.112 230.036C170.332 230.303 170.637 230.487 170.975 230.556L201.956 236.651C202.146 236.68 202.339 236.68 202.529 236.651L233.51 230.556C233.849 230.487 234.155 230.304 234.377 230.036C234.598 229.769 234.721 229.435 234.725 229.088V214.108C234.725 213.711 234.567 213.33 234.286 213.049C234.006 212.769 233.625 212.611 233.228 212.611ZM193.003 209.568C193.005 209.267 193.126 208.978 193.338 208.763C193.551 208.549 193.838 208.426 194.14 208.421H210.345C210.647 208.426 210.934 208.549 211.147 208.763C211.359 208.978 211.48 209.267 211.482 209.568V212.611H193.013L193.003 209.568Z" fill="white"/>
<path d="M205.446 232.558H199.049C198.255 232.558 197.611 233.202 197.611 233.997V238.04C197.611 238.835 198.255 239.479 199.049 239.479H205.446C206.24 239.479 206.884 238.835 206.884 238.04V233.997C206.884 233.202 206.24 232.558 205.446 232.558Z" fill="#18A0FB"/>
<path opacity="0.3" d="M205.446 232.558H199.049C198.255 232.558 197.611 233.202 197.611 233.997V238.04C197.611 238.835 198.255 239.479 199.049 239.479H205.446C206.24 239.479 206.884 238.835 206.884 238.04V233.997C206.884 233.202 206.24 232.558 205.446 232.558Z" fill="white"/>
<path d="M231.935 43.9544H172.55C171.713 43.9544 171.034 44.6334 171.034 45.4709V70.2396C171.034 71.0771 171.713 71.756 172.55 71.756H231.935C232.772 71.756 233.451 71.0771 233.451 70.2396V45.4709C233.451 44.6334 232.772 43.9544 231.935 43.9544Z" fill="#18A0FB"/>
<path opacity="0.6" d="M231.935 43.9544H172.55C171.713 43.9544 171.034 44.6334 171.034 45.4709V70.2396C171.034 71.0771 171.713 71.756 172.55 71.756H231.935C232.772 71.756 233.451 71.0771 233.451 70.2396V45.4709C233.451 44.6334 232.772 43.9544 231.935 43.9544Z" fill="white"/>
<path opacity="0.1" d="M231.925 43.9544H172.521C172.119 43.9544 171.733 44.1142 171.449 44.3986C171.164 44.683 171.005 45.0687 171.005 45.4709V53.4128L201.917 59.498C202.106 59.5368 202.301 59.5368 202.49 59.498L233.412 53.4128V45.4709C233.413 45.0737 233.257 44.6923 232.979 44.4088C232.701 44.1252 232.322 43.962 231.925 43.9544Z" fill="black"/>
<path d="M233.228 33.7864H215.089V30.7438C215.086 29.4864 214.585 28.2813 213.696 27.3923C212.807 26.5032 211.602 26.0026 210.345 26H194.14C192.883 26.0026 191.678 26.5032 190.789 27.3923C189.9 28.2813 189.399 29.4864 189.396 30.7438V33.7864H171.267C170.87 33.7864 170.489 33.9441 170.209 34.2249C169.928 34.5056 169.77 34.8864 169.77 35.2834V50.2632C169.77 50.6096 169.89 50.9451 170.11 51.2128C170.33 51.4804 170.636 51.6636 170.975 51.7311L201.956 57.7872C202.145 57.8259 202.34 57.8259 202.529 57.7872L233.51 51.6922C233.846 51.6284 234.15 51.4522 234.373 51.1925C234.595 50.9328 234.723 50.6051 234.734 50.2632V35.2834C234.734 35.086 234.695 34.8905 234.62 34.7083C234.544 34.526 234.433 34.3605 234.293 34.2214C234.153 34.0823 233.986 33.9722 233.804 33.8975C233.621 33.8229 233.425 33.7851 233.228 33.7864ZM193.003 30.7438C193.003 30.4412 193.122 30.1509 193.335 29.9361C193.548 29.7213 193.838 29.5993 194.14 29.5967H210.345C210.646 29.5993 210.934 29.7199 211.146 29.9326C211.359 30.1454 211.48 30.4332 211.482 30.734V33.7767H193.013L193.003 30.7438Z" fill="#18A0FB"/>
<path opacity="0.6" d="M233.228 33.7864H215.089V30.7438C215.086 29.4864 214.585 28.2813 213.696 27.3923C212.807 26.5032 211.602 26.0026 210.345 26H194.14C192.883 26.0026 191.678 26.5032 190.789 27.3923C189.9 28.2813 189.399 29.4864 189.396 30.7438V33.7864H171.267C170.87 33.7864 170.489 33.9441 170.209 34.2249C169.928 34.5056 169.77 34.8864 169.77 35.2834V50.2632C169.77 50.6096 169.89 50.9451 170.11 51.2128C170.33 51.4804 170.636 51.6636 170.975 51.7311L201.956 57.7872C202.145 57.8259 202.34 57.8259 202.529 57.7872L233.51 51.6922C233.846 51.6284 234.15 51.4522 234.373 51.1925C234.595 50.9328 234.723 50.6051 234.734 50.2632V35.2834C234.734 35.086 234.695 34.8905 234.62 34.7083C234.544 34.526 234.433 34.3605 234.293 34.2214C234.153 34.0823 233.986 33.9722 233.804 33.8975C233.621 33.8229 233.425 33.7851 233.228 33.7864ZM193.003 30.7438C193.003 30.4412 193.122 30.1509 193.335 29.9361C193.548 29.7213 193.838 29.5993 194.14 29.5967H210.345C210.646 29.5993 210.934 29.7199 211.146 29.9326C211.359 30.1454 211.48 30.4332 211.482 30.734V33.7767H193.013L193.003 30.7438Z" fill="white"/>
<path d="M205.446 53.7432H199.049C198.255 53.7432 197.611 54.3873 197.611 55.1819V59.2258C197.611 60.0203 198.255 60.6645 199.049 60.6645H205.446C206.24 60.6645 206.884 60.0203 206.884 59.2258V55.1819C206.884 54.3873 206.24 53.7432 205.446 53.7432Z" fill="#18A0FB"/>
<path opacity="0.3" d="M205.446 53.7432H199.049C198.255 53.7432 197.611 54.3873 197.611 55.1819V59.2258C197.611 60.0203 198.255 60.6645 199.049 60.6645H205.446C206.24 60.6645 206.884 60.0203 206.884 59.2258V55.1819C206.884 54.3873 206.24 53.7432 205.446 53.7432Z" fill="white"/>
<path d="M139.431 222.779H80.0467C79.2092 222.779 78.5303 223.458 78.5303 224.296V249.064C78.5303 249.902 79.2092 250.581 80.0467 250.581H139.431C140.269 250.581 140.948 249.902 140.948 249.064V224.296C140.948 223.458 140.269 222.779 139.431 222.779Z" fill="#18A0FB"/>
<path opacity="0.6" d="M139.431 222.779H80.0467C79.2092 222.779 78.5303 223.458 78.5303 224.296V249.064C78.5303 249.902 79.2092 250.581 80.0467 250.581H139.431C140.269 250.581 140.948 249.902 140.948 249.064V224.296C140.948 223.458 140.269 222.779 139.431 222.779Z" fill="white"/>
<path opacity="0.1" d="M139.47 222.779H80.0467C79.6445 222.779 79.2588 222.939 78.9744 223.223C78.69 223.508 78.5303 223.893 78.5303 224.296V232.238L109.443 238.323C109.635 238.362 109.833 238.362 110.026 238.323L140.948 232.238V224.296C140.948 223.9 140.794 223.52 140.517 223.237C140.241 222.954 139.866 222.789 139.47 222.779Z" fill="black"/>
<path d="M140.715 212.611H122.575V209.568C122.573 208.311 122.072 207.106 121.183 206.217C120.294 205.328 119.089 204.827 117.832 204.825H101.637C100.379 204.827 99.1743 205.328 98.2853 206.217C97.3962 207.106 96.8956 208.311 96.893 209.568V212.611H78.7539C78.3569 212.611 77.9761 212.769 77.6954 213.049C77.4146 213.33 77.2569 213.711 77.2569 214.108V229.088C77.2588 229.434 77.3797 229.768 77.5992 230.036C77.8187 230.303 78.1234 230.487 78.4623 230.556L109.443 236.651C109.636 236.68 109.833 236.68 110.026 236.651L141.006 230.556C141.345 230.487 141.65 230.303 141.869 230.036C142.089 229.768 142.21 229.434 142.212 229.088V214.108C142.212 213.711 142.054 213.33 141.773 213.049C141.492 212.769 141.112 212.611 140.715 212.611ZM100.49 209.568C100.495 209.266 100.617 208.977 100.831 208.763C101.045 208.549 101.334 208.426 101.637 208.421H117.832C118.134 208.426 118.423 208.549 118.637 208.763C118.851 208.977 118.974 209.266 118.979 209.568V212.611H100.509L100.49 209.568Z" fill="#18A0FB"/>
<path opacity="0.6" d="M140.715 212.611H122.575V209.568C122.573 208.311 122.072 207.106 121.183 206.217C120.294 205.328 119.089 204.827 117.832 204.825H101.637C100.379 204.827 99.1743 205.328 98.2853 206.217C97.3962 207.106 96.8956 208.311 96.893 209.568V212.611H78.7539C78.3569 212.611 77.9761 212.769 77.6954 213.049C77.4146 213.33 77.2569 213.711 77.2569 214.108V229.088C77.2588 229.434 77.3797 229.768 77.5992 230.036C77.8187 230.303 78.1234 230.487 78.4623 230.556L109.443 236.651C109.636 236.68 109.833 236.68 110.026 236.651L141.006 230.556C141.345 230.487 141.65 230.303 141.869 230.036C142.089 229.768 142.21 229.434 142.212 229.088V214.108C142.212 213.711 142.054 213.33 141.773 213.049C141.492 212.769 141.112 212.611 140.715 212.611ZM100.49 209.568C100.495 209.266 100.617 208.977 100.831 208.763C101.045 208.549 101.334 208.426 101.637 208.421H117.832C118.134 208.426 118.423 208.549 118.637 208.763C118.851 208.977 118.974 209.266 118.979 209.568V212.611H100.509L100.49 209.568Z" fill="white"/>
<path d="M112.932 232.558H106.536C105.741 232.558 105.097 233.202 105.097 233.997V238.04C105.097 238.835 105.741 239.479 106.536 239.479H112.932C113.727 239.479 114.371 238.835 114.371 238.04V233.997C114.371 233.202 113.727 232.558 112.932 232.558Z" fill="#18A0FB"/>
<path opacity="0.3" d="M112.932 232.558H106.536C105.741 232.558 105.097 233.202 105.097 233.997V238.04C105.097 238.835 105.741 239.479 106.536 239.479H112.932C113.727 239.479 114.371 238.835 114.371 238.04V233.997C114.371 233.202 113.727 232.558 112.932 232.558Z" fill="white"/>
<path d="M139.431 43.9544H80.0467C79.2092 43.9544 78.5303 44.6334 78.5303 45.4709V70.2396C78.5303 71.0771 79.2092 71.756 80.0467 71.756H139.431C140.269 71.756 140.948 71.0771 140.948 70.2396V45.4709C140.948 44.6334 140.269 43.9544 139.431 43.9544Z" fill="#18A0FB"/>
<path opacity="0.6" d="M139.431 43.9544H80.0467C79.2092 43.9544 78.5303 44.6334 78.5303 45.4709V70.2396C78.5303 71.0771 79.2092 71.756 80.0467 71.756H139.431C140.269 71.756 140.948 71.0771 140.948 70.2396V45.4709C140.948 44.6334 140.269 43.9544 139.431 43.9544Z" fill="white"/>
<path opacity="0.1" d="M139.47 43.9544H80.0467C79.6445 43.9544 79.2588 44.1142 78.9744 44.3986C78.69 44.683 78.5303 45.0687 78.5303 45.4709V53.4128L109.443 59.498C109.635 59.5371 109.833 59.5371 110.026 59.498L140.948 53.4128V45.4709C140.948 45.0753 140.794 44.6954 140.517 44.4121C140.241 44.1288 139.866 43.9645 139.47 43.9544Z" fill="black"/>
<path d="M140.715 33.7865H122.575V30.7439C122.573 29.4865 122.072 28.2814 121.183 27.3923C120.294 26.5033 119.089 26.0027 117.832 26.0001H101.637C100.379 26.0027 99.1743 26.5033 98.2853 27.3923C97.3962 28.2814 96.8956 29.4865 96.893 30.7439V33.7865H78.7539C78.3569 33.7865 77.9761 33.9442 77.6954 34.2249C77.4146 34.5057 77.2569 34.8865 77.2569 35.2835V50.2633C77.257 50.6096 77.3772 50.9452 77.597 51.2129C77.8168 51.4805 78.1226 51.6637 78.4623 51.7312L109.443 57.7872C109.635 57.8263 109.833 57.8263 110.026 57.7872L141.006 51.6923C141.346 51.6248 141.652 51.4416 141.871 51.174C142.091 50.9063 142.211 50.5708 142.212 50.2244V35.2835C142.212 34.8865 142.054 34.5057 141.773 34.2249C141.492 33.9442 141.112 33.7865 140.715 33.7865ZM100.49 30.7439C100.492 30.4404 100.614 30.1501 100.828 29.9356C101.043 29.721 101.333 29.5993 101.637 29.5968H117.832C118.133 29.5993 118.422 29.7196 118.637 29.9321C118.851 30.1446 118.974 30.4324 118.979 30.7341V33.7768H100.509L100.49 30.7439Z" fill="#18A0FB"/>
<path opacity="0.6" d="M140.715 33.7865H122.575V30.7439C122.573 29.4865 122.072 28.2814 121.183 27.3923C120.294 26.5033 119.089 26.0027 117.832 26.0001H101.637C100.379 26.0027 99.1743 26.5033 98.2853 27.3923C97.3962 28.2814 96.8956 29.4865 96.893 30.7439V33.7865H78.7539C78.3569 33.7865 77.9761 33.9442 77.6954 34.2249C77.4146 34.5057 77.2569 34.8865 77.2569 35.2835V50.2633C77.257 50.6096 77.3772 50.9452 77.597 51.2129C77.8168 51.4805 78.1226 51.6637 78.4623 51.7312L109.443 57.7872C109.635 57.8263 109.833 57.8263 110.026 57.7872L141.006 51.6923C141.346 51.6248 141.652 51.4416 141.871 51.174C142.091 50.9063 142.211 50.5708 142.212 50.2244V35.2835C142.212 34.8865 142.054 34.5057 141.773 34.2249C141.492 33.9442 141.112 33.7865 140.715 33.7865ZM100.49 30.7439C100.492 30.4404 100.614 30.1501 100.828 29.9356C101.043 29.721 101.333 29.5993 101.637 29.5968H117.832C118.133 29.5993 118.422 29.7196 118.637 29.9321C118.851 30.1446 118.974 30.4324 118.979 30.7341V33.7768H100.509L100.49 30.7439Z" fill="white"/>
<path d="M112.932 53.7432H106.536C105.741 53.7432 105.097 54.3873 105.097 55.1819V59.2258C105.097 60.0203 105.741 60.6645 106.536 60.6645H112.932C113.727 60.6645 114.371 60.0203 114.371 59.2258V55.1819C114.371 54.3873 113.727 53.7432 112.932 53.7432Z" fill="#18A0FB"/>
<path opacity="0.3" d="M112.932 53.7432H106.536C105.741 53.7432 105.097 54.3873 105.097 55.1819V59.2258C105.097 60.0203 105.741 60.6645 106.536 60.6645H112.932C113.727 60.6645 114.371 60.0203 114.371 59.2258V55.1819C114.371 54.3873 113.727 53.7432 112.932 53.7432Z" fill="white"/>
<path d="M131.694 161.168H80.0467C79.642 161.168 79.2538 161.007 78.9676 160.721C78.6814 160.435 78.5206 160.047 78.5206 159.642V134.883C78.5221 134.679 78.5651 134.477 78.6469 134.29C78.6865 134.203 78.7319 134.118 78.783 134.037C78.8371 133.954 78.9026 133.879 78.9774 133.814C79.2606 133.529 79.6452 133.368 80.0467 133.367H128.933C128.526 136.759 128.393 140.179 128.534 143.593C128.534 144.147 128.534 144.701 128.622 145.245C128.69 146.266 128.768 147.297 128.884 148.317C129.385 152.685 130.326 156.99 131.694 161.168Z" fill="#18A0FB"/>
<path opacity="0.6" d="M131.694 161.168H80.0467C79.642 161.168 79.2538 161.007 78.9676 160.721C78.6814 160.435 78.5206 160.047 78.5206 159.642V134.883C78.5221 134.679 78.5651 134.477 78.6469 134.29C78.6865 134.203 78.7319 134.118 78.783 134.037C78.8371 133.954 78.9026 133.879 78.9774 133.814C79.2606 133.529 79.6452 133.368 80.0467 133.367H128.933C128.526 136.759 128.393 140.179 128.534 143.593C128.534 144.147 128.534 144.701 128.622 145.245C128.69 146.266 128.768 147.297 128.884 148.317C129.385 152.685 130.326 156.99 131.694 161.168Z" fill="white"/>
<path opacity="0.1" d="M128.933 133.367C128.526 136.759 128.393 140.179 128.534 143.593C128.534 144.147 128.534 144.701 128.622 145.245L114.371 148.045L110.016 148.9C109.828 148.949 109.631 148.949 109.443 148.9L105.097 148.055L78.5303 142.825V134.873C78.5333 134.673 78.5729 134.476 78.6469 134.29C78.6864 134.203 78.7319 134.118 78.783 134.037C78.8371 133.954 78.9026 133.879 78.9774 133.814C79.2606 133.529 79.6452 133.368 80.0467 133.367H128.933Z" fill="black"/>
<path d="M130.965 123.199H122.585V120.156C122.58 118.898 122.077 117.693 121.187 116.804C120.296 115.915 119.09 115.415 117.832 115.412H101.637C100.379 115.412 99.172 115.912 98.2824 116.802C97.3928 117.691 96.893 118.898 96.893 120.156V123.199H78.7539C78.5573 123.199 78.3627 123.237 78.181 123.313C77.9994 123.388 77.8344 123.498 77.6954 123.637C77.5564 123.776 77.4461 123.941 77.3709 124.123C77.2956 124.304 77.2569 124.499 77.2569 124.696V139.666C77.2571 140.015 77.3783 140.353 77.5999 140.622C77.8215 140.892 78.1297 141.076 78.472 141.143H78.5303L105.097 146.383L109.443 147.229C109.632 147.267 109.827 147.267 110.016 147.229L114.371 146.373L128.534 143.583C128.393 140.169 128.526 136.749 128.933 133.357C129.337 129.922 130.016 126.525 130.965 123.199ZM100.49 120.156C100.495 119.854 100.618 119.566 100.832 119.354C101.046 119.141 101.335 119.021 101.637 119.019H117.832C118.133 119.021 118.42 119.142 118.633 119.355C118.846 119.567 118.966 119.855 118.969 120.156V123.199H100.499L100.49 120.156Z" fill="#18A0FB"/>
<path opacity="0.6" d="M130.965 123.199H122.585V120.156C122.58 118.898 122.077 117.693 121.187 116.804C120.296 115.915 119.09 115.415 117.832 115.412H101.637C100.379 115.412 99.172 115.912 98.2824 116.802C97.3928 117.691 96.893 118.898 96.893 120.156V123.199H78.7539C78.5573 123.199 78.3627 123.237 78.181 123.313C77.9994 123.388 77.8344 123.498 77.6954 123.637C77.5564 123.776 77.4461 123.941 77.3709 124.123C77.2956 124.304 77.2569 124.499 77.2569 124.696V139.666C77.2571 140.015 77.3783 140.353 77.5999 140.622C77.8215 140.892 78.1297 141.076 78.472 141.143H78.5303L105.097 146.383L109.443 147.229C109.632 147.267 109.827 147.267 110.016 147.229L114.371 146.373L128.534 143.583C128.393 140.169 128.526 136.749 128.933 133.357C129.337 129.922 130.016 126.525 130.965 123.199ZM100.49 120.156C100.495 119.854 100.618 119.566 100.832 119.354C101.046 119.141 101.335 119.021 101.637 119.019H117.832C118.133 119.021 118.42 119.142 118.633 119.355C118.846 119.567 118.966 119.855 118.969 120.156V123.199H100.499L100.49 120.156Z" fill="white"/>
<path d="M112.932 143.146H106.536C105.741 143.146 105.097 143.79 105.097 144.584V148.628C105.097 149.423 105.741 150.067 106.536 150.067H112.932C113.727 150.067 114.371 149.423 114.371 148.628V144.584C114.371 143.79 113.727 143.146 112.932 143.146Z" fill="#18A0FB"/>
<path opacity="0.3" d="M112.932 143.146H106.536C105.741 143.146 105.097 143.79 105.097 144.584V148.628C105.097 149.423 105.741 150.067 106.536 150.067H112.932C113.727 150.067 114.371 149.423 114.371 148.628V144.584C114.371 143.79 113.727 143.146 112.932 143.146Z" fill="white"/>
<path d="M265.054 250.571H324.438C325.276 250.571 325.955 249.892 325.955 249.054V224.286C325.955 223.448 325.276 222.769 324.438 222.769H265.054C264.216 222.769 263.537 223.448 263.537 224.286V249.054C263.537 249.892 264.216 250.571 265.054 250.571Z" fill="#18A0FB"/>
<path opacity="0.6" d="M265.054 250.571H324.438C325.276 250.571 325.955 249.892 325.955 249.054V224.286C325.955 223.448 325.276 222.769 324.438 222.769H265.054C264.216 222.769 263.537 223.448 263.537 224.286V249.054C263.537 249.892 264.216 250.571 265.054 250.571Z" fill="white"/>
<path opacity="0.1" d="M265.063 222.779H324.438C324.841 222.779 325.226 222.939 325.511 223.223C325.795 223.508 325.955 223.893 325.955 224.296V232.237L295.004 238.323C294.814 238.361 294.619 238.361 294.43 238.323L263.508 232.237V224.296C263.508 224.093 263.549 223.893 263.627 223.706C263.706 223.519 263.821 223.351 263.966 223.209C264.111 223.068 264.283 222.957 264.471 222.883C264.66 222.809 264.861 222.774 265.063 222.779Z" fill="black"/>
<path d="M263.771 212.611H281.91V209.568C281.912 208.311 282.413 207.106 283.302 206.217C284.191 205.328 285.396 204.827 286.654 204.825H302.858C304.116 204.827 305.321 205.328 306.21 206.217C307.099 207.106 307.599 208.311 307.602 209.568V212.611H325.731C325.928 212.611 326.123 212.65 326.304 212.725C326.486 212.8 326.651 212.91 326.79 213.049C326.929 213.188 327.039 213.353 327.114 213.535C327.19 213.717 327.228 213.911 327.228 214.108V229.088C327.226 229.434 327.106 229.768 326.886 230.036C326.667 230.303 326.362 230.487 326.023 230.556L295.004 236.651C294.81 236.68 294.614 236.68 294.42 236.651L263.44 230.556C263.101 230.487 262.797 230.303 262.577 230.036C262.358 229.768 262.237 229.434 262.235 229.088V214.108C262.235 213.908 262.275 213.71 262.352 213.526C262.43 213.342 262.544 213.175 262.687 213.035C262.83 212.896 263 212.786 263.186 212.714C263.372 212.641 263.571 212.606 263.771 212.611ZM303.996 209.568C303.993 209.267 303.873 208.978 303.66 208.763C303.448 208.549 303.16 208.426 302.858 208.421H286.654C286.351 208.426 286.062 208.549 285.848 208.763C285.634 208.977 285.512 209.266 285.506 209.568V212.611H303.976L303.996 209.568Z" fill="#18A0FB"/>
<path opacity="0.6" d="M263.771 212.611H281.91V209.568C281.912 208.311 282.413 207.106 283.302 206.217C284.191 205.328 285.396 204.827 286.654 204.825H302.858C304.116 204.827 305.321 205.328 306.21 206.217C307.099 207.106 307.599 208.311 307.602 209.568V212.611H325.731C325.928 212.611 326.123 212.65 326.304 212.725C326.486 212.8 326.651 212.91 326.79 213.049C326.929 213.188 327.039 213.353 327.114 213.535C327.19 213.717 327.228 213.911 327.228 214.108V229.088C327.226 229.434 327.106 229.768 326.886 230.036C326.667 230.303 326.362 230.487 326.023 230.556L295.004 236.651C294.81 236.68 294.614 236.68 294.42 236.651L263.44 230.556C263.101 230.487 262.797 230.303 262.577 230.036C262.358 229.768 262.237 229.434 262.235 229.088V214.108C262.235 213.908 262.275 213.71 262.352 213.526C262.43 213.342 262.544 213.175 262.687 213.035C262.83 212.896 263 212.786 263.186 212.714C263.372 212.641 263.571 212.606 263.771 212.611ZM303.996 209.568C303.993 209.267 303.873 208.978 303.66 208.763C303.448 208.549 303.16 208.426 302.858 208.421H286.654C286.351 208.426 286.062 208.549 285.848 208.763C285.634 208.977 285.512 209.266 285.506 209.568V212.611H303.976L303.996 209.568Z" fill="white"/>
<path d="M291.553 239.479H297.949C298.744 239.479 299.388 238.835 299.388 238.041V233.997C299.388 233.202 298.744 232.558 297.949 232.558H291.553C290.758 232.558 290.114 233.202 290.114 233.997V238.041C290.114 238.835 290.758 239.479 291.553 239.479Z" fill="#18A0FB"/>
<path opacity="0.3" d="M291.553 239.479H297.949C298.744 239.479 299.388 238.835 299.388 238.041V233.997C299.388 233.202 298.744 232.558 297.949 232.558H291.553C290.758 232.558 290.114 233.202 290.114 233.997V238.041C290.114 238.835 290.758 239.479 291.553 239.479Z" fill="white"/>
<path d="M265.054 71.7462L324.438 71.7462C325.276 71.7462 325.955 71.0673 325.955 70.2298V45.4611C325.955 44.6235 325.276 43.9446 324.438 43.9446L265.054 43.9446C264.216 43.9446 263.537 44.6235 263.537 45.4611V70.2298C263.537 71.0673 264.216 71.7462 265.054 71.7462Z" fill="#18A0FB"/>
<path opacity="0.6" d="M265.054 71.7462L324.438 71.7462C325.276 71.7462 325.955 71.0673 325.955 70.2298V45.4611C325.955 44.6235 325.276 43.9446 324.438 43.9446L265.054 43.9446C264.216 43.9446 263.537 44.6235 263.537 45.4611V70.2298C263.537 71.0673 264.216 71.7462 265.054 71.7462Z" fill="white"/>
<path opacity="0.1" d="M265.064 43.9544H324.438C324.841 43.9544 325.226 44.1142 325.511 44.3986C325.795 44.683 325.955 45.0687 325.955 45.4709V53.4128L295.004 59.498C294.814 59.5368 294.619 59.5368 294.43 59.498L263.547 53.4128V45.4709C263.547 45.0687 263.707 44.683 263.991 44.3986C264.276 44.1142 264.661 43.9544 265.064 43.9544Z" fill="black"/>
<path d="M263.771 33.7865H281.91V30.7439C281.912 29.4865 282.413 28.2814 283.302 27.3923C284.191 26.5033 285.396 26.0027 286.654 26.0001H302.858C303.484 25.9962 304.105 26.116 304.684 26.3526C305.263 26.5892 305.79 26.9378 306.235 27.3786C306.679 27.8193 307.032 28.3435 307.273 28.921C307.515 29.4985 307.64 30.118 307.641 30.7439V33.7865H325.77C326.167 33.7865 326.548 33.9442 326.829 34.2249C327.11 34.5057 327.267 34.8865 327.267 35.2835V50.2633C327.267 50.6096 327.147 50.9452 326.927 51.2129C326.707 51.4805 326.402 51.6637 326.062 51.7312L295.004 57.7872C294.811 57.8263 294.613 57.8263 294.42 57.7872L263.44 51.6923C263.1 51.6248 262.795 51.4416 262.575 51.174C262.355 50.9063 262.235 50.5708 262.235 50.2244V35.2835C262.235 35.0836 262.275 34.8857 262.352 34.7015C262.43 34.5173 262.544 34.3505 262.687 34.211C262.83 34.0714 263 33.962 263.186 33.8891C263.372 33.8162 263.571 33.7813 263.771 33.7865ZM303.996 30.7439C303.996 30.4413 303.876 30.151 303.663 29.9362C303.45 29.7213 303.161 29.5994 302.858 29.5968H286.654C286.352 29.5993 286.063 29.7196 285.849 29.9321C285.634 30.1446 285.512 30.4324 285.507 30.7341V33.7768H303.976L303.996 30.7439Z" fill="#18A0FB"/>
<path opacity="0.6" d="M263.771 33.7865H281.91V30.7439C281.912 29.4865 282.413 28.2814 283.302 27.3923C284.191 26.5033 285.396 26.0027 286.654 26.0001H302.858C303.484 25.9962 304.105 26.116 304.684 26.3526C305.263 26.5892 305.79 26.9378 306.235 27.3786C306.679 27.8193 307.032 28.3435 307.273 28.921C307.515 29.4985 307.64 30.118 307.641 30.7439V33.7865H325.77C326.167 33.7865 326.548 33.9442 326.829 34.2249C327.11 34.5057 327.267 34.8865 327.267 35.2835V50.2633C327.267 50.6096 327.147 50.9452 326.927 51.2129C326.707 51.4805 326.402 51.6637 326.062 51.7312L295.004 57.7872C294.811 57.8263 294.613 57.8263 294.42 57.7872L263.44 51.6923C263.1 51.6248 262.795 51.4416 262.575 51.174C262.355 50.9063 262.235 50.5708 262.235 50.2244V35.2835C262.235 35.0836 262.275 34.8857 262.352 34.7015C262.43 34.5173 262.544 34.3505 262.687 34.211C262.83 34.0714 263 33.962 263.186 33.8891C263.372 33.8162 263.571 33.7813 263.771 33.7865ZM303.996 30.7439C303.996 30.4413 303.876 30.151 303.663 29.9362C303.45 29.7213 303.161 29.5994 302.858 29.5968H286.654C286.352 29.5993 286.063 29.7196 285.849 29.9321C285.634 30.1446 285.512 30.4324 285.507 30.7341V33.7768H303.976L303.996 30.7439Z" fill="white"/>
<path d="M291.553 60.6547H297.949C298.744 60.6547 299.388 60.0106 299.388 59.216V55.1722C299.388 54.3776 298.744 53.7335 297.949 53.7335H291.553C290.758 53.7335 290.114 54.3776 290.114 55.1722V59.216C290.114 60.0106 290.758 60.6547 291.553 60.6547Z" fill="#18A0FB"/>
<path opacity="0.3" d="M291.553 60.6547H297.949C298.744 60.6547 299.388 60.0106 299.388 59.216V55.1722C299.388 54.3776 298.744 53.7335 297.949 53.7335H291.553C290.758 53.7335 290.114 54.3776 290.114 55.1722V59.216C290.114 60.0106 290.758 60.6547 291.553 60.6547Z" fill="white"/>
<path d="M272.83 161.168H324.448C324.851 161.166 325.237 161.004 325.521 160.718C325.805 160.432 325.965 160.045 325.965 159.642V134.883C325.963 134.679 325.92 134.477 325.838 134.29C325.803 134.201 325.757 134.116 325.702 134.037C325.648 133.954 325.582 133.879 325.508 133.814C325.368 133.672 325.202 133.559 325.018 133.482C324.834 133.406 324.637 133.366 324.438 133.367H275.562C275.969 136.759 276.102 140.179 275.96 143.593C275.96 144.147 275.96 144.701 275.873 145.245C275.815 146.266 275.727 147.297 275.611 148.317C275.12 152.684 274.188 156.989 272.83 161.168Z" fill="#18A0FB"/>
<path opacity="0.6" d="M272.83 161.168H324.448C324.851 161.166 325.237 161.004 325.521 160.718C325.805 160.432 325.965 160.045 325.965 159.642V134.883C325.963 134.679 325.92 134.477 325.838 134.29C325.803 134.201 325.757 134.116 325.702 134.037C325.648 133.954 325.582 133.879 325.508 133.814C325.368 133.672 325.202 133.559 325.018 133.482C324.834 133.406 324.637 133.366 324.438 133.367H275.562C275.969 136.759 276.102 140.179 275.96 143.593C275.96 144.147 275.96 144.701 275.873 145.245C275.815 146.266 275.727 147.297 275.611 148.317C275.12 152.684 274.188 156.989 272.83 161.168Z" fill="white"/>
<path opacity="0.1" d="M275.562 133.367C275.969 136.759 276.102 140.179 275.961 143.593C275.961 144.147 275.961 144.701 275.873 145.245L290.143 148.045L294.498 148.9C294.686 148.949 294.884 148.949 295.072 148.9L299.417 148.055L325.984 142.825V134.873C325.981 134.673 325.941 134.476 325.867 134.29C325.832 134.201 325.786 134.116 325.731 134.037C325.677 133.954 325.612 133.879 325.537 133.814C325.397 133.672 325.231 133.559 325.047 133.482C324.864 133.406 324.667 133.366 324.468 133.367H275.562Z" fill="black"/>
<path d="M273.521 123.199H281.91V120.156C281.912 118.899 282.413 117.694 283.302 116.804C284.191 115.915 285.396 115.415 286.654 115.412H302.848C304.107 115.412 305.315 115.912 306.206 116.801C307.097 117.69 307.599 118.897 307.602 120.156V123.199H325.731C326.128 123.199 326.509 123.356 326.79 123.637C327.071 123.918 327.228 124.299 327.228 124.696V139.666C327.229 140.013 327.109 140.35 326.889 140.619C326.669 140.889 326.363 141.074 326.023 141.143H325.955L299.388 146.383L295.004 147.219C294.814 147.258 294.619 147.258 294.43 147.219L290.075 146.363L275.912 143.574C276.188 136.683 275.367 129.793 273.482 123.16L273.521 123.199ZM303.995 120.156C303.99 119.854 303.868 119.566 303.653 119.354C303.439 119.141 303.15 119.021 302.848 119.019H286.654C286.353 119.021 286.065 119.142 285.852 119.355C285.639 119.567 285.519 119.855 285.516 120.156V123.199H303.986L303.995 120.156Z" fill="#18A0FB"/>
<path opacity="0.6" d="M273.521 123.199H281.91V120.156C281.912 118.899 282.413 117.694 283.302 116.804C284.191 115.915 285.396 115.415 286.654 115.412H302.848C304.107 115.412 305.315 115.912 306.206 116.801C307.097 117.69 307.599 118.897 307.602 120.156V123.199H325.731C326.128 123.199 326.509 123.356 326.79 123.637C327.071 123.918 327.228 124.299 327.228 124.696V139.666C327.229 140.013 327.109 140.35 326.889 140.619C326.669 140.889 326.363 141.074 326.023 141.143H325.955L299.388 146.383L295.004 147.219C294.814 147.258 294.619 147.258 294.43 147.219L290.075 146.363L275.912 143.574C276.188 136.683 275.367 129.793 273.482 123.16L273.521 123.199ZM303.995 120.156C303.99 119.854 303.868 119.566 303.653 119.354C303.439 119.141 303.15 119.021 302.848 119.019H286.654C286.353 119.021 286.065 119.142 285.852 119.355C285.639 119.567 285.519 119.855 285.516 120.156V123.199H303.986L303.995 120.156Z" fill="white"/>
<path d="M291.553 150.077H297.949C298.744 150.077 299.388 149.433 299.388 148.638V144.594C299.388 143.8 298.744 143.156 297.949 143.156H291.553C290.758 143.156 290.114 143.8 290.114 144.594V148.638C290.114 149.433 290.758 150.077 291.553 150.077Z" fill="#18A0FB"/>
<path opacity="0.3" d="M291.553 150.077H297.949C298.744 150.077 299.388 149.433 299.388 148.638V144.594C299.388 143.8 298.744 143.156 297.949 143.156H291.553C290.758 143.156 290.114 143.8 290.114 144.594V148.638C290.114 149.433 290.758 150.077 291.553 150.077Z" fill="white"/>
<path d="M248.052 127.33H162.723C161.52 127.33 160.545 128.305 160.545 129.507V165.095C160.545 166.298 161.52 167.273 162.723 167.273H248.052C249.255 167.273 250.23 166.298 250.23 165.095V129.507C250.23 128.305 249.255 127.33 248.052 127.33Z" fill="#18A0FB"/>
<path d="M217.023 120.973H193.742C191.977 120.97 190.284 120.268 189.036 119.02C187.788 117.771 187.086 116.079 187.083 114.314V108.336C187.086 106.57 187.788 104.878 189.036 103.63C190.284 102.382 191.977 101.679 193.742 101.677H217.023C218.789 101.677 220.483 102.378 221.732 103.627C222.98 104.876 223.682 106.57 223.682 108.336V114.285C223.686 115.162 223.516 116.031 223.183 116.842C222.851 117.653 222.361 118.391 221.742 119.012C221.123 119.634 220.388 120.127 219.578 120.463C218.768 120.8 217.9 120.973 217.023 120.973ZM193.742 106.566C193.273 106.571 192.825 106.759 192.493 107.09C192.161 107.42 191.97 107.867 191.963 108.336V114.285C191.963 114.762 192.152 115.219 192.49 115.556C192.827 115.894 193.284 116.083 193.761 116.083H217.043C217.52 116.083 217.977 115.894 218.314 115.556C218.651 115.219 218.841 114.762 218.841 114.285V108.336C218.841 107.859 218.651 107.401 218.314 107.064C217.977 106.727 217.52 106.537 217.043 106.537L193.742 106.566Z" fill="#18A0FB"/>
<path opacity="0.2" d="M248.042 127.33H162.732C162.445 127.329 162.161 127.384 161.896 127.493C161.631 127.602 161.389 127.762 161.186 127.964C160.983 128.167 160.822 128.407 160.712 128.672C160.602 128.937 160.545 129.221 160.545 129.507V140.929L204.969 149.678C205.242 149.737 205.523 149.737 205.796 149.678L250.23 140.929V129.507C250.23 129.221 250.173 128.937 250.063 128.672C249.953 128.407 249.792 128.167 249.588 127.964C249.385 127.762 249.144 127.602 248.879 127.493C248.613 127.384 248.329 127.329 248.042 127.33Z" fill="black"/>
<path d="M250.288 138.47L205.776 147.219C205.5 147.268 205.217 147.268 204.94 147.219L160.428 138.47C159.939 138.374 159.499 138.111 159.182 137.726C158.864 137.342 158.69 136.859 158.688 136.361V114.878C158.688 114.596 158.744 114.316 158.852 114.056C158.96 113.795 159.118 113.558 159.318 113.359C159.517 113.159 159.754 113.001 160.015 112.893C160.275 112.785 160.555 112.729 160.837 112.729H249.899C250.181 112.729 250.46 112.785 250.721 112.893C250.982 113.001 251.219 113.159 251.418 113.359C251.618 113.558 251.776 113.795 251.884 114.056C251.992 114.316 252.047 114.596 252.047 114.878V136.4C252.038 136.895 251.857 137.371 251.536 137.748C251.216 138.126 250.775 138.381 250.288 138.47Z" fill="#18A0FB"/>
<path d="M209.995 141.396H200.789C199.651 141.396 198.729 142.319 198.729 143.457V149.28C198.729 150.418 199.651 151.341 200.789 151.341H209.995C211.133 151.341 212.056 150.418 212.056 149.28V143.457C212.056 142.319 211.133 141.396 209.995 141.396Z" fill="#18A0FB"/>
<path opacity="0.4" d="M209.995 141.396H200.789C199.651 141.396 198.729 142.319 198.729 143.457V149.28C198.729 150.418 199.651 151.341 200.789 151.341H209.995C211.133 151.341 212.056 150.418 212.056 149.28V143.457C212.056 142.319 211.133 141.396 209.995 141.396Z" fill="black"/>
<path d="M365.869 149.367C366.986 151.671 367.813 153.849 368.785 156.123C369.757 158.398 370.467 160.663 371.225 162.986C372.762 167.697 373.897 172.529 374.617 177.431C374.715 178.044 374.763 178.705 374.831 179.376L374.928 180.348C374.928 180.523 374.928 180.649 374.928 180.853V181.485C374.961 182.959 374.834 184.432 374.549 185.879C374.067 188.393 373.381 190.864 372.498 193.267C370.838 197.834 368.769 202.243 366.316 206.438L361.378 204.348C362.476 199.916 363.584 195.396 364.42 191.031C364.829 188.94 365.118 186.827 365.285 184.703C365.343 183.834 365.323 182.962 365.227 182.097L365.12 181.485L364.984 180.707C364.877 180.192 364.809 179.677 364.683 179.152C363.714 174.861 362.46 170.639 360.93 166.515C360.192 164.406 359.375 162.306 358.558 160.196C357.742 158.087 356.838 155.968 356.002 154.024L365.869 149.367Z" fill="#E5BAAB"/>
<path d="M361.591 203.056L357.8 206.749L366.073 210.638C366.073 210.638 368.075 207.138 366.695 203.969L361.591 203.056Z" fill="#E5BAAB"/>
<path d="M354.748 212.261L361.728 215.119L366.073 210.599L357.8 206.749L354.748 212.261Z" fill="#E5BAAB"/>
<path opacity="0.2" d="M213.164 208.276C226.919 206.735 239.909 201.15 250.491 192.228C261.073 183.305 268.771 171.446 272.613 158.148C276.456 144.851 276.269 130.713 272.076 117.521C267.884 104.33 259.874 92.6781 249.06 84.0385C238.246 75.399 225.113 70.1598 211.322 68.9835C197.531 67.8072 183.7 70.7465 171.579 77.4299C159.458 84.1132 149.591 94.2404 143.225 106.531C136.859 118.822 134.281 132.724 135.815 146.48C136.835 155.617 139.644 164.464 144.083 172.515C148.522 180.566 154.504 187.664 161.687 193.402C168.87 199.141 177.113 203.408 185.946 205.96C194.779 208.512 204.027 209.299 213.164 208.276Z" fill="#18A0FB"/>
<path opacity="0.1" d="M162.236 83.5862L268.68 168.605C269.137 167.633 269.564 166.66 269.982 165.688C272.65 159.341 274.354 152.631 275.037 145.78L183.097 72.3683C175.552 74.8846 168.496 78.6791 162.236 83.5862Z" fill="white"/>
<path opacity="0.1" d="M137.682 120.846L237.748 200.8C247.256 195.841 255.497 188.764 261.836 180.114L152.554 92.7822C145.512 100.873 140.423 110.475 137.682 120.846Z" fill="white"/>
<path d="M377.796 217.326C377.668 215.557 377.089 213.85 376.114 212.368C375.406 211.278 374.415 210.401 373.247 209.831L366.607 206.574C362.194 204.387 357.752 202.258 353.309 200.13C348.867 198.001 344.395 195.911 339.943 193.801C335.491 191.692 331 189.641 326.499 187.629C317.517 183.559 308.477 179.599 299.378 175.75C294.829 173.805 290.27 171.939 285.672 170.112C284.329 169.583 283.238 168.564 282.619 167.261C282 165.957 281.899 164.468 282.337 163.093C288.492 143.689 287.091 122.675 278.413 104.26C269.736 85.8446 254.424 71.3861 235.541 63.7787C216.659 56.1713 195.6 55.9765 176.58 63.2332C157.56 70.4899 141.983 84.6626 132.967 102.914C123.95 121.166 122.16 142.15 127.955 161.665C133.749 181.18 146.701 197.786 164.217 208.16C181.733 218.533 202.52 221.908 222.419 217.609C242.317 213.31 259.857 201.654 271.528 184.975C272.354 183.789 273.6 182.962 275.013 182.661C276.426 182.359 277.901 182.606 279.139 183.351C283.39 185.879 287.661 188.364 291.951 190.807C300.525 195.694 309.164 200.457 317.867 205.097C322.212 207.449 326.616 209.714 330.942 212.018C335.267 214.322 339.69 216.567 344.094 218.823C348.497 221.078 352.843 223.285 357.305 225.462L363.924 228.748C365.088 229.333 366.388 229.588 367.686 229.486C369.453 229.361 371.157 228.782 372.634 227.805C374.396 226.723 375.815 225.165 376.728 223.311C377.642 221.456 378.012 219.381 377.796 217.326ZM177.187 195.823C165.887 190.247 156.494 181.445 150.196 170.53C143.898 159.616 140.979 147.078 141.807 134.504C142.635 121.93 147.173 109.884 154.847 99.8893C162.521 89.8945 172.987 82.4 184.921 78.3536C196.855 74.3071 209.721 73.8906 221.892 77.1566C234.062 80.4225 244.991 87.2244 253.296 96.7018C261.601 106.179 266.909 117.907 268.548 130.401C270.188 142.895 268.085 155.595 262.507 166.894C258.805 174.396 253.661 181.095 247.369 186.609C241.078 192.123 233.762 196.344 225.839 199.03C217.916 201.717 209.542 202.816 201.194 202.266C192.846 201.715 184.689 199.526 177.187 195.823Z" fill="#18A0FB"/>
<path d="M329.211 119.32C329.211 119.894 328.91 120.36 328.531 120.36C328.152 120.36 327.85 119.894 327.85 119.32C327.85 118.747 328.152 118.271 328.531 118.271C328.91 118.271 329.211 118.737 329.211 119.32Z" fill="#263238"/>
<path d="M328.959 120.36C328.275 122.121 327.353 123.779 326.217 125.289C326.61 125.57 327.06 125.762 327.536 125.851C328.011 125.94 328.5 125.924 328.968 125.804L328.959 120.36Z" fill="#630F0F"/>
<path d="M331.253 116.112C331.323 116.11 331.392 116.086 331.448 116.044C331.504 116.001 331.546 115.942 331.567 115.875C331.589 115.808 331.589 115.735 331.567 115.668C331.546 115.601 331.504 115.542 331.447 115.5C331.018 115.178 330.518 114.962 329.989 114.871C329.46 114.78 328.917 114.815 328.405 114.975C328.359 114.987 328.316 115.009 328.279 115.039C328.242 115.07 328.212 115.107 328.19 115.149C328.169 115.192 328.157 115.238 328.154 115.286C328.152 115.333 328.159 115.381 328.176 115.425C328.194 115.47 328.22 115.51 328.253 115.544C328.287 115.577 328.327 115.604 328.372 115.621C328.416 115.638 328.464 115.645 328.511 115.643C328.559 115.641 328.605 115.628 328.648 115.607C329.056 115.485 329.486 115.462 329.905 115.538C330.324 115.614 330.719 115.787 331.058 116.044C331.113 116.089 331.182 116.113 331.253 116.112Z" fill="#263238"/>
<path d="M348.876 123.656C347.846 128.886 346.825 138.461 350.48 141.941C350.48 141.941 349.051 147.238 339.35 147.238C328.657 147.238 334.247 141.941 334.247 141.941C340.079 140.551 339.924 136.225 338.903 132.22L348.876 123.656Z" fill="#E5BAAB"/>
<path d="M352.357 138.665C353.163 138.927 352.114 143.729 352.114 143.729C352.114 143.729 350.782 147.083 334.237 145.916C332.963 145.819 333.45 141.211 334.665 140.541C338.582 138.402 349.751 137.809 352.357 138.665Z" fill="#263238"/>
<path d="M385.962 339.507C386.856 339.419 388.159 337.777 388.528 337.174C388.544 337.148 388.553 337.117 388.553 337.086C388.553 337.056 388.544 337.025 388.528 336.999C388.512 336.97 388.488 336.947 388.458 336.933C388.428 336.919 388.395 336.915 388.363 336.921C388.266 336.921 385.913 337.368 385.34 338.282C385.279 338.378 385.239 338.485 385.222 338.598C385.206 338.71 385.212 338.824 385.242 338.933C385.369 339.361 385.612 339.478 385.806 339.507H385.962ZM388.013 337.339C387.381 338.214 386.341 339.235 385.845 339.167C385.796 339.167 385.651 339.167 385.563 338.836C385.544 338.773 385.539 338.706 385.55 338.64C385.56 338.575 385.584 338.512 385.621 338.457C386.292 337.858 387.123 337.469 388.013 337.339Z" fill="#18A0FB"/>
<path d="M387.915 337.339C388.089 337.325 388.262 337.295 388.431 337.252C388.459 337.243 388.485 337.226 388.506 337.204C388.526 337.182 388.54 337.155 388.547 337.125C388.553 337.095 388.551 337.064 388.54 337.035C388.53 337.006 388.512 336.98 388.489 336.96C388.431 336.902 386.856 335.56 385.787 335.667C385.658 335.676 385.533 335.711 385.419 335.772C385.305 335.832 385.205 335.916 385.126 336.017C385.034 336.105 384.977 336.223 384.964 336.35C384.952 336.476 384.985 336.603 385.058 336.707C385.407 337.262 386.943 337.437 387.915 337.339ZM387.993 336.999C387.021 337.116 385.602 336.921 385.33 336.523C385.33 336.523 385.252 336.396 385.388 336.221C385.443 336.157 385.509 336.104 385.585 336.066C385.66 336.028 385.741 336.005 385.825 335.998C386.631 336.109 387.386 336.458 387.993 336.999Z" fill="#18A0FB"/>
<path d="M319.131 365.073C319.867 365.07 320.602 365.005 321.328 364.878C321.36 364.869 321.39 364.852 321.414 364.828C321.438 364.804 321.455 364.775 321.464 364.742C321.47 364.707 321.464 364.672 321.449 364.64C321.433 364.609 321.408 364.583 321.376 364.567C321.269 364.499 318.781 363.08 317.585 363.401C317.361 363.458 317.169 363.601 317.051 363.799C316.974 363.907 316.934 364.036 316.934 364.169C316.934 364.301 316.974 364.43 317.051 364.538C317.362 364.966 318.217 365.073 319.131 365.073ZM320.783 364.625C319.452 364.81 317.644 364.8 317.313 364.344C317.264 364.285 317.226 364.178 317.313 363.964C317.349 363.905 317.396 363.853 317.453 363.813C317.51 363.772 317.575 363.745 317.644 363.731C318.411 363.527 319.908 364.178 320.783 364.625Z" fill="#18A0FB"/>
<path d="M321.25 364.878C321.285 364.888 321.322 364.888 321.357 364.878C321.379 364.859 321.397 364.835 321.409 364.809C321.42 364.782 321.426 364.752 321.425 364.723C321.425 364.645 321.221 362.72 320.317 361.972C320.183 361.86 320.028 361.777 319.86 361.727C319.693 361.677 319.518 361.661 319.345 361.68C318.878 361.729 318.752 361.962 318.713 362.157C318.586 362.963 320.297 364.509 321.153 364.898L321.25 364.878ZM319.51 361.962C319.727 361.968 319.936 362.047 320.103 362.186C320.642 362.802 320.982 363.569 321.075 364.383C320.19 363.858 319.034 362.643 319.131 362.157C319.131 362.157 319.131 362.001 319.461 361.972L319.51 361.962Z" fill="#18A0FB"/>
<path d="M329.143 364.713H322.008L321.289 348.168H328.434L329.143 364.713Z" fill="#E5BAAB"/>
<path d="M394.769 331.944L389.199 336.406L375.026 326.569L380.605 322.107L394.769 331.944Z" fill="#E5BAAB"/>
<path d="M388.178 336.124L393.874 330.476C393.977 330.378 394.109 330.317 394.25 330.303C394.391 330.289 394.533 330.322 394.652 330.399L400.125 333.918C400.258 334.003 400.369 334.118 400.451 334.254C400.532 334.389 400.582 334.541 400.596 334.699C400.61 334.856 400.588 335.015 400.532 335.162C400.476 335.31 400.386 335.443 400.271 335.551C398.249 337.495 397.17 338.331 394.662 340.81C393.126 342.346 389.364 346.914 387.235 349.024C385.106 351.133 382.734 349.306 383.425 348.246C386.487 343.522 387.527 339.624 387.663 337.252C387.692 336.826 387.875 336.425 388.178 336.124Z" fill="#263238"/>
<path d="M322.047 363.887H329.824C329.965 363.886 330.102 363.934 330.212 364.022C330.322 364.111 330.397 364.235 330.426 364.373L331.836 370.72C331.871 370.873 331.872 371.032 331.837 371.184C331.802 371.337 331.732 371.48 331.634 371.601C331.536 371.723 331.411 371.821 331.269 371.887C331.127 371.954 330.972 371.987 330.815 371.984C327.996 371.984 323.933 371.78 320.395 371.78C316.263 371.78 312.696 372.004 307.845 372.004C304.929 372.004 304.102 369.039 305.327 368.767C310.917 367.551 315.476 367.415 320.297 364.441C320.818 364.097 321.424 363.905 322.047 363.887Z" fill="#263238"/>
<path d="M364.556 144.079C370.748 146.995 373.305 166.981 373.305 166.981L359.064 172.571C356.854 167.159 355.063 161.586 353.708 155.9C351.715 146.879 358.189 141.046 364.556 144.079Z" fill="#18A0FB"/>
<path opacity="0.3" d="M364.556 144.079C370.748 146.995 373.305 166.981 373.305 166.981L359.064 172.571C356.854 167.159 355.063 161.586 353.708 155.9C351.715 146.879 358.189 141.046 364.556 144.079Z" fill="white"/>
<path opacity="0.2" d="M355.331 149.941C354.846 149.705 354.338 149.519 353.815 149.387C353.247 151.518 353.227 153.758 353.756 155.9C355.106 161.586 356.893 167.16 359.103 172.571L363.798 170.734C362.933 165.513 360.279 152.313 355.331 149.941Z" fill="black"/>
<path d="M323.262 143.924C323.262 143.924 315.66 152.507 322.834 205.651H361.037C361.3 199.819 357.616 171.181 363.273 143.554C359.048 142.742 354.775 142.203 350.481 141.941C345.074 141.629 339.653 141.629 334.247 141.941C330.539 142.314 326.866 142.977 323.262 143.924Z" fill="#18A0FB"/>
<path opacity="0.3" d="M323.262 143.924C323.262 143.924 315.66 152.507 322.834 205.651H361.037C361.3 199.819 357.616 171.181 363.273 143.554C359.048 142.742 354.775 142.203 350.481 141.941C345.074 141.629 339.653 141.629 334.247 141.941C330.539 142.314 326.866 142.977 323.262 143.924Z" fill="white"/>
<path opacity="0.2" d="M330.971 155.316C329.241 150.125 325.08 148.463 320.842 151.545C319.986 156.58 319.384 164.697 320.074 177.567L327.53 177.499C327.53 177.499 333.527 163.044 330.971 155.316Z" fill="black"/>
<path d="M329.571 153.188C329.26 155.793 328.832 158.155 328.356 160.614C327.879 163.074 327.325 165.475 326.694 167.895C325.446 172.842 323.747 177.665 321.619 182.302C321.065 183.497 320.424 184.673 319.743 185.85C319.393 186.443 319.043 187.036 318.645 187.619C318.128 188.429 317.518 189.177 316.827 189.845C315.486 191.089 313.895 192.033 312.161 192.615C310.753 193.109 309.296 193.451 307.816 193.636C305.174 193.964 302.503 193.996 299.854 193.733C298.558 193.63 297.294 193.464 296.063 193.237C294.799 193.014 293.604 192.781 292.301 192.44L292.933 187.113C297.37 186.927 301.775 186.275 306.076 185.169C306.95 184.91 307.8 184.572 308.613 184.158C309.147 183.913 309.614 183.543 309.974 183.079C309.896 183.147 310.606 181.971 311.024 181.135C311.442 180.299 311.908 179.191 312.307 178.219C313.123 176.216 313.823 174.097 314.465 171.929C315.106 169.762 315.67 167.555 316.195 165.319C316.72 163.083 317.167 160.828 317.653 158.515C318.139 156.201 318.489 153.907 318.839 151.759L329.571 153.188Z" fill="#E5BAAB"/>
<path d="M332.808 149.163C334.82 155.686 326.655 175.128 326.655 175.128L309.459 170.802C310.511 164.657 312.283 158.657 314.737 152.925C320.278 140.794 330.388 141.299 332.808 149.163Z" fill="#18A0FB"/>
<path opacity="0.3" d="M332.808 149.163C334.82 155.686 326.655 175.128 326.655 175.128L309.459 170.802C310.511 164.657 312.283 158.657 314.737 152.925C320.278 140.794 330.388 141.299 332.808 149.163Z" fill="white"/>
<path d="M293.176 187.142L285.088 186.938L288.977 195.347C288.977 195.347 292.262 195.784 294.965 191.342L297.813 187.949L294.537 187.288C294.088 187.201 293.633 187.152 293.176 187.142Z" fill="#E5BAAB"/>
<path d="M279.985 188.503L284.622 195.473L288.987 195.347L285.088 186.938L279.985 188.503Z" fill="#E5BAAB"/>
<path opacity="0.2" d="M321.299 348.178L321.658 356.703H328.803L328.434 348.178H321.299Z" fill="black"/>
<path opacity="0.2" d="M380.605 322.107L375.026 326.569L382.336 331.643L387.916 327.181L380.605 322.107Z" fill="black"/>
<path d="M348.468 118.056C348.04 125.133 348.157 129.294 344.58 132.929C339.214 138.392 330.475 135.165 328.783 128.069C327.257 121.711 328.22 111.213 335.141 108.384C336.667 107.753 338.33 107.523 339.97 107.717C341.61 107.912 343.173 108.523 344.51 109.493C345.846 110.463 346.912 111.76 347.605 113.259C348.298 114.758 348.595 116.41 348.468 118.056Z" fill="#E5BAAB"/>
<path d="M354.184 111.485C354.184 111.485 357.907 112.594 356.741 116.842C354.981 123.296 350.84 130.723 345.494 131.19C338.835 131.782 335.831 124.91 334.956 117.804C330.971 115.072 328.016 112.516 328.968 109.677C330.426 105.303 335.715 101.531 344.133 102.503C352.551 103.475 356.741 108.919 354.184 111.485Z" fill="#263238"/>
<path d="M339.01 119.262C338.881 121.017 338.177 122.681 337.007 123.996C335.452 125.707 333.819 124.637 333.547 122.557C333.304 120.671 333.809 117.512 335.715 116.569C337.62 115.626 339.136 117.142 339.01 119.262Z" fill="#E5BAAB"/>
<path d="M336.385 205.651C336.385 205.651 333.975 253.788 338.67 274.183C346.106 306.475 378.797 332.352 378.797 332.352L389.296 323.944C389.296 323.944 362.398 303.928 359.978 277.041C357.81 252.894 361.018 225.16 361.018 205.651H336.385Z" fill="#18A0FB"/>
<path opacity="0.2" d="M336.385 205.651C336.385 205.651 333.975 253.788 338.67 274.183C346.106 306.475 378.797 332.352 378.797 332.352L389.296 323.944C389.296 323.944 362.398 303.928 359.978 277.041C357.81 252.894 361.018 225.16 361.018 205.651H336.385Z" fill="black"/>
<path opacity="0.2" d="M339.972 219.911C339 218.035 337.105 223.625 335.783 230.799C335.783 240.694 335.958 251.951 336.823 261.487C343.423 249.288 342.023 223.799 339.972 219.911Z" fill="black"/>
<path d="M374.034 330.282L378.02 333.373L390.142 323.545L386.506 320.25L374.034 330.282Z" fill="#2C6BDB"/>
<path opacity="0.4" d="M374.034 330.282L378.02 333.373L390.142 323.545L386.506 320.25L374.034 330.282Z" fill="#FAFAFA"/>
<path d="M322.835 205.651C322.835 205.651 312.083 251.242 311.325 273.016C310.479 297.445 318.995 355.05 318.995 355.05H331.097C331.097 355.05 332.585 296.997 333.129 274.746C333.712 250.493 347.944 205.651 347.944 205.651H322.835Z" fill="#18A0FB"/>
<path opacity="0.2" d="M322.835 205.651C322.835 205.651 312.083 251.242 311.325 273.016C310.479 297.445 318.995 355.05 318.995 355.05H331.097C331.097 355.05 332.585 296.997 333.129 274.746C333.712 250.493 347.944 205.651 347.944 205.651H322.835Z" fill="black"/>
<path d="M316.671 350.229C316.613 350.229 317.352 355.255 317.352 355.255H332.069L332.468 350.773L316.671 350.229Z" fill="#2C6BDB"/>
<path opacity="0.4" d="M316.671 350.229C316.613 350.229 317.352 355.255 317.352 355.255H332.069L332.468 350.773L316.671 350.229Z" fill="#FAFAFA"/>
<path d="M73.9594 368.946V360.826L59.3999 360.721L59.2764 373.001L60.1787 373.068C64.1961 373.324 80.6172 373.704 83.3144 372.869C86.3156 371.938 73.9594 368.946 73.9594 368.946Z" fill="#FF725E"/>
<path d="M83.6563 372.109C83.6563 372.242 78.2048 372.356 71.4901 372.356C64.7754 372.356 59.3239 372.242 59.3239 372.109C59.3239 371.976 64.7754 371.862 71.4901 371.862C78.2048 371.862 83.6563 371.976 83.6563 372.109Z" fill="#263238"/>
<path d="M74.2158 370.609C74.0924 370.542 74.2158 370.115 74.5103 369.659C74.8047 369.203 75.2036 369.013 75.2985 369.108C75.3935 369.203 75.1941 369.564 74.9091 369.953C74.6242 370.343 74.3393 370.675 74.2158 370.609Z" fill="#263238"/>
<path d="M75.1466 371.14C75.0136 371.14 75.0801 370.608 75.3651 370.105C75.65 369.602 76.0299 369.298 76.1343 369.374C76.2388 369.45 76.0679 369.877 75.8019 370.324C75.536 370.77 75.2701 371.188 75.1466 371.14Z" fill="#263238"/>
<path d="M63.7117 372.071C63.6547 372.071 63.4362 371.9 63.1228 371.539C62.7402 371.075 62.314 370.649 61.8501 370.267C61.394 369.902 60.8505 369.663 60.2736 369.573C59.8272 369.516 59.5423 369.573 59.5138 369.516C59.4853 369.459 59.7607 369.26 60.2831 369.222C60.9724 369.207 61.6449 369.436 62.1826 369.868C62.6863 370.278 63.1111 370.777 63.4362 371.34C63.6547 371.758 63.7686 372.033 63.7117 372.071Z" fill="#263238"/>
<path d="M74.2634 369.08C74.3298 369.194 74.0829 369.478 73.665 369.63C73.2471 369.782 72.8767 369.725 72.8577 369.63C72.8387 369.535 73.1332 369.336 73.4941 369.203C73.855 369.07 74.1874 368.966 74.2634 369.08Z" fill="#263238"/>
<path d="M74.0354 368.291C74.0354 368.434 73.6555 368.548 73.1617 368.557C72.6678 368.567 72.2784 368.453 72.2879 368.32C72.2974 368.187 72.6868 368.063 73.1617 368.054C73.6365 368.044 74.0164 368.158 74.0354 368.291Z" fill="#263238"/>
<path d="M109.812 368.946V360.826L95.2527 360.721L95.1292 372.878L96.0315 372.945C100.049 373.201 116.479 373.704 119.167 372.869C122.168 371.938 109.812 368.946 109.812 368.946Z" fill="#FF725E"/>
<path d="M119.509 372.128C119.509 372.261 114.067 372.375 107.343 372.375C100.619 372.375 95.1862 372.261 95.1862 372.128C95.1862 371.995 100.628 371.881 107.343 371.881C114.058 371.881 119.509 371.995 119.509 372.128Z" fill="#263238"/>
<path d="M99.5646 372.071C99.5076 372.071 99.2986 371.9 98.9757 371.539C98.5931 371.075 98.167 370.649 97.7031 370.267C97.2469 369.902 96.7034 369.663 96.1265 369.573C95.6896 369.516 95.3952 369.573 95.3667 369.516C95.3382 369.459 95.6136 369.26 96.136 369.222C96.8254 369.207 97.4978 369.436 98.0355 369.868C98.5418 370.276 98.9671 370.775 99.2891 371.34C99.5076 371.758 99.6215 372.033 99.5646 372.071Z" fill="#263238"/>
<path d="M163.454 127.807C163.074 127.417 162.134 127.607 162.134 127.607C162.228 127.06 162.228 126.501 162.134 125.955C161.963 125.423 160.766 125.527 160.766 125.527C160.711 125.079 160.711 124.626 160.766 124.179C160.775 124.079 160.754 123.98 160.705 123.893C160.656 123.806 160.581 123.737 160.491 123.694C159.924 123.463 159.316 123.353 158.705 123.371C157.974 122.849 160.937 118.699 162.039 117.369C163.14 116.039 162.941 115.004 161.963 115.004C161.288 115.004 157.831 118.993 156.768 120.332C155.704 121.671 152.883 125.394 152.788 122.422C152.693 119.449 151.496 117.207 150.746 116.828C149.996 116.448 149.198 117.34 149.606 118.167C149.965 119.105 150.189 120.09 150.271 121.092C150.374 121.89 150.339 122.699 150.167 123.485C149.852 124.947 149.423 126.383 148.885 127.778H148.809C148.809 127.778 128.085 147.656 126.585 149.071C125.246 150.344 98.3108 147.561 92.9068 146.991C91.0705 146.723 89.2161 146.596 87.3603 146.612C85.0144 146.716 84.5965 147.048 82.2602 147.077C76.3598 147.142 70.4732 147.66 64.6519 148.625C62.0161 149.073 59.5539 150.237 57.5341 151.988C55.5142 153.74 54.0143 156.013 53.198 158.559C47.756 175.56 35.4283 215.8 33.2534 238.404C31.6099 241.385 30.1263 244.45 28.8086 247.588C27.2795 251.748 27.6499 251.891 28.1628 251.986C29.5494 252.242 31.126 244.777 31.7148 246.581C32.3037 248.386 28.7232 255.481 30.1763 255.69C32.0757 255.955 33.5858 248.092 33.7663 247.465C33.9467 246.838 34.887 247.037 34.716 247.626C34.4406 248.462 31.7718 257.323 33.6333 257.608C34.659 257.76 34.773 255.889 34.773 255.889C34.773 255.889 36.6725 247.408 37.5368 247.579C38.401 247.75 37.4798 252.755 37.0429 254.426C36.606 256.098 37.2138 256.943 38.1066 256.535C38.7144 256.25 40.1676 251.169 40.5665 249.516C40.9653 247.864 41.9626 243.286 43.3017 245.936C44.6408 248.585 46.6733 250.124 47.5091 250.162C47.6974 250.14 47.8749 250.063 48.0188 249.939C48.1627 249.816 48.2663 249.652 48.3163 249.469C48.3664 249.286 48.3606 249.093 48.2997 248.913C48.2387 248.734 48.1255 248.577 47.9744 248.462C47.2556 247.76 46.6386 246.961 46.1414 246.088C45.6984 245.408 45.377 244.656 45.1917 243.865C44.809 242.29 44.5862 240.68 44.5269 239.06L44.3749 238.11C46.5023 227.577 52.6282 196.663 61.4703 176.918L65.0983 184.383L66.6749 189.91L57.0065 213.777L98.2444 213.236L92.09 189.549L99.5645 164.856C107.647 165.037 128.399 165.34 131.856 163.773C136.206 161.874 158.705 133.458 158.705 133.458C160.172 132.318 161.576 131.101 162.912 129.811C162.912 129.811 164.28 128.661 163.454 127.807Z" fill="#FFBE9D"/>
<path d="M55.1925 196.141C56.3892 192.057 62.534 171.865 62.534 171.865C62.534 171.865 65.5542 188.324 64.7564 190.309C64.0226 192.009 63.1556 193.647 62.1636 195.21C55.1925 205.819 56.1043 211.128 56.1043 211.128L98.2254 209.846C98.3204 203.957 94.8348 190.262 94.113 188.078C93.3912 185.893 95.794 178.742 95.794 178.742C95.794 178.742 100.543 173.907 100.372 171.419C100.282 169.184 100.005 166.96 99.5455 164.771L125.189 165.721L124.381 148.34L87.5503 144.655C86.2681 148.274 74.6717 146.498 74.6717 146.498C62.1541 146.916 61.3753 149.214 56.1708 153.26C50.9662 157.306 42.352 192.028 42.352 192.028L55.1925 196.141Z" fill="#FF725E"/>
<path d="M80.0948 192.028C79.3648 192.159 78.6214 192.197 77.8819 192.142C76.5048 192.142 74.6148 192.047 72.5348 191.838C70.4549 191.629 68.5744 191.335 67.2353 191.069C66.4969 190.974 65.7729 190.789 65.0793 190.518C65.8219 190.518 66.5628 190.588 67.2922 190.727C68.6409 190.898 70.5119 191.136 72.5823 191.344C74.6528 191.553 76.5332 191.696 77.8914 191.791C78.6317 191.8 79.3695 191.88 80.0948 192.028Z" fill="#263238"/>
<path d="M82.982 188.448C82.2518 188.806 81.4796 189.07 80.6836 189.236C76.8944 190.232 72.9851 190.695 69.0682 190.613C68.2577 190.64 67.4471 190.563 66.6559 190.385C67.4558 190.284 68.2622 190.243 69.0682 190.262C70.5593 190.214 72.6108 190.11 74.8712 189.844C77.1315 189.578 79.145 189.198 80.5696 188.894C81.3609 188.683 82.1675 188.534 82.982 188.448Z" fill="#263238"/>
<path d="M97.1522 172.473C97.133 173.197 97.0342 173.917 96.8578 174.62C96.6108 175.94 96.2309 177.744 95.7466 179.72C95.2622 181.695 94.7968 183.519 94.3789 184.753C94.2109 185.46 93.9623 186.145 93.6381 186.795C93.691 186.074 93.8248 185.36 94.037 184.668C94.3979 183.186 94.8063 181.477 95.2622 179.606C95.7181 177.735 96.1549 176.025 96.5158 174.544C96.6444 173.831 96.858 173.135 97.1522 172.473Z" fill="#263238"/>
<path d="M55.6388 193.719C53.4417 193.379 51.2732 192.875 49.1521 192.209C46.9847 191.702 44.8578 191.035 42.7888 190.214C44.9849 190.559 47.1529 191.064 49.2756 191.724C51.4435 192.229 53.5705 192.896 55.6388 193.719Z" fill="#263238"/>
<path d="M100.001 164.562C99.6431 164.623 99.2769 164.623 98.9187 164.562C97.9266 164.46 96.9525 164.227 96.0219 163.868C94.4683 163.285 93.0539 162.382 91.8697 161.219C90.6855 160.056 89.7577 158.659 89.1458 157.116C88.4695 155.419 88.1807 153.592 88.3005 151.769C88.3429 150.265 88.7926 148.801 89.6017 147.533C90.1708 146.678 91.0208 146.05 92.0045 145.757C92.2674 145.684 92.5391 145.649 92.8118 145.652C93.0018 145.652 93.0967 145.652 93.0967 145.652C93.0967 145.652 92.6978 145.652 92.0615 145.909C91.1591 146.242 90.3937 146.867 89.8866 147.685C88.5949 149.717 88.2341 153.431 89.6112 156.897C90.2521 158.532 91.2555 160 92.5459 161.19C93.6032 162.164 94.8209 162.948 96.1454 163.507C97.3883 163.999 98.6814 164.352 100.001 164.562Z" fill="#263238"/>
<path d="M87.3034 145.719C87.4078 143.601 87.6263 141.207 87.6263 141.207C87.6263 141.207 92.8689 140.628 93.1823 135.214C93.4957 129.801 93.1823 117.312 93.1823 117.312L83.6849 112.449L73.1427 120.74L74.7668 147.808L84.4351 148.425C85.1742 148.446 85.8912 148.172 86.4288 147.665C86.9665 147.158 87.281 146.458 87.3034 145.719Z" fill="#FFBE9D"/>
<path d="M88.2436 130.931C88.2436 130.931 88.2436 131.036 88.1581 131.159C88.0874 131.249 87.996 131.32 87.8918 131.366C87.7875 131.413 87.6736 131.433 87.5597 131.425C86.9519 131.425 86.3631 130.722 86.1541 129.906C86.0548 129.51 86.0548 129.095 86.1541 128.7C86.1736 128.527 86.2359 128.362 86.3355 128.219C86.435 128.076 86.5685 127.961 86.724 127.883C86.8517 127.83 86.9951 127.83 87.1229 127.883C87.2176 127.93 87.2943 128.007 87.3413 128.101C87.4078 128.263 87.3413 128.367 87.3413 128.358C87.3413 128.348 87.3413 128.263 87.2463 128.168C87.1967 128.1 87.1237 128.052 87.0413 128.035C86.9589 128.017 86.873 128.031 86.8 128.073C86.6835 128.143 86.5867 128.242 86.5186 128.36C86.4505 128.478 86.4133 128.611 86.4106 128.747C86.3306 129.1 86.3306 129.467 86.4106 129.82C86.6005 130.561 87.1134 131.159 87.5692 131.216C87.6584 131.228 87.7492 131.222 87.8358 131.198C87.9224 131.173 88.003 131.131 88.0726 131.074C88.1866 130.998 88.2246 130.922 88.2436 130.931Z" fill="#EB996E"/>
<path d="M96.4399 114.387C95.7086 111.899 93.0588 110.664 90.6464 109.98C86.9709 108.935 83.001 108.48 79.411 109.8C75.8209 111.12 71.5091 113.437 71.5091 117.398C69.3912 117.227 68.1755 119.079 67.3397 121.377C66.8054 122.777 66.4852 124.25 66.39 125.746C66.1241 130.932 64.671 138.093 61.3089 141.892C59.4094 144.009 56.7786 145.472 55.6959 148.112C54.7461 150.401 55.24 153.118 54.3567 155.435C53.5685 157.477 51.8304 158.93 50.5578 160.706C49.2612 162.721 48.4982 165.032 48.3403 167.423C48.1825 169.813 48.6351 172.205 49.6555 174.373C50.6833 176.485 52.1303 178.366 53.9085 179.901C55.6866 181.435 57.7586 182.592 59.9982 183.3C64.4345 184.65 69.1653 184.696 73.627 183.433C76.9756 182.633 80.0993 181.084 82.7636 178.903C85.4897 176.677 87.362 173.576 88.0631 170.127C88.7375 166.252 87.6547 162.311 86.8475 158.455C84.3211 146.27 85.0429 145.634 88.2341 134.322C88.3101 134.123 88.3481 133.914 88.405 133.714C88.462 133.515 88.4905 133.42 88.5285 133.268C88.6192 132.821 88.6669 132.366 88.671 131.91C88.2049 132.083 87.699 132.12 87.2127 132.015C86.7265 131.911 86.2802 131.67 85.9262 131.321C85.5714 130.949 85.324 130.487 85.2103 129.985C85.0966 129.484 85.1208 128.961 85.2804 128.472C85.5045 127.937 85.8384 127.455 86.2605 127.058C86.6826 126.66 87.1835 126.355 87.7307 126.164C88.7849 125.727 89.9151 125.499 90.9503 125.015C93.1443 123.97 94.6638 121.804 95.6991 119.535C96.5502 117.961 96.8128 116.136 96.4399 114.387Z" fill="#263238"/>
<path d="M88.6235 131.188C88.8242 131.484 88.9899 131.803 89.1174 132.137C89.4023 132.736 89.7822 133.581 90.2001 134.559L90.276 134.74H90.0766L89.1268 134.825C88.4715 134.825 87.9207 134.949 87.2749 134.939C87.2186 134.927 87.1665 134.9 87.1233 134.862C87.0802 134.823 87.0473 134.775 87.0279 134.721C86.9996 134.634 86.9996 134.541 87.0279 134.455C87.0499 134.327 87.0784 134.2 87.1134 134.075L87.2843 133.401C87.3703 132.951 87.504 132.511 87.6832 132.09C87.6656 132.548 87.5987 133.004 87.4838 133.448L87.3508 134.122C87.3033 134.35 87.2179 134.702 87.3508 134.673C87.8257 134.673 88.5 134.569 89.1268 134.531L90.0766 134.445L89.9531 134.654C89.5447 133.704 89.2028 132.812 89.0034 132.194C88.8284 131.879 88.7004 131.54 88.6235 131.188Z" fill="#FF725E"/>
<path d="M56.1042 211.128L98.2253 209.846L116.555 281.399L113.184 363.476H90.9123L93.638 283.147L77.35 233.333L79.8573 366.658L57.3484 366.99L54.9835 241.672C54.879 238.186 53.7393 230.332 54.1667 226.875L56.1042 211.128Z" fill="#1A475E"/>
<path d="M82.9535 234.349C82.2641 234.392 81.5719 234.351 80.8926 234.226C79.6199 234.074 77.8819 233.808 75.9729 233.428C74.0639 233.048 72.3544 232.611 71.1197 232.26C70.4597 232.115 69.8212 231.885 69.2202 231.576C69.2202 231.433 72.3164 232.174 76.1153 232.943C79.9143 233.713 82.9725 234.207 82.9535 234.349Z" fill="#455A64"/>
<path d="M112.956 358.974C112.956 359.107 107.913 359.221 101.692 359.221C95.4711 359.221 90.4185 359.107 90.4185 358.974C90.4185 358.841 95.4616 358.727 101.692 358.727C107.922 358.727 112.956 358.832 112.956 358.974Z" fill="#455A64"/>
<path d="M79.6579 363.191C79.6579 363.333 74.7572 363.438 68.7168 363.438C62.6765 363.438 57.7853 363.333 57.7853 363.191C57.7853 363.048 62.686 362.944 68.7168 362.944C74.7477 362.944 79.6579 363.058 79.6579 363.191Z" fill="#455A64"/>
<path d="M76.7517 362.849C76.6187 362.849 76.0299 333.721 75.4316 297.792C74.8332 261.863 74.4818 232.715 74.6053 232.715C74.7288 232.715 75.3366 261.835 75.9254 297.782C76.5143 333.73 76.8942 362.849 76.7517 362.849Z" fill="#455A64"/>
<path d="M109.964 358.974C109.954 358.845 109.954 358.714 109.964 358.585V357.445C109.964 356.419 110.04 354.947 110.097 353.076C110.23 349.277 110.42 343.759 110.658 336.997C111.17 323.397 111.892 304.649 112.68 283.954C112.68 283.755 112.68 283.565 112.68 283.394V283.46C107.694 263.516 103.183 245.413 99.9064 232.317L96.1075 216.826C95.6706 215.012 95.3382 213.597 95.1007 212.609C94.9868 212.144 94.9108 211.783 94.8443 211.508C94.8073 211.384 94.785 211.257 94.7778 211.128C94.8272 211.247 94.8653 211.371 94.8918 211.498C94.9678 211.764 95.0627 212.125 95.1957 212.581C95.4521 213.531 95.8225 214.974 96.2974 216.779C97.2472 220.445 98.5863 225.725 100.258 232.231C103.563 245.318 108.122 263.373 113.174 283.346V283.413C113.174 283.584 113.174 283.783 113.174 283.973C112.329 304.668 111.56 323.406 110.999 337.007C110.705 343.778 110.458 349.258 110.287 353.076C110.192 354.976 110.116 356.419 110.069 357.445C110.069 357.93 110.012 358.309 110.002 358.585C110.004 358.716 109.991 358.846 109.964 358.974Z" fill="#455A64"/>
<path d="M102.699 281.722C101.099 282.248 99.451 282.614 97.779 282.814C95.7275 283.166 93.98 283.413 93.1917 283.451V283.261C93.4481 283.337 93.5811 283.384 93.5811 283.422C93.5811 283.46 93.4196 283.422 93.1537 283.422H92.5839L93.1537 283.251C93.8945 283.033 95.642 282.672 97.6935 282.301C99.3388 281.945 101.015 281.751 102.699 281.722Z" fill="#455A64"/>
<path d="M102.309 284.448C100.828 284.516 99.3433 284.449 97.874 284.249C96.3904 284.218 94.9125 284.056 93.4576 283.764C96.4258 283.522 99.4135 283.753 102.309 284.448Z" fill="#455A64"/>
<path opacity="0.2" d="M55.9238 212.638C56.4227 213.279 57.051 213.807 57.7678 214.188C58.4846 214.569 59.2737 214.795 60.0837 214.851C61.7801 215.052 63.4961 215.02 65.1838 214.756C76.0584 213.55 87.5788 212.439 98.2254 209.846C84.4446 210.615 69.8851 210.359 56.1043 211.128L55.9618 212.306" fill="black"/>
<g opacity="0.2">
<path opacity="0.2" d="M70.1224 232.06L77.8913 262.205L77.35 233.333L70.1224 232.06Z" fill="black"/>
</g>
</g>
<defs>
<clipPath id="clip0">
<rect width="410" height="410" fill="white"/>
</clipPath>
</defs>
</svg>
