<svg width="36" height="36" fill="none" xmlns="http://www.w3.org/2000/svg"><path d="M30.375 11.25h-6.567l-.601-1.68-.805-2.258h-8.807L12.79 9.57l-.601 1.68H5.625a.282.282 0 0 0-.281.281v16.032c0 .154.126.28.281.28h24.75a.282.282 0 0 0 .281-.28V11.53a.282.282 0 0 0-.281-.281zM18 24.75a5.623 5.623 0 0 1-5.625-5.625A5.623 5.623 0 0 1 18 13.5a5.623 5.623 0 0 1 5.625 5.625A5.623 5.623 0 0 1 18 24.75z" fill="#8DDF70" fill-opacity=".15"/><path d="M18 13.5a5.623 5.623 0 0 0-5.625 5.625A5.623 5.623 0 0 0 18 24.75a5.623 5.623 0 0 0 5.625-5.625A5.623 5.623 0 0 0 18 13.5zm0 9a3.376 3.376 0 1 1 .002-6.752A3.376 3.376 0 0 1 18 22.5z" fill="#8DDF70"/><path d="M30.375 8.719h-4.781l-1.14-3.192a1.128 1.128 0 0 0-1.061-.746H12.607c-.475 0-.9.3-1.058.746l-1.143 3.192H5.625a2.812 2.812 0 0 0-2.813 2.812v16.032a2.812 2.812 0 0 0 2.813 2.812h24.75a2.812 2.812 0 0 0 2.813-2.813v-16.03a2.812 2.812 0 0 0-2.813-2.813zm.281 18.843a.282.282 0 0 1-.281.282H5.625a.282.282 0 0 1-.281-.282v-16.03c0-.155.126-.282.281-.282h6.564l.6-1.68.806-2.258h8.807l.805 2.258.6 1.68h6.568c.155 0 .281.127.281.281v16.032z" fill="#8DDF70"/></svg>