<svg width="36" height="36" fill="none" xmlns="http://www.w3.org/2000/svg"><path d="m30.21 20.029.007.003a12.496 12.496 0 0 0 .032-3.81 12.485 12.485 0 0 1-.04 3.806zM3.48 13.995a1.568 1.568 0 0 0 .028.028l2.303 1.965v-.004l-2.33-1.99zm18.865-7.594h.004l-.545-2.946a.808.808 0 0 0-.025-.099l.014.057.552 2.988zm1.899 19.213 1.104-.907 3.262 1.157c.598-.806 1.1-1.67 1.498-2.588l-2.626-2.247.232-1.41a9.949 9.949 0 0 0 0-3.24l-.229-1.403 2.626-2.247c-.4-.914-.9-1.782-1.497-2.587l-3.263 1.156-1.104-.907a9.872 9.872 0 0 0-2.788-1.61l-1.339-.503-.63-3.41a13.272 13.272 0 0 0-2.988 0l-.629 3.417-1.332.503a9.835 9.835 0 0 0-2.767 1.607l-1.104.91-3.284-1.167c-.597.805-1.1 1.67-1.497 2.588l2.654 2.267-.229 1.406a9.691 9.691 0 0 0-.13 1.6c0 .534.046 1.076.13 1.6l.229 1.406-2.654 2.267c.4.915.9 1.783 1.497 2.588l3.284-1.167 1.104.91a9.836 9.836 0 0 0 2.767 1.607l1.329.51.629 3.417c.991.112 2 .112 2.988 0l.63-3.41 1.339-.503a9.824 9.824 0 0 0 2.788-1.61zm-6.226-1.768a6.166 6.166 0 0 1-2.964-.756 6.188 6.188 0 1 1 8.388-8.388 6.18 6.18 0 0 1-5.425 9.144zM7.284 28.575c-.193.067-.393.08-.583.042.2.042.411.035.615-.035l2.862-1.02-.014-.01-2.88 1.023zm25.229-14.58-2.303 1.97.003.024 2.3-1.965c.25-.215.39-.524.393-.844-.01.31-.15.608-.393.816z" fill="#F1FFFD"/><path d="M32.9 22.732c.017.165 0 .334-.06.496l-.032.091a15.682 15.682 0 0 1-2.802 4.848l-.063.074a1.124 1.124 0 0 1-1.234.334l-2.859-1.016a12.304 12.304 0 0 1-3.505 2.025l-.552 2.988a1.127 1.127 0 0 1-.907.904l-.095.017c-.918.166-1.85.25-2.784.25h.01c.94 0 1.878-.084 2.792-.25l.095-.017a1.127 1.127 0 0 0 .907-.904l.552-2.985a12.357 12.357 0 0 0 3.502-2.021l2.854 1.016a1.126 1.126 0 0 0 1.234-.334l.064-.074a15.677 15.677 0 0 0 2.798-4.84l.032-.092c.056-.165.073-.341.052-.51z" fill="#F1FFFD"/><path d="M24.188 17.648A6.186 6.186 0 0 0 18 11.461a6.188 6.188 0 1 0 6.188 6.187zm-10.125 0c0-1.05.41-2.039 1.153-2.784A3.909 3.909 0 0 1 18 13.711c1.051 0 2.04.408 2.784 1.153a3.924 3.924 0 0 1 1.154 2.784c0 1.052-.412 2.04-1.154 2.785A3.922 3.922 0 0 1 18 21.586a3.924 3.924 0 0 1-2.784-1.153 3.924 3.924 0 0 1-1.153-2.785z" fill="#70DFCB"/><path d="M20.886 33.476a1.126 1.126 0 0 0 .907-.904l.552-2.988a12.302 12.302 0 0 0 3.505-2.025l2.858 1.016a1.125 1.125 0 0 0 1.235-.334l.063-.074a15.68 15.68 0 0 0 2.802-4.848l.031-.091c.06-.162.078-.33.06-.496a1.148 1.148 0 0 0-.386-.735l-2.296-1.965-.007-.003a12.642 12.642 0 0 0 .038-3.808c-.01-.077-.024-.155-.035-.232l-.003-.025 2.303-1.968a1.127 1.127 0 0 0 .326-1.238l-.031-.091a15.6 15.6 0 0 0-2.802-4.848l-.064-.074a1.13 1.13 0 0 0-1.233-.334L25.85 8.427a12.37 12.37 0 0 0-3.501-2.025h-.004l-.552-2.988a1.128 1.128 0 0 0-.907-.904l-.095-.017a15.883 15.883 0 0 0-5.59 0l-.094.017a1.127 1.127 0 0 0-.907.904l-.556 3.002a12.371 12.371 0 0 0-3.48 2.018l-2.88-1.023a1.125 1.125 0 0 0-1.234.334l-.063.074a15.68 15.68 0 0 0-2.802 4.848l-.032.091a1.128 1.128 0 0 0 .278 1.192c.018.014.032.032.05.046l2.33 1.99v.003c-.109.661-.161 1.332-.161 2.004 0 .675.052 1.35.161 2.007l-2.33 1.99a1.126 1.126 0 0 0-.328 1.238l.032.091a15.64 15.64 0 0 0 2.802 4.848l.063.074a1.143 1.143 0 0 0 1.234.334l2.88-1.023.014.01a12.347 12.347 0 0 0 3.466 2.008l.556 3.002a1.126 1.126 0 0 0 .907.904l.095.017c.917.166 1.856.25 2.794.25h.011c.935 0 1.874-.084 2.784-.25l.095-.017zm-1.399-2.338c-.993.112-1.995.112-2.988 0l-.63-3.417-1.328-.51a9.834 9.834 0 0 1-2.767-1.607l-1.104-.91-3.284 1.167a13.287 13.287 0 0 1-1.497-2.588l2.654-2.267-.229-1.406a10.122 10.122 0 0 1-.13-1.6c0-.538.043-1.076.13-1.6l.229-1.406-2.654-2.267c.397-.918.9-1.783 1.497-2.588l3.284 1.167 1.104-.91a9.836 9.836 0 0 1 2.767-1.607l1.332-.503.63-3.417a13.272 13.272 0 0 1 2.988 0l.629 3.41 1.34.503a9.873 9.873 0 0 1 2.787 1.61l1.104.907 3.263-1.156a13.283 13.283 0 0 1 1.497 2.587l-2.626 2.247.229 1.402a9.949 9.949 0 0 1 0 3.242l-.232 1.41 2.626 2.246c-.398.917-.9 1.785-1.498 2.587l-3.262-1.156-1.104.907a9.821 9.821 0 0 1-2.788 1.61l-1.34.503-.629 3.41z" fill="#70DFCB"/></svg>