<svg width="36" height="36" fill="none" xmlns="http://www.w3.org/2000/svg"><path d="M31.07 9.96A2.25 2.25 0 0 0 29.227 9h-5.602V5.625a2.253 2.253 0 0 0-2.25-2.25h-18a2.253 2.253 0 0 0-2.25 2.25v23.063h3.732a4.78 4.78 0 0 0 9.41 0h7.465a4.78 4.78 0 0 0 9.41 0h3.733v-12.76a1.68 1.68 0 0 0-.305-.968l-3.5-5zM3.374 5.625h18.001V18h-18L3.374 5.625zm6.188 24.75a2.532 2.532 0 1 1 0-5.063 2.532 2.532 0 0 1 0 5.063zm16.876 0a2.532 2.532 0 1 1 0-5.064 2.532 2.532 0 0 1 0 5.064zm6.187-3.938h-1.618a4.782 4.782 0 0 0-9.14 0h-7.735a4.782 4.782 0 0 0-9.14 0H3.376V20.25h29.25v6.188zm0-8.437h-9v-6.75h5.602l3.398 4.855V18z" fill="#7089DF"/></svg>