<svg width="36" height="36" fill="none" xmlns="http://www.w3.org/2000/svg"><path d="M18 11.25a1.687 1.687 0 1 0 0-3.374 1.687 1.687 0 0 0 0 3.374z" fill="#DF7070"/><path d="M19.656 3.272a2.626 2.626 0 0 0-3.312 0L5.089 12.42c-1.368 1.114-.58 3.33 1.184 3.33h.477v9.45a4.12 4.12 0 0 0-2.25 3.674v1.501A1.125 1.125 0 0 0 5.625 31.5h24.75a1.125 1.125 0 0 0 1.125-1.125v-1.5a4.122 4.122 0 0 0-2.25-3.675v-9.45h.477c1.764 0 2.552-2.216 1.181-3.33l-11.25-9.148h-.002zm-1.89 1.746a.375.375 0 0 1 .473 0L28.666 13.5H7.33l10.436-8.482zM27 24.75h-2.25v-9H27v9zm-4.5 0h-3.375v-9H22.5v9zm-5.625 0H13.5v-9h3.375v9zm10.5 2.25c1.036 0 1.875.84 1.875 1.874v.376H6.75v-.376C6.75 27.84 7.59 27 8.624 27h18.752zM11.25 24.75H9v-9h2.25v9z" fill="#DF7070"/></svg>