<svg width="36" height="36" fill="none" xmlns="http://www.w3.org/2000/svg"><path d="M16.5 22.5c4.5 0 12 6 12 6v-24s-7.5 6-12 6v12zm-9 0 4.5 12h6l-4.5-12h-6zm21-1.5a4.501 4.501 0 0 0 1.722-8.658A4.501 4.501 0 0 0 28.5 12v9zM18 27c1.5 0 1.5 0 1.5-1.5L18 27zM3 16.5c0-4.666 2.686-6 6-6h7.5v12H9c-3.314 0-6-1.334-6-6z" fill="#FFFFF1"/><path d="M16.5 22.5c4.5 0 12 6 12 6v-24s-7.5 6-12 6m0 12v-12m0 12H9c-3.314 0-6-1.334-6-6s2.686-6 6-6h7.5m-9 12 4.5 12h6l-4.5-12h-6zm21-1.5a4.501 4.501 0 0 0 1.722-8.658A4.501 4.501 0 0 0 28.5 12v9zM18 27c1.5 0 1.5 0 1.5-1.5L18 27z" stroke="#DDDF70" stroke-width="3"/></svg>