<svg width="36" height="36" fill="none" xmlns="http://www.w3.org/2000/svg"><path opacity=".3" d="M13.5 16.5c1.65 0 3-1.35 3-3h-6c0 1.65 1.35 3 3 3zM11.25 9c.42 0 .75-.33.75-.75V6.21a5.74 5.74 0 0 0-1.5.615V8.25c0 .42.33.75.75.75zm4.5 0c.42 0 .75-.33.75-.75V6.825A5.74 5.74 0 0 0 15 6.21v2.04c0 .42.33.75.75.75zM13.5 25.5c-4.035 0-8.655 1.92-9 3h18c-.3-1.065-4.95-3-9-3z" fill="#70DFCB"/><path d="M13.5 22.5c-4.005 0-12 2.01-12 6v3h24v-3c0-3.99-7.995-6-12-6zm-9 6c.33-1.08 4.965-3 9-3 4.05 0 8.7 1.935 9 3h-18zm2.61-15h.39c0 3.315 2.685 6 6 6s6-2.685 6-6h.39c.405 0 .735-.33.735-.735v-.03A.735.735 0 0 0 19.89 12h-.39c0-2.22-1.215-4.125-3-5.175V8.25c0 .42-.33.75-.75.75S15 8.67 15 8.25V6.21c-.48-.12-.975-.21-1.5-.21s-1.02.09-1.5.21v2.04c0 .42-.33.75-.75.75s-.75-.33-.75-.75V6.825c-1.785 1.05-3 2.955-3 5.175h-.39a.736.736 0 0 0-.735.735v.045c0 .39.33.72.735.72zm9.39 0c0 1.65-1.35 3-3 3s-3-1.35-3-3h6zm16.47-4.155L34.365 8.1 33.24 6.15l-1.785.585c-.21-.165-.45-.3-.705-.405l-.375-1.83h-2.25l-.375 1.83c-.255.105-.495.24-.72.405l-1.77-.585-1.125 1.95 1.395 1.245c-.03.255-.03.525 0 .78L24.135 11.4l1.125 1.95 1.8-.57c.195.15.42.27.645.375l.42 1.845h2.25l.405-1.83c.24-.105.45-.225.66-.375l1.785.57 1.125-1.95-1.395-1.275c.045-.285.03-.54.015-.795zm-3.72 2.28a1.875 1.875 0 1 1 0-3.75 1.875 1.875 0 0 1 0 3.75zm-.345 6.84.99-.885-.81-1.395-1.275.42c-.15-.12-.315-.21-.495-.285L27.06 15h-1.605l-.27 1.305c-.18.075-.36.18-.51.285l-1.26-.42-.81 1.395.99.885a3.427 3.427 0 0 0 0 .555l-.99.915.81 1.395 1.29-.405c.15.105.3.195.465.27l.27 1.32h1.605l.285-1.305c.165-.075.33-.165.48-.27l1.275.405.81-1.395-.99-.915a3.427 3.427 0 0 0 0-.555zm-2.655 1.62c-.735 0-1.335-.6-1.335-1.335s.6-1.335 1.335-1.335 1.335.6 1.335 1.335-.6 1.335-1.335 1.335z" fill="#70DFCB"/></svg>