<svg width="36" height="36" fill="none" xmlns="http://www.w3.org/2000/svg"><path d="M6 13.5h7.5c0-1.65-1.35-3-3-3H6c-.825 0-1.5.675-1.5 1.5s.675 1.5 1.5 1.5z" fill="#DFC770"/><path d="M33 21.09V12c0-1.65-1.35-3-3-3h-9.435l-1.59-1.59 2.115-2.115-1.065-1.065-5.295 5.295 1.065 1.065 2.115-2.115 1.59 1.59V13.5c0 1.65-1.35 3-3 3h-3.06a9.18 9.18 0 0 0-1.035-.645l-.6 1.335-.69-.315.6-1.35A7.353 7.353 0 0 0 9 15c-.795 0-1.56.165-2.28.39l.51 1.365-.705.27L6 15.63a7.38 7.38 0 0 0-3.645 3.465l1.335.6-.315.69-1.35-.6A7.353 7.353 0 0 0 1.5 22.5c0 .795.165 1.56.39 2.28l1.365-.51.27.705-1.395.525a7.38 7.38 0 0 0 3.465 3.645l.6-1.335.69.315-.6 1.35C7.11 29.805 8.04 30 9 30c.795 0 1.56-.165 2.28-.39l-.51-1.365.705-.27L12 29.37a7.38 7.38 0 0 0 3.645-3.465l-1.335-.6.315-.69 1.35.6c.15-.39.27-.81.36-1.23h7.74c-.03.255-.075.51-.075.765A5.256 5.256 0 0 0 29.25 30a5.256 5.256 0 0 0 5.25-5.25c0-1.425-.57-2.715-1.5-3.66zM9 27c-2.49 0-4.5-2.01-4.5-4.5S6.51 18 9 18s4.5 2.01 4.5 4.5S11.49 27 9 27zm7.305-6c-.06-.27-.12-.525-.195-.78l-1.365.51-.27-.705 1.395-.525h.63c3.315 0 6-2.685 6-6V12H30v7.575c-.24-.03-.495-.075-.75-.075-1.425 0-2.715.57-3.66 1.5h-9.285zm12.945 6A2.247 2.247 0 0 1 27 24.75a2.247 2.247 0 0 1 2.25-2.25 2.247 2.247 0 0 1 2.25 2.25A2.247 2.247 0 0 1 29.25 27z" fill="#DFC770"/><path opacity=".3" d="M30 19.575V12h-7.5v1.5c0 3.315-2.685 6-6 6h-.63c.21.48.375.975.48 1.5h9.24a5.196 5.196 0 0 1 3.66-1.5c.255 0 .51.045.75.075z" fill="#DFC770"/></svg>