<svg width="36" height="36" fill="none" xmlns="http://www.w3.org/2000/svg"><path d="M15.632 6C7.737 6 3 12.4 3 15.6c0 3.2 1.579 5.6 4.737 5.6 3.158 0 4.737.8 4.737 3.2 0 3.2 2.368 5.6 5.526 5.6 10.264 0 15-5.6 15-11.2C33 9.2 25.103 6 15.632 6zm-1.974 3.2a1.959 1.959 0 0 1 1.397.587 1.999 1.999 0 0 1 .577 1.413c0 1.105-.884 2-1.974 2-1.09 0-1.974-.895-1.974-2a2.016 2.016 0 0 1 .577-1.413 1.976 1.976 0 0 1 1.397-.587zm6.315 0a1.958 1.958 0 0 1 1.396.587 1.998 1.998 0 0 1 .578 1.413 2.016 2.016 0 0 1-.577 1.413 1.974 1.974 0 0 1-1.397.587 1.96 1.96 0 0 1-1.397-.587A2 2 0 0 1 18 11.2c-.001-.53.206-1.038.576-1.413s.873-.586 1.397-.587zm6.316 3.2a1.959 1.959 0 0 1 1.397.587 1.999 1.999 0 0 1 .577 1.413 2.015 2.015 0 0 1-.577 1.413 1.974 1.974 0 0 1-1.397.587 1.958 1.958 0 0 1-1.397-.587 1.996 1.996 0 0 1-.576-1.413 2.015 2.015 0 0 1 .576-1.413 1.975 1.975 0 0 1 1.397-.587zM8.132 14a1.958 1.958 0 0 1 1.396.587 1.997 1.997 0 0 1 .577 1.412c0 1.106-.884 2-1.973 2-1.09 0-1.974-.895-1.974-2 0-.53.207-1.037.577-1.412S7.608 14 8.132 14zM18 22c1.308 0 2.368 1.074 2.368 2.4 0 1.326-1.06 2.4-2.368 2.4-1.308 0-2.368-1.074-2.368-2.4a2.416 2.416 0 0 1 .691-1.695A2.37 2.37 0 0 1 18 22z" fill="#DF709F"/></svg>