<svg width="36" height="36" fill="none" xmlns="http://www.w3.org/2000/svg"><path d="M22.091 30.479c0 2.48 3.92 3.521 3.92 3.521h-15.81s3.92-1.041 3.92-3.521v-2.466h7.89l.08 2.466z" fill="#FFE2E2"/><path d="M31.597 28H4.616a2.537 2.537 0 0 1-2.537-2.538V8.017a2.537 2.537 0 0 1 2.537-2.538h26.981a2.538 2.538 0 0 1 2.538 2.538v17.445A2.538 2.538 0 0 1 31.597 28z" fill="#FFD5D5"/><path d="M33.773 23.36 2.107 12.1V7.372A1.335 1.335 0 0 1 3.89 6.113L33.773 16.74v6.621z" fill="#fff"/><path d="M34.135 23.782s.084 2.427-.776 3.415c-.858.987-.36.802-1.762.802H4.616c-1.401 0-2.082-.926-2.082-1.223l-.455-2.994" fill="#FFE2E2"/><path d="M31.597 28H4.616a2.537 2.537 0 0 1-2.537-2.538V8.017a2.537 2.537 0 0 1 2.537-2.538h26.981a2.538 2.538 0 0 1 2.538 2.538v17.445A2.538 2.538 0 0 1 31.597 28v0z" stroke="#DF7070" stroke-width="2" stroke-miterlimit="10" stroke-linecap="round" stroke-linejoin="round"/><path d="M34.135 23.782s.084 2.427-.776 3.415c-.858.987-.36.802-1.762.802H4.616c-1.401 0-2.082-.926-2.082-1.223l-.455-2.994" stroke="#DF7070" stroke-width=".919" stroke-miterlimit="10" stroke-linecap="round" stroke-linejoin="round"/><path d="M31.597 28H4.616a2.537 2.537 0 0 1-2.537-2.538V8.017a2.537 2.537 0 0 1 2.537-2.538h26.981a2.538 2.538 0 0 1 2.538 2.538v17.445A2.538 2.538 0 0 1 31.597 28v0zM3.607 24.246h29M21.591 30.479c0 2.48 4.42 3.521 4.42 3.521h-15.81s4.42-1.041 4.42-3.521" stroke="#DF7070" stroke-width="2" stroke-miterlimit="10" stroke-linecap="round" stroke-linejoin="round"/></svg>