<svg width="8" height="8" viewBox="0 0 8 8" fill="none" xmlns="http://www.w3.org/2000/svg">
<path fill-rule="evenodd" clip-rule="evenodd" d="M-1.53017e-07 4.0001C-1.58814e-07 3.86749 0.0526784 3.74031 0.146447 3.64655C0.240215 3.55278 0.367392 3.5001 0.5 3.5001L6.293 3.5001L4.146 1.3541C4.09951 1.30761 4.06264 1.25242 4.03748 1.19168C4.01232 1.13094 3.99937 1.06584 3.99937 1.0001C3.99937 0.934357 4.01232 0.869256 4.03748 0.808517C4.06264 0.747777 4.09951 0.692588 4.146 0.6461C4.19249 0.599613 4.24768 0.562736 4.30842 0.537577C4.36916 0.512418 4.43426 0.499469 4.5 0.499469C4.56574 0.499469 4.63084 0.512418 4.69158 0.537577C4.75232 0.562736 4.80751 0.599613 4.854 0.6461L7.854 3.6461C7.90056 3.69255 7.93751 3.74772 7.96271 3.80847C7.98792 3.86921 8.00089 3.93433 8.00089 4.0001C8.00089 4.06587 7.98792 4.13099 7.96271 4.19173C7.93751 4.25248 7.90056 4.30765 7.854 4.3541L4.854 7.3541C4.80751 7.40059 4.75232 7.43746 4.69158 7.46262C4.63084 7.48778 4.56574 7.50073 4.5 7.50073C4.43426 7.50073 4.36916 7.48778 4.30842 7.46262C4.24768 7.43746 4.19249 7.40059 4.146 7.3541C4.05211 7.26021 3.99937 7.13288 3.99937 7.0001C3.99937 6.93436 4.01232 6.86926 4.03748 6.80852C4.06264 6.74778 4.09951 6.69259 4.146 6.6461L6.293 4.5001L0.5 4.5001C0.367392 4.5001 0.240215 4.44742 0.146447 4.35365C0.0526784 4.25989 -1.47221e-07 4.13271 -1.53017e-07 4.0001Z" fill="#18A0FB"/>
</svg>
