<svg width="48" height="48" viewBox="0 0 48 48" fill="none" xmlns="http://www.w3.org/2000/svg">
<path d="M38.0001 4H18.0001C15.7941 4 14.0001 5.794 14.0001 8V19.172L4.58606 28.586C4.30644 28.8657 4.11603 29.222 4.0389 29.6099C3.96176 29.9978 4.00137 30.3999 4.15271 30.7653C4.30405 31.1307 4.56033 31.443 4.88915 31.6628C5.21796 31.8826 5.60456 31.9999 6.00006 32V42C6.00006 42.5304 6.21078 43.0391 6.58585 43.4142C6.96092 43.7893 7.46963 44 8.00006 44H40.0001C40.5305 44 41.0392 43.7893 41.4143 43.4142C41.7893 43.0391 42.0001 42.5304 42.0001 42V8C42.0001 5.794 40.2061 4 38.0001 4ZM22.0001 40H10.0001V28.828L16.0001 22.828L22.0001 28.828V40ZM38.0001 40H26.0001V32C26.396 32.0009 26.7833 31.8841 27.1127 31.6645C27.4421 31.4449 27.6989 31.1323 27.8504 30.7665C28.0019 30.4008 28.0413 29.9982 27.9636 29.61C27.8859 29.2217 27.6947 28.8653 27.4141 28.586L18.0001 19.172V8H38.0001V40Z" fill="#DDDF70"/>
<path d="M22 12H26V16H22V12ZM30 12H34V16H30V12ZM30 20.062H34V24H30V20.062ZM30 28H34V32H30V28ZM14 30H18V34H14V30Z" fill="#DDDF70"/>
</svg>
