<svg width="40" height="36" viewBox="0 0 40 36" fill="none" xmlns="http://www.w3.org/2000/svg">
<path d="M14 16C15.5823 16 17.129 15.5308 18.4446 14.6518C19.7602 13.7727 20.7855 12.5233 21.391 11.0615C21.9965 9.59966 22.155 7.99113 21.8463 6.43928C21.5376 4.88743 20.7757 3.46197 19.6569 2.34315C18.538 1.22433 17.1126 0.462403 15.5607 0.153721C14.0089 -0.15496 12.4003 0.00346625 10.9385 0.608967C9.47672 1.21447 8.22729 2.23985 7.34824 3.55544C6.46919 4.87104 6 6.41775 6 8C6 10.1217 6.84285 12.1566 8.34315 13.6569C9.84344 15.1572 11.8783 16 14 16ZM30 20C31.1867 20 32.3467 19.6481 33.3334 18.9888C34.3201 18.3295 35.0892 17.3925 35.5433 16.2961C35.9974 15.1997 36.1162 13.9934 35.8847 12.8295C35.6532 11.6656 35.0818 10.5965 34.2426 9.75736C33.4035 8.91825 32.3344 8.3468 31.1705 8.11529C30.0067 7.88378 28.8003 8.0026 27.7039 8.45673C26.6075 8.91085 25.6705 9.67989 25.0112 10.6666C24.3519 11.6533 24 12.8133 24 14C24 15.5913 24.6321 17.1174 25.7574 18.2426C26.8826 19.3679 28.4087 20 30 20ZM38 34C38.5304 34 39.0391 33.7893 39.4142 33.4142C39.7893 33.0392 40 32.5304 40 32C39.9984 30.1308 39.4729 28.2995 38.4832 26.7138C37.4935 25.1281 36.0792 23.8515 34.4007 23.0289C32.7222 22.2064 30.8468 21.8707 28.9872 22.06C27.1276 22.2493 25.3583 22.9561 23.88 24.1C21.921 22.1487 19.4281 20.8212 16.7156 20.2849C14.0032 19.7485 11.1926 20.0274 8.63845 21.0863C6.08427 22.1452 3.90083 23.9367 2.36348 26.2349C0.826139 28.5331 0.00374039 31.235 0 34C0 34.5304 0.210714 35.0392 0.585786 35.4142C0.960859 35.7893 1.46957 36 2 36H26C26.5304 36 27.0391 35.7893 27.4142 35.4142C27.7893 35.0392 28 34.5304 28 34" fill="#8D70DF"/>
</svg>
