<svg width="48" height="48" viewBox="0 0 48 48" fill="none" xmlns="http://www.w3.org/2000/svg">
<path d="M33 18C33 20.3869 32.0518 22.6761 30.364 24.364C28.6761 26.0518 26.3869 27 24 27C21.6131 27 19.3239 26.0518 17.636 24.364C15.9482 22.6761 15 20.3869 15 18C15 15.6131 15.9482 13.3239 17.636 11.636C19.3239 9.94821 21.6131 9 24 9C26.3869 9 28.6761 9.94821 30.364 11.636C32.0518 13.3239 33 15.6131 33 18Z" fill="#70AADF"/>
<path d="M6 0C4.4087 0 2.88258 0.632141 1.75736 1.75736C0.632141 2.88258 0 4.4087 0 6L0 42C0 43.5913 0.632141 45.1174 1.75736 46.2426C2.88258 47.3679 4.4087 48 6 48H42C43.5913 48 45.1174 47.3679 46.2426 46.2426C47.3679 45.1174 48 43.5913 48 42V6C48 4.4087 47.3679 2.88258 46.2426 1.75736C45.1174 0.632141 43.5913 0 42 0L6 0ZM42 3C42.7957 3 43.5587 3.31607 44.1213 3.87868C44.6839 4.44129 45 5.20435 45 6V42C45 42.7957 44.6839 43.5587 44.1213 44.1213C43.5587 44.6839 42.7957 45 42 45V42C42 39 39 30 24 30C9 30 6 39 6 42V45C5.20435 45 4.44129 44.6839 3.87868 44.1213C3.31607 43.5587 3 42.7957 3 42V6C3 5.20435 3.31607 4.44129 3.87868 3.87868C4.44129 3.31607 5.20435 3 6 3H42Z" fill="#70AADF"/>
</svg>
