<svg width="171" height="160" viewBox="0 0 171 160" fill="none" xmlns="http://www.w3.org/2000/svg">
<path d="M145.235 145.375C112.01 164.462 58.1431 164.462 24.9176 145.375C-8.30778 126.288 -8.30398 95.3464 24.9176 76.2633C58.1393 57.1801 112.014 57.1801 145.235 76.2633C178.457 95.3464 178.461 126.291 145.235 145.375Z" fill="#FAFAFA"/>
<path d="M117.113 116.402C110.131 112.373 98.8123 112.373 91.8305 116.402C85.9129 119.822 85.0159 125.033 89.1282 129.001C88.8958 129.062 88.6722 129.152 88.4631 129.271L66.4192 142.003C65.4843 142.543 65.4843 143.421 66.4192 143.96L67.8027 144.758C68.3219 145.022 68.8991 145.152 69.4814 145.135C70.0637 145.119 70.6325 144.957 71.1359 144.663L91.6595 131.221C91.7434 131.166 91.8222 131.103 91.8951 131.034C98.8807 135.029 110.138 135.017 117.109 131C124.079 126.983 124.113 120.434 117.113 116.402Z" fill="#E6E6E6"/>
<path d="M39.1884 134.461L28.9301 128.513C27.69 127.794 27.69 126.627 28.9301 125.909L100.313 84.5394C101.009 84.1848 101.779 84 102.56 84C103.34 84 104.11 84.1848 104.806 84.5394L115.07 90.4872C116.31 91.206 116.31 92.3726 115.07 93.0913L43.682 134.461C42.9857 134.815 42.2159 135 41.4352 135C40.6544 135 39.8847 134.815 39.1884 134.461Z" fill="#E6E6E6"/>
<path d="M143.932 135.531C151.6 135.531 157.816 132.134 157.816 127.945C157.816 123.755 151.6 120.359 143.932 120.359C136.264 120.359 130.048 123.755 130.048 127.945C130.048 132.134 136.264 135.531 143.932 135.531Z" fill="#E6E6E6"/>
<path d="M150.009 120.412C150.142 118.728 151.64 115.342 153.563 113.297C155.486 111.252 158.355 109.876 160.252 110.701C162.019 111.461 161.631 113.837 159.298 115.235C156.964 116.634 153.498 118.356 152.308 121.005L150.009 124.19V120.412Z" fill="#BA68C8"/>
<path opacity="0.1" d="M150.009 120.412C150.142 118.728 151.64 115.342 153.563 113.297C155.486 111.252 158.355 109.876 160.252 110.701C162.019 111.461 161.631 113.837 159.298 115.235C156.964 116.634 153.498 118.356 152.308 121.005L150.009 124.19V120.412Z" fill="black"/>
<path d="M149.697 122.703C149.725 122.704 149.752 122.695 149.774 122.678C149.796 122.662 149.812 122.639 149.819 122.612C151.408 116.961 156.428 112.666 159.29 111.86C159.319 111.848 159.341 111.826 159.355 111.799C159.368 111.771 159.371 111.739 159.362 111.71C159.354 111.681 159.335 111.655 159.309 111.639C159.283 111.622 159.252 111.616 159.222 111.621C156.307 112.445 151.191 116.808 149.58 122.547C149.575 122.563 149.574 122.58 149.576 122.596C149.578 122.612 149.583 122.628 149.591 122.642C149.599 122.656 149.61 122.669 149.623 122.679C149.636 122.688 149.651 122.696 149.667 122.7L149.697 122.703Z" fill="white"/>
<path d="M150.26 126.432C150.606 125.508 151.887 124.041 153.859 122.901C156.041 121.643 158.709 121.198 159.4 120.134C160.233 118.861 159.21 117.512 157.063 117.603C154.916 117.694 150.955 120.29 150.009 124.604L150.26 126.432Z" fill="#BA68C8"/>
<path d="M149.929 125.421C149.953 125.421 149.976 125.415 149.995 125.402C150.015 125.389 150.03 125.37 150.039 125.349C152.198 120.571 156.09 119.146 157.846 119.059C157.878 119.059 157.909 119.046 157.932 119.023C157.955 119 157.968 118.969 157.968 118.937C157.968 118.905 157.955 118.874 157.932 118.851C157.909 118.828 157.878 118.815 157.846 118.815C155.904 118.91 152.031 120.37 149.827 125.246C149.82 125.261 149.816 125.277 149.815 125.294C149.815 125.31 149.818 125.326 149.824 125.342C149.83 125.357 149.839 125.371 149.851 125.382C149.862 125.394 149.876 125.403 149.891 125.41C149.903 125.416 149.916 125.42 149.929 125.421Z" fill="white"/>
<path d="M26.431 111.797C26.431 111.797 26.051 108.304 24.2951 105.591C22.5392 102.877 20.1675 101.189 17.9403 101.011C15.7132 100.832 13.9154 102.885 16.2985 104.295C18.6815 105.705 22.9154 107.137 24.8652 112.401L26.431 111.797Z" fill="#BA68C8"/>
<path opacity="0.1" d="M26.431 111.797C26.431 111.797 26.051 108.304 24.2951 105.591C22.5392 102.877 20.1675 101.189 17.9403 101.011C15.7132 100.832 13.9154 102.885 16.2985 104.295C18.6815 105.705 22.9154 107.137 24.8652 112.401L26.431 111.797Z" fill="black"/>
<path d="M25.7774 110.889H25.8002C25.8148 110.883 25.8281 110.874 25.8393 110.863C25.8505 110.852 25.8593 110.839 25.8654 110.824C25.8714 110.81 25.8744 110.794 25.8743 110.778C25.8742 110.763 25.871 110.747 25.8648 110.733C23.516 104.941 19.0236 102.523 17.0017 102.052C16.972 102.049 16.9423 102.057 16.9181 102.074C16.8939 102.091 16.8769 102.117 16.8703 102.146C16.8637 102.175 16.8681 102.206 16.8825 102.232C16.8969 102.258 16.9204 102.278 16.9485 102.288C18.9438 102.744 23.3298 105.123 25.6444 110.82C25.6558 110.845 25.675 110.865 25.6991 110.877C25.7232 110.89 25.7508 110.894 25.7774 110.889Z" fill="white"/>
<path d="M15.0899 110.858C15.3066 111.345 15.8501 111.596 16.3252 111.793C16.8385 111.932 17.2915 112.237 17.6136 112.66C18.1495 113.583 17.2715 114.883 17.8454 115.78C17.98 115.962 18.1508 116.114 18.3471 116.226C18.5433 116.339 18.7607 116.409 18.9856 116.434C19.3535 116.487 19.724 116.521 20.0954 116.536C20.2721 116.532 20.4485 116.518 20.6237 116.495C21.1346 116.38 21.6692 116.437 22.144 116.658C22.8775 117.069 23.1017 117.996 23.5464 118.71C23.8229 119.132 24.1871 119.488 24.6141 119.756C25.0411 120.024 25.5209 120.196 26.0207 120.261C26.4462 120.347 26.887 120.318 27.2977 120.177L27.3699 120.132C27.4162 120.083 27.4593 120.031 27.4991 119.976V119.953C27.6283 119.474 27.4155 118.976 27.4079 118.482V118.391C27.4079 117.817 27.4459 117.251 27.4573 116.673C27.4826 115.617 27.4928 114.56 27.4877 113.503C27.4877 112.819 27.5637 112.067 27.2749 111.421C26.9518 110.71 26.1537 110.695 25.8534 109.995C25.7318 109.718 25.6672 109.422 25.5494 109.14C25.3683 108.729 25.0775 108.375 24.7088 108.117C24.3402 107.86 23.9078 107.709 23.459 107.681C22.0604 107.609 20.7985 108.737 19.4151 108.635C19.0558 108.586 18.6993 108.519 18.3471 108.433C17.2069 108.221 15.9109 108.544 15.2762 109.498C15.1362 109.692 15.046 109.917 15.0135 110.155C14.981 110.392 15.0073 110.634 15.0899 110.858Z" fill="#BA68C8"/>
<path d="M27.6283 117.76C27.6436 117.757 27.658 117.75 27.6706 117.741C27.6832 117.732 27.6937 117.72 27.7016 117.706C27.7094 117.693 27.7144 117.678 27.7162 117.662C27.7179 117.647 27.7165 117.631 27.7119 117.616C25.7926 110.379 18.1723 109.338 16.4012 109.463C16.3857 109.464 16.3705 109.468 16.3566 109.475C16.3427 109.482 16.3302 109.492 16.32 109.503C16.3098 109.515 16.3019 109.528 16.2969 109.543C16.2919 109.558 16.2899 109.573 16.2909 109.589C16.2888 109.605 16.29 109.621 16.2946 109.636C16.2991 109.652 16.3068 109.666 16.3172 109.678C16.3276 109.69 16.3404 109.7 16.3549 109.707C16.3694 109.714 16.3851 109.718 16.4012 109.718C18.1457 109.593 25.6026 110.615 27.4877 117.699C27.5 117.725 27.521 117.745 27.5468 117.756C27.5726 117.767 27.6015 117.769 27.6283 117.76Z" fill="white"/>
<path d="M19.1605 114.096C19.185 114.092 19.2076 114.08 19.2251 114.062C19.9287 113.453 20.7581 113.006 21.6541 112.753C22.5502 112.501 23.4909 112.45 24.4092 112.603C24.4408 112.606 24.4724 112.597 24.4978 112.578C24.5232 112.559 24.5404 112.531 24.546 112.5C24.5482 112.485 24.5472 112.469 24.5432 112.454C24.5391 112.439 24.5321 112.424 24.5226 112.412C24.513 112.4 24.5011 112.389 24.4875 112.382C24.4739 112.374 24.4589 112.369 24.4434 112.367C23.4889 112.211 22.5117 112.267 21.5814 112.532C20.6511 112.796 19.7907 113.263 19.0617 113.899C19.0506 113.91 19.0419 113.923 19.0359 113.937C19.0299 113.951 19.0269 113.967 19.0269 113.982C19.0269 113.998 19.0299 114.013 19.0359 114.028C19.0419 114.042 19.0506 114.055 19.0617 114.066C19.075 114.078 19.0908 114.087 19.1078 114.092C19.1248 114.097 19.1428 114.099 19.1605 114.096Z" fill="white"/>
<path d="M111.066 8.33311V9.58014L106.757 12.0689L100.293 15.7834L43.2379 48.7634C42.8998 48.9755 42.6206 49.2693 42.426 49.6177C42.2163 49.9604 42.0993 50.3517 42.0864 50.7533V126.583C42.0864 130.706 39.189 132.378 35.623 130.298C32.0571 128.218 29.1544 123.224 29.1544 119.101V43.2658C29.1765 42.867 29.2923 42.479 29.4923 42.1332C29.6924 41.7875 29.9711 41.4938 30.3059 41.2759L93.8195 4.60264L99.9697 1.05789C100.175 1.40377 100.288 1.7966 100.299 2.19879V3.35561L32.4604 42.6237C32.142 42.8214 31.8777 43.0948 31.6909 43.4197C31.459 43.776 31.3287 44.1888 31.3142 44.6137V120.343C31.3142 123.092 33.2457 126.429 35.6284 127.804C38.011 129.178 39.9372 128.064 39.9372 125.315V49.485C39.9557 49.0878 40.0677 48.7005 40.2641 48.3547C40.4605 48.0089 40.7358 47.7144 41.0675 47.4951L110.731 7.27181C110.932 7.59122 111.047 7.9566 111.066 8.33311Z" fill="#E0E0E0"/>
<path d="M104.597 4.68213V8.333L38.9449 46.2533C38.6076 46.4677 38.3256 46.7587 38.1218 47.1027C37.918 47.4466 37.7983 47.8337 37.7722 48.2326V124.063C37.7722 125.437 36.8117 125.994 35.6231 125.304C34.9972 124.898 34.4758 124.35 34.1015 123.705C33.7272 123.059 33.5103 122.335 33.4686 121.59V45.7545C33.4823 45.3538 33.5973 44.9631 33.8029 44.6189C34.0008 44.2728 34.2793 43.9797 34.6148 43.7645L104.273 3.54654C104.475 3.89182 104.586 4.2824 104.597 4.68213Z" fill="#E0E0E0"/>
<path d="M44.5751 50.8435C44.3689 51.1855 44.2538 51.5747 44.2408 51.9738V127.151C44.2419 127.698 44.2065 128.244 44.1347 128.785C44.1135 128.927 44.0923 129.065 44.071 129.199C44.071 129.327 44.0233 129.449 43.9967 129.576C43.9702 129.703 43.9437 129.799 43.9118 129.905C43.88 130.011 43.8588 130.112 43.8269 130.213C43.4754 131.504 42.649 132.615 41.5133 133.323C39.9691 134.209 37.8996 134.103 35.6231 132.792C30.8472 130.043 27 123.06 27 117.201V42.0188C27.0129 41.6197 27.128 41.2305 27.3343 40.8885L29.4941 42.1303C29.2844 42.473 29.1674 42.8643 29.1544 43.2659V119.096C29.1544 123.219 32.0518 128.234 35.6231 130.293C39.1943 132.351 42.0864 130.685 42.0864 126.578V50.7321C42.0993 50.3306 42.2163 49.9392 42.426 49.5965L44.5751 50.8435Z" fill="#EBEBEB"/>
<path d="M40.2663 48.3547C40.0607 48.6969 39.9457 49.0859 39.932 49.485V125.315C39.932 128.064 38.0005 129.178 35.6231 127.804C33.2458 126.429 31.309 123.091 31.309 120.343V44.5924C31.3235 44.1675 31.4538 43.7547 31.6857 43.3984L33.8083 44.6189C33.6027 44.9631 33.4877 45.3538 33.474 45.7545V121.584C33.5157 122.329 33.7325 123.054 34.1069 123.699C34.4812 124.345 35.0025 124.893 35.6285 125.299C36.8171 125.989 37.7776 125.432 37.7776 124.057V48.2326C37.7905 47.8311 37.9075 47.4398 38.1172 47.097L40.2663 48.3547Z" fill="#EBEBEB"/>
<path d="M99.9698 1.05778L93.8302 4.60252L30.306 41.2758C29.9668 41.4864 29.6872 41.7806 29.4941 42.1301L27.3344 40.8884C27.5273 40.5373 27.8068 40.2414 28.1462 40.0287L91.6651 3.35549L92.8909 2.64442L94.1326 1.94396L95.1939 1.32841L95.8254 0.962259L96.9981 0.288334C97.3401 0.106457 97.7202 0.00782297 98.1074 0.000446609C98.4947 -0.00692975 98.8782 0.0771589 99.2269 0.245881C99.5408 0.447449 99.7968 0.727253 99.9698 1.05778Z" fill="#FAFAFA"/>
<path d="M115.046 9.76578L108.906 13.3105L98.1285 19.5297L45.3924 49.9838C45.0527 50.1977 44.7717 50.4932 44.5752 50.8434L42.4526 49.5964C42.6426 49.2589 42.9122 48.9728 43.238 48.7633L100.288 15.8046L106.752 12.09L111.06 9.60127L112.063 9.02287L112.175 8.9645C112.506 8.80582 112.869 8.72345 113.236 8.72345C113.603 8.72345 113.966 8.80582 114.297 8.9645L114.409 9.03348C114.671 9.22873 114.889 9.47856 115.046 9.76578Z" fill="#FAFAFA"/>
<path d="M104.273 3.54647L34.6149 43.7645C34.2794 43.9796 34.0008 44.2728 33.803 44.6188L31.6804 43.3983C31.8671 43.0734 32.1315 42.8 32.4499 42.6023L100.288 3.33421L101.286 2.7558C101.628 2.57393 102.008 2.47529 102.395 2.46791C102.782 2.46054 103.166 2.54463 103.515 2.71335C103.836 2.92017 104.097 3.20737 104.273 3.54647Z" fill="#FAFAFA"/>
<path d="M110.747 7.27175L41.0676 47.495C40.7266 47.7076 40.4454 48.0034 40.2504 48.3547L38.0959 47.1077C38.2994 46.7535 38.5921 46.4589 38.945 46.2533L104.618 8.33305L107.802 6.50761C108.145 6.32656 108.525 6.22884 108.912 6.22239C109.299 6.21593 109.683 6.30093 110.031 6.47047C110.334 6.67168 110.581 6.94761 110.747 7.27175Z" fill="#FAFAFA"/>
<path d="M115.359 10.9066V86.0838C115.359 89.1669 114.297 91.3267 112.583 92.2818L41.4126 133.375C42.0427 132.997 42.5892 132.494 43.0188 131.897C43.4485 131.3 43.7524 130.623 43.912 129.905C43.9438 129.799 43.9703 129.687 43.9969 129.576C44.0234 129.464 44.0446 129.327 44.0712 129.199C44.0977 129.072 44.1136 128.929 44.1348 128.785C44.2066 128.243 44.2421 127.697 44.241 127.151V51.9736C44.2539 51.5745 44.369 51.1853 44.5753 50.8433C44.7718 50.4932 45.0527 50.1977 45.3925 49.9837L98.1285 19.535L108.906 13.3157L115.046 9.771C115.246 10.1165 115.353 10.5075 115.359 10.9066Z" fill="#F5F5F5"/>
<path d="M51.861 51.2308L62.474 45.0912C63.1108 44.725 63.6202 45.0169 63.6202 45.7545V60.5225C63.5996 60.9211 63.485 61.3091 63.2858 61.6549C63.0866 62.0008 62.8084 62.2946 62.474 62.5124L51.861 68.6521C51.2242 69.0182 50.7095 68.721 50.7095 67.9887V53.2207C50.7311 52.8218 50.8467 52.4336 51.0468 52.0878C51.2469 51.742 51.5259 51.4484 51.861 51.2308Z" fill="#455A64"/>
<path d="M50.7095 74.2927L108.911 40.692V43.1807L50.7095 76.7815V74.2927Z" fill="#BA68C8"/>
<path opacity="0.4" d="M50.7095 74.2927L108.911 40.692V43.1807L50.7095 76.7815V74.2927Z" fill="white"/>
<path d="M51.3993 81.3611L62.9569 74.6909C63.3336 74.468 63.6414 74.6484 63.6414 75.0888V98.3844C63.6291 98.6232 63.5606 98.8557 63.4417 99.0631C63.3228 99.2705 63.1567 99.4471 62.9569 99.5784L51.3993 106.249C51.0173 106.472 50.7095 106.291 50.7095 105.851V82.5551C50.722 82.3157 50.7911 82.0828 50.911 81.8752C51.0309 81.6677 51.1982 81.4915 51.3993 81.3611Z" fill="#F0F0F0"/>
<path d="M51.3993 108.727L62.9569 102.051C63.3336 101.833 63.6414 102.014 63.6414 102.449V120.682L50.7095 128.164V109.937C50.7195 109.694 50.7874 109.458 50.9074 109.248C51.0274 109.037 51.1961 108.859 51.3993 108.727Z" fill="#F0F0F0"/>
<path d="M66.491 72.6425L78.0432 65.9722C78.4253 65.7547 78.7331 65.9298 78.7331 66.3702V97.1479C78.7201 97.3872 78.6509 97.62 78.531 97.8275C78.4112 98.0349 78.244 98.2112 78.0432 98.3419L66.491 105.012C66.1089 105.23 65.8011 105.055 65.8011 104.614V73.8365C65.8149 73.5974 65.8845 73.3649 66.0043 73.1576C66.1241 72.9502 66.2908 72.7738 66.491 72.6425Z" fill="#F0F0F0"/>
<path d="M81.5774 63.9397L93.1297 57.2535C93.5118 57.0307 93.8195 57.2111 93.8195 57.6515V80.9471C93.807 81.1864 93.7379 81.4194 93.618 81.6269C93.4981 81.8345 93.3308 82.0106 93.1297 82.141L81.5774 88.8272C81.1954 89.0501 80.8876 88.8697 80.8876 88.4293V65.1337C80.9001 64.8944 80.9692 64.6614 81.0891 64.4538C81.209 64.2463 81.3763 64.0701 81.5774 63.9397Z" fill="#F0F0F0"/>
<path d="M96.6691 55.2266L108.221 48.5563C108.603 48.3335 108.911 48.5139 108.911 48.9543V79.732C108.897 79.9711 108.828 80.2036 108.708 80.4109C108.588 80.6183 108.422 80.7947 108.221 80.926L96.6691 87.5963C96.287 87.8138 95.9792 87.6387 95.9792 87.1983V56.4206C95.9918 56.1812 96.0608 55.9483 96.1807 55.7407C96.3006 55.5332 96.468 55.357 96.6691 55.2266Z" fill="#F0F0F0"/>
<path d="M66.491 107.496L78.0432 100.825C78.4253 100.603 78.7331 100.783 78.7331 101.223V111.985L65.8011 119.457V108.69C65.8137 108.45 65.8827 108.217 66.0026 108.01C66.1225 107.802 66.2899 107.626 66.491 107.496Z" fill="#F0F0F0"/>
<path d="M80.8663 92.51V110.743L93.7983 103.277V85.0438C93.7983 84.6034 93.4905 84.4282 93.1084 84.6458L81.5562 91.3161C81.3554 91.4468 81.1883 91.6231 81.0684 91.8305C80.9485 92.038 80.8793 92.2708 80.8663 92.51Z" fill="#F0F0F0"/>
<path d="M96.6638 90.0744L108.221 83.4041C108.603 83.1812 108.911 83.3617 108.911 83.8021V94.5637L95.9792 102.03V91.2684C95.9916 91.0296 96.06 90.7971 96.179 90.5896C96.2979 90.3822 96.464 90.2057 96.6638 90.0744Z" fill="#F0F0F0"/>
<path d="M68.6614 108.727L75.9048 104.545C76.2868 104.322 76.5946 104.503 76.5946 104.943V110.849C76.5821 111.089 76.513 111.322 76.3931 111.529C76.2732 111.737 76.1059 111.913 75.9048 112.043L68.6614 116.214C68.2793 116.432 67.9716 116.257 67.9716 115.816V109.942C67.9808 109.699 68.0483 109.462 68.1683 109.25C68.2884 109.039 68.4575 108.859 68.6614 108.727Z" fill="#E0E0E0"/>
<path d="M98.8236 91.3267L106.067 87.1451C106.444 86.9223 106.757 87.1027 106.757 87.5431V93.4174C106.743 93.6564 106.673 93.8887 106.553 94.096C106.433 94.3033 106.267 94.4798 106.067 94.6114L98.8236 98.7929C98.4416 99.0105 98.1338 98.8354 98.1338 98.3949V92.5206C98.1463 92.2813 98.2154 92.0483 98.3353 91.8408C98.4552 91.6333 98.6225 91.4571 98.8236 91.3267Z" fill="#E0E0E0"/>
<path d="M53.5539 82.6081L60.7972 78.4213C61.1793 78.2037 61.4871 78.3841 61.4871 78.8193V84.6989C61.4733 84.9379 61.4037 85.1704 61.2839 85.3778C61.1641 85.5851 60.9974 85.7615 60.7972 85.8928L53.5539 90.0744C53.1771 90.2919 52.864 90.1168 52.864 89.6764V83.7862C52.8794 83.5497 52.9498 83.32 53.0695 83.1155C53.1893 82.911 53.3551 82.7373 53.5539 82.6081Z" fill="#E0E0E0"/>
<path d="M53.3257 91.4487L61.0307 87.0019C61.2854 86.8586 61.4871 86.9753 61.4871 87.2672V87.4529C61.479 87.6121 61.4334 87.7672 61.3541 87.9055C61.2748 88.0438 61.164 88.1614 61.0307 88.2489L53.3257 92.6957C53.071 92.8443 52.864 92.6957 52.864 92.4304V92.2447C52.8731 92.0851 52.9197 91.9299 52.9999 91.7916C53.0801 91.6533 53.1917 91.5359 53.3257 91.4487Z" fill="#E0E0E0"/>
<path d="M53.3257 93.9376L61.0307 89.4907C61.2854 89.3475 61.4871 89.4642 61.4871 89.7561V89.9418C61.479 90.101 61.4334 90.2561 61.3541 90.3944C61.2748 90.5327 61.164 90.6503 61.0307 90.7378L53.3257 95.1846C53.071 95.3332 52.864 95.1846 52.864 94.9193V94.7336C52.8731 94.574 52.9197 94.4188 52.9999 94.2805C53.0801 94.1422 53.1917 94.0248 53.3257 93.9376Z" fill="#E0E0E0"/>
<path d="M53.3257 96.4262L61.0307 91.9794C61.2854 91.8361 61.4871 91.9529 61.4871 92.2447V92.4304C61.479 92.5897 61.4334 92.7447 61.3541 92.883C61.2748 93.0213 61.164 93.139 61.0307 93.2264L53.3257 97.6733C53.071 97.8219 52.864 97.6998 52.864 97.408V97.2222C52.8731 97.0626 52.9197 96.9074 52.9999 96.7691C53.0801 96.6309 53.1917 96.5134 53.3257 96.4262Z" fill="#E0E0E0"/>
<path d="M53.3257 98.9151L61.0307 94.4683C61.2854 94.325 61.4871 94.4418 61.4871 94.7336V94.9299C61.479 95.0892 61.4334 95.2442 61.3541 95.3825C61.2748 95.5208 61.164 95.6385 61.0307 95.7259L53.3257 100.173C53.071 100.321 52.864 100.199 52.864 99.9074V99.7058C52.8739 99.5471 52.9209 99.393 53.001 99.2557C53.0812 99.1184 53.1924 99.0018 53.3257 98.9151Z" fill="#E0E0E0"/>
<path d="M53.3257 101.404L61.0307 96.9571C61.2854 96.8138 61.4871 96.9305 61.4871 97.2224V97.4081C61.479 97.5673 61.4334 97.7224 61.3541 97.8607C61.2748 97.999 61.164 98.1166 61.0307 98.2041L53.3257 102.651C53.071 102.8 52.864 102.677 52.864 102.386V102.2C52.8731 102.04 52.9197 101.885 52.9999 101.747C53.0801 101.609 53.1917 101.491 53.3257 101.404Z" fill="#E0E0E0"/>
<path d="M68.6614 73.8948L75.9048 69.7133C76.2868 69.4904 76.5946 69.6709 76.5946 70.1113V75.9856C76.5817 76.2249 76.5124 76.4577 76.3926 76.6651C76.2727 76.8726 76.1056 77.0489 75.9048 77.1796L68.6614 81.3611C68.2793 81.5787 67.9716 81.4035 67.9716 80.9631V75.0888C67.9841 74.8495 68.0531 74.6165 68.1731 74.409C68.293 74.2014 68.4603 74.0253 68.6614 73.8948Z" fill="#E0E0E0"/>
<path d="M68.4119 82.7248L76.117 78.278C76.3717 78.1294 76.5786 78.2461 76.5786 78.5433V78.7237C76.5699 78.8834 76.5236 79.0388 76.4433 79.1771C76.3631 79.3155 76.2513 79.4329 76.117 79.5197L68.4119 83.9665C68.1625 84.1151 67.9556 83.9665 67.9556 83.7012V83.5208C67.9637 83.3616 68.0092 83.2065 68.0885 83.0682C68.1678 82.9299 68.2786 82.8123 68.4119 82.7248Z" fill="#E0E0E0"/>
<path d="M68.4119 85.2296L76.117 80.7828C76.3717 80.6342 76.5786 80.751 76.5786 81.0481V81.2285C76.5699 81.3882 76.5236 81.5436 76.4433 81.6819C76.3631 81.8203 76.2513 81.9377 76.117 82.0245L68.4119 86.4714C68.1625 86.6199 67.9556 86.4979 67.9556 86.206V86.0256C67.9637 85.8664 68.0092 85.7113 68.0885 85.573C68.1678 85.4347 68.2786 85.3171 68.4119 85.2296Z" fill="#E0E0E0"/>
<path d="M68.4119 87.7184L76.117 83.2556C76.3717 83.107 76.5786 83.2238 76.5786 83.521V83.7014C76.5699 83.8611 76.5236 84.0164 76.4433 84.1548C76.3631 84.2931 76.2513 84.4105 76.117 84.4973L68.4119 88.9442C68.1625 89.0928 67.9556 88.9707 67.9556 88.6789V88.4985C67.9661 88.342 68.0128 88.1901 68.092 88.0548C68.1712 87.9194 68.2807 87.8043 68.4119 87.7184Z" fill="#E0E0E0"/>
<path d="M68.4119 90.2069L76.117 85.7601C76.3717 85.6115 76.5786 85.7282 76.5786 86.0254V86.2058C76.5699 86.3655 76.5236 86.5209 76.4433 86.6592C76.3631 86.7976 76.2513 86.915 76.117 87.0018L68.4119 91.4487C68.1625 91.5972 67.9556 91.4752 67.9556 91.1833V91.0029C67.9637 90.8437 68.0092 90.6886 68.0885 90.5503C68.1678 90.412 68.2786 90.2944 68.4119 90.2069Z" fill="#E0E0E0"/>
<path d="M68.4119 92.6958L76.117 88.249C76.3717 88.1004 76.5786 88.2171 76.5786 88.5143V88.6947C76.5699 88.8544 76.5236 89.0098 76.4433 89.1481C76.3631 89.2865 76.2513 89.4039 76.117 89.4907L68.4119 93.9375C68.1625 94.0861 67.9556 93.9641 67.9556 93.6722V93.4918C67.9637 93.3326 68.0092 93.1775 68.0885 93.0392C68.1678 92.9009 68.2786 92.7833 68.4119 92.6958Z" fill="#E0E0E0"/>
<path d="M68.4119 95.1845L76.117 90.7376C76.3717 90.5891 76.5786 90.7111 76.5786 91.003V91.1834C76.5708 91.3433 76.5248 91.499 76.4445 91.6374C76.3642 91.7759 76.2519 91.8932 76.117 91.9794L68.4119 96.4262C68.1625 96.5748 67.9556 96.4581 67.9556 96.1609V95.9911C67.9633 95.8303 68.0086 95.6736 68.0878 95.5335C68.1671 95.3934 68.2781 95.2739 68.4119 95.1845Z" fill="#E0E0E0"/>
<path d="M68.4119 97.6733L76.117 93.2265C76.3717 93.0779 76.5786 93.1999 76.5786 93.4918V93.6722C76.5708 93.8321 76.5248 93.9878 76.4445 94.1263C76.3642 94.2647 76.2519 94.382 76.117 94.4682L68.4119 98.915C68.1625 99.0636 67.9556 98.9469 67.9556 98.6497V98.4693C67.9649 98.3104 68.011 98.1558 68.0902 98.0176C68.1693 97.8795 68.2795 97.7617 68.4119 97.6733Z" fill="#E0E0E0"/>
<path d="M68.4119 100.162L76.117 95.7152C76.3717 95.5667 76.5786 95.6887 76.5786 95.9806V96.161C76.5708 96.3209 76.5248 96.4766 76.4445 96.615C76.3642 96.7535 76.2519 96.8708 76.117 96.957L68.4119 101.404C68.1625 101.552 67.9556 101.436 67.9556 101.138V100.958C67.9649 100.799 68.011 100.645 68.0902 100.506C68.1693 100.368 68.2795 100.25 68.4119 100.162Z" fill="#E0E0E0"/>
<path d="M53.5539 109.99L60.7972 105.803C61.1793 105.585 61.4871 105.766 61.4871 106.201V112.08C61.4741 112.32 61.4049 112.553 61.285 112.76C61.1652 112.967 60.998 113.144 60.7972 113.274L53.5539 117.456C53.1771 117.674 52.864 117.498 52.864 117.058V111.184C52.877 110.944 52.9462 110.712 53.0661 110.504C53.1859 110.297 53.3531 110.12 53.5539 109.99Z" fill="#E0E0E0"/>
<path d="M53.3257 118.809L61.0307 114.362C61.2854 114.219 61.4871 114.336 61.4871 114.627V114.813C61.479 114.972 61.4334 115.127 61.3541 115.266C61.2748 115.404 61.164 115.522 61.0307 115.609L53.3257 120.056C53.071 120.205 52.864 120.083 52.864 119.791V119.605C52.8731 119.445 52.9197 119.29 52.9999 119.152C53.0801 119.014 53.1917 118.896 53.3257 118.809Z" fill="#E0E0E0"/>
<path d="M53.3257 121.319L61.0307 116.872C61.2854 116.729 61.4871 116.846 61.4871 117.138V117.323C61.479 117.483 61.4334 117.638 61.3541 117.776C61.2748 117.914 61.164 118.032 61.0307 118.119L53.3257 122.566C53.071 122.715 52.864 122.593 52.864 122.301V122.115C52.8731 121.956 52.9197 121.8 52.9999 121.662C53.0801 121.524 53.1917 121.406 53.3257 121.319Z" fill="#E0E0E0"/>
<path d="M53.3257 123.813L61.0307 119.34C61.2854 119.197 61.4871 119.313 61.4871 119.605V119.791C61.479 119.95 61.4334 120.105 61.3541 120.244C61.2748 120.382 61.164 120.499 61.0307 120.587L53.3257 125.034C53.071 125.182 52.864 125.06 52.864 124.768V124.588C52.8751 124.432 52.9227 124.28 53.0028 124.146C53.083 124.011 53.1936 123.897 53.3257 123.813Z" fill="#E0E0E0"/>
<path d="M83.7318 65.1816L90.9752 61.0001C91.3573 60.7825 91.6651 60.9576 91.6651 61.398V67.2723C91.6525 67.5117 91.5835 67.7447 91.4636 67.9522C91.3437 68.1597 91.1763 68.3359 90.9752 68.4663L83.7318 72.6425C83.3551 72.8601 83.042 72.6797 83.042 72.2445V66.3755C83.0566 66.1367 83.1265 65.9045 83.2462 65.6973C83.366 65.4901 83.5322 65.3135 83.7318 65.1816Z" fill="#E0E0E0"/>
<path d="M83.5196 74.0276L91.2247 69.5808C91.4741 69.4375 91.6811 69.5808 91.6811 69.8461V70.0318C91.6717 70.1908 91.6256 70.3454 91.5465 70.4835C91.4673 70.6216 91.3571 70.7395 91.2247 70.8278L83.5196 75.2959C83.2649 75.4392 83.058 75.2959 83.058 75.0306V74.8448C83.0638 74.6816 83.1088 74.5221 83.1891 74.3799C83.2695 74.2377 83.3828 74.1169 83.5196 74.0276Z" fill="#E0E0E0"/>
<path d="M83.5196 76.5163L91.2247 72.0694C91.4741 71.9262 91.6811 72.0694 91.6811 72.3348V72.5205C91.6717 72.6794 91.6256 72.834 91.5465 72.9721C91.4673 73.1102 91.3571 73.2281 91.2247 73.3165L83.5196 77.7633C83.2649 77.9066 83.058 77.7633 83.058 77.498V77.3123C83.0671 77.1527 83.1136 76.9975 83.1938 76.8592C83.274 76.7209 83.3856 76.6035 83.5196 76.5163Z" fill="#E0E0E0"/>
<path d="M83.5196 79.0102L91.2247 74.5634C91.4741 74.4201 91.6811 74.5368 91.6811 74.8287V75.0144C91.6717 75.1734 91.6256 75.328 91.5465 75.4661C91.4673 75.6042 91.3571 75.7221 91.2247 75.8104L83.5196 80.2519C83.2649 80.3952 83.058 80.2519 83.058 79.9866V79.8009C83.0679 79.6422 83.1148 79.4881 83.195 79.3508C83.2752 79.2135 83.3863 79.0969 83.5196 79.0102Z" fill="#E0E0E0"/>
<path d="M83.5196 81.4938L91.2247 77.047C91.4741 76.9037 91.6811 77.0204 91.6811 77.3123V77.498C91.6717 77.6569 91.6256 77.8115 91.5465 77.9497C91.4673 78.0878 91.3571 78.2056 91.2247 78.294L83.5196 82.7249C83.2649 82.8682 83.058 82.7514 83.058 82.4596V82.2739C83.0695 82.117 83.1172 81.965 83.1973 81.8297C83.2774 81.6943 83.3877 81.5794 83.5196 81.4938Z" fill="#E0E0E0"/>
<path d="M83.5196 83.9826L91.2088 79.541C91.4582 79.3978 91.6651 79.5145 91.6651 79.8064V79.9921C91.6558 80.151 91.6097 80.3056 91.5305 80.4437C91.4513 80.5818 91.3412 80.6997 91.2088 80.7881L83.5196 85.2296C83.2649 85.3729 83.058 85.2561 83.058 84.9643V84.7786C83.0671 84.619 83.1136 84.4638 83.1938 84.3255C83.274 84.1872 83.3856 84.0697 83.5196 83.9826Z" fill="#E0E0E0"/>
<path d="M98.8236 56.4737L106.067 52.2921C106.444 52.0693 106.757 52.2497 106.757 52.6901V58.5644C106.743 58.8034 106.673 59.0357 106.553 59.243C106.433 59.4503 106.267 59.6268 106.067 59.7584L98.8236 63.9399C98.4416 64.1575 98.1338 63.9824 98.1338 63.5419V57.6676C98.1463 57.4283 98.2154 57.1953 98.3353 56.9878C98.4552 56.7803 98.6225 56.6041 98.8236 56.4737Z" fill="#E0E0E0"/>
<path d="M98.5901 65.3143L106.295 60.8675C106.55 60.7242 106.757 60.8409 106.757 61.1328V61.3185C106.748 61.4781 106.701 61.6333 106.621 61.7716C106.541 61.9099 106.429 62.0273 106.295 62.1145L98.5901 66.5613C98.3407 66.7099 98.1338 66.5879 98.1338 66.296V66.1103C98.1431 65.9514 98.1892 65.7968 98.2684 65.6586C98.3476 65.5205 98.4577 65.4027 98.5901 65.3143Z" fill="#E0E0E0"/>
<path d="M98.5901 67.8084L106.295 63.3562C106.55 63.2129 106.757 63.3297 106.757 63.6215V63.8073C106.748 63.9669 106.701 64.1221 106.621 64.2604C106.541 64.3986 106.429 64.5161 106.295 64.6033L98.5901 69.0501C98.3407 69.1987 98.1338 69.0766 98.1338 68.7848V68.6044C98.1419 68.4451 98.1874 68.2901 98.2667 68.1518C98.346 68.0135 98.4568 67.8958 98.5901 67.8084Z" fill="#E0E0E0"/>
<path d="M98.5901 70.297L106.295 65.8449C106.55 65.7016 106.757 65.8183 106.757 66.1102V66.2747C106.748 66.4343 106.701 66.5895 106.621 66.7278C106.541 66.866 106.429 66.9835 106.295 67.0707L98.5901 71.5175C98.3407 71.6661 98.1338 71.5441 98.1338 71.2522V71.0718C98.1451 70.9162 98.1922 70.7654 98.2714 70.631C98.3505 70.4966 98.4596 70.3823 98.5901 70.297Z" fill="#E0E0E0"/>
<path d="M98.5901 72.7859L106.295 68.3338C106.55 68.1905 106.757 68.3338 106.757 68.5991V68.7848C106.748 68.9444 106.701 69.0996 106.621 69.2379C106.541 69.3762 106.429 69.4936 106.295 69.5808L98.5901 74.0277C98.3407 74.1762 98.1338 74.0277 98.1338 73.7623V73.5819C98.1419 73.4227 98.1874 73.2676 98.2667 73.1293C98.346 72.991 98.4568 72.8734 98.5901 72.7859Z" fill="#E0E0E0"/>
<path d="M98.5901 75.2958L106.295 70.8436C106.55 70.7003 106.757 70.8436 106.757 71.1089V71.2947C106.748 71.4543 106.701 71.6095 106.621 71.7477C106.541 71.886 106.429 72.0035 106.295 72.0906L98.5901 76.5163C98.3407 76.6648 98.1338 76.5163 98.1338 76.2509V76.0705C98.1451 75.915 98.1922 75.7641 98.2714 75.6298C98.3505 75.4954 98.4596 75.3811 98.5901 75.2958Z" fill="#E0E0E0"/>
<path d="M98.5901 77.7634L106.295 73.3165C106.55 73.168 106.757 73.2847 106.757 73.5819V73.7623C106.748 73.922 106.702 74.0773 106.622 74.2157C106.541 74.354 106.429 74.4714 106.295 74.5583L98.5901 79.0104C98.3407 79.159 98.1338 79.0104 98.1338 78.7451V78.5647C98.1415 78.4046 98.1868 78.2487 98.2661 78.1094C98.3454 77.9702 98.4564 77.8517 98.5901 77.7634Z" fill="#E0E0E0"/>
<path d="M98.5901 80.2521L106.295 75.8264C106.55 75.6778 106.757 75.7946 106.757 76.0918V76.2722C106.748 76.4319 106.702 76.5872 106.622 76.7256C106.541 76.8639 106.429 76.9813 106.295 77.0681L98.5901 81.515C98.3407 81.6636 98.1338 81.515 98.1338 81.2497V81.0693C98.139 80.9065 98.1832 80.7473 98.2626 80.6051C98.342 80.463 98.4543 80.3419 98.5901 80.2521Z" fill="#E0E0E0"/>
<path d="M98.5901 82.7248L106.295 78.278C106.55 78.1294 106.757 78.2461 106.757 78.5433V78.7237C106.748 78.8834 106.702 79.0388 106.622 79.1771C106.541 79.3155 106.429 79.4329 106.295 79.5197L98.5901 83.9665C98.3407 84.1151 98.1338 83.9984 98.1338 83.7012V83.5208C98.1423 83.3617 98.188 83.2068 98.2673 83.0685C98.3466 82.9303 98.4571 82.8126 98.5901 82.7248Z" fill="#E0E0E0"/>
<path d="M83.7318 92.5631L90.9752 88.3815C91.3573 88.164 91.6651 88.3391 91.6651 88.7795V94.6538C91.6525 94.8932 91.5835 95.1261 91.4636 95.3337C91.3437 95.5412 91.1763 95.7174 90.9752 95.8478L83.7318 100.035C83.3551 100.252 83.042 100.072 83.042 99.6366V93.757C83.0566 93.5182 83.1265 93.286 83.2462 93.0788C83.366 92.8715 83.5322 92.695 83.7318 92.5631Z" fill="#E0E0E0"/>
<path d="M83.5196 101.409L91.2247 96.9622C91.4741 96.819 91.6811 96.9357 91.6811 97.2276V97.4133C91.6717 97.5722 91.6256 97.7268 91.5465 97.8649C91.4673 98.0031 91.3571 98.1209 91.2247 98.2093L83.5196 102.656C83.2649 102.799 83.058 102.683 83.058 102.391V102.205C83.0671 102.045 83.1136 101.89 83.1938 101.752C83.274 101.614 83.3856 101.496 83.5196 101.409Z" fill="#E0E0E0"/>
<path d="M83.5196 103.898L91.2247 99.451C91.4741 99.3077 91.6811 99.451 91.6811 99.7163V99.902C91.6717 100.061 91.6256 100.216 91.5465 100.354C91.4673 100.492 91.3571 100.61 91.2247 100.698L83.5196 105.145C83.2649 105.288 83.058 105.171 83.058 104.88V104.694C83.0671 104.534 83.1136 104.379 83.1938 104.241C83.274 104.102 83.3856 103.985 83.5196 103.898Z" fill="#E0E0E0"/>
<path d="M83.5196 106.387L91.2247 101.94C91.4741 101.796 91.6811 101.94 91.6811 102.205V102.391C91.6717 102.55 91.6256 102.704 91.5465 102.842C91.4673 102.98 91.3571 103.098 91.2247 103.187L83.5196 107.634C83.2649 107.777 83.058 107.66 83.058 107.368V107.183C83.0671 107.023 83.1136 106.868 83.1938 106.729C83.274 106.591 83.3856 106.474 83.5196 106.387Z" fill="#E0E0E0"/>
<path d="M68.2899 57.8162C68.1838 57.7808 68.1307 57.68 68.1307 57.5137C68.1371 57.3522 68.1694 57.1927 68.2263 57.0414L68.7994 55.216C68.8359 55.0512 68.9187 54.9002 69.0382 54.7809C69.0772 54.7595 69.121 54.7483 69.1655 54.7483C69.21 54.7483 69.2538 54.7595 69.2929 54.7809C69.5879 54.9044 69.9093 54.9516 70.2274 54.9182C70.5455 54.8848 70.85 54.7719 71.113 54.5898C71.5874 54.3132 71.9596 53.8907 72.1743 53.3852C72.4224 52.765 72.5398 52.1002 72.5192 51.4325V40.7292C72.5093 40.4203 72.5654 40.1127 72.6837 39.8271C72.811 39.5637 73.0193 39.348 73.278 39.2116L74.4561 38.5323C74.7214 38.3785 74.9125 38.3572 75.0239 38.474C75.1642 38.6849 75.2244 38.9389 75.1937 39.1903V49.9307C75.2128 51.438 74.8936 52.9303 74.2598 54.298C73.6822 55.5568 72.727 56.6047 71.5269 57.2961C70.2498 58.0355 69.1708 58.2089 68.2899 57.8162Z" fill="#455A64"/>
<path d="M77.8469 51.3687C76.8953 50.3923 76.4195 48.5227 76.4195 45.7598C76.3653 43.267 76.8523 40.7922 77.8469 38.5058C78.6948 36.5502 80.1425 34.9149 81.9807 33.836C83.7796 32.7747 85.1646 32.7747 86.1038 33.7405C87.0431 34.7063 87.5313 36.5795 87.5313 39.3442C87.5854 41.837 87.0984 44.3118 86.1038 46.5982C85.2581 48.5504 83.8144 50.1837 81.9807 51.2626C80.1765 52.3027 78.7986 52.3381 77.8469 51.3687ZM84.1723 45.6165C84.7122 44.0839 84.964 42.4648 84.9152 40.8406C84.9152 38.9268 84.6675 37.6249 84.1723 36.935C83.6788 36.2452 82.9518 36.1815 81.9807 36.7387C80.9512 37.3697 80.1714 38.337 79.7732 39.4769C79.2344 41.0096 78.9843 42.6289 79.0356 44.2527C79.0356 46.1631 79.2797 47.4685 79.7732 48.153C80.2667 48.8375 81.0043 48.9065 81.9807 48.3387C83.0057 47.714 83.7808 46.7513 84.1723 45.6165Z" fill="#455A64"/>
<path d="M89.0064 46.5823C88.8664 46.3774 88.806 46.1283 88.8366 45.8819V31.3262C88.8279 31.015 88.8857 30.7056 89.0064 30.4187C89.1165 30.1725 89.3024 29.9679 89.5371 29.835L94.2068 27.134C95.3813 26.4583 96.2657 26.3663 96.8601 26.8581C97.4544 27.3498 97.7463 28.3227 97.7356 29.7767C97.736 30.5459 97.616 31.3104 97.3801 32.0425C97.1739 32.7216 96.8408 33.3554 96.3984 33.9104C97.4916 33.8361 98.0381 34.7559 98.0381 36.6698C98.0378 37.6089 97.8965 38.5426 97.6189 39.4398C97.3396 40.3452 96.907 41.196 96.34 41.9551C95.771 42.7194 95.0479 43.3557 94.2174 43.823L89.5477 46.524C89.2983 46.6673 89.1179 46.6885 89.0064 46.5823ZM93.7823 34.1439C94.2083 33.8946 94.5516 33.5256 94.7693 33.0826C95.0174 32.5762 95.1394 32.0173 95.1248 31.4535C95.1248 30.7849 95.0134 30.3922 94.7958 30.2065C94.5783 30.0208 94.2387 30.1004 93.7823 30.3604L91.4793 31.6976V35.4971L93.7823 34.1439ZM94.037 40.9681C94.5111 40.7009 94.8841 40.285 95.0983 39.7847C95.3325 39.2459 95.4501 38.6635 95.4432 38.076C95.4432 37.3756 95.3106 36.9245 95.0453 36.7282C94.7799 36.5318 94.4032 36.569 93.9256 36.8449L91.4793 38.2511V42.4486L94.037 40.9681Z" fill="#455A64"/>
<path d="M100.4 40.2197C99.7942 40.3971 99.1474 40.371 98.5582 40.1454C98.4887 40.115 98.4293 40.0655 98.387 40.0025C98.3446 39.9395 98.3212 39.8657 98.3195 39.7898C98.3262 39.6574 98.3531 39.5268 98.3991 39.4025L99.0571 37.4284C99.0838 37.2869 99.1565 37.1582 99.264 37.0623C99.3008 37.0428 99.3418 37.0326 99.3834 37.0326C99.425 37.0326 99.466 37.0428 99.5028 37.0623C99.9443 37.1804 100.407 37.1985 100.856 37.1154C101.401 37.0175 101.924 36.8235 102.4 36.5423C102.953 36.2444 103.425 35.8164 103.775 35.2952C104.082 34.7851 104.236 34.1977 104.22 33.6024C104.247 33.2693 104.171 32.9359 104.003 32.6473C103.848 32.4446 103.619 32.3111 103.366 32.2758C102.935 32.2184 102.501 32.19 102.066 32.1909C101.483 32.2045 100.9 32.1367 100.336 31.9893C99.8482 31.8407 99.4337 31.5151 99.1738 31.0766C98.826 30.4257 98.6679 29.6903 98.7174 28.954C98.698 27.4789 99.0795 26.0263 99.8212 24.7512C100.512 23.5407 101.512 22.5353 102.719 21.8379C104.31 20.9199 105.515 20.6811 106.354 21.1109C106.42 21.145 106.477 21.1955 106.519 21.2577C106.561 21.3199 106.586 21.3918 106.592 21.4665C106.586 21.5989 106.559 21.7295 106.513 21.8538L105.86 23.8279C105.834 23.9681 105.761 24.0953 105.653 24.1887C105.617 24.2097 105.576 24.2207 105.534 24.2207C105.492 24.2207 105.451 24.2097 105.414 24.1887C104.767 23.9092 103.982 24.0348 103.058 24.5655C102.526 24.8397 102.082 25.2586 101.777 25.7739C101.472 26.2892 101.318 26.8801 101.334 27.4787C101.31 27.7996 101.38 28.1204 101.535 28.4021C101.657 28.59 101.848 28.7231 102.066 28.7735C102.43 28.8394 102.8 28.8696 103.17 28.8637H103.615C104.236 28.8661 104.853 28.9609 105.446 29.145C105.9 29.3101 106.27 29.6477 106.476 30.0842C106.752 30.7562 106.873 31.4816 106.831 32.2068C106.832 33.6103 106.466 34.9896 105.77 36.2079C105.059 37.4709 104.012 38.5123 102.745 39.2167C102.021 39.6717 101.229 40.0101 100.4 40.2197Z" fill="#455A64"/>
<path d="M120.123 119.024C120.123 116.668 118.564 114.311 115.448 112.514C109.219 108.915 99.105 108.915 92.8871 112.514C89.7706 114.311 88.2123 116.668 88.2123 119.024V123.368C88.2123 125.725 89.7706 128.081 92.8871 129.883C99.1164 133.478 109.23 133.478 115.448 129.883C118.564 128.081 120.123 125.725 120.123 123.368V119.024ZM93.6586 113.848C96.4407 112.24 100.173 111.358 104.167 111.358C108.162 111.358 111.894 112.24 114.676 113.848C117.192 115.3 118.58 117.139 118.58 119.024C118.58 120.909 117.192 122.749 114.676 124.201C111.894 125.808 108.151 126.694 104.167 126.694C100.184 126.694 96.4407 125.808 93.6586 124.201C91.1426 122.749 89.7554 120.909 89.7554 119.024C89.7554 117.139 91.1426 115.292 93.6586 113.848Z" fill="#BA68C8"/>
<path opacity="0.3" d="M92.8834 125.554C99.1164 129.149 109.226 129.149 115.448 125.554C121.67 121.958 121.677 116.124 115.448 112.529C109.219 108.934 99.105 108.93 92.8834 112.529C86.6617 116.128 86.6541 121.943 92.8834 125.554ZM89.7554 119.039C89.7554 117.139 91.1388 115.315 93.6549 113.863C96.437 112.255 100.173 111.374 104.168 111.374C108.162 111.374 111.894 112.255 114.676 113.863C117.192 115.315 118.576 117.154 118.576 119.039C118.576 120.925 117.192 122.764 114.676 124.216C111.894 125.808 108.151 126.694 104.168 126.694C100.184 126.694 96.437 125.808 93.6549 124.201C91.1388 122.749 89.7554 120.909 89.7554 119.024V119.039Z" fill="white"/>
<path d="M89.7554 119.024C89.7646 119.792 89.9799 120.543 90.3787 121.198C91.0096 120.104 92.1232 119.074 93.6587 118.192C96.4369 116.584 100.173 115.699 104.167 115.699C108.162 115.699 111.894 116.584 114.676 118.192C116.011 118.895 117.142 119.931 117.96 121.198C118.356 120.542 118.57 119.791 118.58 119.024C118.58 117.124 117.192 115.3 114.676 113.848C111.894 112.244 108.162 111.358 104.167 111.358C100.173 111.358 96.4369 112.244 93.6587 113.848C91.1388 115.292 89.7554 117.139 89.7554 119.024Z" fill="#BA68C8"/>
<path opacity="0.1" d="M89.7554 119.024C89.7646 119.792 89.9799 120.543 90.3787 121.198C91.0096 120.104 92.1232 119.074 93.6587 118.192C96.4369 116.584 100.173 115.699 104.167 115.699C108.162 115.699 111.894 116.584 114.676 118.192C116.011 118.895 117.142 119.931 117.96 121.198C118.356 120.542 118.57 119.791 118.58 119.024C118.58 117.124 117.192 115.3 114.676 113.848C111.894 112.244 108.162 111.358 104.167 111.358C100.173 111.358 96.4369 112.244 93.6587 113.848C91.1388 115.292 89.7554 117.139 89.7554 119.024Z" fill="black"/>
<path opacity="0.4" d="M93.6549 115.813C96.437 114.209 100.173 113.323 104.168 113.323C108.162 113.323 111.894 114.209 114.676 115.813C116.752 117.014 118.055 118.473 118.45 119.993C118.07 121.514 116.752 122.988 114.676 124.174C111.894 125.808 108.151 126.694 104.168 126.694C100.184 126.694 96.437 125.808 93.6549 124.201C91.5797 123.004 90.2761 121.54 89.8846 120.02C90.2875 118.473 91.5797 117.014 93.6549 115.813Z" fill="white"/>
<path opacity="0.1" d="M100.409 127.979V132.319C97.7695 131.992 95.2168 131.165 92.8871 129.883C89.7706 128.081 88.2123 125.725 88.2123 123.368V119.024C88.2135 118.544 88.2774 118.066 88.4023 117.603C87.6422 120.408 89.1397 123.376 92.8833 125.539C95.214 126.823 97.768 127.651 100.409 127.979Z" fill="black"/>
<path d="M93.3584 128.302C93.339 127.914 93.2283 127.537 93.0355 127.2C92.8427 126.863 92.5731 126.576 92.2486 126.363C92.1366 126.281 92.0047 126.23 91.8665 126.216C91.7283 126.201 91.5887 126.223 91.4619 126.28L86.1068 129.355C85.9917 129.433 85.9004 129.541 85.8428 129.668C85.7852 129.795 85.7634 129.935 85.7799 130.073C85.7965 130.459 85.9035 130.836 86.0923 131.173C86.2811 131.511 86.5464 131.799 86.8669 132.015C86.9795 132.098 87.1123 132.149 87.2513 132.163C87.3903 132.177 87.5305 132.153 87.6574 132.095L93.0278 129.031C93.1429 128.95 93.2342 128.84 93.2924 128.712C93.3505 128.583 93.3733 128.442 93.3584 128.302Z" fill="#37474F"/>
<path d="M93.0277 129.028C93.1422 128.947 93.2332 128.837 93.2913 128.709C93.3494 128.582 93.3726 128.441 93.3584 128.302C93.3537 128.013 93.2903 127.729 93.1721 127.465L86.2435 131.426C86.4098 131.662 86.6218 131.862 86.8668 132.015C86.9795 132.097 87.1122 132.148 87.2512 132.162C87.3902 132.177 87.5305 132.153 87.6574 132.095L93.0277 129.031V129.028Z" fill="#263238"/>
<path d="M87.7714 132.015C87.7467 131.51 87.603 131.017 87.3521 130.578C87.1011 130.139 86.7499 129.765 86.3271 129.487C86.1829 129.382 86.0137 129.317 85.8363 129.298C85.659 129.278 85.4796 129.306 85.3162 129.377L67.5024 138.879L70.1629 143.576L87.3571 132.935C87.5004 132.831 87.614 132.691 87.6866 132.53C87.7593 132.368 87.7885 132.191 87.7714 132.015Z" fill="#BA68C8"/>
<path opacity="0.1" d="M70.1439 143.573L87.3381 132.931C87.4871 132.827 87.6056 132.685 87.6811 132.52C87.7567 132.355 87.7865 132.173 87.7676 131.992C87.7459 131.451 87.5792 130.926 87.2849 130.472L68.7756 141.137L70.1439 143.573Z" fill="black"/>
<path d="M68.8023 143.417C68.2471 143.053 67.7857 142.563 67.4555 141.987C67.1253 141.411 66.9356 140.766 66.902 140.103C66.902 138.886 67.7609 138.396 68.8023 139.008C69.3574 139.371 69.8189 139.86 70.1491 140.436C70.4793 141.011 70.669 141.656 70.7026 142.318C70.7102 143.554 69.8551 144.044 68.8023 143.417Z" fill="#BA68C8"/>
<g opacity="0.2">
<path opacity="0.2" d="M68.8023 143.417C68.2471 143.053 67.7857 142.563 67.4555 141.987C67.1253 141.411 66.9356 140.766 66.902 140.103C66.902 138.886 67.7609 138.396 68.8023 139.008C69.3574 139.371 69.8189 139.86 70.1491 140.436C70.4793 141.011 70.669 141.656 70.7026 142.318C70.7102 143.554 69.8551 144.044 68.8023 143.417Z" fill="black"/>
</g>
<path d="M151.468 95.8595C151.662 88.6382 151.088 86.9013 149.161 85.5749L148.401 89.7556C148.401 89.7556 149.279 94.6965 149.184 96.3346C149.104 97.7788 148.964 99.5879 148.622 100.755C148.559 100.96 148.424 101.136 148.242 101.249C147.843 101.533 147.488 101.872 147.185 102.256C146.896 102.56 146.649 102.636 146.687 102.731C146.743 102.837 146.836 102.918 146.949 102.959C147.062 102.999 147.185 102.995 147.295 102.948C147.542 102.85 147.775 102.722 147.991 102.568C147.821 103.011 147.581 103.424 147.28 103.791C146.592 104.631 146.562 105.148 147.949 105.164C148.819 105.164 149.515 104.635 150.169 102.72C150.421 102.017 150.626 101.299 150.781 100.569C151.106 99.0144 151.336 97.4418 151.468 95.8595Z" fill="#FFA8A7"/>
<path d="M147.542 85.0276C148.134 84.9219 148.743 85.0112 149.279 85.282C149.815 85.5527 150.249 85.9903 150.514 86.5289C151.32 87.9693 151.518 90.4512 151.609 92.9178C151.609 92.9178 150.009 94.2594 148.086 93.6019L147.542 85.0276Z" fill="#BA68C8"/>
<path d="M150.245 124.783C150.389 124.84 150.427 125.117 150.45 125.668C150.45 126.086 150.553 126.808 150.07 126.964C149.587 127.12 148.861 127.033 148.55 126.641C148.17 126.147 147.892 125.718 147.333 125.121C146.847 124.6 146.322 124.114 146.129 123.384C145.95 122.723 146.098 122.438 146.547 122.244C147.166 121.982 148.139 122.844 148.626 122.977C149.036 123.091 150.096 124.729 150.245 124.783Z" fill="#263238"/>
<path d="M150.245 124.273V124.95C149.99 125.113 149.696 125.204 149.394 125.212C149.092 125.22 148.793 125.145 148.531 124.996C148.5 124.931 148.352 124.026 148.352 124.026L150.245 124.273Z" fill="#FFA8A7"/>
<path d="M144.749 128.712C144.869 129.075 144.969 129.445 145.049 129.818C145.133 130.229 145.254 130.913 145.11 131.221C144.965 131.529 144.407 131.73 143.536 131.723C142.814 131.811 142.12 132.053 141.499 132.433C140.69 132.777 139.809 132.916 138.934 132.84C138.174 132.753 137.36 132.304 137.235 131.985C137.11 131.666 137.277 131.331 139.097 130.556C139.097 130.556 141.628 129.731 142.518 128.758L144.749 128.712Z" fill="#263238"/>
<path d="M144.749 127.952V128.743C144.749 129.032 144.414 129.461 143.533 129.427C142.917 129.404 142.484 129.241 142.51 128.732V127.998L144.749 127.952Z" fill="#FFA8A7"/>
<path d="M150.686 115.273C150.535 114.072 150.266 112.888 149.884 111.739C149.884 111.739 150.127 108.698 150.241 105.802C150.366 102.682 150.241 98.7557 150.294 97.9765C150.294 97.9765 140.222 95.9394 140.032 99.55C139.842 103.161 140.412 112.343 140.549 113.928C140.686 115.513 140.929 116.911 141.268 119.481C141.606 122.05 142.499 128.006 142.499 128.006C142.847 128.183 143.233 128.272 143.624 128.264C144.014 128.256 144.397 128.151 144.738 127.96C144.738 127.96 145.448 120.739 145.372 118.918C145.315 117.562 145.083 116.22 144.68 114.924C144.68 114.924 144.871 111.948 145.038 109.36C145.205 106.771 145.387 105.528 145.418 104.419L145.634 104.312C145.634 104.312 145.855 108.778 145.977 110.363C146.098 111.948 146.357 113.468 146.805 116.41C147.204 118.964 148.386 124.368 148.386 124.368C149.526 124.992 150.226 124.289 150.226 124.289C150.226 124.289 150.993 117.489 150.686 115.273Z" fill="#37474F"/>
<path d="M145.437 104.388C145.437 104.388 147.881 103.183 149.104 102.108C149.104 102.108 147.964 103.708 146.478 104.415C146.478 104.415 145.946 109.964 145.95 109.854L145.642 104.388H145.437Z" fill="#263238"/>
<path d="M143.263 83.8838L143.86 87.1637L146.82 86.9471L146.201 83.23L143.263 83.8838Z" fill="#FFA8A7"/>
<path d="M149.952 86.7076C149.656 85.8144 148.527 84.8452 147.394 85.0543C145.717 85.3418 144.064 85.756 142.449 86.2933C141.412 86.6734 140.469 87.5589 140.382 90.9681C140.382 90.9681 140.036 98.9191 140.028 100.47C142.192 101.319 144.548 101.551 146.835 101.142C149.952 100.462 150.328 99.1699 150.328 99.1699C150.328 99.1699 150.366 93.4689 150.275 90.9833C150.18 88.8739 150.153 87.3195 149.952 86.7076Z" fill="#F5F5F5"/>
<path d="M140.975 79.8929C140.975 79.8929 140.215 81.0902 140.317 81.2042C140.42 81.3182 140.982 81.4094 140.982 81.4094L140.975 79.8929Z" fill="#FFA8A7"/>
<path d="M143.061 76.5787C141.496 76.9588 141.058 77.6505 140.963 80.1513C140.868 82.77 141.153 83.5719 141.507 83.9292C141.743 84.161 143.027 84.1762 143.677 83.9824C144.487 83.7392 146.307 83.0474 147.14 81.702C148.116 80.1323 148.337 78.0306 147.231 77.1944C145.68 76.0314 143.7 76.4305 143.061 76.5787Z" fill="#FFA8A7"/>
<path d="M140.982 77.2325C141.342 77.7567 141.851 78.1616 142.442 78.3955C142.742 78.7376 142.575 80.0716 143.103 80.2958C143.103 80.2958 143.331 79.3229 144.148 79.4255C144.966 79.5281 145.102 80.5657 144.601 81.2194C144.099 81.8731 143.613 81.6337 143.613 81.6337C143.613 81.6337 143.67 83.0133 144.3 83.781C144.956 83.9086 145.632 83.8773 146.273 83.6898C147.056 83.5036 148.147 82.4926 148.591 81.4398C149.534 79.2164 149.557 77.2325 148.135 76.67C147.96 75.6552 147.151 75.2181 146.235 75.0319C144.262 74.6252 142.993 75.8566 141.477 75.7464C140.606 75.6742 140.443 76.3089 140.982 77.2325Z" fill="#263238"/>
<path d="M148.169 76.9968L149.097 76.4191C149.061 76.3535 149.013 76.2958 148.954 76.2497C148.895 76.2035 148.828 76.1698 148.756 76.1508C148.683 76.1317 148.608 76.1276 148.534 76.1387C148.46 76.1498 148.39 76.1759 148.326 76.2153C148.263 76.2548 148.208 76.3068 148.166 76.3682C148.123 76.4296 148.094 76.499 148.079 76.5722C148.064 76.6454 148.065 76.7208 148.08 76.7939C148.096 76.8669 148.126 76.936 148.169 76.9968Z" fill="#263238"/>
<path d="M129.907 92.1996C130.394 92.4162 136.133 96.6577 137.03 96.1637C137.927 95.6696 142.514 90.303 142.514 90.303C142.902 89.7035 143.108 89.0046 143.108 88.2906C143.108 87.5765 142.902 86.8777 142.514 86.2781C141.617 86.4719 140.821 86.9835 140.272 87.7186C139.512 88.8816 136.175 93.0395 136.175 93.0395C135.354 92.6291 134.533 92.211 133.719 91.7891C133.047 91.4394 132.37 91.0936 131.713 90.7173C131.527 90.6338 131.353 90.5265 131.196 90.3981C130.869 90.0788 130.926 89.2997 130.933 88.8778C130.931 88.6811 130.94 88.4844 130.96 88.2887C130.99 88.0454 131.036 87.4563 130.599 87.6426C130.518 87.6835 130.447 87.7435 130.394 87.8174C130.325 87.9063 130.272 88.0067 130.238 88.1139C130.154 88.3685 130.181 88.6497 130.109 88.9044C130.1 88.9433 130.08 88.9788 130.052 89.007C130.033 89.0232 130.011 89.0353 129.988 89.0426C129.964 89.0498 129.939 89.0519 129.915 89.0488C129.284 89.0298 128.683 88.1443 128.395 87.673C128.289 87.4493 128.124 87.2596 127.916 87.1257C127.733 87.0705 127.537 87.0779 127.358 87.1467C127.18 87.2156 127.03 87.3419 126.931 87.5058C126.658 87.916 126.546 88.4127 126.616 88.9006C126.672 89.5634 126.965 90.1838 127.441 90.6489C128.167 91.3042 129.002 91.8289 129.907 92.1996Z" fill="#FFA8A7"/>
<path d="M143.027 86.1071C142.396 86.1793 141.507 86.0615 140.268 87.3955C139.268 88.5374 138.335 89.7366 137.474 90.9872C137.638 91.6436 137.987 92.2391 138.48 92.7027C138.972 93.1663 139.588 93.4785 140.253 93.602C140.253 93.602 142.423 91.3748 143.027 90.151C143.632 88.9272 143.776 86.9357 143.027 86.1071Z" fill="#BA68C8"/>
</svg>
