<svg width="175" height="157" viewBox="0 0 175 157" fill="none" xmlns="http://www.w3.org/2000/svg">
<path opacity="0.7" d="M25.628 143.681C59.8006 160.798 115.199 160.798 149.372 143.681C183.545 126.563 183.541 98.8091 149.372 81.6916C115.203 64.5741 59.8006 64.5741 25.628 81.6916C-8.54462 98.8091 -8.54071 126.563 25.628 143.681Z" fill="#F5F5F5"/>
<path d="M146.754 85.0316L133.047 77.1186V47.7258L146.754 55.6427V85.0316Z" fill="#E0E0E0"/>
<path d="M146.754 55.6428L166.333 44.3351V73.728L146.754 85.0317V55.6428Z" fill="#EBEBEB"/>
<path d="M166.334 44.3351L146.754 55.6427L133.047 47.7258L152.626 36.4221L166.334 44.3351Z" fill="#F5F5F5"/>
<path d="M148.709 56.7703L164.375 47.7258L164.734 47.9365V58.8227L149.071 67.8673L148.709 67.6566V56.7703Z" fill="#E6E6E6"/>
<path d="M155.209 55.2798L157.874 53.7424C158.221 53.5434 158.498 53.6332 158.498 53.9453C158.473 54.1374 158.404 54.321 158.296 54.4816C158.187 54.6421 158.043 54.7751 157.874 54.8701L155.209 56.4308C154.866 56.6298 154.585 56.5362 154.585 56.224C154.607 56.0287 154.676 55.8414 154.784 55.6774C154.893 55.5133 155.038 55.3771 155.209 55.2798Z" fill="#E6E6E6"/>
<path d="M148.35 70.5479L164.016 61.5034L164.012 72.3896L164.375 72.5964L148.709 81.6409L148.35 81.4341V70.5479Z" fill="#E0E0E0"/>
<path d="M148.709 70.7547L164.375 61.7101V72.5964L148.709 81.6409V70.7547Z" fill="#F5F5F5"/>
<path d="M154.85 69.0534L157.515 67.5161C157.859 67.3171 158.14 67.4068 158.14 67.719C158.114 67.9114 158.044 68.0953 157.936 68.2564C157.828 68.4175 157.684 68.5514 157.515 68.6476L154.85 70.185C154.503 70.384 154.222 70.2942 154.222 69.9821C154.248 69.7893 154.318 69.6051 154.427 69.444C154.536 69.2829 154.681 69.1492 154.85 69.0534Z" fill="#E6E6E6"/>
<path d="M148.709 56.7703L164.375 47.7258V58.6159L148.709 67.6566V56.7703Z" fill="#E0E0E0"/>
<path d="M172.206 53.1065L163.633 48.1551V57.7459L172.206 62.6973V53.1065Z" fill="#E6E6E6"/>
<path d="M154.585 69.2056V55.6388L157.944 53.6917L158.498 54.5111L168.292 48.8573V61.2926L154.585 69.2056Z" fill="#EBEBEB"/>
<path d="M154.585 69.2056L155.564 57.3361L169.268 49.4231L168.292 61.2926L154.585 69.2056Z" fill="#FAFAFA"/>
<path d="M156.544 62.1511L149.068 57.8356V67.4264L156.54 71.7419L156.544 62.1511Z" fill="#E6E6E6"/>
<path d="M156.544 61.2927L172.206 52.2481V63.1344L156.54 72.1789L156.544 61.2927Z" fill="#F5F5F5"/>
<path d="M162.681 59.5954L165.346 58.058C165.69 57.859 165.971 57.9488 165.971 58.2609C165.945 58.4533 165.875 58.6372 165.767 58.7983C165.659 58.9594 165.515 59.0933 165.346 59.1896L162.681 60.7269C162.334 60.9259 162.057 60.8362 162.057 60.524C162.083 60.3316 162.152 60.1477 162.26 59.9866C162.369 59.8255 162.513 59.6916 162.681 59.5954Z" fill="#E6E6E6"/>
<path d="M156.544 61.2928L156.021 60.9923V71.8785L156.544 72.179V61.2928Z" fill="#E0E0E0"/>
<path d="M156.021 60.9922L171.683 51.9477L172.206 52.2481L156.544 61.2927L156.021 60.9922Z" fill="#F0F0F0"/>
<path d="M137.69 87.3961C137.783 85.1447 139.559 80.3961 142.013 77.5634C144.467 74.7306 148.322 72.9475 150.902 73.9463C153.297 74.8789 152.907 78.0589 149.871 80.0528C146.836 82.0466 142.29 84.5282 140.846 88.1296L137.943 92.5075L137.69 87.3961Z" fill="#BA68C8"/>
<path opacity="0.1" d="M137.69 87.3961C137.783 85.1447 139.559 80.3961 142.013 77.5634C144.467 74.7306 148.322 72.9475 150.902 73.9463C153.297 74.8789 152.907 78.0589 149.871 80.0528C146.836 82.0466 142.29 84.5282 140.846 88.1296L137.943 92.5075L137.69 87.3961Z" fill="black"/>
<path d="M149.949 75.0467C147.031 75.7256 138.634 81.6135 137.854 90.0377" stroke="white" stroke-width="1.02594" stroke-miterlimit="10" stroke-linecap="round"/>
<path d="M138.431 96.343C138.568 94.0019 140.562 92.3163 143.188 90.7751C146.309 88.949 149.001 88.1257 149.95 86.3269C150.898 84.5282 149.2 82.4953 145.981 83.5683C143.25 84.4774 137.979 89.1558 137.943 92.5075L138.431 96.343Z" fill="#BA68C8"/>
<path d="M147.913 84.9966C143.601 85.9838 138.782 89.9051 138.135 94.0138" stroke="white" stroke-miterlimit="10" stroke-linecap="round"/>
<path d="M17.8671 60.8165V128.627L87.2697 88.5549V26.9092L35.6635 56.7039L33.8804 51.5691L17.8671 60.8165Z" fill="#263238"/>
<path d="M17.8671 128.627L21.4256 66.9776L90.8282 26.9092L87.2697 88.5549L17.8671 128.627Z" fill="white"/>
<path d="M17.8671 128.627L23.2048 68.0078L92.6075 27.9355L87.2697 88.555L17.8671 128.627Z" fill="#37474F"/>
<path d="M36.4088 73.9894V141.8L105.815 101.728V40.0821L54.2053 69.8768L52.426 64.7419L36.4088 73.9894Z" fill="#BA68C8"/>
<g opacity="0.1">
<path opacity="0.1" d="M36.4088 73.9894V141.8L105.815 101.728V40.0821L54.2053 69.8768L52.426 64.7419L36.4088 73.9894Z" fill="black"/>
</g>
<path d="M61.6156 118.123C61.4014 117.979 61.2244 117.786 61.0989 117.56C60.9735 117.335 60.9032 117.082 60.8938 116.824V32.2199C60.9092 31.9527 60.988 31.693 61.1237 31.4623C61.2594 31.2316 61.4481 31.0365 61.6742 30.8932L114.786 0.2206C115.008 0.0813918 115.264 0.00524325 115.525 0.000343866C115.787 -0.00455552 116.045 0.0619788 116.272 0.192793C116.498 0.323606 116.685 0.51375 116.812 0.742773C116.939 0.971797 117.001 1.23104 116.991 1.49261V86.0891C116.975 86.3562 116.896 86.6156 116.76 86.8462C116.625 87.0768 116.436 87.272 116.211 87.4157L63.1023 118.084C62.8751 118.208 62.622 118.276 62.3636 118.282C62.1053 118.289 61.849 118.235 61.6156 118.123Z" fill="#EBEBEB"/>
<path d="M62.3328 33.8431L83.9063 19.7261L82.4704 18.8989L61.6617 30.9128C61.4357 31.0561 61.247 31.2511 61.1113 31.4818C60.9756 31.7125 60.8968 31.9722 60.8813 32.2394V33.0198L62.3328 33.8431Z" fill="#EBEBEB"/>
<path d="M69.524 36.3168L61.1194 31.4629C60.9803 31.6916 60.9023 31.9523 60.8931 32.2198V116.812C60.8835 117.074 60.9454 117.333 61.0721 117.562C61.1988 117.791 61.3856 117.981 61.6123 118.112C61.839 118.243 62.0971 118.31 62.3588 118.305C62.6205 118.3 62.876 118.224 63.0976 118.084L69.524 114.378V36.3168Z" fill="#E0E0E0"/>
<path d="M63.1015 118.084L116.222 87.4156C116.447 87.2719 116.636 87.0767 116.771 86.8461C116.907 86.6155 116.986 86.3561 117.002 86.089V1.49252C117.002 1.00479 116.659 0.805792 116.222 1.05161L63.0976 31.7203C62.8719 31.8649 62.6836 32.0608 62.548 32.2921C62.4124 32.5233 62.3333 32.7833 62.3173 33.0509V117.643C62.3329 118.123 62.6762 118.33 63.1015 118.084Z" fill="#E6E6E6"/>
<path d="M66.7421 52.5719L79.4973 45.2091C80.344 44.7213 81.0307 45.0686 81.0307 45.9895C80.9932 46.5042 80.8348 47.0029 80.5683 47.4449C80.3019 47.8869 79.9349 48.2599 79.4973 48.5335L66.7421 55.9119C65.8954 56.3996 65.2086 56.0524 65.2086 55.1315C65.245 54.6144 65.4028 54.1131 65.6692 53.6683C65.9357 53.2236 66.3032 52.848 66.7421 52.5719Z" fill="#F5F5F5"/>
<path d="M65.8212 66.053L67.4717 65.1009C67.8112 64.9058 68.0843 65.0619 68.0843 65.4521V67.3601C68.0731 67.5728 68.0118 67.7798 67.9054 67.9642C67.7989 68.1487 67.6503 68.3053 67.4717 68.4214L65.8212 69.3734C65.4857 69.5685 65.2086 69.4125 65.2086 69.0184V67.1143C65.2207 66.9018 65.2824 66.6951 65.3888 66.5108C65.4952 66.3265 65.6433 66.1697 65.8212 66.053Z" fill="#FAFAFA"/>
<path d="M70.2927 64.305L80.2659 58.5458C80.6873 58.3 81.0463 58.4756 81.0463 58.936C81.0262 59.1947 80.9449 59.4449 80.8093 59.666C80.6736 59.8871 80.4874 60.0729 80.2659 60.208L70.2927 65.9633C69.8674 66.2091 69.5123 66.0335 69.5123 65.5731C69.5324 65.315 69.6137 65.0653 69.7494 64.8448C69.8851 64.6243 70.0713 64.4393 70.2927 64.305Z" fill="#F5F5F5"/>
<path d="M65.8212 72.6979L67.4717 71.7419C67.8112 71.5469 68.0843 71.7068 68.0843 72.097V74.005C68.0731 74.2177 68.0118 74.4247 67.9054 74.6092C67.7989 74.7936 67.6503 74.9503 67.4717 75.0663L65.8212 76.0184C65.4857 76.2135 65.2086 76.0535 65.2086 75.6633V73.7592C65.2207 73.5467 65.2824 73.3401 65.3888 73.1558C65.4952 72.9714 65.6433 72.8146 65.8212 72.6979Z" fill="#FAFAFA"/>
<path d="M70.2927 70.9458L80.2659 65.1906C80.6873 64.9448 81.0463 65.1164 81.0463 65.5808C81.0256 65.8393 80.9441 66.0892 80.8085 66.3103C80.6729 66.5313 80.4869 66.7172 80.2659 66.8528L70.2927 72.608C69.8674 72.8539 69.5123 72.6783 69.5123 72.2179C69.533 71.9594 69.6145 71.7094 69.7501 71.4884C69.8858 71.2673 70.0717 71.0814 70.2927 70.9458Z" fill="#F5F5F5"/>
<path d="M65.8212 79.3389L67.4717 78.3868C67.8112 78.1917 68.0843 78.3478 68.0843 78.7419V80.6655C68.0731 80.8782 68.0118 81.0852 67.9054 81.2697C67.7989 81.4541 67.6503 81.6108 67.4717 81.7268L65.8212 82.6789C65.4857 82.8779 65.2086 82.7179 65.2086 82.3277V80.4197C65.2177 80.2039 65.278 79.9933 65.3845 79.8053C65.491 79.6174 65.6407 79.4575 65.8212 79.3389Z" fill="#FAFAFA"/>
<path d="M70.2927 77.5908L80.2659 71.8316C80.6873 71.5858 81.0463 71.7614 81.0463 72.2218C81.0258 72.4809 80.9445 72.7315 80.8089 72.9532C80.6733 73.1749 80.4872 73.3615 80.2659 73.4977L70.2927 79.2491C69.8674 79.4949 69.5123 79.3232 69.5123 78.8589C69.5324 78.6007 69.6137 78.3511 69.7494 78.1306C69.8851 77.9101 70.0713 77.725 70.2927 77.5908Z" fill="#F5F5F5"/>
<path d="M65.8212 85.9993L67.4717 85.0472C67.8112 84.8521 68.0843 85.0121 68.0843 85.4023V87.2986C68.0731 87.5113 68.0118 87.7183 67.9054 87.9028C67.7989 88.0872 67.6503 88.2439 67.4717 88.3599L65.8212 89.312C65.4857 89.511 65.2086 89.351 65.2086 88.9608V87.0528C65.2219 86.8417 65.2842 86.6366 65.3905 86.4537C65.4968 86.2708 65.6443 86.1153 65.8212 85.9993Z" fill="#FAFAFA"/>
<path d="M70.2927 84.2513L80.2659 78.4922C80.6873 78.2464 81.0463 78.4219 81.0463 78.8824C81.0258 79.1415 80.9445 79.3921 80.8089 79.6138C80.6733 79.8355 80.4872 80.0221 80.2659 80.1583L70.2927 85.9096C69.8674 86.1555 69.5123 85.9838 69.5123 85.5195C69.533 85.2615 69.6145 85.0121 69.7502 84.7917C69.8858 84.5712 70.0717 84.3861 70.2927 84.2513Z" fill="#F5F5F5"/>
<path d="M65.9773 99.8899L73.0631 95.793C73.4845 95.5471 73.8434 95.7227 73.8434 96.1831C73.8233 96.4418 73.7421 96.692 73.6064 96.9131C73.4708 97.1343 73.2845 97.32 73.0631 97.4552L65.9656 101.556C65.5403 101.798 65.1852 101.626 65.1852 101.166C65.2066 100.906 65.2896 100.654 65.4273 100.432C65.565 100.21 65.7535 100.025 65.9773 99.8899Z" fill="#F5F5F5"/>
<path d="M65.9773 103.21L80.2659 94.9619C80.6873 94.7161 81.0463 94.8917 81.0463 95.3521C81.0259 95.6112 80.9445 95.8618 80.8089 96.0835C80.6733 96.3052 80.4873 96.4918 80.2659 96.628L65.9773 104.857C65.552 105.103 65.1969 104.927 65.1969 104.467C65.22 104.211 65.3026 103.964 65.4381 103.746C65.5736 103.528 65.7582 103.345 65.9773 103.21Z" fill="#F0F0F0"/>
<path d="M65.9773 103.21L75.9505 97.4435C76.3719 97.2015 76.7308 97.3732 76.7308 97.8336C76.7101 98.0921 76.6286 98.3421 76.493 98.5631C76.3574 98.7842 76.1715 98.9701 75.9505 99.1057L65.9773 104.857C65.552 105.103 65.1969 104.927 65.1969 104.467C65.22 104.211 65.3026 103.964 65.4381 103.746C65.5736 103.528 65.7582 103.344 65.9773 103.21Z" fill="#FAFAFA"/>
<path d="M65.9773 106.531L73.0631 102.43C73.4845 102.188 73.8434 102.36 73.8434 102.82C73.8224 103.079 73.7408 103.329 73.6052 103.55C73.4696 103.771 73.2839 103.956 73.0631 104.092L65.9656 108.189C65.5403 108.435 65.1852 108.259 65.1852 107.799C65.2065 107.54 65.2896 107.289 65.4274 107.069C65.5651 106.848 65.7537 106.664 65.9773 106.531Z" fill="#F5F5F5"/>
<path d="M65.9773 93.249L73.0631 89.152C73.4845 88.9101 73.8434 89.0818 73.8434 89.5422C73.8224 89.8006 73.7408 90.0505 73.6052 90.2714C73.4696 90.4924 73.2839 90.6784 73.0631 90.8142L65.9656 94.9112C65.5403 95.157 65.1852 94.9814 65.1852 94.521C65.2072 94.2614 65.2904 94.0108 65.4281 93.7897C65.5658 93.5685 65.754 93.3832 65.9773 93.249Z" fill="#F5F5F5"/>
<path d="M65.9773 96.5734L80.2659 88.3209C80.6873 88.079 81.0463 88.2507 81.0463 88.7111C81.0253 88.9695 80.9437 89.2193 80.8081 89.4403C80.6725 89.6613 80.4868 89.8473 80.2659 89.9831L65.9773 98.2239C65.552 98.4697 65.1969 98.2941 65.1969 97.8337C65.2182 97.5769 65.3 97.3288 65.4356 97.1097C65.5713 96.8907 65.7569 96.7069 65.9773 96.5734Z" fill="#F0F0F0"/>
<path d="M65.9773 96.5733L71.0497 93.6469C71.475 93.4011 71.8301 93.5767 71.8301 94.0371C71.81 94.2963 71.7288 94.547 71.5931 94.7688C71.4575 94.9905 71.2713 95.177 71.0497 95.313L65.9773 98.2355C65.552 98.4813 65.1969 98.3057 65.1969 97.8453C65.2164 97.5865 65.2973 97.3361 65.4331 97.1148C65.5688 96.8936 65.7554 96.7079 65.9773 96.5733Z" fill="#FAFAFA"/>
<path d="M65.9773 109.851L80.2659 101.603C80.6873 101.357 81.0463 101.533 81.0463 101.993C81.0262 102.252 80.945 102.502 80.8093 102.723C80.6736 102.944 80.4874 103.13 80.2659 103.265L65.9773 111.518C65.552 111.759 65.1969 111.588 65.1969 111.127C65.217 110.868 65.2982 110.617 65.4339 110.396C65.5695 110.174 65.7557 109.987 65.9773 109.851Z" fill="#F0F0F0"/>
<path d="M65.9773 109.851L78.8261 102.438C79.2514 102.196 79.6065 102.368 79.6065 102.828C79.5849 103.086 79.503 103.336 79.3675 103.557C79.232 103.778 79.0466 103.964 78.8261 104.1L65.9773 111.514C65.552 111.756 65.1969 111.584 65.1969 111.123C65.2176 110.865 65.2991 110.615 65.4347 110.394C65.5703 110.173 65.7562 109.987 65.9773 109.851Z" fill="#FAFAFA"/>
<path d="M116.222 1.06724L83.9064 19.7065V106.071L116.222 87.4157C116.447 87.2719 116.636 87.0767 116.771 86.8461C116.907 86.6155 116.986 86.3561 117.002 86.089V1.49254C116.99 1.00481 116.647 0.80581 116.222 1.06724Z" fill="#F5F5F5"/>
<path d="M83.9063 23.0308V29.6718L81.0306 32.9962H83.9063V39.6372L114.111 22.1997V5.58942L83.9063 23.0308Z" fill="#EBEBEB"/>
<path d="M87.8589 23.2611L100.095 16.1948C100.688 15.8553 101.168 16.1324 101.168 16.8152C101.148 17.188 101.041 17.5508 100.854 17.8742C100.668 18.1976 100.408 18.4725 100.095 18.6764L87.8589 25.7388C87.2658 26.0821 86.7859 25.8051 86.7859 25.1223C86.8057 24.7495 86.9132 24.3867 87.0996 24.0633C87.2861 23.7399 87.5462 23.465 87.8589 23.2611Z" fill="#FAFAFA"/>
<path d="M87.1683 28.6222L110.853 14.9462C111.063 14.8252 111.243 14.911 111.243 15.1412C111.233 15.2706 111.192 15.3957 111.124 15.5062C111.056 15.6168 110.963 15.7097 110.853 15.7773L87.1683 29.4533C86.9576 29.5743 86.7781 29.4884 86.7781 29.2582C86.7881 29.1289 86.8287 29.0038 86.8966 28.8932C86.9644 28.7827 87.0575 28.6898 87.1683 28.6222Z" fill="#FAFAFA"/>
<path d="M87.1683 31.1117L110.853 17.4551C111.063 17.3302 111.243 17.42 111.243 17.6463C111.232 17.7761 111.192 17.9016 111.124 18.0127C111.056 18.1239 110.963 18.2176 110.853 18.2862L87.1683 31.9428C86.9576 32.0637 86.7781 31.9779 86.7781 31.7477C86.789 31.6186 86.83 31.4938 86.8978 31.3834C86.9655 31.273 87.0582 31.1799 87.1683 31.1117Z" fill="#FAFAFA"/>
<path d="M87.1683 33.605L110.853 19.9485C111.063 19.8275 111.243 19.9134 111.243 20.1436C111.233 20.2729 111.192 20.398 111.124 20.5086C111.056 20.6191 110.963 20.712 110.853 20.7796L87.1683 34.4556C86.9576 34.5766 86.7781 34.4908 86.7781 34.2605C86.7851 34.1278 86.8243 33.9988 86.8922 33.8846C86.9602 33.7704 87.0549 33.6745 87.1683 33.605Z" fill="#FAFAFA"/>
<path d="M88.0579 40.5698L89.7084 39.6177C90.0479 39.4226 90.3249 39.5787 90.3249 39.9728V41.8769C90.3127 42.0898 90.2505 42.2968 90.1434 42.4812C90.0363 42.6656 89.8873 42.8222 89.7084 42.9382L88.0579 43.8903C87.7223 44.0854 87.4453 43.9293 87.4453 43.5391V41.6467C87.455 41.4316 87.5156 41.2218 87.622 41.0345C87.7285 40.8473 87.8779 40.6881 88.0579 40.5698Z" fill="white"/>
<path d="M92.5295 38.8218L102.503 33.0626C102.924 32.8168 103.283 32.9924 103.283 33.4528C103.263 33.7119 103.181 33.9625 103.046 34.1843C102.91 34.406 102.724 34.5925 102.503 34.7287L92.5295 40.4762C92.1042 40.722 91.7491 40.5503 91.7491 40.086C91.7698 39.8286 91.8514 39.5797 91.987 39.3599C92.1227 39.1401 92.3086 38.9557 92.5295 38.8218Z" fill="#E0E0E0"/>
<path d="M87.8316 46.5202L112.952 32.013C113.166 31.8881 113.342 31.9779 113.342 32.2042C113.333 32.3337 113.292 32.459 113.224 32.5697C113.156 32.6804 113.063 32.7731 112.952 32.8402L87.8316 47.3513C87.617 47.4722 87.4414 47.3864 87.4414 47.1562C87.4508 47.0267 87.4912 46.9013 87.5591 46.7907C87.627 46.68 87.7204 46.5872 87.8316 46.5202Z" fill="#E0E0E0"/>
<path d="M87.8316 49.0096L112.952 34.5025C113.166 34.3815 113.342 34.4673 113.342 34.6976C113.333 34.827 113.292 34.9524 113.224 35.0631C113.156 35.1737 113.063 35.2665 112.952 35.3336L87.8316 49.8407C87.617 49.9617 87.4414 49.8758 87.4414 49.6456C87.4521 49.5165 87.4929 49.3916 87.5607 49.2811C87.6285 49.1707 87.7213 49.0777 87.8316 49.0096Z" fill="#E0E0E0"/>
<path d="M87.8316 51.5028L112.952 36.9956C113.166 36.8708 113.342 36.9566 113.342 37.1868C113.333 37.3163 113.292 37.4416 113.224 37.5523C113.156 37.663 113.063 37.7557 112.952 37.8228L87.8316 52.33C87.617 52.4548 87.4414 52.369 87.4414 52.1388C87.4508 52.0093 87.4912 51.8839 87.5591 51.7733C87.627 51.6626 87.7204 51.5698 87.8316 51.5028Z" fill="#E0E0E0"/>
<path d="M87.8316 54.0001L112.952 39.4929C113.166 39.3681 113.342 39.4578 113.342 39.688C113.331 39.8172 113.291 39.942 113.223 40.0525C113.155 40.163 113.062 40.256 112.952 40.324L87.8316 54.8312C87.617 54.9521 87.4414 54.8663 87.4414 54.6361C87.4508 54.5066 87.4912 54.3813 87.5591 54.2706C87.627 54.1599 87.7204 54.0672 87.8316 54.0001Z" fill="#E0E0E0"/>
<path d="M88.0579 58.8384L89.7084 57.8863C90.0479 57.6912 90.3249 57.8512 90.3249 58.2414V60.1455C90.3127 60.3584 90.2505 60.5654 90.1434 60.7498C90.0363 60.9342 89.8873 61.0907 89.7084 61.2068L88.0579 62.1627C87.7223 62.3578 87.4453 62.1979 87.4453 61.8077V59.9036C87.4568 59.6904 87.5182 59.483 87.6246 59.2979C87.731 59.1129 87.8795 58.9555 88.0579 58.8384Z" fill="white"/>
<path d="M92.5295 57.0904L102.503 51.3312C102.924 51.0893 103.283 51.261 103.283 51.7214C103.262 51.9798 103.18 52.2296 103.045 52.4506C102.909 52.6716 102.724 52.8576 102.503 52.9934L92.5295 58.7526C92.1042 58.9945 91.7491 58.8228 91.7491 58.3624C91.7699 58.1039 91.8513 57.8539 91.987 57.6329C92.1226 57.4119 92.3085 57.226 92.5295 57.0904Z" fill="#E0E0E0"/>
<path d="M87.8316 64.7887L112.952 50.2815C113.166 50.1606 113.342 50.2464 113.342 50.4766C113.331 50.6058 113.291 50.7307 113.223 50.8411C113.155 50.9516 113.062 51.0446 112.952 51.1126L87.8316 65.6198C87.617 65.7408 87.4414 65.6549 87.4414 65.4247C87.4508 65.2952 87.4912 65.1699 87.5591 65.0592C87.627 64.9485 87.7204 64.8558 87.8316 64.7887Z" fill="#E0E0E0"/>
<path d="M87.8316 67.2781L112.952 52.771C113.166 52.65 113.342 52.7358 113.342 52.966C113.333 53.0955 113.292 53.2209 113.224 53.3316C113.156 53.4422 113.063 53.535 112.952 53.6021L87.8316 68.1092C87.617 68.2341 87.4414 68.1443 87.4414 67.918C87.4515 67.7882 87.4921 67.6625 87.5599 67.5513C87.6277 67.4401 87.7208 67.3465 87.8316 67.2781Z" fill="#E0E0E0"/>
<path d="M87.8316 69.7714L112.952 55.2642C113.166 55.1394 113.342 55.2291 113.342 55.4554C113.332 55.5853 113.291 55.7109 113.224 55.8221C113.156 55.9333 113.063 56.0269 112.952 56.0953L87.8316 70.6025C87.617 70.7234 87.4414 70.6376 87.4414 70.4074C87.4508 70.2779 87.4912 70.1526 87.5591 70.0419C87.627 69.9312 87.7204 69.8385 87.8316 69.7714Z" fill="#E0E0E0"/>
<path d="M87.8316 72.2686L112.952 57.7615C113.166 57.6405 113.342 57.7263 113.342 57.9566C113.333 58.086 113.292 58.2114 113.224 58.3221C113.156 58.4327 113.063 58.5255 112.952 58.5926L87.8316 73.0997C87.617 73.2207 87.4414 73.1348 87.4414 72.9046C87.4521 72.7755 87.4929 72.6506 87.5607 72.5401C87.6285 72.4297 87.7213 72.3367 87.8316 72.2686Z" fill="#E0E0E0"/>
<path d="M90.4108 75.913L92.0574 74.9609C92.3969 74.762 92.6739 74.9219 92.6739 75.3121V77.2201C92.6617 77.433 92.5995 77.64 92.4924 77.8244C92.3853 78.0088 92.2363 78.1654 92.0574 78.2814L90.4108 79.2335C90.0713 79.4286 89.7943 79.2725 89.7943 78.8784V76.9743C89.8065 76.7614 89.8687 76.5544 89.9758 76.37C90.0829 76.1856 90.2319 76.0291 90.4108 75.913Z" fill="white"/>
<path d="M87.8316 82.3862L94.6404 78.4531C94.8511 78.3322 95.0305 78.418 95.0305 78.6482C95.0205 78.7775 94.9799 78.9026 94.9121 79.0132C94.8442 79.1238 94.7511 79.2167 94.6404 79.2842L87.8316 83.2134C87.617 83.3383 87.4414 83.2485 87.4414 83.0222C87.4508 82.8927 87.4912 82.7674 87.5591 82.6567C87.627 82.546 87.7204 82.4533 87.8316 82.3862Z" fill="#E0E0E0"/>
<path d="M99.5685 70.622L101.215 69.67C101.555 69.471 101.832 69.631 101.832 70.0212V71.9292C101.819 72.1421 101.757 72.3491 101.65 72.5335C101.543 72.7178 101.394 72.8744 101.215 72.9905L99.5685 73.9425C99.2291 74.1376 98.952 73.9777 98.952 73.5875V71.6912C98.963 71.4769 99.0246 71.2684 99.1318 71.0825C99.239 70.8967 99.3886 70.7389 99.5685 70.622Z" fill="white"/>
<path d="M96.9893 77.0913L103.798 73.1621C104.009 73.0411 104.188 73.127 104.188 73.3572C104.178 73.4865 104.138 73.6116 104.07 73.7222C104.002 73.8328 103.909 73.9256 103.798 73.9932L96.9893 77.9341C96.7747 78.0589 96.5991 77.9692 96.5991 77.7429C96.6074 77.611 96.6471 77.483 96.715 77.3697C96.7829 77.2563 96.877 77.1608 96.9893 77.0913Z" fill="#E0E0E0"/>
<path d="M108.726 65.3311L110.373 64.3751C110.712 64.18 110.989 64.34 110.989 64.7302V66.6187C110.978 66.8323 110.916 67.0401 110.809 67.2252C110.702 67.4103 110.552 67.5675 110.373 67.6839L108.726 68.636C108.387 68.8311 108.11 68.6711 108.11 68.2809V66.3768C108.124 66.1666 108.188 65.9627 108.295 65.7812C108.402 65.5997 108.549 65.4456 108.726 65.3311Z" fill="white"/>
<path d="M106.143 71.8003L112.952 67.8711C113.166 67.7501 113.342 67.836 113.342 68.0662C113.333 68.1957 113.292 68.321 113.224 68.4317C113.157 68.5423 113.063 68.6351 112.952 68.7022L106.143 72.6314C105.932 72.7562 105.753 72.6665 105.753 72.4363C105.764 72.3072 105.805 72.1824 105.873 72.072C105.94 71.9616 106.033 71.8685 106.143 71.8003Z" fill="#E0E0E0"/>
<path d="M87.8316 84.0055L94.6404 80.0763C94.8511 79.9553 95.0305 80.0412 95.0305 80.2714C95.0196 80.4005 94.9786 80.5252 94.9108 80.6356C94.8431 80.7461 94.7505 80.8391 94.6404 80.9074L87.8316 84.8366C87.617 84.9575 87.4414 84.8717 87.4414 84.6415C87.4515 84.5121 87.4921 84.3871 87.5599 84.2765C87.6277 84.1659 87.7209 84.073 87.8316 84.0055Z" fill="#E0E0E0"/>
<path d="M96.9893 78.7144L103.798 74.7852C104.009 74.6604 104.188 74.7501 104.188 74.9764C104.178 75.1062 104.137 75.2317 104.069 75.3428C104.002 75.454 103.909 75.5477 103.798 75.6163L96.9893 79.5455C96.7747 79.6665 96.5991 79.5806 96.5991 79.3504C96.6085 79.2209 96.6489 79.0956 96.7168 78.9849C96.7847 78.8742 96.8781 78.7815 96.9893 78.7144Z" fill="#E0E0E0"/>
<path d="M106.143 73.4236L112.952 69.4944C113.166 69.3696 113.342 69.4593 113.342 69.6856C113.332 69.8155 113.291 69.9411 113.224 70.0523C113.156 70.1635 113.063 70.2571 112.952 70.3255L106.143 74.2547C105.932 74.3757 105.753 74.2898 105.753 74.0596C105.763 73.9303 105.804 73.8052 105.871 73.6946C105.939 73.5841 106.032 73.4912 106.143 73.4236Z" fill="#E0E0E0"/>
<path d="M87.8316 85.6286L94.6404 81.6955C94.8511 81.5746 95.0305 81.6604 95.0305 81.8906C95.0205 82.02 94.9799 82.1451 94.9121 82.2556C94.8442 82.3662 94.7511 82.4591 94.6404 82.5266L87.8316 86.4597C87.617 86.5807 87.4414 86.4949 87.4414 86.2646C87.4508 86.1351 87.4912 86.0098 87.5591 85.8991C87.627 85.7885 87.7204 85.6957 87.8316 85.6286Z" fill="#E0E0E0"/>
<path d="M96.9893 80.3377L103.798 76.4046C104.009 76.2836 104.188 76.3695 104.188 76.5997C104.178 76.729 104.138 76.8541 104.07 76.9647C104.002 77.0752 103.909 77.1681 103.798 77.2357L96.9893 81.1688C96.7747 81.2897 96.5991 81.2039 96.5991 80.9737C96.6085 80.8442 96.6489 80.7189 96.7168 80.6082C96.7847 80.4975 96.8781 80.4048 96.9893 80.3377Z" fill="#E0E0E0"/>
<path d="M106.143 75.0467L112.952 71.1136C113.166 70.9926 113.342 71.0785 113.342 71.3087C113.333 71.4382 113.292 71.5635 113.224 71.6742C113.157 71.7848 113.063 71.8776 112.952 71.9447L106.143 75.8739C105.932 75.9987 105.753 75.9129 105.753 75.6827C105.763 75.5533 105.804 75.4282 105.871 75.3177C105.939 75.2071 106.032 75.1142 106.143 75.0467Z" fill="#E0E0E0"/>
<path d="M90.4108 89.55L92.0574 88.598C92.3969 88.4029 92.6739 88.5628 92.6739 88.953V90.8572C92.6617 91.07 92.5995 91.2771 92.4924 91.4614C92.3853 91.6458 92.2363 91.8024 92.0574 91.9185L90.4108 92.8705C90.0713 93.0695 89.7943 92.9095 89.7943 92.5194V90.6113C89.8065 90.3984 89.8687 90.1914 89.9758 90.007C90.0829 89.8227 90.2319 89.6661 90.4108 89.55Z" fill="white"/>
<path d="M87.8316 96.0232L94.6404 92.094C94.8511 91.9691 95.0305 92.0589 95.0305 92.2852C95.0205 92.4145 94.9799 92.5396 94.9121 92.6502C94.8442 92.7607 94.7511 92.8536 94.6404 92.9212L87.8316 96.8543C87.617 96.9752 87.4414 96.8894 87.4414 96.6592C87.4508 96.5297 87.4912 96.4043 87.5591 96.2937C87.627 96.183 87.7204 96.0902 87.8316 96.0232Z" fill="#E0E0E0"/>
<path d="M99.5685 84.2592L101.215 83.3071C101.555 83.112 101.832 83.2681 101.832 83.6622V85.5663C101.819 85.7792 101.757 85.9862 101.65 86.1706C101.543 86.355 101.394 86.5115 101.215 86.6276L99.5685 87.5797C99.2291 87.7786 98.952 87.6187 98.952 87.2285V85.3205C98.9642 85.1076 99.0264 84.9006 99.1335 84.7162C99.2406 84.5318 99.3896 84.3752 99.5685 84.2592Z" fill="white"/>
<path d="M96.9893 90.7323L103.798 86.8031C104.009 86.6783 104.188 86.7641 104.188 86.9943C104.178 87.1237 104.138 87.2488 104.07 87.3593C104.002 87.4699 103.909 87.5628 103.798 87.6303L96.9893 91.5634C96.7747 91.6844 96.5991 91.5985 96.5991 91.3683C96.6085 91.2388 96.6489 91.1135 96.7168 91.0028C96.7847 90.8922 96.8781 90.7994 96.9893 90.7323Z" fill="#E0E0E0"/>
<path d="M108.726 78.9682L110.373 78.0161C110.712 77.8211 110.989 77.9771 110.989 78.3712V80.2753C110.977 80.4882 110.915 80.6952 110.808 80.8796C110.701 81.064 110.552 81.2206 110.373 81.3366L108.726 82.2887C108.387 82.4838 108.11 82.3277 108.11 81.9375V80.0295C108.122 79.8166 108.184 79.6096 108.291 79.4252C108.398 79.2408 108.547 79.0843 108.726 78.9682Z" fill="white"/>
<path d="M106.143 85.4414L112.952 81.5083C113.166 81.3873 113.342 81.4732 113.342 81.7034C113.333 81.8329 113.292 81.9582 113.224 82.0689C113.157 82.1796 113.063 82.2723 112.952 82.3394L106.143 86.2725C105.932 86.3934 105.753 86.3076 105.753 86.0774C105.763 85.9481 105.804 85.823 105.871 85.7124C105.939 85.6018 106.032 85.5089 106.143 85.4414Z" fill="#E0E0E0"/>
<path d="M87.8316 97.6464L94.6404 93.7134C94.8511 93.5924 95.0305 93.6783 95.0305 93.9085C95.0205 94.0378 94.9799 94.1629 94.9121 94.2735C94.8442 94.384 94.7511 94.4769 94.6404 94.5445L87.8316 98.4737C87.617 98.5985 87.4414 98.5088 87.4414 98.2825C87.4508 98.153 87.4912 98.0276 87.5591 97.917C87.627 97.8063 87.7204 97.7135 87.8316 97.6464Z" fill="#E0E0E0"/>
<path d="M96.9893 92.3711L103.798 88.4419C104.009 88.321 104.188 88.4068 104.188 88.637C104.178 88.7664 104.138 88.8915 104.07 89.002C104.002 89.1126 103.909 89.2055 103.798 89.273L96.9893 93.2022C96.7747 93.3271 96.5991 93.2374 96.5991 93.011C96.6092 92.8812 96.6498 92.7556 96.7176 92.6444C96.7854 92.5332 96.8785 92.4395 96.9893 92.3711Z" fill="#E0E0E0"/>
<path d="M106.143 87.0605L112.952 83.1313C113.166 83.0104 113.342 83.0962 113.342 83.3264C113.333 83.4559 113.292 83.5813 113.224 83.6919C113.157 83.8026 113.063 83.8954 112.952 83.9624L106.143 87.8916C105.932 88.0165 105.753 87.9267 105.753 87.7004C105.763 87.5707 105.804 87.4451 105.872 87.334C105.94 87.2228 106.033 87.1292 106.143 87.0605Z" fill="#E0E0E0"/>
<path d="M87.8316 99.2657L94.6404 95.3365C94.8511 95.2156 95.0305 95.3014 95.0305 95.5316C95.0196 95.6607 94.9786 95.7855 94.9108 95.8959C94.8431 96.0063 94.7505 96.0994 94.6404 96.1676L87.8316 100.097C87.617 100.218 87.4414 100.132 87.4414 99.9017C87.4521 99.7726 87.4929 99.6477 87.5607 99.5372C87.6285 99.4268 87.7213 99.3338 87.8316 99.2657Z" fill="#E0E0E0"/>
<path d="M96.9893 93.9748L103.798 90.03C104.009 89.9091 104.188 89.9949 104.188 90.2251C104.177 90.3542 104.136 90.4789 104.069 90.5894C104.001 90.6998 103.908 90.7929 103.798 90.8611L96.9893 94.7903C96.7747 94.9113 96.5991 94.8254 96.5991 94.5952C96.6109 94.4684 96.6524 94.3462 96.7202 94.2385C96.788 94.1307 96.8802 94.0404 96.9893 93.9748Z" fill="#E0E0E0"/>
<path d="M106.143 88.6838L112.952 84.7546C113.166 84.6297 113.342 84.7195 113.342 84.9458C113.332 85.0756 113.291 85.2012 113.224 85.3124C113.156 85.4236 113.063 85.5172 112.952 85.5857L106.143 89.5149C105.932 89.6358 105.753 89.55 105.753 89.3198C105.763 89.1904 105.804 89.0653 105.871 88.9548C105.939 88.8442 106.032 88.7513 106.143 88.6838Z" fill="#E0E0E0"/>
<path d="M72.3998 29.6953C76.3836 27.3971 79.6104 29.2583 79.6104 33.8586C79.6104 38.4589 76.3836 44.0425 72.3998 46.3446C68.4159 48.6467 65.193 46.7816 65.193 42.1852C65.193 37.5888 68.4198 31.9935 72.3998 29.6953Z" fill="#FAFAFA"/>
<path d="M72.3997 33.3124C73.6912 32.5672 74.7408 33.172 74.7408 34.6625C74.6965 35.4741 74.4613 36.2638 74.0546 36.9675C73.6478 37.6712 73.0809 38.2691 72.3997 38.7126C71.1082 39.4579 70.0586 38.8531 70.0586 37.3626C70.1027 36.5509 70.3376 35.7611 70.7444 35.0573C71.1512 34.3536 71.7184 33.7557 72.3997 33.3124Z" fill="#E0E0E0"/>
<path d="M76.965 41.2566C76.965 38.8062 75.2443 37.8151 73.1216 39.0403L71.795 39.8207C69.6724 41.0459 67.9517 44.0269 67.9517 46.4773V47.1367C69.1808 47.5269 70.722 47.3201 72.4037 46.3563C74.2493 45.2166 75.8095 43.6697 76.965 41.834V41.2566Z" fill="#E0E0E0"/>
<path d="M68.135 58.183L78.1082 52.4238C78.5296 52.178 78.8886 52.3536 78.8886 52.814C78.8684 53.0726 78.7872 53.3228 78.6516 53.544C78.5159 53.7651 78.3297 53.9509 78.1082 54.086L68.135 59.8452C67.7097 60.091 67.3546 59.9154 67.3546 59.455C67.3741 59.1961 67.4551 58.9457 67.5908 58.7245C67.7265 58.5032 67.9131 58.3176 68.135 58.183Z" fill="#F5F5F5"/>
<path d="M36.4127 141.8L49.0899 86.8928L118.493 46.8245L105.815 101.728L36.4127 141.8Z" fill="#BA68C8"/>
<path opacity="0.1" d="M71.2798 121.666V74.083L118.309 47.0626L105.815 101.728L71.2798 121.666Z" fill="black"/>
<path d="M83.239 128.576L71.2798 121.666L93.5517 108.903L83.239 128.576Z" fill="#E0E0E0"/>
<path d="M83.2391 128.577C83.0258 128.431 82.8497 128.238 82.7249 128.013C82.6002 127.787 82.5304 127.535 82.5211 127.277V42.6807C82.5378 42.4138 82.6171 42.1546 82.7527 41.9241C82.8883 41.6936 83.0763 41.4983 83.3015 41.354L136.41 10.6814C136.632 10.542 136.888 10.4658 137.15 10.4611C137.412 10.4563 137.67 10.5232 137.897 10.6545C138.124 10.7858 138.311 10.9765 138.437 11.2061C138.563 11.4357 138.625 11.6954 138.614 11.9573V96.5499C138.598 96.817 138.519 97.0764 138.384 97.307C138.248 97.5376 138.06 97.7328 137.834 97.8766L84.7257 128.549C84.4973 128.67 84.2438 128.735 83.9856 128.74C83.7274 128.744 83.4717 128.689 83.2391 128.577Z" fill="#EBEBEB"/>
<path d="M83.957 44.2883L105.534 30.1713L104.095 29.3402L83.2859 41.354C83.0607 41.4983 82.8727 41.6936 82.7371 41.9241C82.6015 42.1546 82.5221 42.4138 82.5055 42.6807V43.4611L83.957 44.2883Z" fill="#455A64"/>
<path d="M91.1481 46.7777L82.7435 41.9276C82.6064 42.1556 82.5299 42.4148 82.5211 42.6807V127.277C82.5115 127.539 82.5734 127.798 82.7002 128.027C82.8269 128.256 83.0137 128.446 83.2404 128.577C83.4671 128.708 83.7252 128.774 83.9869 128.769C84.2486 128.765 84.504 128.688 84.7257 128.549L91.1481 124.839V46.7777Z" fill="#263238"/>
<path d="M84.7257 128.549L137.834 97.8766C138.06 97.7328 138.248 97.5377 138.384 97.3071C138.519 97.0765 138.598 96.817 138.614 96.55V11.9574C138.614 11.4658 138.271 11.2707 137.834 11.5126L84.7257 42.1852C84.4996 42.3285 84.3109 42.5235 84.1752 42.7542C84.0395 42.9849 83.9607 43.2446 83.9453 43.5118V128.104C83.957 128.596 84.3004 128.791 84.7257 128.549Z" fill="#37474F"/>
<path d="M88.3661 63.0523L101.121 55.6933C101.968 55.2056 102.655 55.5529 102.655 56.4737C102.617 56.9888 102.458 57.4878 102.192 57.9304C101.925 58.3729 101.559 58.7467 101.121 59.0216L88.3661 66.3845C87.5194 66.8722 86.8326 66.5249 86.8326 65.6041C86.869 65.088 87.0268 64.5878 87.2933 64.1443C87.5598 63.7008 87.9274 63.3266 88.3661 63.0523Z" fill="#E0E0E0"/>
<path d="M87.4493 76.5139L89.0998 75.5618C89.4353 75.3667 89.7123 75.5267 89.7123 75.9169V77.821C89.7003 78.034 89.6386 78.2412 89.5322 78.4262C89.4259 78.6111 89.2778 78.7687 89.0998 78.8862L87.4493 79.8383C87.1098 80.0334 86.8367 79.8734 86.8367 79.4832V77.5791C86.8475 77.3658 86.9087 77.1581 87.0152 76.973C87.1216 76.7879 87.2704 76.6305 87.4493 76.5139Z" fill="#BA68C8"/>
<path d="M91.9168 74.7659L101.89 69.0068C102.311 68.7648 102.67 68.9365 102.67 69.3969C102.649 69.6554 102.568 69.9052 102.432 70.1262C102.297 70.3472 102.111 70.5331 101.89 70.669L91.9168 76.4281C91.4915 76.67 91.1365 76.4983 91.1365 76.0379C91.1572 75.7794 91.2387 75.5295 91.3743 75.3084C91.5099 75.0874 91.6958 74.9015 91.9168 74.7659Z" fill="#E0E0E0"/>
<path d="M87.4493 83.1587L89.0998 82.2262C89.4353 82.0311 89.7123 82.1871 89.7123 82.5812V84.4854C89.7003 84.6978 89.6386 84.9045 89.5322 85.0888C89.4258 85.2731 89.2777 85.4299 89.0998 85.5467L87.4493 86.4987C87.1098 86.6938 86.8367 86.5377 86.8367 86.1475V84.2395C86.8448 84.0235 86.9046 83.8126 87.0113 83.6245C87.1179 83.4364 87.2681 83.2767 87.4493 83.1587Z" fill="#BA68C8"/>
<path d="M91.9168 81.4107L101.89 75.6515C102.311 75.4057 102.67 75.5812 102.67 76.0417C102.65 76.3008 102.569 76.5514 102.433 76.7731C102.297 76.9948 102.111 77.1814 101.89 77.3176L91.9168 83.0729C91.4915 83.3187 91.1365 83.147 91.1365 82.6827C91.156 82.4238 91.2369 82.1734 91.3726 81.9522C91.5084 81.7309 91.6949 81.5453 91.9168 81.4107Z" fill="#E0E0E0"/>
<path d="M87.4493 89.8037L89.0998 88.8594C89.4353 88.6643 89.7123 88.8243 89.7123 89.2145V91.1186C89.7009 91.3318 89.6394 91.5392 89.533 91.7243C89.4266 91.9093 89.2782 92.0667 89.0998 92.1838L87.4493 93.1359C87.1098 93.331 86.8367 93.171 86.8367 92.7808V90.8767C86.846 90.662 86.9065 90.4526 87.013 90.266C87.1196 90.0794 87.2691 89.9209 87.4493 89.8037Z" fill="#BA68C8"/>
<path d="M91.9168 88.0516L101.89 82.2924C102.311 82.0505 102.67 82.2222 102.67 82.6826C102.65 82.9411 102.568 83.191 102.433 83.4121C102.297 83.6331 102.111 83.819 101.89 83.9546L91.9168 89.7138C91.4915 89.9596 91.1365 89.784 91.1365 89.3236C91.1572 89.0651 91.2387 88.8151 91.3743 88.5941C91.5099 88.373 91.6958 88.1872 91.9168 88.0516Z" fill="#E0E0E0"/>
<path d="M87.4493 96.4641L89.0998 95.4925C89.4353 95.2974 89.7123 95.4574 89.7123 95.8476V97.7556C89.7003 97.968 89.6386 98.1747 89.5322 98.359C89.4258 98.5433 89.2777 98.7002 89.0998 98.8169L87.4493 99.7846C87.1098 99.9796 86.8367 99.8197 86.8367 99.4295V97.5254C86.8478 97.3127 86.9091 97.1057 87.0156 96.9212C87.1221 96.7368 87.2707 96.5801 87.4493 96.4641Z" fill="#BA68C8"/>
<path d="M91.9168 94.7121L101.89 88.9568C102.311 88.711 102.67 88.8827 102.67 89.347C102.65 89.6055 102.568 89.8554 102.433 90.0765C102.297 90.2975 102.111 90.4834 101.89 90.619L91.9168 96.3782C91.4915 96.624 91.1365 96.4484 91.1365 95.988C91.1566 95.7288 91.2378 95.4781 91.3734 95.2563C91.5091 95.0345 91.6953 94.8481 91.9168 94.7121Z" fill="#E0E0E0"/>
<path d="M87.6013 110.351L94.6988 106.254C95.1202 106.012 95.4792 106.184 95.4792 106.644C95.4582 106.902 95.3765 107.152 95.241 107.373C95.1054 107.594 94.9197 107.78 94.6988 107.916L87.6013 112.013C87.1799 112.259 86.8209 112.083 86.8209 111.623C86.8419 111.364 86.9236 111.115 87.0591 110.894C87.1947 110.673 87.3805 110.487 87.6013 110.351Z" fill="#E0E0E0"/>
<path d="M87.6013 113.675L101.89 105.423C102.311 105.181 102.67 105.353 102.67 105.813C102.649 106.071 102.568 106.321 102.432 106.542C102.297 106.763 102.111 106.949 101.89 107.085L87.6013 115.334C87.1799 115.579 86.8209 115.404 86.8209 114.943C86.8416 114.685 86.9231 114.436 87.0588 114.216C87.1944 113.995 87.3803 113.81 87.6013 113.675Z" fill="#FAFAFA"/>
<path d="M87.6013 113.675L97.5745 107.916C97.9998 107.67 98.3549 107.846 98.3549 108.306C98.3347 108.565 98.2535 108.816 98.1179 109.038C97.9823 109.26 97.796 109.446 97.5745 109.582L87.6013 115.337C87.1799 115.583 86.8209 115.408 86.8209 114.947C86.841 114.689 86.9223 114.438 87.0579 114.217C87.1936 113.996 87.3798 113.81 87.6013 113.675Z" fill="#BA68C8"/>
<path d="M87.6013 116.992L94.6988 112.895C95.1202 112.649 95.4792 112.825 95.4792 113.285C95.4588 113.544 95.3774 113.795 95.2418 114.016C95.1062 114.238 94.9202 114.425 94.6988 114.561L87.6013 118.658C87.1799 118.9 86.8209 118.728 86.8209 118.268C86.8414 118.009 86.9227 117.758 87.0583 117.536C87.1939 117.315 87.38 117.128 87.6013 116.992Z" fill="#E0E0E0"/>
<path d="M87.6013 103.714L94.6988 99.6168C95.1202 99.371 95.4792 99.5466 95.4792 100.007C95.4591 100.266 95.3779 100.516 95.2422 100.737C95.1065 100.958 94.9203 101.144 94.6988 101.279L87.6013 105.376C87.1799 105.622 86.8209 105.45 86.8209 104.986C86.841 104.727 86.9223 104.477 87.0579 104.256C87.1936 104.035 87.3798 103.849 87.6013 103.714Z" fill="#E0E0E0"/>
<path d="M87.6013 107.034L101.89 98.7858C102.311 98.54 102.67 98.7156 102.67 99.176C102.65 99.4347 102.569 99.6849 102.433 99.906C102.298 100.127 102.111 100.313 101.89 100.448L87.6013 108.7C87.1799 108.942 86.8209 108.771 86.8209 108.31C86.8414 108.051 86.9227 107.801 87.0583 107.579C87.1939 107.357 87.38 107.171 87.6013 107.034Z" fill="#FAFAFA"/>
<path d="M87.6013 107.034L92.6737 104.108C93.0951 103.866 93.4541 104.038 93.4541 104.498C93.4331 104.756 93.3515 105.006 93.2159 105.227C93.0803 105.448 92.8946 105.634 92.6737 105.77L87.6013 108.696C87.1799 108.938 86.8209 108.767 86.8209 108.306C86.8419 108.048 86.9236 107.798 87.0591 107.577C87.1947 107.356 87.3805 107.17 87.6013 107.034Z" fill="#BA68C8"/>
<path d="M87.6013 120.312L101.89 112.064C102.311 111.818 102.67 111.994 102.67 112.454C102.649 112.712 102.568 112.962 102.432 113.183C102.297 113.404 102.111 113.59 101.89 113.726L87.6013 121.975C87.1799 122.22 86.8209 122.045 86.8209 121.584C86.8419 121.326 86.9236 121.076 87.0591 120.855C87.1947 120.634 87.3805 120.448 87.6013 120.312Z" fill="#FAFAFA"/>
<path d="M87.6013 120.312L100.45 112.899C100.875 112.653 101.231 112.829 101.231 113.289C101.21 113.548 101.129 113.799 100.994 114.021C100.858 114.242 100.672 114.429 100.45 114.565L87.6013 121.979C87.1799 122.224 86.8209 122.049 86.8209 121.588C86.8414 121.329 86.9227 121.079 87.0583 120.857C87.1939 120.635 87.38 120.449 87.6013 120.312Z" fill="#BA68C8"/>
<path d="M137.834 11.5126L105.523 30.1713V116.535L137.834 97.8766C138.06 97.7328 138.248 97.5377 138.384 97.3071C138.519 97.0765 138.598 96.817 138.614 96.55V11.9574C138.614 11.4658 138.271 11.2707 137.834 11.5126Z" fill="#FAFAFA"/>
<path d="M105.534 33.4918V40.1366L102.655 43.4571H105.53L105.534 50.102L135.739 32.6607V16.0543L105.534 33.4918Z" fill="#BA68C8"/>
<path d="M109.483 33.7222L121.719 26.6598C122.312 26.3164 122.792 26.5934 122.792 27.2802C122.776 27.6564 122.67 28.0234 122.484 28.3506C122.297 28.6777 122.035 28.9555 121.719 29.1609L109.483 36.2272C108.89 36.5705 108.41 36.2935 108.41 35.6068C108.426 35.2299 108.532 34.8624 108.719 34.5347C108.905 34.2069 109.167 33.9284 109.483 33.7222Z" fill="#FAFAFA"/>
<path d="M108.792 39.0831L132.477 25.4266C132.691 25.3017 132.867 25.3915 132.867 25.6178C132.857 25.7477 132.817 25.8734 132.749 25.9847C132.681 26.0959 132.588 26.1895 132.477 26.2577L108.792 39.9142C108.582 40.0352 108.402 39.9493 108.402 39.7191C108.413 39.59 108.454 39.4653 108.522 39.3549C108.59 39.2444 108.682 39.1514 108.792 39.0831Z" fill="#FAFAFA"/>
<path d="M108.792 41.5764L132.477 27.9198C132.691 27.7989 132.867 27.8847 132.867 28.1149C132.858 28.2445 132.818 28.37 132.75 28.4807C132.682 28.5914 132.588 28.6841 132.477 28.7509L108.792 42.4075C108.582 42.5284 108.402 42.4426 108.402 42.2124C108.412 42.083 108.453 41.958 108.521 41.8474C108.589 41.7368 108.682 41.6439 108.792 41.5764Z" fill="#FAFAFA"/>
<path d="M108.792 44.0657L132.477 30.4092C132.691 30.2843 132.867 30.3741 132.867 30.6004C132.858 30.7299 132.818 30.8554 132.75 30.9661C132.682 31.0768 132.588 31.1696 132.477 31.2364L108.792 44.9124C108.582 45.0334 108.402 44.9476 108.402 44.7173C108.411 44.5855 108.451 44.4577 108.519 44.3444C108.586 44.231 108.68 44.1355 108.792 44.0657Z" fill="#FAFAFA"/>
<path d="M109.686 51.0346L111.336 50.0787C111.672 49.8836 111.949 50.0436 111.949 50.4337V52.3379C111.938 52.551 111.876 52.7585 111.77 52.9435C111.663 53.1285 111.515 53.286 111.336 53.4031L109.686 54.3551C109.346 54.5502 109.073 54.3902 109.073 54.0001V52.0959C109.085 51.8833 109.146 51.6762 109.252 51.4918C109.359 51.3073 109.507 51.1507 109.686 51.0346Z" fill="#BA68C8"/>
<path d="M114.154 49.2827L124.127 43.5236C124.552 43.2817 124.907 43.4533 124.907 43.9138C124.887 44.1724 124.806 44.4226 124.67 44.6437C124.535 44.8649 124.348 45.0507 124.127 45.1858L114.154 50.9449C113.728 51.1868 113.373 51.0152 113.373 50.5547C113.394 50.2962 113.475 50.0463 113.611 49.8253C113.747 49.6042 113.933 49.4183 114.154 49.2827Z" fill="#455A64"/>
<path d="M109.456 56.9811L134.58 42.4739C134.791 42.353 134.97 42.4388 134.97 42.669C134.96 42.7983 134.919 42.9234 134.852 43.034C134.784 43.1446 134.691 43.2375 134.58 43.305L109.456 57.8122C109.245 57.9331 109.066 57.8473 109.066 57.6171C109.077 57.488 109.118 57.3633 109.185 57.2528C109.253 57.1424 109.346 57.0494 109.456 56.9811Z" fill="#455A64"/>
<path d="M109.456 59.4745L134.58 44.9673C134.791 44.8424 134.97 44.9283 134.97 45.1585C134.96 45.2878 134.919 45.4129 134.852 45.5235C134.784 45.634 134.691 45.7269 134.58 45.7945L109.456 60.3017C109.245 60.4265 109.066 60.3407 109.066 60.1105C109.076 59.9811 109.116 59.856 109.184 59.7455C109.252 59.6349 109.345 59.542 109.456 59.4745Z" fill="#455A64"/>
<path d="M109.456 61.9638L134.58 47.4567C134.791 47.3357 134.97 47.4215 134.97 47.6517C134.959 47.7808 134.918 47.9056 134.85 48.016C134.783 48.1264 134.69 48.2195 134.58 48.2878L109.456 62.7949C109.245 62.9159 109.066 62.83 109.066 62.5998C109.076 62.4705 109.116 62.3454 109.184 62.2348C109.252 62.1243 109.345 62.0314 109.456 61.9638Z" fill="#455A64"/>
<path d="M109.456 64.461L134.58 49.9538C134.791 49.8329 134.97 49.9187 134.97 50.1489C134.96 50.2783 134.919 50.4034 134.852 50.5139C134.784 50.6245 134.691 50.7174 134.58 50.7849L109.456 65.2921C109.245 65.417 109.066 65.3272 109.066 65.1009C109.076 64.9712 109.117 64.8456 109.184 64.7345C109.252 64.6233 109.345 64.5297 109.456 64.461Z" fill="#455A64"/>
<path d="M109.686 69.3031L111.336 68.351C111.672 68.1559 111.949 68.312 111.949 68.7022V70.6102C111.937 70.8227 111.875 71.0293 111.769 71.2137C111.662 71.398 111.514 71.5548 111.336 71.6715L109.686 72.6236C109.346 72.8187 109.073 72.6626 109.073 72.2685V70.3644C109.085 70.1517 109.146 69.9447 109.252 69.7602C109.359 69.5758 109.507 69.4191 109.686 69.3031Z" fill="#BA68C8"/>
<path d="M114.154 67.5513L124.127 61.796C124.552 61.5502 124.907 61.7258 124.907 62.1862C124.888 62.4451 124.807 62.6957 124.671 62.917C124.536 63.1382 124.349 63.3238 124.127 63.4582L114.154 69.2174C113.728 69.4632 113.373 69.2876 113.373 68.8272C113.393 68.568 113.475 68.3173 113.61 68.0955C113.746 67.8738 113.932 67.6873 114.154 67.5513Z" fill="#455A64"/>
<path d="M109.456 75.2496L134.58 60.7424C134.791 60.6215 134.97 60.7073 134.97 60.9375C134.96 61.0668 134.919 61.1919 134.852 61.3025C134.784 61.4131 134.691 61.506 134.58 61.5735L109.456 76.0807C109.245 76.2055 109.066 76.1158 109.066 75.8895C109.076 75.7597 109.117 75.6342 109.184 75.5231C109.252 75.4119 109.345 75.3182 109.456 75.2496Z" fill="#455A64"/>
<path d="M109.456 77.7428L134.58 63.2357C134.791 63.1108 134.97 63.2005 134.97 63.4268C134.96 63.5566 134.919 63.6821 134.851 63.7933C134.783 63.9044 134.691 63.9981 134.58 64.0668L109.456 78.5739C109.245 78.6949 109.066 78.609 109.066 78.3788C109.076 78.2495 109.116 78.1244 109.184 78.0138C109.252 77.9033 109.345 77.8104 109.456 77.7428Z" fill="#455A64"/>
<path d="M109.456 80.2323L134.58 65.7251C134.791 65.6042 134.97 65.69 134.97 65.9202C134.96 66.0496 134.919 66.1747 134.852 66.2852C134.784 66.3958 134.691 66.4887 134.58 66.5562L109.456 81.0556C109.245 81.1805 109.066 81.0907 109.066 80.8605C109.078 80.7328 109.119 80.6096 109.187 80.5006C109.255 80.3916 109.347 80.2998 109.456 80.2323Z" fill="#455A64"/>
<path d="M109.456 82.7335L134.58 68.2263C134.791 68.1014 134.97 68.1873 134.97 68.4175C134.96 68.5468 134.919 68.6719 134.852 68.7825C134.784 68.8931 134.691 68.9859 134.58 69.0535L109.456 83.5607C109.245 83.6855 109.066 83.5997 109.066 83.3695C109.076 83.2401 109.116 83.115 109.184 83.0045C109.252 82.8939 109.345 82.801 109.456 82.7335Z" fill="#455A64"/>
<path d="M112.035 86.3739L113.685 85.4218C114.025 85.2267 114.298 85.3867 114.298 85.7769V87.6888C114.287 87.9015 114.226 88.1085 114.119 88.293C114.013 88.4774 113.864 88.6341 113.685 88.7501L112.035 89.7061C111.695 89.9012 111.422 89.7412 111.422 89.351V87.443C111.432 87.229 111.493 87.0204 111.6 86.8345C111.706 86.6486 111.855 86.4907 112.035 86.3739Z" fill="#BA68C8"/>
<path d="M109.456 92.847L116.265 88.9178C116.475 88.793 116.655 88.8827 116.655 89.109C116.645 89.2384 116.604 89.3635 116.536 89.474C116.468 89.5846 116.375 89.6775 116.265 89.745L109.456 93.6781C109.245 93.7991 109.066 93.7132 109.066 93.483C109.076 93.3537 109.116 93.2286 109.184 93.118C109.252 93.0075 109.345 92.9146 109.456 92.847Z" fill="#455A64"/>
<path d="M121.193 81.0829L122.843 80.1308C123.183 79.9357 123.456 80.0918 123.456 80.4859V82.39C123.444 82.6027 123.383 82.8097 123.277 82.9942C123.17 83.1786 123.022 83.3353 122.843 83.4513L121.193 84.4034C120.853 84.6024 120.58 84.4424 120.58 84.0522V82.1442C120.591 81.9315 120.652 81.7245 120.759 81.54C120.865 81.3556 121.014 81.1989 121.193 81.0829Z" fill="#BA68C8"/>
<path d="M118.613 87.5562L125.422 83.627C125.633 83.5022 125.812 83.5919 125.812 83.8182C125.802 83.9475 125.762 84.0726 125.694 84.1832C125.626 84.2938 125.533 84.3866 125.422 84.4542L118.613 88.3873C118.403 88.5083 118.223 88.4224 118.223 88.1922C118.233 88.0629 118.274 87.9378 118.342 87.8272C118.41 87.7166 118.503 87.6238 118.613 87.5562Z" fill="#455A64"/>
<path d="M130.35 75.792L132.001 74.8399C132.34 74.6448 132.613 74.8009 132.613 75.195V77.0991C132.602 77.3118 132.541 77.5188 132.434 77.7033C132.328 77.8877 132.179 78.0444 132.001 78.1604L130.35 79.1047C130.011 79.2998 129.738 79.1437 129.738 78.7535V76.8455C129.75 76.6342 129.812 76.4287 129.918 76.2457C130.025 76.0627 130.173 75.9073 130.35 75.792Z" fill="#BA68C8"/>
<path d="M127.771 82.2651L134.58 78.3242C134.791 78.1993 134.97 78.2852 134.97 78.5154C134.96 78.6447 134.919 78.7698 134.852 78.8804C134.784 78.991 134.691 79.0838 134.58 79.1514L127.771 83.0845C127.56 83.2054 127.381 83.1196 127.381 82.8894C127.393 82.7621 127.434 82.6394 127.502 82.531C127.57 82.4225 127.662 82.3315 127.771 82.2651Z" fill="#455A64"/>
<path d="M109.456 94.4703L116.265 90.5372C116.475 90.4162 116.655 90.502 116.655 90.7323C116.645 90.8616 116.604 90.9867 116.536 91.0973C116.468 91.2078 116.375 91.3007 116.265 91.3683L109.456 95.2974C109.245 95.4223 109.066 95.3365 109.066 95.1063C109.076 94.9769 109.116 94.8518 109.184 94.7413C109.252 94.6307 109.345 94.5378 109.456 94.4703Z" fill="#455A64"/>
<path d="M118.613 89.1792L125.422 85.2461C125.633 85.1252 125.812 85.211 125.812 85.4412C125.802 85.5706 125.762 85.6957 125.694 85.8062C125.626 85.9168 125.533 86.0097 125.422 86.0772L118.613 90.0064C118.403 90.1313 118.223 90.0416 118.223 89.8152C118.233 89.6859 118.274 89.5608 118.342 89.4502C118.41 89.3397 118.503 89.2468 118.613 89.1792Z" fill="#455A64"/>
<path d="M127.771 83.8846L134.58 79.9554C134.791 79.8344 134.97 79.9203 134.97 80.1505C134.96 80.2798 134.919 80.4049 134.852 80.5155C134.784 80.626 134.691 80.7189 134.58 80.7865L127.771 84.7157C127.56 84.8405 127.381 84.7508 127.381 84.5245C127.391 84.3947 127.432 84.2692 127.5 84.158C127.568 84.0469 127.661 83.9532 127.771 83.8846Z" fill="#455A64"/>
<path d="M109.456 96.0895L116.265 92.1603C116.475 92.0394 116.655 92.1252 116.655 92.3554C116.644 92.4845 116.603 92.6092 116.535 92.7197C116.467 92.8301 116.375 92.9232 116.265 92.9914L109.456 96.9206C109.245 97.0416 109.066 96.9557 109.066 96.7255C109.077 96.5964 109.118 96.4717 109.185 96.3613C109.253 96.2508 109.346 96.1578 109.456 96.0895Z" fill="#455A64"/>
<path d="M118.613 90.8103L125.422 86.8812C125.633 86.7602 125.812 86.846 125.812 87.0762C125.801 87.2053 125.76 87.3301 125.693 87.4405C125.625 87.5509 125.532 87.644 125.422 87.7123L118.613 91.6297C118.403 91.7507 118.223 91.6649 118.223 91.4346C118.236 91.3075 118.277 91.185 118.345 91.0767C118.413 90.9684 118.505 90.8772 118.613 90.8103Z" fill="#455A64"/>
<path d="M127.771 85.5077L134.58 81.5785C134.791 81.4536 134.97 81.5434 134.97 81.7697C134.96 81.8994 134.919 82.025 134.851 82.1361C134.783 82.2473 134.691 82.3409 134.58 82.4096L127.771 86.3388C127.56 86.4597 127.381 86.3739 127.381 86.1437C127.391 86.0144 127.432 85.8893 127.499 85.7787C127.567 85.6681 127.66 85.5752 127.771 85.5077Z" fill="#455A64"/>
<path d="M112.035 100.015L113.685 99.0588C114.025 98.8637 114.298 99.0237 114.298 99.4139V101.322C114.287 101.535 114.226 101.742 114.119 101.926C114.013 102.111 113.864 102.267 113.685 102.383L112.035 103.335C111.695 103.53 111.422 103.37 111.422 102.98V101.076C111.434 100.863 111.495 100.656 111.601 100.472C111.708 100.287 111.856 100.131 112.035 100.015Z" fill="#BA68C8"/>
<path d="M109.456 106.484L116.265 102.555C116.475 102.434 116.655 102.52 116.655 102.75C116.645 102.879 116.604 103.004 116.536 103.115C116.468 103.226 116.375 103.318 116.265 103.386L109.456 107.315C109.245 107.44 109.066 107.35 109.066 107.124C109.076 106.994 109.117 106.869 109.184 106.758C109.252 106.646 109.345 106.553 109.456 106.484Z" fill="#455A64"/>
<path d="M121.193 94.7123L122.843 93.7563C123.183 93.5612 123.456 93.7212 123.456 94.1114V96.0155C123.445 96.2288 123.384 96.4365 123.277 96.6216C123.171 96.8067 123.022 96.964 122.843 97.0807L121.193 98.0327C120.853 98.2278 120.58 98.0679 120.58 97.6777V95.7736C120.591 95.5609 120.652 95.3538 120.759 95.1694C120.865 94.9849 121.014 94.8283 121.193 94.7123Z" fill="#BA68C8"/>
<path d="M118.613 101.193L125.422 97.264C125.633 97.143 125.812 97.2288 125.812 97.4591C125.802 97.5882 125.761 97.7131 125.693 97.8235C125.625 97.934 125.533 98.027 125.422 98.0951L118.613 102.024C118.403 102.145 118.223 102.059 118.223 101.829C118.234 101.7 118.275 101.575 118.343 101.465C118.411 101.354 118.503 101.261 118.613 101.193Z" fill="#455A64"/>
<path d="M130.35 89.429L132.001 88.4769C132.34 88.2818 132.613 88.4418 132.613 88.832V90.7361C132.602 90.9493 132.541 91.1569 132.434 91.342C132.328 91.5271 132.179 91.6844 132.001 91.8013L130.35 92.7612C130.011 92.9563 129.738 92.7963 129.738 92.4061V90.502C129.748 90.2874 129.808 90.0783 129.915 89.8918C130.021 89.7053 130.171 89.5466 130.35 89.429Z" fill="#BA68C8"/>
<path d="M127.771 95.9022L134.58 91.9808C134.791 91.8599 134.97 91.9457 134.97 92.1759C134.959 92.305 134.918 92.4297 134.85 92.5402C134.783 92.6506 134.69 92.7437 134.58 92.8119L127.771 96.7411C127.56 96.8621 127.381 96.7762 127.381 96.546C127.391 96.4156 127.431 96.2893 127.499 96.1774C127.567 96.0655 127.66 95.9712 127.771 95.9022Z" fill="#455A64"/>
<path d="M109.456 108.107L116.265 104.178C116.475 104.053 116.655 104.143 116.655 104.369C116.644 104.499 116.604 104.625 116.536 104.736C116.468 104.847 116.375 104.94 116.265 105.009L109.456 108.938C109.245 109.059 109.066 108.973 109.066 108.743C109.076 108.614 109.116 108.489 109.184 108.378C109.252 108.268 109.345 108.175 109.456 108.107Z" fill="#455A64"/>
<path d="M118.613 102.816L125.422 98.8873C125.633 98.7624 125.812 98.8521 125.812 99.0785C125.802 99.2078 125.762 99.3329 125.694 99.4434C125.626 99.554 125.533 99.6469 125.422 99.7145L118.613 103.648C118.403 103.769 118.223 103.683 118.223 103.452C118.233 103.323 118.274 103.198 118.342 103.087C118.41 102.977 118.503 102.884 118.613 102.816Z" fill="#455A64"/>
<path d="M127.771 97.5254L134.58 93.5963C134.791 93.4714 134.97 93.5611 134.97 93.7874C134.96 93.9168 134.919 94.0419 134.852 94.1524C134.784 94.263 134.691 94.3559 134.58 94.4234L127.771 98.3565C127.56 98.4775 127.381 98.3916 127.381 98.1614C127.391 98.0321 127.432 97.907 127.499 97.7964C127.567 97.6859 127.66 97.593 127.771 97.5254Z" fill="#455A64"/>
<path d="M109.456 109.73L116.265 105.797C116.475 105.676 116.655 105.762 116.655 105.993C116.645 106.122 116.604 106.247 116.536 106.357C116.468 106.468 116.375 106.561 116.265 106.629L109.456 110.562C109.245 110.683 109.066 110.597 109.066 110.367C109.076 110.237 109.116 110.112 109.184 110.002C109.252 109.891 109.345 109.798 109.456 109.73Z" fill="#455A64"/>
<path d="M118.613 104.44L125.422 100.507C125.633 100.386 125.812 100.471 125.812 100.702C125.802 100.831 125.762 100.956 125.694 101.067C125.626 101.177 125.533 101.27 125.422 101.338L118.613 105.267C118.403 105.392 118.223 105.306 118.223 105.076C118.233 104.946 118.274 104.821 118.342 104.711C118.41 104.6 118.503 104.507 118.613 104.44Z" fill="#455A64"/>
<path d="M127.771 99.1486L134.58 95.2155C134.791 95.0945 134.97 95.1804 134.97 95.4106C134.96 95.5399 134.919 95.665 134.852 95.7756C134.784 95.8862 134.691 95.979 134.58 96.0466L127.771 99.9758C127.56 100.101 127.381 100.011 127.381 99.7846C127.391 99.6553 127.432 99.5302 127.499 99.4196C127.567 99.309 127.66 99.2161 127.771 99.1486Z" fill="#455A64"/>
<path d="M94.0277 40.1561C98.0076 37.8579 101.234 39.723 101.234 44.3194C101.234 48.9159 98.0076 54.5072 94.0277 56.8054C90.0478 59.1036 86.817 57.2385 86.817 52.6421C86.817 48.0457 90.0439 42.4543 94.0277 40.1561Z" fill="#E0E0E0"/>
<path d="M94.0278 43.7772C95.3193 43.028 96.3689 43.6328 96.3689 45.1272C96.3248 45.9389 96.0898 46.7287 95.683 47.4325C95.2762 48.1362 94.7091 48.734 94.0278 49.1773C92.7362 49.9226 91.6866 49.3178 91.6866 47.8273C91.7307 47.0156 91.9657 46.2258 92.3725 45.522C92.7793 44.8183 93.3464 44.2205 94.0278 43.7772Z" fill="#FAFAFA"/>
<path d="M98.5851 51.7291C98.5851 49.2787 96.8644 48.2838 94.7418 49.5089L93.4151 50.2893C91.2925 51.5145 89.5757 54.4955 89.5757 56.9459V57.6053C90.8009 57.9955 92.346 57.7926 94.0277 56.825C95.8713 55.6892 97.4303 54.1462 98.5851 52.3144V51.7291Z" fill="#FAFAFA"/>
<path d="M89.7591 68.6438L99.7323 62.8847C100.154 62.6428 100.513 62.8144 100.513 63.2749C100.492 63.5333 100.41 63.7831 100.274 64.0041C100.139 64.2251 99.9532 64.4111 99.7323 64.5469L89.7591 70.306C89.3338 70.548 88.9788 70.3763 88.9788 69.9159C88.9995 69.6574 89.081 69.4074 89.2166 69.1864C89.3522 68.9653 89.5381 68.7794 89.7591 68.6438Z" fill="#E0E0E0"/>
<path d="M159.06 29.7017L155.397 27.6049H155.363C153.75 26.6994 151.537 26.8356 149.086 28.2448C144.151 31.0973 140.155 38.0277 140.155 43.7258C140.155 46.5647 141.148 48.5662 142.762 49.4989L146.071 51.3914L146.86 50.0299C147.762 49.8322 148.627 49.497 149.427 49.0359C154.356 46.1903 158.359 39.2599 158.359 33.5617C158.356 32.7932 158.262 32.0276 158.08 31.2811L159.06 29.7017Z" fill="#BA68C8"/>
<path d="M140.175 43.6782C140.175 46.5238 141.169 48.5253 142.782 49.458L146.091 51.3506L146.881 50.0299C147.782 49.8265 148.647 49.4892 149.447 49.0291C152.268 47.2538 154.558 44.7517 156.078 41.7856L143.143 34.297C141.326 37.0993 140.301 40.3407 140.175 43.6782Z" fill="#263238"/>
<path d="M159.067 29.7017L155.431 27.6049H155.397C153.784 26.6926 151.571 26.8288 149.12 28.2448C146.668 29.7547 144.617 31.8359 143.143 34.3106L156.078 41.7992C157.486 39.2994 158.27 36.4971 158.365 33.6298C158.363 32.8612 158.269 32.0957 158.086 31.3492L159.067 29.7017Z" fill="#455A64"/>
<path d="M152.558 30.2123C147.63 33.0579 143.627 39.9883 143.627 45.7205C143.627 51.4527 147.63 53.7265 152.558 50.874C157.487 48.0215 161.524 41.0639 161.524 35.3658C161.524 29.6676 157.494 27.3394 152.558 30.2123Z" fill="#37474F"/>
<path d="M153.212 34.9301C153.477 34.8379 153.761 34.8168 154.036 34.8688C154.26 34.9208 154.467 35.0312 154.635 35.1888C154.797 35.3468 154.921 35.5402 154.996 35.7538C155.082 35.9713 155.132 36.2011 155.145 36.4346C155.15 36.5483 155.124 36.6611 155.071 36.7614C155.029 36.8509 154.963 36.9265 154.88 36.9793L154.199 37.3673C154.09 37.4354 154.009 37.449 153.954 37.415C153.888 37.3723 153.835 37.3106 153.804 37.238C153.757 37.1501 153.693 37.0724 153.616 37.0093C153.539 36.9462 153.45 36.899 153.355 36.8703C153.203 36.8484 153.048 36.8576 152.899 36.8974C152.75 36.9372 152.611 37.0067 152.49 37.1018C152.317 37.199 152.157 37.318 152.014 37.4558C151.864 37.5937 151.732 37.7492 151.619 37.9187C151.506 38.0826 151.417 38.2613 151.353 38.4497C151.292 38.6294 151.259 38.818 151.258 39.008C151.244 39.1808 151.282 39.354 151.367 39.505C151.407 39.5576 151.458 39.6004 151.517 39.6299C151.576 39.6594 151.641 39.6749 151.707 39.6752C151.911 39.6842 152.115 39.6636 152.313 39.6139L153.212 39.4028C153.529 39.3189 153.857 39.2822 154.186 39.2939C154.433 39.2983 154.673 39.3845 154.866 39.539C155.05 39.7053 155.178 39.9239 155.234 40.1653C155.311 40.4978 155.348 40.8384 155.343 41.1797C155.338 41.5632 155.288 41.9448 155.193 42.3166C155.094 42.7119 154.952 43.0954 154.771 43.4603C154.583 43.8359 154.355 44.1898 154.09 44.5155C153.828 44.8437 153.529 45.1407 153.198 45.4005V46.4013C153.196 46.5128 153.168 46.6224 153.117 46.7213C153.082 46.8125 153.02 46.8909 152.94 46.9459L152.157 47.3952C152.132 47.4182 152.099 47.4309 152.065 47.4309C152.031 47.4309 151.998 47.4182 151.973 47.3952C151.946 47.3636 151.925 47.3268 151.912 47.2871C151.899 47.2473 151.894 47.2054 151.898 47.1638V46.1562C151.638 46.2474 151.363 46.289 151.088 46.2787C150.846 46.2681 150.611 46.1928 150.407 46.0609C150.209 45.918 150.052 45.7255 149.951 45.5027C149.827 45.2121 149.762 44.8996 149.76 44.5836C149.754 44.4698 149.78 44.3565 149.835 44.2568C149.874 44.1661 149.938 44.0883 150.019 44.0322L150.7 43.6441C150.809 43.5828 150.891 43.5624 150.952 43.5897C151.019 43.6326 151.07 43.6976 151.095 43.7735C151.143 43.8746 151.197 43.9724 151.258 44.0662C151.323 44.1549 151.413 44.2215 151.517 44.2568C151.651 44.2882 151.791 44.2882 151.925 44.2568C152.143 44.2064 152.35 44.1189 152.538 43.9981C152.734 43.8844 152.921 43.7546 153.096 43.6101C153.27 43.4639 153.427 43.2996 153.566 43.1199C153.699 42.942 153.809 42.7475 153.893 42.5413C153.976 42.3382 154.017 42.1207 154.015 41.9013C154.025 41.82 154.018 41.7376 153.994 41.6592C153.971 41.5807 153.932 41.5079 153.879 41.4452C153.822 41.3999 153.757 41.3663 153.687 41.3464C153.616 41.3266 153.543 41.3208 153.471 41.3295C153.241 41.3421 153.012 41.3786 152.79 41.4384C152.518 41.5065 152.211 41.5677 151.857 41.6358C151.581 41.701 151.296 41.7217 151.013 41.6971C150.793 41.6822 150.584 41.5934 150.421 41.4452C150.25 41.2685 150.128 41.0503 150.067 40.8121C149.982 40.4577 149.943 40.0939 149.951 39.7296C149.951 39.3412 150.001 38.9544 150.101 38.5791C150.196 38.1971 150.328 37.8254 150.496 37.4694C150.662 37.1143 150.868 36.7787 151.108 36.4687C151.339 36.1665 151.599 35.8882 151.884 35.6381V34.6374C151.887 34.5267 151.913 34.4178 151.959 34.3174C151.998 34.2267 152.062 34.1488 152.143 34.0927L152.926 33.6434C152.95 33.6209 152.982 33.6084 153.015 33.6084C153.047 33.6084 153.079 33.6209 153.103 33.6434C153.133 33.6738 153.155 33.7102 153.169 33.7502C153.183 33.7901 153.189 33.8327 153.185 33.8749L153.212 34.9301Z" fill="#FAFAFA"/>
<path d="M159.06 96.3163L155.397 94.2195H155.363C153.75 93.3072 151.537 93.4434 149.086 94.8594C144.151 97.7051 140.155 104.635 140.155 110.334C140.155 113.179 141.148 115.174 142.762 116.113L146.071 117.999L146.86 116.679C147.761 116.478 148.626 116.143 149.427 115.685C154.356 112.832 158.359 105.902 158.359 100.204C158.356 99.435 158.262 98.6695 158.08 97.9229L159.06 96.3163Z" fill="#BA68C8"/>
<path d="M140.175 110.32C140.175 113.166 141.169 115.16 142.782 116.1L146.091 117.986L146.881 116.665C147.782 116.462 148.647 116.124 149.447 115.664C152.27 113.886 154.561 111.379 156.078 108.407L143.143 100.918C141.325 103.727 140.299 106.976 140.175 110.32Z" fill="#263238"/>
<path d="M159.067 96.3163L155.431 94.2195H155.397C153.784 93.3072 151.571 93.4434 149.121 94.8594C146.671 96.3749 144.625 98.4607 143.157 100.939L156.092 108.427C157.512 105.905 158.299 103.076 158.386 100.183C158.383 99.4146 158.289 98.6491 158.107 97.9025L159.067 96.3163Z" fill="#455A64"/>
<path d="M152.558 96.8269C147.63 99.6726 143.627 106.603 143.627 112.301C143.627 117.999 147.63 120.307 152.558 117.461C157.487 114.616 161.524 107.672 161.524 101.987C161.524 96.3027 157.494 93.9812 152.558 96.8269Z" fill="#37474F"/>
<path d="M157.106 109.176L148.018 114.425C147.909 114.486 147.827 114.425 147.827 114.241V106.181C147.825 106.103 147.841 106.025 147.874 105.954C147.907 105.883 147.956 105.821 148.018 105.772L157.106 100.524C157.208 100.462 157.297 100.524 157.297 100.707V108.775C157.298 108.852 157.281 108.928 157.248 108.998C157.215 109.067 157.166 109.128 157.106 109.176Z" fill="#FAFAFA"/>
<path d="M154.349 102.648C154.247 102.709 154.158 102.648 154.158 102.464V101.238L150.965 103.083V104.309C150.967 104.388 150.95 104.465 150.915 104.536C150.881 104.607 150.83 104.669 150.768 104.717C150.666 104.778 150.577 104.717 150.577 104.533V103.008C150.576 102.931 150.593 102.855 150.626 102.785C150.659 102.716 150.708 102.655 150.768 102.607L154.349 100.564C154.458 100.503 154.539 100.564 154.539 100.748V102.226C154.545 102.306 154.53 102.387 154.497 102.461C154.464 102.534 154.413 102.598 154.349 102.648Z" fill="#FAFAFA"/>
<path d="M154.349 101.129L150.768 103.172C150.666 103.233 150.577 103.172 150.577 102.988V102.307C150.577 102.229 150.594 102.152 150.627 102.081C150.66 102.011 150.708 101.948 150.768 101.899L154.349 99.8564C154.458 99.7951 154.54 99.8564 154.54 100.04V100.721C154.542 100.799 154.526 100.877 154.492 100.948C154.459 101.019 154.41 101.081 154.349 101.129Z" fill="#FAFAFA"/>
<path d="M153.859 106.16L151.258 107.658C151.183 107.706 151.122 107.658 151.122 107.522V107.032C151.121 106.976 151.133 106.92 151.156 106.87C151.18 106.819 151.215 106.774 151.258 106.739L153.859 105.241C153.94 105.194 154.002 105.241 154.002 105.371V105.861C154.003 105.919 153.991 105.976 153.966 106.028C153.941 106.08 153.904 106.125 153.859 106.16Z" fill="#37474F"/>
<path d="M159.06 63.0124L155.397 60.9088H155.363C153.75 59.9965 151.537 60.1327 149.086 61.5487C144.151 64.4012 140.155 71.3247 140.155 77.0229C140.155 79.8686 141.148 81.8701 142.762 82.8028L146.071 84.6885L146.86 83.3678C147.762 83.1701 148.627 82.8349 149.427 82.3739C154.356 79.5214 158.359 72.5978 158.359 66.8997C158.356 66.1288 158.262 65.3611 158.08 64.6122L159.06 63.0124Z" fill="#BA68C8"/>
<path d="M140.175 77.0365C140.175 79.8822 141.169 81.8837 142.782 82.8164L146.091 84.7021L146.881 83.3814C147.782 83.1838 148.648 82.8485 149.447 82.3875C152.274 80.5991 154.565 78.0799 156.078 75.0963L143.143 67.6077C141.32 70.4246 140.294 73.6831 140.175 77.0365Z" fill="#263238"/>
<path d="M159.067 63.0124L155.431 60.9088H155.397C153.784 60.0034 151.571 60.1327 149.121 61.5487C146.671 63.0642 144.625 65.15 143.157 67.6281L156.092 75.1167C157.503 72.6061 158.288 69.792 158.379 66.9133C158.377 66.1425 158.283 65.3747 158.1 64.6259L159.067 63.0124Z" fill="#455A64"/>
<path d="M152.558 63.5162C147.63 66.3687 143.627 73.2922 143.627 78.9904C143.627 84.6885 147.63 87.0032 152.558 84.1507C157.487 81.2982 161.524 74.3747 161.524 68.6765C161.524 62.9784 157.494 60.6978 152.558 63.5162Z" fill="#37474F"/>
<path d="M149.27 72.5842C149.27 71.2907 149.951 69.8611 150.795 69.3573C151.639 68.8535 152.32 69.5275 152.32 70.8278C152.32 72.1281 151.639 73.5509 150.795 74.0547C149.951 74.5585 149.27 73.8845 149.27 72.5842Z" fill="white"/>
<path d="M153.518 79.1197L147.909 82.3603L148.208 78.6296C148.338 77.0433 149.175 75.4163 150.169 74.8444L151.251 74.2181C152.245 73.6462 153.083 74.2998 153.212 75.743L153.518 79.1197Z" fill="white"/>
<path d="M152.974 68.6969C152.974 67.4034 153.655 65.9738 154.499 65.47C155.343 64.9662 156.024 65.6402 156.024 66.9405C156.024 68.2408 155.343 69.6636 154.499 70.1674C153.655 70.6712 152.974 69.9972 152.974 68.6969Z" fill="white"/>
<path d="M157.208 75.2325L153.77 77.2204L153.614 75.4367C153.498 74.1841 152.933 73.3944 152.184 73.3944C152.448 72.4183 153.042 71.5641 153.865 70.9776L154.948 70.3581C155.942 69.7794 156.779 70.433 156.909 71.8762L157.208 75.2325Z" fill="white"/>
</svg>
