<svg width="175" height="157" viewBox="0 0 175 157" fill="none" xmlns="http://www.w3.org/2000/svg">
<path opacity="0.7" d="M25.5311 143.028C59.5706 161.487 114.76 161.491 148.799 143.028C182.839 124.564 182.839 94.6255 148.799 76.1617C114.76 57.6979 59.5706 57.6979 25.5311 76.1617C-8.50832 94.6255 -8.51245 124.564 25.5311 143.028Z" fill="#F9F9F9"/>
<path d="M46.4582 101.607C59.4537 101.607 69.9887 96.5859 69.9887 90.3923C69.9887 84.1987 59.4537 79.1779 46.4582 79.1779C33.4626 79.1779 22.9276 84.1987 22.9276 90.3923C22.9276 96.5859 33.4626 101.607 46.4582 101.607Z" fill="#E0E0E0"/>
<path d="M16.8873 89.6619L19.5321 88.1518C19.5321 88.1518 20.8029 81.1624 19.8539 75.1549C18.5171 66.7049 12.7654 63.792 10.6777 64.6295C8.58993 65.4671 8.09893 67.9716 11.8701 72.8526C14.1146 75.7243 16.9616 81.8226 16.8873 89.6619Z" fill="#BA68C8"/>
<g opacity="0.1">
<path opacity="0.1" d="M16.8873 89.6619L19.5321 88.1518C19.5321 88.1518 20.8029 81.1624 19.8539 75.1549C18.5171 66.7049 12.7654 63.792 10.6777 64.6295C8.58993 65.4671 8.09893 67.9716 11.8701 72.8526C14.1146 75.7243 16.9616 81.8226 16.8873 89.6619Z" fill="black"/>
</g>
<path d="M17.8486 86.3075H17.828C17.7787 86.2994 17.7344 86.2725 17.7045 86.2325C17.6745 86.1926 17.6611 86.1426 17.6671 86.093C18.7522 78.1999 15.5711 69.5354 11.9979 66.0283C11.964 65.9928 11.9451 65.9455 11.9453 65.8964C11.9455 65.8473 11.9647 65.8002 11.9989 65.7649C12.033 65.7297 12.0795 65.7091 12.1286 65.7074C12.1777 65.7057 12.2255 65.7231 12.262 65.7559C15.9011 69.3125 19.1442 78.1339 18.0384 86.1466C18.0315 86.1918 18.0084 86.2329 17.9736 86.2625C17.9387 86.2921 17.8943 86.3081 17.8486 86.3075Z" fill="white"/>
<path d="M9.55131 93.9035C9.13871 94.1428 8.27225 93.6188 7.94217 93.396C7.37663 93.0102 6.91925 92.486 6.6136 91.8735C6.27476 91.1772 6.15947 90.3932 6.28352 89.6289C6.34958 89.2251 6.44473 88.8266 6.56822 88.4365L6.90242 87.2771C7.03588 86.903 7.09339 86.5061 7.07159 86.1095C6.96844 85.3173 6.24639 84.7602 5.62749 84.2816C4.91782 83.7535 4.18339 83.0438 4.18752 82.099C4.2351 81.3606 4.52518 80.6586 5.01272 80.102C5.46658 79.5244 6.00708 79.0169 6.41968 78.4062C6.74303 77.981 6.91316 77.459 6.90242 76.925C6.85644 76.597 6.74563 76.2814 6.57647 75.9966C6.18989 75.4061 5.85182 74.7851 5.5656 74.1399C5.33042 73.4715 5.36343 72.6422 5.88743 72.1636C6.12078 71.9876 6.38715 71.8604 6.67069 71.7895C6.95422 71.7186 7.24912 71.7055 7.53783 71.751C8.07994 71.8154 8.60119 71.9985 9.06444 72.2874C10.5787 73.1126 11.4451 74.9198 13.0502 75.5882C13.6894 75.7846 14.3397 75.943 14.9976 76.0627C15.3243 76.1233 15.6348 76.2514 15.909 76.439C16.1833 76.6266 16.4153 76.8694 16.5903 77.1519C17.1803 78.3319 16.0869 79.7802 16.5036 81.0345C16.8708 82.1402 17.9436 82.5611 18.5666 83.5596C18.8114 84.0003 18.9096 84.5075 18.8472 85.0078C18.7971 85.8551 18.5915 86.6859 18.2407 87.4587C17.8467 88.2249 17.3971 88.9613 16.8956 89.6619C16.8626 89.6867 9.6132 93.8787 9.55131 93.9035Z" fill="#BA68C8"/>
<path d="M13.8423 91.6136C13.8175 91.6131 13.7932 91.6076 13.7706 91.5975C13.748 91.5874 13.7276 91.5729 13.7107 91.5549C13.6938 91.5368 13.6806 91.5155 13.6721 91.4923C13.6635 91.4691 13.6596 91.4444 13.6607 91.4197C13.9702 83.931 10.4425 75.6666 7.88435 73.2653C7.86647 73.2485 7.85207 73.2283 7.84198 73.206C7.83189 73.1836 7.8263 73.1595 7.82553 73.135C7.82476 73.1105 7.82884 73.086 7.83751 73.0631C7.84619 73.0401 7.8593 73.0191 7.8761 73.0012C7.89289 72.9833 7.91305 72.9689 7.93541 72.9589C7.95777 72.9488 7.9819 72.9432 8.00642 72.9424C8.03094 72.9416 8.05537 72.9457 8.07832 72.9544C8.10126 72.9631 8.12228 72.9762 8.14016 72.993C10.756 75.4397 14.358 83.8443 14.0403 91.4321C14.0398 91.4572 14.0342 91.4819 14.0239 91.5048C14.0136 91.5277 13.9987 91.5482 13.9802 91.5652C13.9616 91.5822 13.9399 91.5952 13.9162 91.6035C13.8925 91.6119 13.8673 91.6153 13.8423 91.6136Z" fill="white"/>
<path d="M12.7241 82.7716H12.6664C10.8923 82.2825 9.07026 81.9878 7.23244 81.8927C7.18744 81.886 7.14633 81.8634 7.11662 81.829C7.0869 81.7945 7.07056 81.7505 7.07056 81.705C7.07056 81.6595 7.0869 81.6155 7.11662 81.581C7.14633 81.5466 7.18744 81.524 7.23244 81.5173C9.10224 81.6131 10.9561 81.912 12.7613 82.4085C12.8047 82.4217 12.8419 82.45 12.8662 82.4883C12.8905 82.5266 12.9003 82.5723 12.8938 82.6172C12.8873 82.662 12.865 82.7031 12.8308 82.733C12.7967 82.7628 12.753 82.7794 12.7076 82.7798L12.7241 82.7716Z" fill="white"/>
<path d="M146.052 127.757C147.475 124.663 152.653 119.282 157.708 116.741C162.762 114.199 169.153 113.58 172.177 116.452C174.991 119.126 172.619 123.338 167.226 124.382C161.834 125.426 154.081 126.276 149.996 130.476L143.432 134.916L146.052 127.757Z" fill="#BA68C8"/>
<path opacity="0.1" d="M146.052 127.757C147.475 124.663 152.653 119.282 157.708 116.741C162.762 114.199 169.153 113.58 172.177 116.452C174.991 119.126 172.619 123.338 167.226 124.382C161.834 125.426 154.081 126.276 149.996 130.476L143.432 134.916L146.052 127.757Z" fill="black"/>
<path d="M143.881 131.883C143.932 131.902 143.988 131.904 144.04 131.888C144.092 131.872 144.138 131.84 144.17 131.797C151.09 122.187 163.562 117.529 169.553 117.979C169.619 117.983 169.685 117.961 169.735 117.918C169.785 117.875 169.816 117.814 169.822 117.748C169.824 117.715 169.82 117.682 169.809 117.652C169.799 117.621 169.782 117.592 169.761 117.568C169.739 117.543 169.713 117.523 169.684 117.509C169.655 117.494 169.623 117.486 169.59 117.484C163.492 117.021 150.788 121.75 143.766 131.512C143.747 131.538 143.733 131.568 143.726 131.6C143.718 131.632 143.717 131.665 143.723 131.697C143.728 131.729 143.74 131.76 143.757 131.788C143.774 131.816 143.797 131.84 143.824 131.858C143.841 131.87 143.861 131.879 143.881 131.883Z" fill="white"/>
<path d="M142.355 139.364C143.65 137.854 147.092 135.96 151.614 135.168C156.618 134.289 161.978 135.291 164.025 133.761C166.48 131.92 165.477 128.657 161.355 127.349C157.233 126.041 147.921 128.215 143.143 135.729L142.355 139.364Z" fill="#BA68C8"/>
<path d="M142.433 137.202C142.478 137.218 142.528 137.221 142.574 137.21C142.621 137.199 142.664 137.175 142.697 137.14C150.087 129.581 158.446 129.577 161.834 130.629C161.865 130.638 161.898 130.642 161.93 130.639C161.962 130.635 161.994 130.626 162.023 130.611C162.051 130.595 162.077 130.574 162.097 130.549C162.118 130.524 162.134 130.495 162.143 130.464C162.153 130.433 162.157 130.4 162.155 130.368C162.152 130.336 162.143 130.304 162.128 130.275C162.113 130.246 162.092 130.221 162.067 130.2C162.042 130.179 162.013 130.164 161.982 130.154C158.236 128.991 149.885 129.078 142.338 136.793C142.315 136.816 142.297 136.843 142.284 136.874C142.272 136.904 142.266 136.936 142.266 136.968C142.266 137.001 142.272 137.033 142.284 137.063C142.297 137.094 142.315 137.121 142.338 137.144C142.365 137.17 142.398 137.19 142.433 137.202Z" fill="white"/>
<path d="M67.4388 100.575L72.2828 103.369L70.6695 104.301H77.1226V100.575L75.5093 101.508L70.6695 98.7103L67.4388 100.575Z" fill="#BA68C8"/>
<path d="M79.9406 106.327C79.8709 106.327 79.8025 106.309 79.7425 106.273L78.5377 105.576C78.4502 105.52 78.3867 105.434 78.3599 105.334C78.3332 105.234 78.3451 105.127 78.3933 105.035C78.4482 104.946 78.5351 104.881 78.6363 104.853C78.7374 104.826 78.8453 104.838 78.938 104.887L80.1427 105.584C80.2098 105.634 80.2604 105.702 80.2878 105.781C80.3152 105.859 80.3181 105.944 80.2962 106.025C80.2744 106.105 80.2287 106.177 80.1652 106.231C80.1017 106.285 80.0234 106.318 79.9406 106.327Z" fill="#BA68C8"/>
<path d="M130.703 135.634C130.633 135.634 130.565 135.615 130.505 135.58L128.182 134.239C128.115 134.174 128.072 134.089 128.06 133.997C128.048 133.905 128.068 133.811 128.115 133.731C128.163 133.652 128.236 133.59 128.323 133.557C128.41 133.525 128.506 133.522 128.594 133.55L130.913 134.891C130.98 134.94 131.031 135.008 131.058 135.087C131.086 135.165 131.089 135.25 131.068 135.33C131.046 135.41 131.001 135.482 130.938 135.536C130.875 135.591 130.798 135.625 130.715 135.634H130.703ZM125.063 132.374C124.993 132.375 124.925 132.358 124.865 132.325L122.542 130.984C122.482 130.965 122.428 130.933 122.383 130.89C122.338 130.847 122.303 130.795 122.281 130.737C122.259 130.678 122.25 130.616 122.256 130.554C122.261 130.492 122.281 130.432 122.313 130.379C122.345 130.325 122.388 130.28 122.44 130.246C122.492 130.211 122.551 130.19 122.613 130.181C122.675 130.173 122.738 130.179 122.797 130.199C122.856 130.219 122.91 130.251 122.954 130.295L125.277 131.636C125.343 131.685 125.392 131.754 125.418 131.832C125.445 131.91 125.447 131.994 125.426 132.073C125.404 132.153 125.359 132.224 125.296 132.277C125.234 132.331 125.157 132.365 125.075 132.374H125.063ZM119.422 129.119C119.353 129.119 119.284 129.101 119.224 129.065L116.901 127.712C116.814 127.656 116.75 127.57 116.724 127.47C116.697 127.37 116.709 127.263 116.757 127.171C116.812 127.083 116.9 127.019 117.001 126.992C117.102 126.965 117.209 126.978 117.302 127.027L119.624 128.368C119.69 128.418 119.739 128.486 119.766 128.564C119.792 128.642 119.795 128.726 119.773 128.806C119.751 128.885 119.706 128.956 119.644 129.01C119.581 129.063 119.504 129.097 119.422 129.106V129.119ZM113.782 125.863C113.712 125.864 113.644 125.845 113.584 125.81L111.261 124.469C111.174 124.413 111.11 124.327 111.083 124.227C111.057 124.127 111.068 124.02 111.117 123.928C111.172 123.839 111.258 123.774 111.36 123.746C111.461 123.719 111.569 123.731 111.661 123.78L113.98 125.121C114.047 125.17 114.098 125.238 114.125 125.316C114.153 125.395 114.156 125.479 114.135 125.56C114.113 125.64 114.068 125.712 114.005 125.766C113.942 125.82 113.865 125.854 113.782 125.863ZM108.142 122.608C108.072 122.608 108.004 122.59 107.944 122.554L105.621 121.213C105.554 121.149 105.511 121.063 105.499 120.971C105.487 120.879 105.507 120.785 105.554 120.706C105.602 120.626 105.676 120.565 105.762 120.532C105.849 120.499 105.945 120.496 106.033 120.524L108.356 121.865C108.445 121.921 108.509 122.008 108.536 122.109C108.563 122.21 108.55 122.318 108.501 122.41C108.463 122.471 108.411 122.522 108.348 122.557C108.285 122.591 108.214 122.609 108.142 122.608ZM102.502 119.353C102.432 119.352 102.364 119.333 102.304 119.299L99.9806 117.958C99.9213 117.939 99.867 117.907 99.8218 117.864C99.7767 117.822 99.7417 117.769 99.7197 117.711C99.6977 117.653 99.6891 117.59 99.6946 117.528C99.7002 117.466 99.7196 117.406 99.7516 117.353C99.7836 117.299 99.8272 117.254 99.8793 117.22C99.9313 117.186 99.9904 117.164 100.052 117.156C100.114 117.148 100.177 117.154 100.236 117.173C100.295 117.193 100.349 117.226 100.393 117.269L102.716 118.61C102.804 118.665 102.867 118.752 102.894 118.852C102.921 118.952 102.909 119.059 102.861 119.15C102.824 119.213 102.771 119.264 102.708 119.3C102.645 119.335 102.574 119.353 102.502 119.353ZM96.8614 116.093C96.7922 116.093 96.7242 116.076 96.6633 116.044L94.3404 114.703C94.2737 114.638 94.2309 114.552 94.2189 114.46C94.2068 114.368 94.2263 114.275 94.274 114.195C94.3218 114.115 94.395 114.054 94.482 114.021C94.5689 113.988 94.6644 113.985 94.753 114.014L97.0759 115.355C97.1415 115.404 97.1907 115.473 97.2172 115.551C97.2437 115.629 97.2462 115.713 97.2245 115.792C97.2027 115.872 97.1577 115.943 97.0952 115.996C97.0327 116.05 96.9556 116.084 96.8737 116.093H96.8614ZM91.2211 112.858C91.1515 112.859 91.0831 112.84 91.0231 112.805L88.7002 111.464C88.6126 111.408 88.5491 111.322 88.5223 111.222C88.4956 111.122 88.5075 111.015 88.5557 110.923C88.6107 110.834 88.6975 110.769 88.7987 110.741C88.8998 110.714 89.0077 110.726 89.1004 110.775L91.4233 112.116C91.4904 112.165 91.5409 112.234 91.5683 112.312C91.5957 112.391 91.5987 112.476 91.5768 112.556C91.5549 112.637 91.5093 112.708 91.4458 112.762C91.3823 112.816 91.304 112.85 91.2211 112.858ZM85.5809 109.603C85.5113 109.603 85.4429 109.585 85.3828 109.549L83.0599 108.208C82.9933 108.144 82.9505 108.058 82.9384 107.966C82.9264 107.874 82.9458 107.78 82.9935 107.701C83.0413 107.621 83.1146 107.559 83.2015 107.527C83.2884 107.494 83.3839 107.491 83.4725 107.519L85.7954 108.86C85.8841 108.916 85.9483 109.003 85.9751 109.104C86.0019 109.205 85.9893 109.313 85.9399 109.405C85.9 109.462 85.8461 109.509 85.7833 109.54C85.7205 109.571 85.6509 109.586 85.5809 109.582V109.603Z" fill="#BA68C8"/>
<path d="M135.225 138.241C135.156 138.242 135.088 138.225 135.027 138.192L133.822 137.495C133.734 137.439 133.671 137.353 133.644 137.253C133.617 137.152 133.629 137.046 133.678 136.954C133.733 136.865 133.819 136.8 133.921 136.772C134.022 136.745 134.13 136.756 134.222 136.806L135.423 137.503C135.488 137.552 135.538 137.62 135.564 137.698C135.591 137.776 135.594 137.86 135.573 137.939C135.551 138.018 135.507 138.089 135.445 138.143C135.383 138.197 135.306 138.231 135.225 138.241Z" fill="#BA68C8"/>
<path d="M161.536 34.1839L161.165 33.9693L149.637 27.3677C146.97 25.6031 143.832 24.6842 140.634 24.7312C136.603 24.7312 132.535 26.1918 127.744 28.8572C111.005 38.1324 96.7046 64.8771 96.7046 82.4374V87.2772C96.7046 108.559 124.695 134.536 124.695 134.536L136.302 141.241C136.307 141.249 136.315 141.255 136.323 141.259C136.332 141.262 136.342 141.263 136.351 141.262C135.963 140.804 148.684 122.245 160.695 86.0435C173.956 45.9553 161.784 34.4149 161.536 34.1839ZM141.946 97.815C132.456 103.29 124.522 100.423 122.273 91.5888C117.929 90.9906 114.789 87.6485 113.819 82.1609C112.602 64.4192 122.018 50.3124 135.501 44.5855C141.278 42.4854 146.097 43.9831 148.68 48.3236C156.602 46.9621 162.271 52.3919 162.271 62.6161C162.271 75.5717 153.161 91.3413 141.946 97.815Z" fill="#455A64"/>
<path d="M162.271 62.6161C162.271 75.5717 153.173 91.3412 141.946 97.8149C132.456 103.29 124.522 100.423 122.273 91.5888C125.124 92.0014 128.491 91.2381 132.11 89.1462C142.392 83.2172 150.718 68.7844 150.718 56.9263C150.718 53.4027 149.984 50.5021 148.68 48.3236C156.602 46.962 162.271 52.3918 162.271 62.6161Z" fill="#263238"/>
<path d="M149.389 59.1139L124.375 73.5567C124.023 73.7603 123.737 74.2553 123.737 74.6624L123.737 86.709C123.737 87.116 124.022 87.281 124.375 87.0775L149.389 72.6346C149.741 72.431 150.027 71.936 150.027 71.529L150.027 59.4824C150.028 59.0753 149.742 58.9103 149.389 59.1139Z" fill="#9A5AA5"/>
<path d="M149.811 53.6492L155 58.0001L155.33 61.7647L149.811 61.7647L149.811 53.6492Z" fill="#9A5AA5"/>
<path d="M141.281 55.6331L146.8 60.0001L146.8 63.7486L141.281 63.7486L141.281 55.6331Z" fill="#9A5AA5"/>
<path d="M124 83.0001L128.5 83.0001L129 91.0001L124 87.0001V83.0001Z" fill="#9A5AA5"/>
<rect x="141.215" y="56.2462" width="3.61054" height="11.2758" rx="1.80527" transform="rotate(60 141.215 56.2462)" fill="#9A5AA5"/>
<path d="M140.293 62.2138L133.469 66.1544C132.951 66.4523 132.455 66.5009 132.089 66.2897C131.723 66.0784 131.517 65.6245 131.517 65.0274L131.517 63.0038C131.517 62.4058 131.723 61.7141 132.089 61.0803C132.455 60.4465 132.951 59.9223 133.469 59.6227L140.294 55.6821C140.811 55.3832 141.308 55.334 141.674 55.5453C142.04 55.7566 142.245 56.2112 142.245 56.809L142.245 58.8228C142.247 59.119 142.197 59.4418 142.099 59.7728C142.002 60.1037 141.858 60.4363 141.677 60.7514C141.495 61.0665 141.28 61.3578 141.042 61.6088C140.805 61.8597 140.55 62.0653 140.293 62.2138ZM133.469 61.2778C133.331 61.3588 133.2 61.4982 133.103 61.6663C133.005 61.8344 132.949 62.0179 132.947 62.1778L132.947 64.1916C132.947 64.353 133.003 64.4758 133.101 64.5329C133.2 64.59 133.334 64.5767 133.474 64.4959L140.299 60.5553C140.439 60.4746 140.573 60.333 140.672 60.1618C140.771 59.9906 140.826 59.8036 140.826 59.6422L140.826 57.6284C140.826 57.467 140.771 57.3442 140.672 57.2871C140.573 57.23 140.439 57.2433 140.299 57.324L133.469 61.2778Z" fill="#9A5AA5"/>
<path d="M150.045 62.5068L136.996 73.0023C136.915 73.0656 136.832 73.1135 136.751 73.1438L123.703 77.7164C123.559 77.7665 123.43 77.7521 123.337 77.6756C123.244 77.5991 123.193 77.4653 123.193 77.2969L123.193 70.0248C123.193 69.9293 123.209 69.8253 123.241 69.7188C123.272 69.6123 123.319 69.5054 123.377 69.4041C123.436 69.3028 123.505 69.2092 123.582 69.1285C123.658 69.0478 123.74 68.9817 123.823 68.934L149.931 53.8593C150.014 53.8115 150.095 53.7831 150.172 53.7755C150.248 53.7679 150.318 53.7814 150.376 53.8152C150.435 53.8489 150.481 53.9023 150.513 53.9723C150.544 54.0422 150.561 54.1274 150.561 54.2229L150.56 61.5081C150.557 61.6773 150.505 61.8691 150.411 62.0511C150.317 62.2331 150.187 62.394 150.045 62.5068Z" fill="#9A5AA5"/>
<path d="M138.233 70.3168L135.534 71.8749C135.201 72.0676 134.93 72.5361 134.93 72.9213L134.93 74.8924C134.93 75.2776 135.201 75.4338 135.534 75.2411L138.233 73.683C138.566 73.4904 138.837 73.0219 138.837 72.6366L138.837 70.6656C138.837 70.2803 138.567 70.1242 138.233 70.3168Z" fill="#9A5AA5"/>
<path opacity="0.4" d="M138.233 70.3168L135.534 71.8749C135.201 72.0676 134.93 72.5361 134.93 72.9213L134.93 74.8924C134.93 75.2776 135.201 75.4338 135.534 75.2411L138.233 73.683C138.566 73.4904 138.837 73.0219 138.837 72.6366L138.837 70.6656C138.837 70.2803 138.567 70.1242 138.233 70.3168Z" fill="black"/>
<path d="M154.105 63.4811L129.091 77.924C128.739 78.1275 128.453 78.6225 128.453 79.0296L128.452 91.0762C128.452 91.4833 128.738 91.6483 129.091 91.4447L154.105 77.0018C154.457 76.7983 154.743 76.3033 154.743 75.8962L154.743 63.8496C154.743 63.4426 154.458 63.2776 154.105 63.4811Z" fill="#BA68C8"/>
<path d="M145.009 66.5811L138.184 70.5217C137.667 70.8196 137.171 70.8683 136.805 70.6571C136.439 70.4458 136.233 69.9919 136.232 69.3948L136.232 67.3711C136.233 66.7732 136.439 66.0815 136.805 65.4477C137.171 64.8139 137.667 64.2897 138.185 63.9901L145.009 60.0495C145.527 59.7505 146.024 59.7013 146.39 59.9127C146.756 60.124 146.961 60.5786 146.961 61.1764L146.961 63.1902C146.962 63.4864 146.913 63.8092 146.815 64.1402C146.717 64.4711 146.574 64.8037 146.392 65.1188C146.211 65.4338 145.996 65.7252 145.758 65.9762C145.521 66.2271 145.266 66.4327 145.009 66.5811ZM138.184 65.6452C138.047 65.7262 137.916 65.8656 137.818 66.0337C137.721 66.2018 137.665 66.3853 137.663 66.5452L137.663 68.559C137.663 68.7204 137.718 68.8432 137.817 68.9003C137.916 68.9573 138.05 68.944 138.19 68.8633L145.015 64.9227C145.155 64.842 145.289 64.7004 145.388 64.5292C145.487 64.3579 145.542 64.171 145.542 64.0096L145.542 61.9958C145.542 61.8343 145.487 61.7116 145.388 61.6545C145.289 61.5974 145.155 61.6107 145.015 61.6914L138.184 65.6452Z" fill="#BA68C8"/>
<path opacity="0.2" d="M154.102 63.4828L129.094 77.9223C129.01 77.9704 128.927 78.0373 128.849 78.1191C128.771 78.2008 128.7 78.2959 128.641 78.3987C128.581 78.5016 128.534 78.6103 128.502 78.7186C128.469 78.8269 128.453 78.9326 128.453 79.0296L128.453 82.896L141.475 78.3382C141.555 78.3122 141.638 78.2645 141.717 78.1983L154.743 67.716L154.743 63.8496C154.743 63.7526 154.727 63.666 154.694 63.595C154.662 63.524 154.615 63.4699 154.555 63.4358C154.496 63.4017 154.425 63.3883 154.347 63.3964C154.27 63.4044 154.186 63.4338 154.102 63.4828Z" fill="black"/>
<path d="M154.76 66.874L141.712 77.3695C141.631 77.4328 141.548 77.4807 141.467 77.511L128.418 82.0836C128.275 82.1337 128.146 82.1193 128.053 82.0428C127.96 81.9664 127.909 81.8325 127.908 81.6641L127.909 74.3921C127.909 74.2966 127.925 74.1926 127.957 74.0861C127.988 73.9796 128.035 73.8726 128.093 73.7713C128.152 73.6701 128.221 73.5764 128.297 73.4957C128.374 73.4151 128.456 73.349 128.538 73.3012L154.647 58.2265C154.729 58.1788 154.811 58.1503 154.888 58.1428C154.964 58.1352 155.033 58.1487 155.092 58.1824C155.15 58.2162 155.197 58.2696 155.228 58.3395C155.26 58.4095 155.276 58.4946 155.276 58.5901L155.276 65.8753C155.273 66.0445 155.22 66.2364 155.126 66.4183C155.032 66.6003 154.903 66.7613 154.76 66.874Z" fill="#BA68C8"/>
<path d="M142.949 74.684L140.25 76.2422C139.916 76.4348 139.646 76.9033 139.646 77.2886L139.646 79.2596C139.646 79.6449 139.916 79.801 140.25 79.6084L142.949 78.0502C143.282 77.8576 143.553 77.3891 143.553 77.0038L143.553 75.0328C143.553 74.6476 143.282 74.4914 142.949 74.684Z" fill="#BA68C8"/>
<path opacity="0.4" d="M142.949 74.684L140.25 76.2422C139.916 76.4348 139.646 76.9033 139.646 77.2886L139.646 79.2596C139.646 79.6449 139.916 79.801 140.25 79.6084L142.949 78.0502C143.282 77.8576 143.553 77.3891 143.553 77.0038L143.553 75.0328C143.553 74.6476 143.282 74.4914 142.949 74.684Z" fill="black"/>
<path d="M161.536 34.1839L161.165 33.9693C155.57 30.8253 148.094 31.2461 139.879 35.9828C127.501 43.1414 116.773 58.1765 111.703 73.9419C109.689 80.1928 108.839 83.5019 108.839 89.5465V94.4027C108.839 110.804 127.126 132.865 135.679 140.742C135.87 140.919 136.079 141.077 136.302 141.212C136.307 141.22 136.315 141.226 136.323 141.23C136.332 141.233 136.342 141.234 136.351 141.233C136.851 141.541 137.409 141.742 137.99 141.821C138.572 141.9 139.163 141.857 139.727 141.694C140.291 141.53 140.814 141.251 141.263 140.873C141.712 140.495 142.077 140.027 142.334 139.5C149.703 124.411 171.191 78.922 171.191 61.2834V56.4436C171.191 45.5097 167.494 37.7652 161.536 34.1839ZM122.273 91.5888C122.158 91.1391 122.051 90.6687 121.968 90.186C121.726 88.8326 121.61 87.4596 121.621 86.0847C121.621 73.1291 130.699 57.3637 141.946 50.89C143.132 50.2031 144.375 49.6178 145.66 49.1406C146.641 48.7757 147.653 48.4995 148.684 48.3154C156.606 46.9538 162.275 52.3836 162.275 62.6078C162.275 75.5635 153.177 91.333 141.95 97.8067C132.469 103.29 124.522 100.423 122.273 91.5888Z" fill="#37474F"/>
<path d="M58.923 16.962H50.2584C48.3784 16.962 46.5754 16.2151 45.2461 14.8858C43.9167 13.5565 43.1699 11.7535 43.1699 9.87351V7.8724C43.1699 5.78451 43.9993 3.78213 45.4757 2.30577C46.9521 0.829411 48.9544 0 51.0423 0C53.1302 0 55.1326 0.829411 56.6089 2.30577C58.0853 3.78213 58.9147 5.78451 58.9147 7.8724L58.923 16.962Z" fill="#263238"/>
<path d="M44.4283 3.95267L42.584 2.97481C42.6423 2.85181 42.7249 2.74191 42.8268 2.65174C42.9288 2.56157 43.0479 2.49301 43.1771 2.4502C43.3063 2.40739 43.4429 2.39123 43.5785 2.40268C43.7141 2.41413 43.846 2.45296 43.9662 2.51683C44.2129 2.65103 44.3984 2.87499 44.4845 3.14231C44.5705 3.40962 44.5504 3.69979 44.4283 3.95267Z" fill="#263238"/>
<path d="M44.581 4.15902L42.6418 4.8852C42.5877 4.76041 42.5595 4.62596 42.5589 4.48997C42.5582 4.35397 42.5851 4.21925 42.6379 4.09394C42.6907 3.96862 42.7684 3.8553 42.8662 3.76083C42.964 3.66636 43.08 3.59268 43.2071 3.54425C43.4713 3.4523 43.7607 3.46472 44.016 3.57899C44.2714 3.69326 44.4735 3.90074 44.581 4.15902Z" fill="#263238"/>
<path d="M61.7946 27.0088L64.1794 31.3782L60.8663 34.221L57.5531 29.0842L61.7946 27.0088Z" fill="#9A4A4D"/>
<path d="M55.1271 17.6345C56.3649 17.7418 57.6687 18.2741 58.564 20.1101L62.2774 27.735C62.2774 27.735 61.6503 30.2436 58.3825 30.5778L57.0869 28.589L55.1271 17.6345Z" fill="#BA68C8"/>
<path opacity="0.1" d="M55.1271 17.6345C56.3649 17.7418 57.6687 18.2741 58.564 20.1101L62.2774 27.735C62.2774 27.735 61.6503 30.2436 58.3825 30.5778L57.0869 28.589L55.1271 17.6345Z" fill="black"/>
<path d="M33.0942 77.6223C32.4712 77.3005 32.0792 78.0886 31.514 78.724C31.1014 79.1654 30.5031 79.871 30.4123 80.3744C30.2762 81.1253 30.9529 82.3012 31.6997 82.9531C32.4465 83.605 33.3129 84.0671 33.5852 85.4906C33.8576 86.9141 34.4104 87.7599 35.8875 88.3994C37.5049 89.0967 39.6711 88.8739 40.4055 88.3994C41.2761 87.8342 40.4798 87.2194 39.2626 85.4741C37.67 83.1965 36.428 81.5668 36.428 79.4419L33.0942 77.6223Z" fill="#263238"/>
<path d="M34.3692 75.7533L33.0612 77.6719C32.7847 78.0699 32.6765 78.561 32.7599 79.0384C32.8433 79.5158 33.1117 79.941 33.5068 80.2217L33.5481 80.2506C33.945 80.4889 34.4129 80.5806 34.8705 80.5097C35.328 80.4389 35.7463 80.21 36.0526 79.8628L38.0908 77.6347L34.3692 75.7533Z" fill="#B16668"/>
<path d="M57.875 39.3826C57.9575 41.8252 58.3866 50.7291 56.6042 55.4039C55.6155 58.0581 54.3719 60.6103 52.8908 63.0246C52.3586 63.9364 37.0635 78.8271 37.0635 78.8271C37.0635 78.8271 34.4641 78.6374 34.0515 76.1205C34.0515 76.1205 40.3189 65.4631 41.6764 63.2804C43.0338 61.0977 47.8406 57.7433 47.8406 57.7433L47.4032 37.2578L57.875 39.3826Z" fill="#37474F"/>
<path d="M55.011 90.3955L58.2457 89.66L57.1745 84.9487L53.9398 85.6842L55.011 90.3955Z" fill="#B16668"/>
<path d="M52.4864 46.8424C53.5941 45.8194 54.5862 44.678 55.4448 43.4385C57.9204 40.0222 57.5367 36.9896 57.5367 36.9896H56.5217L43.1493 37.2619C41.8207 39.4363 41.5319 42.7329 41.9817 45.9265C42.91 52.59 48.4306 64.1221 48.4306 64.1221C48.3522 65.034 47.9685 68.8629 48.8432 72.2586C50.2171 77.6224 53.9553 86.6996 53.9553 86.6996C53.9553 86.6996 56.2947 87.0338 57.4583 85.6804C57.4583 85.6804 55.3953 67.2744 54.83 62.5749C54.2152 57.4504 52.4864 46.8424 52.4864 46.8424Z" fill="#37474F"/>
<path d="M57.8832 88.0611L57.7759 87.599C58.1184 87.665 59.5707 90.0746 61.0107 91.1226C62.5868 92.2696 63.9567 92.9463 64.6622 93.4662C65.6029 94.1552 64.2496 95.5745 61.9184 95.6983C60.7673 95.7602 58.6713 95.4095 58.0235 94.7989C57.3757 94.1882 56.9095 93.1485 56.3978 92.7359C55.8862 92.3233 54.8465 91.9107 54.4958 91.3454C54.306 91.0359 54.273 90.2644 54.2977 89.6042C54.3225 88.9441 54.3348 88.3334 54.5453 88.3417C54.5453 88.4118 54.6237 88.6965 54.6237 88.6965C55.2327 89.0044 55.9097 89.1534 56.5918 89.1297C57.1364 89.0967 58.1514 88.9688 57.8832 88.0611Z" fill="#263238"/>
<path d="M54.4092 59.4308C54.4092 59.4308 52.8495 48.3525 52.4865 46.8424C52.4865 46.8424 55.2344 45.7944 56.0802 44.8372C56.0802 44.8372 55.4778 46.1781 53.5097 47.3705L54.4092 59.4308Z" fill="#263238"/>
<path d="M46.1489 59.0017C46.1489 59.0017 47.7581 63.2226 48.4265 64.1344C48.4265 64.1344 48.2573 67.2743 48.2821 67.9097L47.4115 68.6648C47.4115 68.6648 47.3702 66.0283 47.8241 64.4315C47.0294 62.7031 46.4662 60.8774 46.1489 59.0017Z" fill="#263238"/>
<path d="M57.124 29.4679C57.3345 31.4071 57.875 39.3703 57.875 39.3703C51.4756 42.7866 43.5371 40.5214 42.3241 39.1144C42.9573 36.793 44.1978 34.6824 45.9178 32.9997L43.8548 27.2233C43.8548 27.2233 43.6073 26.6292 43.6114 26.6251C43.7393 26.4105 46.8338 23.6213 45.3113 19.1983C45.2575 19.0377 45.241 18.867 45.263 18.6991C45.2851 18.5311 45.3452 18.3705 45.4386 18.2293C45.5321 18.088 45.6566 17.97 45.8025 17.8841C45.9485 17.7982 46.1121 17.7467 46.2809 17.7335L48.117 17.585L53.1012 17.4365C54.2895 17.5066 55.1394 17.618 55.1394 17.618C55.9027 18.3359 57.1075 20.2958 57.8874 22.2928C58.3783 23.5966 58.923 25.6554 57.124 29.4679Z" fill="#BA68C8"/>
<path opacity="0.1" d="M45.1793 29.3152L45.9096 26.4889L46.8132 33.0162L44.9854 34.0312L45.9179 33.0121L44.973 30.3756L45.1793 29.3152Z" fill="black"/>
<path d="M56.1091 3.42871C56.9343 3.9197 57.9699 6.01159 57.8667 10.3934C57.7801 14.1068 56.5753 15.031 55.9729 15.2951C55.3705 15.5591 54.2028 15.3982 53.0847 15.2084V17.4406C53.0847 17.4406 54.7722 20.564 54.3926 21.81C53.5674 21.9503 52.5318 21.3974 51.0671 20.4031C49.9775 19.5893 48.9886 18.6488 48.1211 17.6015L48.1459 12.4729C48.1459 12.4729 47.4775 13.1207 46.347 12.1304C45.4145 11.3052 45.1092 9.93953 45.8271 9.19685C46.0156 9.0213 46.2432 8.89309 46.4911 8.82277C46.7389 8.75245 47 8.74205 47.2526 8.79242C47.5053 8.84279 47.7424 8.95249 47.9443 9.11248C48.1462 9.27247 48.3072 9.47816 48.4141 9.7126C48.4141 9.7126 50.2254 9.78274 52.6308 8.4748C53.5666 7.96648 54.3692 7.24461 54.9736 6.36783C55.5779 5.49105 55.967 4.48408 56.1091 3.42871Z" fill="#B16668"/>
<path d="M53.7242 9.46094C53.7258 9.5534 53.7 9.64427 53.6502 9.72218C53.6003 9.80008 53.5287 9.86157 53.4441 9.89896C53.3595 9.93634 53.2657 9.94796 53.1746 9.93236C53.0834 9.91676 52.9989 9.87464 52.9316 9.81125C52.8642 9.74787 52.8171 9.66604 52.796 9.576C52.7749 9.48596 52.7808 9.39169 52.813 9.305C52.8452 9.2183 52.9022 9.14302 52.977 9.08856C53.0517 9.03411 53.1408 9.00289 53.2332 8.99882C53.3595 8.99548 53.4819 9.04218 53.5739 9.12874C53.6659 9.21531 53.7199 9.33471 53.7242 9.46094Z" fill="#263238"/>
<g style="mix-blend-mode:multiply" opacity="0.5">
<g style="mix-blend-mode:multiply" opacity="0.5">
<path d="M53.8439 12.5967L54.9291 12.9433C54.9092 13.0157 54.875 13.0833 54.8285 13.1423C54.782 13.2012 54.7241 13.2502 54.6583 13.2863C54.5925 13.3225 54.5201 13.3451 54.4455 13.3528C54.3708 13.3605 54.2953 13.3531 54.2235 13.3311C54.0773 13.2819 53.9559 13.1778 53.8851 13.0407C53.8142 12.9037 53.7995 12.7444 53.8439 12.5967Z" fill="#9A4A4D"/>
</g>
</g>
<path d="M57.549 8.02508L56.6124 7.37317C56.6517 7.30928 56.7037 7.25413 56.7651 7.21111C56.8265 7.16808 56.8961 7.1381 56.9696 7.12302C57.043 7.10795 57.1188 7.10808 57.1922 7.12343C57.2656 7.13878 57.3351 7.16901 57.3964 7.21226C57.5224 7.30136 57.6088 7.43603 57.6373 7.58775C57.6658 7.73946 57.6342 7.89631 57.549 8.02508Z" fill="#263238"/>
<path d="M57.3304 9.12261C57.3354 9.18507 57.328 9.24791 57.3084 9.30744C57.2888 9.36696 57.2576 9.42198 57.2164 9.46926C57.1753 9.51653 57.1251 9.55511 57.0689 9.58274C57.0127 9.61036 56.9515 9.62647 56.8889 9.63011C56.7921 9.63907 56.6948 9.61883 56.6096 9.572C56.5243 9.52517 56.4551 9.45389 56.4108 9.36735C56.3664 9.28081 56.349 9.18298 56.3607 9.08645C56.3725 8.98993 56.4129 8.89913 56.4767 8.82577C56.5405 8.7524 56.6249 8.69983 56.7188 8.67482C56.8128 8.64982 56.9121 8.65352 57.004 8.68545C57.0958 8.71739 57.176 8.7761 57.2342 8.85401C57.2923 8.93193 57.3259 9.02548 57.3304 9.12261Z" fill="#263238"/>
<g style="mix-blend-mode:multiply" opacity="0.5">
<g style="mix-blend-mode:multiply" opacity="0.5">
<path d="M55.1271 8.85852L55.2013 11.6683L56.6826 11.2103L55.1271 8.85852Z" fill="#9A4A4D"/>
</g>
</g>
<g style="mix-blend-mode:multiply" opacity="0.5">
<g style="mix-blend-mode:multiply" opacity="0.5">
<path d="M53.0682 15.2084C51.8716 15.0517 49.4125 14.3461 49.0288 13.3724C49.1834 13.8632 49.4843 14.2951 49.8911 14.6102C50.6256 15.2373 53.0682 15.947 53.0682 15.947V15.2084Z" fill="#9A4A4D"/>
</g>
</g>
<path d="M38.3673 36.4944C38.3962 36.0818 39.1513 31.8031 39.667 29.4059L44.709 30.9491L43.8838 34.3118L39.6959 38.3676C39.2746 38.289 38.9003 38.0496 38.6524 37.7C38.4044 37.3504 38.3022 36.918 38.3673 36.4944Z" fill="#B16668"/>
<path d="M46.2686 17.7501C44.3335 17.9192 41.7836 18.208 40.5706 23.7162C39.4318 28.8779 39.1512 30.6809 39.1512 30.6809C39.1512 30.6809 40.6407 32.5665 44.4944 32.3602L45.9096 26.4889C48.4884 23.0932 47.659 20.663 46.2686 17.7501Z" fill="#BA68C8"/>
<path d="M62.5704 32.5005C63.2636 31.2132 63.4369 31.1554 63.8453 30.8501C64.2538 30.5448 66.7872 30.1899 67.8352 30.1033C69.073 30.0001 69.5062 30.2271 69.1637 31.2874C68.4293 33.5567 66.2013 38.3759 65.702 39.0443C65.3761 39.4569 65.3101 39.8695 63.9237 40.0181C62.6282 40.146 61.0025 40.2161 60.5239 40.245C60.0453 40.2739 59.3851 40.3935 59.8142 38.9866C60.3602 37.3951 60.9924 35.8345 61.7081 34.3118C62.2403 33.173 62.5704 32.5005 62.5704 32.5005Z" fill="#263238"/>
<path d="M43.9002 34.3118C43.9002 34.3118 55.1064 35.496 56.5546 35.0462C58.0028 34.5965 59.9585 33.1441 61.0065 32.5459C62.0545 31.9476 62.8055 31.894 62.8055 32.1333C62.8055 32.3726 61.9101 33.7548 61.708 34.32C61.5058 34.8853 62.6734 34.8853 64.2083 34.5346C65.7432 34.1839 66.358 33.2968 66.7582 33.8084C67.1584 34.3201 65.9082 36.8823 63.3584 37.8354C60.8085 38.7885 58.9147 38.1572 56.8104 38.248C54.7061 38.3388 42.6335 39.2795 39.7081 38.3594C39.6342 37.8938 39.6894 37.4168 39.8676 36.9803C40.0459 36.5439 40.3403 36.1646 40.719 35.8838C41.6649 35.1544 42.7462 34.6201 43.9002 34.3118Z" fill="#B16668"/>
</svg>
