<svg width="193" height="162" viewBox="0 0 193 162" fill="none" xmlns="http://www.w3.org/2000/svg">
<path d="M29.9543 146.795C67.0287 166.164 127.141 166.164 164.22 146.795C201.298 127.426 201.294 96.0245 164.22 76.6553C127.145 57.2862 67.0287 57.2818 29.9499 76.6553C-7.12897 96.0289 -7.12455 127.426 29.9543 146.795Z" fill="#FAFAFA"/>
<path d="M128.5 152C137.613 152 145 148.418 145 144C145 139.582 137.613 136 128.5 136C119.387 136 112 139.582 112 144C112 148.418 119.387 152 128.5 152Z" fill="#EDEDED"/>
<path d="M21.9801 32.005V54.2638C21.9801 54.994 22.4934 55.2949 23.1307 54.9276L74.8082 25.0884C75.1427 24.8699 75.421 24.5758 75.6209 24.2299C75.8207 23.884 75.9365 23.4959 75.9588 23.0971V0.820565C75.9588 0.0904057 75.4411 -0.210508 74.8082 0.156784L23.1307 29.996C22.7932 30.2155 22.5128 30.5121 22.3127 30.8615C22.1126 31.2109 21.9986 31.6028 21.9801 32.005Z" fill="#F0F0F0"/>
<path d="M25.5776 31.6554L41.0659 22.7165C41.7783 22.3049 42.3492 22.6368 42.3492 23.4555V39.0189C42.3249 39.4628 42.196 39.8946 41.9729 40.2792C41.7499 40.6637 41.4391 40.9901 41.0659 41.2315L25.5776 50.1749C24.8696 50.582 24.2943 50.2501 24.2943 49.4315V33.8768C24.3183 33.4317 24.447 32.9985 24.67 32.6125C24.893 32.2265 25.204 31.8985 25.5776 31.6554Z" fill="#FAFAFA"/>
<path d="M38.1187 30.4826L33.512 40.0322L31.1667 38.6781C30.9415 38.5549 30.6773 38.5239 30.4296 38.5916C30.182 38.6593 29.9703 38.8203 29.8391 39.041L24.2943 48.6038V49.4402C24.2943 50.2589 24.8696 50.5907 25.5776 50.1836L41.0659 41.2403C41.4383 40.998 41.7486 40.6715 41.9715 40.2871C42.1945 39.9027 42.3238 39.4713 42.3492 39.0277V33.5537L39.2515 30.3056C39.1823 30.2089 39.0876 30.1332 38.978 30.0872C38.8683 30.0412 38.748 30.0265 38.6305 30.0449C38.513 30.0632 38.4029 30.1139 38.3125 30.1912C38.2222 30.2685 38.155 30.3694 38.1187 30.4826Z" fill="#BA68C8"/>
<path d="M26.622 37.3506C27.579 36.7265 28.3754 35.8855 28.9466 34.896C29.5179 33.9065 29.8479 32.7963 29.9099 31.6554C29.9099 30.6951 29.6001 30.0004 29.0912 29.6287L25.5776 31.6554C25.2051 31.8977 24.8949 32.2242 24.672 32.6086C24.449 32.993 24.3197 33.4244 24.2943 33.868V37.5719C24.9006 37.9259 25.7148 37.8728 26.622 37.3506Z" fill="#BA68C8"/>
<path d="M48.1285 20.0923L71.4007 6.6529C71.9317 6.34756 72.3609 6.56439 72.3609 7.13967C72.3375 7.46205 72.2384 7.77436 72.0715 8.05119C71.9047 8.32801 71.6748 8.56153 71.4007 8.73275L48.1285 22.1677C47.5975 22.473 47.1682 22.2562 47.1682 21.6809C47.1923 21.3593 47.2917 21.0479 47.4586 20.7719C47.6254 20.4959 47.8549 20.263 48.1285 20.0923Z" fill="#FAFAFA"/>
<path d="M48.1285 24.6901L71.4007 11.2507C71.9317 10.9454 72.3609 11.1622 72.3609 11.7375C72.3375 12.0599 72.2384 12.3722 72.0715 12.649C71.9047 12.9258 71.6748 13.1594 71.4007 13.3306L48.1285 26.7655C47.5975 27.0709 47.1682 26.854 47.1682 26.2832C47.1916 25.9608 47.2907 25.6485 47.4576 25.3717C47.6245 25.0948 47.8543 24.8613 48.1285 24.6901Z" fill="#FAFAFA"/>
<path d="M48.1285 29.2879L71.4007 15.853C71.9317 15.5476 72.3609 15.7645 72.3609 16.3353C72.3375 16.6577 72.2384 16.97 72.0715 17.2468C71.9047 17.5237 71.6748 17.7572 71.4007 17.9284L48.1285 31.3633C47.5975 31.6731 47.1682 31.4563 47.1682 30.881C47.1916 30.5586 47.2907 30.2463 47.4576 29.9695C47.6245 29.6926 47.8543 29.4591 48.1285 29.2879Z" fill="#FAFAFA"/>
<path d="M48.1285 33.8857L71.4007 20.4508C71.9317 20.1454 72.3609 20.3622 72.3609 20.9375C72.3369 21.2591 72.2374 21.5706 72.0706 21.8466C71.9037 22.1226 71.6742 22.3554 71.4007 22.5262L48.1285 35.9877C47.5975 36.293 47.1682 36.0762 47.1682 35.5009C47.1882 35.1747 47.2857 34.8579 47.4527 34.577C47.6198 34.2961 47.8514 34.0591 48.1285 33.8857Z" fill="#FAFAFA"/>
<path d="M11.1825 102.038V69.3758C11.2038 68.9767 11.3191 68.5883 11.519 68.2422C11.719 67.8961 11.9979 67.6022 12.333 67.3845L51.4165 44.8159C52.0493 44.4486 52.5671 44.7451 52.5671 45.4797V78.1421C52.5447 78.541 52.429 78.9291 52.2291 79.275C52.0293 79.6209 51.7509 79.915 51.4165 80.1335L12.333 102.702C11.6958 103.069 11.1825 102.773 11.1825 102.038Z" fill="#F0F0F0"/>
<path d="M11.1825 100.405V102.038C11.1825 102.773 11.6958 103.069 12.333 102.702L51.4165 80.1336C51.7509 79.915 52.0293 79.6209 52.2291 79.275C52.429 78.9291 52.5447 78.5411 52.5671 78.1422V76.5049L11.1825 100.405Z" fill="#BA68C8"/>
<path d="M30.0913 70.783L34.074 70.575C34.5608 70.5485 34.6935 70.8228 34.3705 71.1945L29.7948 76.3986C29.4718 76.7659 29.2107 76.6641 29.2107 76.1773V71.7167C29.2124 71.4786 29.3042 71.25 29.4675 71.0768C29.6309 70.9036 29.8537 70.7986 30.0913 70.783Z" fill="#BA68C8"/>
<path d="M29.0648 79.2529C28.5875 79.2591 28.1172 79.1384 27.7018 78.9033C26.7194 78.3324 26.1796 77.1332 26.1796 75.5667C26.1796 72.3717 28.432 68.4863 31.2022 66.8711C32.5696 66.079 33.8573 65.9595 34.8486 66.526C35.8398 67.0924 36.3752 68.296 36.3752 69.8581C36.3752 73.0576 34.1184 76.9385 31.3526 78.5537C30.6642 78.9826 29.8754 79.2237 29.0648 79.2529ZM33.49 66.4773C32.7337 66.5072 31.9983 66.7345 31.3571 67.1366C28.671 68.6855 26.4893 72.469 26.4893 75.5667C26.4893 77.0358 26.9761 78.1289 27.8611 78.6378C28.7462 79.1467 29.9321 79.0272 31.2022 78.2926C33.8883 76.7393 36.0699 72.9823 36.0699 69.8581C36.0699 68.389 35.5831 67.3004 34.6981 66.787C34.3278 66.5799 33.9098 66.4731 33.4856 66.4773H33.49Z" fill="#BA68C8"/>
<path d="M13.3376 39.0234L10.917 37.6339C9.76201 36.8595 8.15566 36.8905 6.38115 37.9171C2.84099 39.9527 0 45.1169 0 49.4536V50.4405C0 54.7772 5.83243 59.4856 5.83243 59.4856L8.21319 60.8353C8.21319 60.8353 6.78385 59.2024 6.94758 58.8661C8.52738 55.6622 12.7535 46.6082 12.7535 43.0681V42.0813C12.7624 41.367 12.6716 40.6551 12.4835 39.966L12.7535 40.1209L13.3376 39.0234ZM6.37673 48.9669C4.60664 49.9847 3.18615 49.1572 3.18615 47.126C4.13315 46.9755 6.51833 42.9043 6.37673 41.5989C8.14681 40.5811 9.56288 41.4086 9.5673 43.4398C9.50733 44.547 9.18718 45.6245 8.63283 46.5848C8.07848 47.5451 7.30554 48.3612 6.37673 48.9669Z" fill="#BA68C8"/>
<g opacity="0.2">
<path opacity="0.2" d="M13.3376 39.0234L10.917 37.6339C9.76201 36.8595 8.15566 36.8905 6.38115 37.9171C2.84099 39.9527 0 45.1169 0 49.4536V50.4405C0 54.7772 5.83243 59.4856 5.83243 59.4856L8.21319 60.8353C8.21319 60.8353 6.78385 59.2024 6.94758 58.8661C8.52738 55.6622 12.7535 46.6082 12.7535 43.0681V42.0813C12.7624 41.367 12.6716 40.6551 12.4835 39.966L12.7535 40.1209L13.3376 39.0234ZM6.37673 48.9669C4.60664 49.9847 3.18615 49.1572 3.18615 47.126C4.13315 46.9755 6.51833 42.9043 6.37673 41.5989C8.14681 40.5811 9.56288 41.4086 9.5673 43.4398C9.50733 44.547 9.18718 45.6245 8.63283 46.5848C8.07848 47.5451 7.30554 48.3612 6.37673 48.9669Z" fill="black"/>
</g>
<path d="M13.3375 39.0236C13.311 39.0048 13.2829 38.9885 13.2534 38.9749C12.1161 38.3377 10.5983 38.4262 8.92553 39.3909C6.40316 40.8512 4.22153 43.909 3.17275 47.1261C2.76719 48.3501 2.55226 49.6292 2.53552 50.9185V51.9186C2.53552 55.2597 6.31908 59.1362 8.05818 60.7425C8.09581 60.7762 8.13574 60.8072 8.17766 60.8354C8.27992 60.8981 8.39417 60.9386 8.51304 60.9544C8.63192 60.9702 8.75278 60.9609 8.86785 60.9271C8.98291 60.8933 9.08963 60.8358 9.18112 60.7583C9.2726 60.6808 9.34683 60.585 9.39902 60.477C10.9036 57.3793 15.2801 48.1395 15.2801 44.5462V43.5594C15.3067 41.3291 14.55 39.7537 13.3375 39.0236ZM5.79248 49.237C5.75573 49.0266 5.73796 48.8133 5.73937 48.5997C5.79782 47.4921 6.11682 46.4138 6.67045 45.4527C7.22408 44.4915 7.99671 43.6746 8.92553 43.0682C9.11107 42.9613 9.30493 42.8696 9.50523 42.7939C10.9921 42.254 12.1161 43.1081 12.1161 44.9091C12.0565 46.0158 11.7365 47.0928 11.1821 48.0524C10.6276 49.0121 9.85449 49.8273 8.92553 50.4318C7.36343 51.3434 6.06241 50.7946 5.79248 49.237Z" fill="#BA68C8"/>
<path d="M12.1162 44.9135C12.0566 46.0202 11.7366 47.0972 11.1822 48.0568C10.6278 49.0165 9.85461 49.8317 8.92565 50.4361C7.36355 51.3212 6.06254 50.7946 5.7926 49.2369C5.99538 49.1655 6.19096 49.0751 6.37673 48.967C7.30496 48.3611 8.07723 47.5448 8.63083 46.5845C9.18443 45.6241 9.50375 44.5468 9.56288 43.4399C9.5649 43.2246 9.54563 43.0097 9.50535 42.7982C10.9922 42.2584 12.1162 43.1124 12.1162 44.9135Z" fill="#BA68C8"/>
<g opacity="0.2">
<path opacity="0.2" d="M12.1162 44.9135C12.0566 46.0202 11.7366 47.0972 11.1822 48.0568C10.6278 49.0165 9.85461 49.8317 8.92565 50.4361C7.36355 51.3212 6.06254 50.7946 5.7926 49.2369C5.99538 49.1655 6.19096 49.0751 6.37673 48.967C7.30496 48.3611 8.07723 47.5448 8.63083 46.5845C9.18443 45.6241 9.50375 44.5468 9.56288 43.4399C9.5649 43.2246 9.54563 43.0097 9.50535 42.7982C10.9922 42.2584 12.1162 43.1124 12.1162 44.9135Z" fill="black"/>
</g>
<path d="M58.6119 99.8567C58.6119 99.8567 60.2094 89.6788 56.6604 80.9257C53.1114 72.1726 48.3277 71.6328 45.8496 72.8763C43.3715 74.1197 44.9646 78.9742 47.1772 82.2356C50.1244 86.5147 54.9921 95.728 54.8328 104.003L58.6119 99.8567Z" fill="#BA68C8"/>
<path opacity="0.2" d="M58.6119 99.8567C58.6119 99.8567 60.2094 89.6788 56.6604 80.9257C53.1114 72.1726 48.3277 71.6328 45.8496 72.8763C43.3715 74.1197 44.9646 78.9742 47.1772 82.2356C50.1244 86.5147 54.9921 95.728 54.8328 104.003L58.6119 99.8567Z" fill="black"/>
<path d="M57.0189 100.503C56.9792 100.502 56.9401 100.493 56.904 100.476C56.8678 100.46 56.8354 100.436 56.8085 100.407C56.7817 100.377 56.761 100.343 56.7478 100.305C56.7345 100.268 56.7289 100.228 56.7313 100.189C57.3154 86.2536 50.3545 75.8499 47.3498 73.8232C47.317 73.8011 47.2888 73.7728 47.267 73.7398C47.2451 73.7068 47.2299 73.6699 47.2223 73.631C47.2147 73.5922 47.2148 73.5523 47.2226 73.5135C47.2305 73.4747 47.2459 73.4378 47.268 73.405C47.29 73.3722 47.3184 73.344 47.3513 73.3221C47.3843 73.3002 47.4213 73.2851 47.4601 73.2775C47.4989 73.2699 47.5389 73.27 47.5777 73.2778C47.6165 73.2857 47.6533 73.3011 47.6861 73.3231C51.2263 75.6862 57.9172 86.3244 57.3287 100.215C57.3275 100.254 57.3186 100.293 57.3023 100.329C57.2861 100.365 57.2629 100.397 57.2341 100.424C57.2052 100.451 57.1714 100.471 57.1344 100.485C57.0975 100.498 57.0582 100.505 57.0189 100.503Z" fill="white"/>
<path d="M57.9835 111.942C57.3772 110.42 55.8107 108.72 51.7882 106.906C47.7657 105.092 44.7389 102.671 44.1813 100.919C44.0135 100.435 43.9916 99.9121 44.1182 99.4156C44.2449 98.9192 44.5145 98.471 44.8937 98.1265C44.8937 98.1265 41.1013 97.684 40.6234 95.3607C40.026 92.4312 43.3405 92.2409 43.3405 92.2409C43.3405 92.2409 38.9905 86.1165 37.8355 83.3905C36.6806 80.6646 38.0125 80.5009 40.8181 81.5408C43.6237 82.5807 48.9694 87.8157 49.7969 89.4132C49.7969 89.4132 51.2439 87.6431 52.8016 88.807C54.3593 89.9708 54.4345 93.4535 53.514 94.7102C54.1348 94.5946 54.7757 94.6614 55.3592 94.9025C55.9428 95.1436 56.4439 95.5487 56.802 96.0687C58.3862 98.1442 58.9084 103.335 58.9084 103.335L57.9835 111.942Z" fill="#BA68C8"/>
<path d="M58.2666 110.526C58.1994 110.525 58.1343 110.502 58.0815 110.461C58.0287 110.419 57.9911 110.361 57.9746 110.296C55.8239 101.335 45.615 87.0326 39.2736 82.4835C39.2414 82.4605 39.214 82.4314 39.1929 82.3979C39.1719 82.3643 39.1577 82.327 39.1512 82.2879C39.1446 82.2489 39.1458 82.2089 39.1546 82.1703C39.1635 82.1318 39.1799 82.0953 39.2028 82.0631C39.2258 82.0308 39.2549 82.0034 39.2884 81.9824C39.322 81.9614 39.3593 81.9472 39.3984 81.9406C39.4374 81.934 39.4773 81.9352 39.5159 81.944C39.5545 81.9529 39.591 81.9693 39.6232 81.9922C46.0442 86.5989 56.3815 101.083 58.5631 110.154C58.5804 110.232 58.5665 110.314 58.5243 110.382C58.4821 110.45 58.415 110.498 58.3374 110.517L58.2666 110.526Z" fill="white"/>
<path d="M138.368 20.2915C138.315 20.2909 138.263 20.2772 138.217 20.2517L136.974 19.5304C136.939 19.5106 136.909 19.4843 136.885 19.4529C136.861 19.4216 136.843 19.3857 136.833 19.3475C136.823 19.3093 136.82 19.2694 136.825 19.2302C136.83 19.191 136.843 19.1531 136.863 19.1188C136.883 19.0845 136.909 19.0545 136.94 19.0304C136.972 19.0063 137.008 18.9886 137.046 18.9783C137.084 18.968 137.124 18.9654 137.163 18.9705C137.202 18.9756 137.24 18.9884 137.275 19.0082L138.518 19.7295C138.552 19.7492 138.582 19.7755 138.607 19.8069C138.631 19.8383 138.648 19.8741 138.659 19.9123C138.669 19.9506 138.672 19.9904 138.667 20.0297C138.661 20.0689 138.648 20.1068 138.629 20.1411C138.602 20.1869 138.564 20.2249 138.518 20.2513C138.472 20.2777 138.42 20.2916 138.368 20.2915Z" fill="white"/>
<path d="M57.9835 46.5285V112.367C57.9835 113.101 58.4968 113.398 59.1297 113.031L135.925 68.6944C136.259 68.4759 136.537 68.1818 136.737 67.8359C136.937 67.49 137.053 67.1019 137.075 66.7031V0.864817C137.075 0.130232 136.558 -0.166257 135.925 0.201036L59.1297 44.5372C58.7956 44.7557 58.5177 45.0499 58.3186 45.3959C58.1194 45.7419 58.0046 46.1299 57.9835 46.5285Z" fill="#455A64"/>
<path d="M66.9712 58.6891C66.9712 60.9858 68.6837 61.8531 70.8034 60.6318L131.681 25.4824V17.1807L70.8034 52.3257C68.6837 53.5514 66.9712 56.3969 66.9712 58.6891Z" fill="#F5F5F5"/>
<path d="M136.858 14.2025C138.974 12.9811 140.691 13.8485 140.691 16.1407C140.691 18.433 138.974 21.2828 136.858 22.5042L131.703 25.4823V17.1807L136.858 14.2025Z" fill="#BA68C8"/>
<path d="M135 21.1988C134.78 21.2019 134.562 21.1454 134.372 21.0351C134.136 20.8777 133.948 20.6598 133.827 20.4043C133.705 20.1488 133.655 19.8653 133.681 19.5836C133.713 18.891 133.91 18.2161 134.257 17.6155C134.603 17.0149 135.089 16.5062 135.673 16.132C135.895 15.9502 136.168 15.8406 136.455 15.8177C136.742 15.7948 137.028 15.8598 137.277 16.0039C137.526 16.148 137.725 16.3645 137.848 16.6245C137.971 16.8845 138.012 17.1758 137.965 17.4595C137.932 18.1519 137.734 18.8264 137.388 19.4268C137.041 20.0272 136.556 20.5361 135.973 20.9112C135.68 21.0907 135.344 21.1899 135 21.1988ZM136.642 16.4417C136.404 16.4534 136.174 16.5266 135.973 16.6541C135.485 16.9788 135.078 17.4123 134.785 17.9205C134.491 18.4287 134.32 18.998 134.283 19.5836C134.237 19.7598 134.251 19.9462 134.321 20.1141C134.392 20.2819 134.515 20.4221 134.673 20.513C134.831 20.6039 135.014 20.6406 135.194 20.6174C135.375 20.5942 135.543 20.5124 135.673 20.3846C136.162 20.0604 136.569 19.6271 136.862 19.1187C137.156 18.6104 137.327 18.0409 137.363 17.4551C137.386 17.2796 137.362 17.1013 137.293 16.9381C137.225 16.7749 137.115 16.6327 136.974 16.5258C136.873 16.468 136.758 16.4389 136.642 16.4417Z" fill="white"/>
<path d="M137.744 32.3725L78.8882 66.3315C78.5526 66.5488 78.2733 66.8425 78.0733 67.1887C77.8732 67.5349 77.7582 67.9236 77.7377 68.3229V86.4352C77.7377 87.1698 78.251 87.4663 78.8882 87.099L137.744 53.1267C138.079 52.9089 138.358 52.615 138.558 52.269C138.757 51.9229 138.873 51.5345 138.894 51.1354V33.0363C138.872 32.3017 138.359 32.0052 137.744 32.3725Z" fill="#BA68C8"/>
<path opacity="0.2" d="M137.744 32.3725L78.8882 66.3315C78.5526 66.5488 78.2733 66.8425 78.0733 67.1887C77.8732 67.5349 77.7582 67.9236 77.7377 68.3229V86.4352C77.7377 87.1698 78.251 87.4663 78.8882 87.099L137.744 53.1267C138.079 52.9089 138.358 52.615 138.558 52.269C138.757 51.9229 138.873 51.5345 138.894 51.1354V33.0363C138.872 32.3017 138.359 32.0052 137.744 32.3725Z" fill="white"/>
<path d="M100.284 56.9986L110.949 50.8388C111.48 50.5334 111.909 50.7502 111.909 51.3255C111.885 51.6471 111.786 51.9586 111.619 52.2346C111.452 52.5106 111.222 52.7434 110.949 52.9142L100.284 59.0741C99.7531 59.3794 99.3239 59.1626 99.3239 58.5873C99.3479 58.2657 99.4474 57.9543 99.6142 57.6783C99.781 57.4022 100.011 57.1694 100.284 56.9986Z" fill="white"/>
<path d="M99.3239 62.7382C99.3239 63.3135 99.7664 63.5303 100.284 63.225L132.522 44.6125C132.795 44.4406 133.024 44.2068 133.19 43.93C133.356 43.6533 133.454 43.3414 133.478 43.0195C133.478 42.4486 133.035 42.2318 132.522 42.5371L100.284 61.1495C100.011 61.3203 99.781 61.5532 99.6142 61.8292C99.4474 62.1052 99.3479 62.4166 99.3239 62.7382Z" fill="white"/>
<path d="M99.3239 66.889C99.3239 67.4642 99.7664 67.6811 100.284 67.3757L132.522 48.7633C132.795 48.5913 133.024 48.3575 133.19 48.0808C133.356 47.804 133.454 47.4921 133.478 47.1702C133.478 46.5994 133.035 46.3825 132.522 46.6879L100.284 65.3003C100.011 65.4711 99.781 65.7039 99.6142 65.9799C99.4474 66.2559 99.3479 66.5673 99.3239 66.889Z" fill="white"/>
<path d="M99.3239 71.0398C99.3239 71.6151 99.7664 71.8319 100.284 71.5265L132.522 52.9141C132.795 52.7421 133.024 52.5083 133.19 52.2316C133.356 51.9549 133.454 51.6429 133.478 51.321C133.478 50.7502 133.035 50.5334 132.522 50.8387L100.284 69.4511C100.011 69.6219 99.781 69.8547 99.6142 70.1307C99.4474 70.4067 99.3479 70.7182 99.3239 71.0398Z" fill="white"/>
<path d="M80.7027 67.367L94.5801 59.353C95.2174 58.9901 95.7307 59.2866 95.7307 60.0167V73.9694C95.7091 74.3685 95.5936 74.7568 95.3937 75.1028C95.1938 75.4488 94.915 75.7427 94.5801 75.9608L80.7027 83.9704C80.0699 84.3377 79.5521 84.0412 79.5521 83.311V69.3584C79.5734 68.9592 79.6887 68.5708 79.8887 68.2247C80.0886 67.8787 80.3675 67.5848 80.7027 67.367Z" fill="white"/>
<path d="M91.9427 66.3182L87.814 74.8765L85.712 73.664C85.5089 73.5469 85.2677 73.5151 85.0412 73.5757C84.8147 73.6362 84.6214 73.7842 84.5039 73.9871L79.5521 82.5587V83.3066C79.5521 84.0411 80.0699 84.3376 80.7027 83.9703L94.5801 75.9607C94.9153 75.743 95.1942 75.4491 95.3942 75.103C95.5941 74.7569 95.7094 74.3685 95.7307 73.9694V69.0707L92.9384 66.1589C92.8751 66.0775 92.7912 66.0147 92.6953 65.9769C92.5994 65.9391 92.4952 65.9278 92.3934 65.9441C92.2917 65.9603 92.1962 66.0036 92.1169 66.0695C92.0376 66.1353 91.9774 66.2212 91.9427 66.3182Z" fill="#BA68C8"/>
<path d="M81.6364 72.4736C82.4944 71.9139 83.2083 71.1598 83.7204 70.2725C84.2324 69.3853 84.5282 68.3898 84.5836 67.3669C84.613 67.0273 84.5619 66.6856 84.4342 66.3695C84.3065 66.0535 84.106 65.772 83.849 65.5482L80.7027 67.3669C80.3675 67.5847 80.0886 67.8786 79.8887 68.2246C79.6887 68.5707 79.5734 68.9591 79.5521 69.3583V72.6772C80.0876 72.9869 80.8222 72.9427 81.6364 72.4736Z" fill="#BA68C8"/>
<path d="M137.744 59.3529L78.8882 93.312C78.5531 93.5297 78.2742 93.8236 78.0742 94.1697C77.8742 94.5158 77.7589 94.9042 77.7377 95.3033V113.429C77.7377 114.159 78.251 114.456 78.8882 114.093L137.744 80.1116C138.079 79.8938 138.358 79.5999 138.558 79.2539C138.757 78.9078 138.873 78.5194 138.894 78.1202V60.0167C138.872 59.2866 138.359 58.9989 137.744 59.3529Z" fill="#BA68C8"/>
<path opacity="0.2" d="M137.744 59.3529L78.8882 93.312C78.5531 93.5297 78.2742 93.8236 78.0742 94.1697C77.8742 94.5158 77.7589 94.9042 77.7377 95.3033V113.429C77.7377 114.159 78.251 114.456 78.8882 114.093L137.744 80.1116C138.079 79.8938 138.358 79.5999 138.558 79.2539C138.757 78.9078 138.873 78.5194 138.894 78.1202V60.0167C138.872 59.2866 138.359 58.9989 137.744 59.3529Z" fill="white"/>
<path d="M100.284 83.9792L110.949 77.8237C111.48 77.5184 111.909 77.7352 111.909 78.3061C111.886 78.6285 111.787 78.9408 111.62 79.2176C111.453 79.4944 111.223 79.728 110.949 79.8992L100.284 86.0546C99.7531 86.36 99.3239 86.1431 99.3239 85.5723C99.3472 85.2499 99.4464 84.9376 99.6132 84.6608C99.7801 84.3839 100.01 84.1504 100.284 83.9792Z" fill="white"/>
<path d="M99.3239 89.7231C99.3239 90.2939 99.7664 90.5108 100.284 90.2054L132.522 71.593C132.794 71.4215 133.023 71.1884 133.189 70.9124C133.355 70.6365 133.454 70.3255 133.478 70.0044C133.478 69.4291 133.035 69.2122 132.522 69.5176L100.284 88.13C100.01 88.3012 99.7801 88.5347 99.6132 88.8116C99.4464 89.0884 99.3472 89.4007 99.3239 89.7231Z" fill="white"/>
<path d="M99.3239 93.874C99.3239 94.4449 99.7664 94.6617 100.284 94.3564L132.522 75.7439C132.794 75.5724 133.023 75.3393 133.189 75.0634C133.355 74.7875 133.454 74.4764 133.478 74.1553C133.478 73.58 133.035 73.3632 132.522 73.6685L100.284 92.2809C100.01 92.4522 99.7801 92.6857 99.6132 92.9625C99.4464 93.2393 99.3472 93.5516 99.3239 93.874Z" fill="white"/>
<path d="M99.3239 98.0248C99.3239 98.5957 99.7664 98.8125 100.284 98.5072L132.522 79.8948C132.794 79.7232 133.023 79.4901 133.189 79.2142C133.355 78.9383 133.454 78.6272 133.478 78.3061C133.478 77.7308 133.035 77.514 132.522 77.8193L100.284 96.4318C100.01 96.603 99.7801 96.8365 99.6132 97.1133C99.4464 97.3902 99.3472 97.7025 99.3239 98.0248Z" fill="white"/>
<path d="M80.7027 94.3519L94.5801 86.3379C95.2174 85.9706 95.7307 86.2671 95.7307 87.0017V100.95C95.7101 101.349 95.5951 101.738 95.3951 102.084C95.1951 102.43 94.9158 102.724 94.5801 102.941L80.7027 110.955C80.0699 111.323 79.5521 111.026 79.5521 110.292V96.3433C79.5734 95.9442 79.6887 95.5557 79.8887 95.2097C80.0886 94.8636 80.3675 94.5697 80.7027 94.3519Z" fill="white"/>
<path d="M91.9427 93.3031L87.814 101.861L85.712 100.644C85.6112 100.587 85.5 100.549 85.3847 100.534C85.2694 100.52 85.1523 100.528 85.0402 100.558C84.928 100.588 84.8229 100.641 84.7309 100.712C84.6389 100.783 84.5618 100.871 84.5039 100.972L79.5521 109.544V110.291C79.5521 111.026 80.0699 111.323 80.7027 110.955L94.5801 102.941C94.9152 102.724 95.1941 102.431 95.3941 102.086C95.5941 101.741 95.7094 101.353 95.7307 100.954V96.0511L92.9384 93.1438C92.8759 93.0611 92.7921 92.9969 92.696 92.9582C92.5999 92.9195 92.495 92.9077 92.3927 92.9241C92.2903 92.9405 92.1944 92.9844 92.1151 93.0512C92.0358 93.1179 91.9762 93.205 91.9427 93.3031Z" fill="#BA68C8"/>
<path d="M81.6364 99.4541C82.4943 98.8953 83.2083 98.1421 83.7204 97.2555C84.2324 96.369 84.5282 95.3742 84.5836 94.3518C84.613 94.0123 84.5619 93.6705 84.4342 93.3544C84.3065 93.0384 84.106 92.757 83.849 92.5331L80.7027 94.3518C80.3675 94.5696 80.0886 94.8635 79.8887 95.2096C79.6887 95.5556 79.5734 95.9441 79.5521 96.3432V99.6621C80.0876 99.9674 80.8222 99.9232 81.6364 99.4541Z" fill="#BA68C8"/>
<path d="M137.075 3.68368V0.864817C137.075 0.130232 136.558 -0.166257 135.925 0.201036L59.1341 44.5372C58.7989 44.755 58.52 45.0489 58.3201 45.3949C58.1201 45.741 58.0048 46.1294 57.9835 46.5285V49.3518L137.075 3.68368Z" fill="#BA68C8"/>
<path d="M127.654 6.05563C127.407 6.21818 127.201 6.43664 127.053 6.69338C126.906 6.95011 126.82 7.23794 126.804 7.53365C126.804 8.07795 127.185 8.29921 127.654 8.02485C127.903 7.86454 128.11 7.64731 128.259 7.39109C128.407 7.13487 128.493 6.847 128.508 6.55126C128.508 6.00696 128.128 5.78569 127.654 6.05563Z" fill="#F5F5F5"/>
<path d="M131.039 4.12628C130.791 4.28834 130.584 4.50658 130.436 4.76335C130.287 5.02012 130.202 5.3082 130.185 5.6043C130.185 6.1486 130.57 6.36543 131.039 6.09549C131.288 5.93422 131.496 5.71617 131.644 5.45924C131.793 5.2023 131.878 4.91382 131.893 4.61748C131.893 4.05105 131.513 3.83421 131.039 4.12628Z" fill="#F5F5F5"/>
<path d="M134.424 2.15277C134.175 2.31308 133.968 2.53031 133.82 2.78653C133.671 3.04275 133.586 3.33062 133.57 3.62637C133.57 4.17067 133.951 4.39193 134.424 4.12199C134.672 3.95944 134.878 3.74099 135.025 3.48425C135.173 3.22751 135.258 2.93968 135.274 2.64397C135.274 2.09967 134.894 1.87841 134.424 2.15277Z" fill="#F5F5F5"/>
<path d="M138.301 140.962C138.435 141.303 138.527 141.658 138.576 142.02C138.7 142.395 138.729 142.795 138.66 143.184C138.362 143.68 137.888 144.047 137.332 144.211C136.937 144.302 136.527 144.309 136.128 144.233C135.73 144.157 135.352 143.999 135.018 143.768C134.208 143.286 133.602 142.697 132.451 142.374C131.631 142.197 130.858 141.846 130.185 141.343C129.548 140.834 128.699 139.418 129.915 139.091C131.132 138.763 133.783 139.918 136.195 140.024L138.301 140.962Z" fill="#263238"/>
<path d="M138.186 139.369C138.186 139.369 138.328 141.06 138.328 141.268C138.328 141.839 136.221 142.595 135.832 141.268L135.496 139.471L138.186 139.369Z" fill="#F28F8F"/>
<path d="M135.602 102.282C136.326 103.347 136.989 104.452 137.589 105.592C137.589 105.592 137.797 108.052 137.797 109.69C137.797 112.699 137.332 115.022 136.912 120.952C137.596 122.118 137.988 123.433 138.053 124.784C138.23 127.47 138.235 127.439 138.253 139.83C137.849 140.047 137.407 140.182 136.951 140.226C136.495 140.27 136.035 140.223 135.597 140.086L131.615 122.735L131.172 115.925L129.924 107.459L135.602 102.282Z" fill="#37474F"/>
<path d="M126.176 144.065C126.318 144.211 126.269 144.507 126.335 144.994C126.409 145.368 126.428 145.751 126.393 146.131C126.161 146.657 125.741 147.078 125.216 147.313C124.834 147.45 124.428 147.508 124.023 147.481C123.618 147.454 123.222 147.344 122.862 147.158C122.003 146.777 121.326 146.273 120.145 146.091C119.308 146.019 118.498 145.767 117.768 145.352C117.074 144.91 116.051 143.626 117.22 143.14C118.388 142.653 121.317 143.525 123.72 143.33L126.176 144.065Z" fill="#263238"/>
<path d="M126.729 141.94C126.729 141.94 126.287 143.87 126.167 144.299C125.902 145.33 123.614 145.383 123.614 144.193L123.769 141.449L126.729 141.94Z" fill="#F28F8F"/>
<path d="M130.438 102.808C131.584 105.061 132.69 107.048 132.725 109.446C132.81 114.522 130.703 120.111 129.929 123.779C130.159 125.107 130.225 126.458 130.123 127.802C129.969 129.337 126.468 143.29 126.468 143.29C126.468 143.29 124.521 143.697 123.694 142.817L124.676 115.951L124.942 108.15L130.438 102.808Z" fill="#37474F"/>
<path d="M128.862 89.0503L129.584 93.0462L133.195 92.7807L132.438 88.2537L128.862 89.0503Z" fill="#FFA8A7"/>
<path d="M137.004 92.4887C136.646 91.4045 135.27 90.223 133.907 90.4797C131.86 90.8276 129.842 91.3306 127.871 91.9843C126.61 92.4268 125.459 93.5286 125.353 97.6795L124.959 108.123C125.504 108.608 126.159 108.954 126.866 109.132C128.782 109.659 130.048 109.973 132.96 109.335C136.752 108.508 137.655 106.211 137.655 106.211C137.655 106.211 137.509 100.684 137.394 97.6795C137.301 95.1261 137.248 93.2366 137.004 92.4887Z" fill="#455A64"/>
<path d="M127.322 83.9481L108.935 78.9609C107.272 78.6732 106.577 82.7356 108.241 83.0188L127.123 84.926L127.322 83.9481Z" fill="#263238"/>
<path d="M122.034 92.3737L118.277 92.4887C118.277 92.4887 118.843 86.8997 119.193 86.1651C119.543 85.4305 120.379 85.28 121.211 85.0455C122.043 84.811 122.038 84.4127 122.038 84.4127L121.291 84.3375C120.636 84.2711 120.375 83.4524 120.658 82.8993C120.795 82.6426 121.016 82.2355 121.414 82.3461L122.406 82.6161C122.421 82.1788 122.312 81.7461 122.092 81.3682C121.76 81.0009 121.538 81.1159 120.875 80.8858C120.383 80.7132 119.379 80.4079 118.569 80.7398C117.759 81.0717 117.144 82.5939 116.936 83.6693C116.726 84.9127 116.385 86.1305 115.918 87.3024C115.197 89.2937 114.148 93.3826 114.038 95.0199C113.989 95.7766 114.06 96.228 114.901 96.4271C115.741 96.6263 121.928 96.6396 121.928 96.6396L122.034 92.3737Z" fill="#FFA8A7"/>
<path d="M126.19 84.3198C126.19 84.3198 125.304 85.612 125.428 85.7536C125.628 85.8869 125.85 85.9842 126.083 86.0412L126.19 84.3198Z" fill="#FFA8A7"/>
<path d="M128.858 80.2398C128.017 80.6823 126.566 81.4479 126.163 84.5278C125.751 87.6874 126.296 88.7052 126.72 89.1256C127.012 89.4088 128.579 89.4265 129.376 89.1876C130.358 88.8955 132.575 88.0503 133.588 86.4262C134.779 84.5145 135.044 81.9568 133.703 80.939C133.021 80.4214 132.219 80.0857 131.371 79.9634C130.523 79.8411 129.659 79.9362 128.858 80.2398Z" fill="#FFA8A7"/>
<path d="M131.332 118.372L133.248 112.955C134.733 112.429 136.064 111.541 137.12 110.371C137.12 110.371 136.677 111.915 133.65 113.5L131.548 118.624V121.474L131.332 118.372Z" fill="#263238"/>
<path d="M125.99 81.2798C126.265 82.0365 126.729 83.8951 128.667 84.6695C128.667 84.6695 128.946 83.4879 129.937 83.6118C130.929 83.7358 131.101 85.0058 130.491 85.7935C129.88 86.5812 129.287 86.2979 129.287 86.2979C129.287 86.2979 129.154 87.9928 130.287 88.7628C130.709 89.0115 131.183 89.1589 131.671 89.1934C132.159 89.228 132.649 89.1487 133.102 88.9619C133.752 88.6654 134.677 87.1033 135.217 85.82C136.358 83.1118 136.522 80.9523 134.774 80.2531C134.557 79.0229 134.004 78.5583 132.889 78.3281C130.491 77.8369 128.676 79.4123 126.663 79.1335C125.632 78.9875 125.672 80.4124 125.99 81.2798Z" fill="#263238"/>
<path d="M134.832 80.6824L135.965 79.9788C135.866 79.8408 135.718 79.7455 135.552 79.7123C135.386 79.6791 135.213 79.7104 135.069 79.7999C134.925 79.8894 134.82 80.0305 134.776 80.1943C134.732 80.3582 134.752 80.5327 134.832 80.6824Z" fill="#263238"/>
<path d="M121.193 92.2985C121.193 92.2985 126.481 91.9932 127.831 91.9843C129.181 91.9755 130.615 94.281 129.774 95.852C129.216 96.883 127.477 97.2371 125.287 97.3433C123.096 97.4495 120.888 97.4495 120.888 97.4495C120.888 97.4495 118.919 95.2059 121.193 92.2985Z" fill="#455A64"/>
<path d="M125.353 97.3433C125.353 97.3433 128.703 97.299 129.8 95.852C129.8 95.852 129.544 96.737 128.243 97.2813C127.31 97.6397 126.328 97.8516 125.331 97.9097L125.353 97.3433Z" fill="#37474F"/>
<path d="M108.935 78.9609C107.272 78.6732 106.577 82.7356 108.241 83.0188L110.896 83.2843C109.816 83.1737 110.564 79.399 111.387 79.6202L108.935 78.9609Z" fill="#455A64"/>
<path d="M175.898 77.877C175.898 78.7008 175.65 79.5055 175.186 80.1862C174.722 80.8669 174.064 81.3921 173.297 81.693C172.53 81.994 171.691 82.0569 170.888 81.8735C170.085 81.6901 169.355 81.2689 168.795 80.6649L168.525 80.3374C167.896 79.4974 167.612 78.4477 167.734 77.4049C167.855 76.3621 168.372 75.4056 169.178 74.733C169.984 74.0603 171.018 73.7227 172.066 73.7898C173.113 73.8568 174.095 74.3235 174.809 75.0935L175.088 75.4299C175.614 76.1375 175.897 76.9955 175.898 77.877Z" fill="#455A64"/>
<path d="M175.898 77.877C175.898 78.7008 175.65 79.5055 175.186 80.1862C174.722 80.8669 174.064 81.392 173.297 81.693C172.53 81.994 171.691 82.0569 170.888 81.8735C170.084 81.6901 169.355 81.2689 168.795 80.6649L168.525 80.3374L151.462 59.7292L158.653 55.5784L174.809 75.0847L175.088 75.421C175.615 76.1311 175.899 76.9925 175.898 77.877Z" fill="#455A64"/>
<path d="M161.781 72.1905C162.498 72.9421 163.473 73.3936 164.51 73.4537C165.547 73.5138 166.568 73.178 167.366 72.5142C168.165 71.8505 168.682 70.9082 168.812 69.8779C168.943 68.8477 168.677 67.8063 168.07 66.9643L165.959 64.4198C166.59 65.2602 166.874 66.3108 166.752 67.3546C166.63 68.3983 166.112 69.3555 165.305 70.0282C164.498 70.7008 163.463 71.0376 162.414 70.969C161.365 70.9003 160.383 70.4314 159.671 69.6592L161.781 72.1905Z" fill="#BA68C8"/>
<path d="M158.378 23.1812C159.667 23.3246 160.912 23.7297 162.038 24.3716L156.847 21.3536C153.365 18.9596 148.351 19.1012 142.779 22.3139C132.261 28.3897 123.729 43.1655 123.729 55.3171C123.729 61.2867 125.76 65.5526 129.11 67.5794L129.181 67.6236L134.721 70.8142C133.739 70.1749 132.882 69.3604 132.194 68.4113C133.559 68.5607 134.94 68.4815 136.279 68.1768C136.766 68.0706 137.257 67.9422 137.757 67.7829C137.691 67.7632 137.628 67.7381 137.567 67.7077C137.3 67.583 137.046 67.4349 136.805 67.2652C136.37 66.9616 135.982 66.5947 135.655 66.1766C135.208 65.604 134.844 64.9708 134.575 64.2959C134.215 64.348 133.851 64.3746 133.486 64.3755C132.625 64.3927 131.77 64.2221 130.982 63.8755C130.797 63.791 130.619 63.695 130.446 63.5878C130.291 63.4905 130.137 63.3754 130.004 63.2604C129.684 61.7624 129.528 60.2341 129.539 58.7024C129.539 46.5552 138.071 31.775 148.599 25.6992C149.943 24.9151 151.367 24.2772 152.847 23.7963C153.246 23.9593 153.621 24.1751 153.962 24.438C154.323 24.7152 154.649 25.0363 154.931 25.3938C155.38 25.9678 155.745 26.6025 156.015 27.279C156.377 27.2283 156.743 27.2031 157.108 27.2038C158.109 27.1769 159.098 27.4167 159.976 27.8985C160.198 28.0195 160.409 28.1586 160.609 28.3145C160.529 27.9605 160.445 27.6109 160.343 27.279C159.943 25.8048 159.277 24.416 158.378 23.1812Z" fill="#263238"/>
<path d="M162.038 24.3716L161.737 24.2079C160.691 23.66 159.552 23.3119 158.378 23.1812C157.119 23.0408 155.845 23.099 154.604 23.3538C154.006 23.4672 153.415 23.6149 152.834 23.7964C151.354 24.2772 149.929 24.9151 148.585 25.6992C138.058 31.775 129.526 46.5552 129.526 58.7024C129.515 60.2341 129.671 61.7624 129.991 63.2604C130.048 63.5303 130.115 63.787 130.181 64.0436C130.575 65.6099 131.26 67.0884 132.199 68.4024C132.618 68.9807 133.1 69.5106 133.637 69.9823C133.979 70.2831 134.343 70.5582 134.726 70.8053C138.199 73.0489 143.133 72.8542 148.576 69.7035C159.104 63.6276 167.636 48.8519 167.636 36.7003C167.631 30.6244 165.494 26.3541 162.038 24.3716ZM159.958 27.9118C160.18 28.0328 160.392 28.1719 160.591 28.3278C160.925 28.5988 161.229 28.9043 161.498 29.2394C162.826 30.9032 163.529 33.492 163.529 36.7135C163.529 47.334 155.741 60.8398 146.523 66.1633C144.2 67.4909 141.965 68.2166 140.067 68.2166C139.275 68.2259 138.489 68.0754 137.757 67.7741C137.691 67.7544 137.628 67.7292 137.567 67.6988C137.3 67.5741 137.046 67.4261 136.805 67.2563C136.507 67.0467 136.231 66.8065 135.982 66.5394C135.872 66.4244 135.766 66.296 135.659 66.1677C135.212 65.5952 134.848 64.9619 134.58 64.287C133.905 62.5012 133.584 60.6017 133.633 58.6935C133.633 58.5519 133.633 58.4148 133.633 58.251C133.827 47.6748 141.532 34.4744 150.63 29.2261C150.838 29.1066 151.05 28.9871 151.263 28.8765C152.73 28.0569 154.332 27.5069 155.993 27.2524C156.355 27.2017 156.721 27.1766 157.086 27.1772C157.874 27.1704 158.654 27.3209 159.383 27.6197C159.582 27.699 159.775 27.7953 159.958 27.9074V27.9118Z" fill="#455A64"/>
<path opacity="0.6" d="M161.75 35.4833C161.75 46.1038 153.962 59.6095 144.744 64.9331C142.421 66.2606 140.191 66.9864 138.288 66.9864C137.497 66.9957 136.713 66.8451 135.982 66.5438C135.872 66.4288 135.765 66.3005 135.659 66.1721C135.212 65.5996 134.848 64.9664 134.579 64.2914C133.905 62.5056 133.584 60.6061 133.632 58.698C133.632 58.5563 133.632 58.4192 133.632 58.2554C133.827 47.6792 141.531 34.4788 150.63 29.2305C150.838 29.111 151.05 28.9915 151.262 28.8809C152.73 28.0613 154.332 27.5113 155.993 27.2568C156.355 27.2061 156.72 27.181 157.086 27.1816C157.873 27.1748 158.654 27.3253 159.383 27.6241C159.502 27.7436 159.613 27.8719 159.719 28.0003C161.047 29.673 161.75 32.2618 161.75 35.4833Z" fill="white"/>
</svg>
