<svg width="74" height="74" viewBox="0 0 74 74" fill="none" xmlns="http://www.w3.org/2000/svg">
<circle cx="36.5" cy="37.5" r="36.5" fill="#F2F7FF"/>
<path d="M32.5 19C29.635 19 27.3145 21.0805 26.734 23.782C23.236 24.406 20.5 27.325 20.5 31C20.5 31.369 20.5405 31.6975 20.5945 32.032C19.627 33.454 19 35.1295 19 37C19 39.6955 20.3425 41.9635 22.234 43.609C22.099 44.143 22 44.6755 22 45.25C22 48.9595 25.0405 52 28.75 52H28.8445C29.7175 53.6935 31.2295 55 33.25 55C33.9499 54.9984 34.6424 54.8565 35.2865 54.5826C35.9306 54.3087 36.5133 53.9085 37 53.4055C37.4867 53.9085 38.0694 54.3087 38.7135 54.5826C39.3576 54.8565 40.0501 54.9984 40.75 55C42.772 55 44.2825 53.6935 45.157 52H45.25C48.772 52 51.6595 49.258 51.9535 45.8125H52C52 45.718 51.9595 45.625 51.9535 45.5305C51.9595 45.4375 52 45.343 52 45.25C52 44.6935 51.8005 44.218 51.6715 43.7035C53.617 42.0505 55 39.7435 55 37C55 35.131 54.373 33.4555 53.4055 32.0305C53.4595 31.6975 53.5 31.3705 53.5 31C53.5 27.325 50.764 24.4075 47.266 23.7805C46.6855 21.082 44.365 19 41.5 19C39.7 19 38.101 19.8385 37 21.109C35.899 19.84 34.3 19 32.5 19ZM32.5 22C34.1755 22 35.5 23.3245 35.5 25V28C35.5 30.502 33.502 32.5 31 32.5V35.5C32.6995 35.5 34.24 34.915 35.5 33.9535V49.75C35.5 51.01 34.51 52 33.25 52C32.7252 52.0073 32.215 51.8272 31.8111 51.4921C31.4072 51.1569 31.1361 50.6887 31.0465 50.1715L30.766 48.7195L29.3125 48.9535C28.7784 49.0379 28.2324 49.0051 27.7122 48.8575C27.1921 48.71 26.7102 48.4511 26.3 48.0988C25.8898 47.7465 25.5611 47.3093 25.3366 46.8174C25.1122 46.3255 24.9973 45.7907 25 45.25C25 44.7865 25.075 44.353 25.234 43.9375C25.246 43.903 25.27 43.8775 25.2805 43.843C25.7455 42.6895 26.752 41.845 28 41.593L27.391 38.641C25.8601 38.9434 24.4834 39.7724 23.5 40.984C22.5247 39.8871 21.9903 38.4678 22 37C21.9974 35.6511 22.4611 34.3428 23.3125 33.2965L23.782 32.734L23.641 31.984C23.556 31.6626 23.5087 31.3324 23.5 31C23.5 28.498 25.498 26.5 28 26.5H29.5V25C29.5 23.3245 30.8245 22 32.5 22ZM41.5 22C43.1755 22 44.5 23.3245 44.5 25V26.5H46C48.502 26.5 50.5 28.498 50.5 31C50.5 31.3225 50.44 31.633 50.359 31.984L50.2195 32.734L50.6875 33.2965C51.5389 34.3428 52.0026 35.6511 52 37C52 38.8 51.232 40.405 49.984 41.5C48.9595 40.5925 47.653 40 46.1875 40C44.77 40 43.492 40.504 42.484 41.359L44.407 43.657C44.9019 43.2305 45.5342 42.9971 46.1875 43C47.635 43 48.7885 44.0845 48.9535 45.484C48.8305 47.4595 47.254 49 45.25 49C45.115 49 44.95 48.994 44.6875 48.9535L43.234 48.718L42.9535 50.173C42.8636 50.6899 42.5924 51.1578 42.1885 51.4926C41.7846 51.8275 41.2746 52.0074 40.75 52C39.49 52 38.5 51.01 38.5 49.75V33.9535C39.7878 34.9522 41.3703 35.496 43 35.5V32.5C40.498 32.5 38.5 30.502 38.5 28V25C38.5 23.3245 39.8245 22 41.5 22Z" fill="#18A0FB"/>
</svg>
