<svg width="74" height="74" viewBox="0 0 74 74" fill="none" xmlns="http://www.w3.org/2000/svg">
<circle cx="36.5" cy="37.5" r="36.5" fill="#F2F7FF"/>
<path d="M37 47C42.5228 47 47 42.5228 47 37C47 31.4772 42.5228 27 37 27C31.4772 27 27 31.4772 27 37C27 42.5228 31.4772 47 37 47Z" stroke="#18A0FB" stroke-width="3" stroke-linecap="round" stroke-linejoin="round"/>
<path d="M35 19H39M37 27V19V27Z" stroke="#18A0FB" stroke-width="3" stroke-linecap="round" stroke-linejoin="round"/>
<path d="M48.314 22.8579L51.142 25.6859M44.072 29.9279L49.728 24.2719L44.072 29.9279Z" stroke="#18A0FB" stroke-width="3" stroke-linecap="round" stroke-linejoin="round"/>
<path d="M55 35V39M47 37H55H47Z" stroke="#18A0FB" stroke-width="3" stroke-linecap="round" stroke-linejoin="round"/>
<path d="M51.142 48.3138L48.314 51.1418M44.072 44.0718L49.728 49.7278L44.072 44.0718Z" stroke="#18A0FB" stroke-width="3" stroke-linecap="round" stroke-linejoin="round"/>
<path d="M39 55H35M37 47V55V47Z" stroke="#18A0FB" stroke-width="3" stroke-linecap="round" stroke-linejoin="round"/>
<path d="M25.6861 51.1418L22.8601 48.3138M29.9281 44.0718L24.2721 49.7278L29.9281 44.0718Z" stroke="#18A0FB" stroke-width="3" stroke-linecap="round" stroke-linejoin="round"/>
<path d="M19 39V35M27 37H19H27Z" stroke="#18A0FB" stroke-width="3" stroke-linecap="round" stroke-linejoin="round"/>
<path d="M22.8579 25.6859L25.6859 22.8599M29.9279 29.9279L24.2719 24.2719L29.9279 29.9279Z" stroke="#18A0FB" stroke-width="3" stroke-linecap="round" stroke-linejoin="round"/>
</svg>
