<svg width="164" height="149" viewBox="0 0 164 149" fill="none" xmlns="http://www.w3.org/2000/svg">
<path d="M81.5171 142.131C126.538 142.131 163.034 121.059 163.034 95.0653C163.034 69.0718 126.538 48 81.5171 48C36.4965 48 0 69.0718 0 95.0653C0 121.059 36.4965 142.131 81.5171 142.131Z" fill="white"/>
<path d="M76.6361 140.779C89.7498 136.458 99.2596 129.554 97.8769 125.358C96.4943 121.161 84.7427 121.262 71.6291 125.583C58.5155 129.904 49.0056 136.808 50.3883 141.004C51.7709 145.201 63.5225 145.1 76.6361 140.779Z" fill="#F4F4F4"/>
<path d="M141.5 85C147.851 85 153 82.0898 153 78.5C153 74.9101 147.851 72 141.5 72C135.149 72 130 74.9101 130 78.5C130 82.0898 135.149 85 141.5 85Z" fill="#F4F4F4"/>
<path d="M34.094 85.7912C41.6124 85.7912 47.7073 82.2924 47.7073 77.9764C47.7073 73.6604 41.6124 70.1616 34.094 70.1616C26.5756 70.1616 20.4807 73.6604 20.4807 77.9764C20.4807 82.2924 26.5756 85.7912 34.094 85.7912Z" fill="#F4F4F4"/>
<path d="M40.1263 74.8162C40.9034 71.524 38.8644 68.2253 35.5722 67.4483C32.2801 66.6712 28.9813 68.7102 28.2043 72.0024C27.4273 75.2945 29.4662 78.5933 32.7584 79.3703C36.0506 80.1473 39.3493 78.1084 40.1263 74.8162Z" fill="#455A64"/>
<path d="M43.5764 65.354C43.5674 64.8512 43.6072 64.3487 43.6952 63.8536C44.0516 62.2124 43.1452 60.5008 40.9628 59.2424C37.2096 57.0732 31.1244 57.0732 27.3711 59.2424C25.1711 60.5008 24.2911 62.2124 24.6387 63.8536C24.7267 64.3487 24.7665 64.8512 24.7575 65.354C24.7622 65.5731 24.7887 65.7913 24.8367 66.0052C24.9488 66.4773 25.0151 66.9591 25.0347 67.444C25.0436 67.668 25.0745 67.8905 25.1271 68.1084C25.2352 68.5524 25.2957 69.0067 25.3075 69.4636C25.3174 69.6744 25.3483 69.8837 25.3999 70.0884C25.5062 70.5328 25.5666 70.9869 25.5803 71.4436C25.6375 72.6712 26.4603 73.8856 28.0927 74.8228C31.4544 76.7588 36.8928 76.7588 40.2588 74.8228C41.878 73.8856 42.714 72.6712 42.7712 71.4436C42.7872 70.9871 42.8476 70.5332 42.9516 70.0884C42.9988 69.8906 43.0268 69.6887 43.0352 69.4856C43.047 69.0287 43.1075 68.5744 43.2156 68.1304C43.2682 67.9125 43.2991 67.6899 43.308 67.466C43.3279 66.9797 43.3942 66.4964 43.506 66.0228C43.5528 65.8029 43.5764 65.5788 43.5764 65.354Z" fill="#BA68C8"/>
<path opacity="0.8" d="M43.5764 65.354C43.5674 64.8512 43.6072 64.3487 43.6952 63.8536C44.0516 62.2124 43.1452 60.5008 40.9628 59.2424C37.2096 57.0732 31.1244 57.0732 27.3711 59.2424C25.1711 60.5008 24.2911 62.2124 24.6387 63.8536C24.7267 64.3487 24.7665 64.8512 24.7575 65.354C24.7622 65.5731 24.7887 65.7913 24.8367 66.0052C24.9488 66.4773 25.0151 66.9591 25.0347 67.444C25.0436 67.668 25.0745 67.8905 25.1271 68.1084C25.2352 68.5524 25.2957 69.0067 25.3075 69.4636C25.3174 69.6744 25.3483 69.8837 25.3999 70.0884C25.5062 70.5328 25.5666 70.9869 25.5803 71.4436C25.6375 72.6712 26.4603 73.8856 28.0927 74.8228C31.4544 76.7588 36.8928 76.7588 40.2588 74.8228C41.878 73.8856 42.714 72.6712 42.7712 71.4436C42.7872 70.9871 42.8476 70.5332 42.9516 70.0884C42.9988 69.8906 43.0268 69.6887 43.0352 69.4856C43.047 69.0287 43.1075 68.5744 43.2156 68.1304C43.2682 67.9125 43.2991 67.6899 43.308 67.466C43.3279 66.9797 43.3942 66.4964 43.506 66.0228C43.5528 65.8029 43.5764 65.5788 43.5764 65.354Z" fill="white"/>
<g opacity="0.2">
<path opacity="0.2" d="M40.633 71.0784C38.6297 72.0936 36.4153 72.6226 34.1694 72.6226C31.9235 72.6226 29.7092 72.0936 27.7058 71.0784C26.7869 70.594 26.0172 69.8684 25.4794 68.9796C25.337 68.6975 25.2207 68.4029 25.1318 68.0996C25.2364 68.5427 25.2953 68.9953 25.3078 69.4504C25.3168 69.6657 25.3477 69.8795 25.4002 70.0884C25.4002 70.1104 25.4002 70.1368 25.4002 70.1588C25.9007 71.3476 26.775 72.3408 27.8906 72.988C29.8344 73.9716 31.9822 74.4841 34.1606 74.4841C36.3391 74.4841 38.4869 73.9716 40.4306 72.988C41.5434 72.3426 42.416 71.3526 42.9166 70.1676C42.9166 70.1412 42.9166 70.1148 42.9166 70.0884C42.9639 69.8906 42.9919 69.6888 43.0002 69.4856C43.0121 69.0287 43.0725 68.5744 43.1807 68.1304C43.0927 68.4347 42.9748 68.7294 42.8286 69.0104C42.295 69.8838 41.5368 70.5979 40.633 71.0784Z" fill="#BA68C8"/>
<path opacity="0.2" d="M43.4973 66.0009C43.5456 65.7885 43.5721 65.5718 43.5765 65.3541C43.5676 64.8513 43.6074 64.3488 43.6953 63.8537C43.6186 64.1549 43.517 64.4492 43.3917 64.7337C42.8314 65.742 41.9887 66.5647 40.9673 67.1009C38.8602 68.1682 36.5313 68.7244 34.1693 68.7244C31.8073 68.7244 29.4784 68.1682 27.3713 67.1009C26.3526 66.5616 25.5143 65.7355 24.9601 64.7248C24.8303 64.4417 24.7272 64.1471 24.6521 63.8448C24.7402 64.3385 24.78 64.8395 24.7709 65.3409C24.7755 65.56 24.8021 65.7782 24.8501 65.9921C24.8484 66.0067 24.8484 66.0214 24.8501 66.036C25.3575 67.3379 26.2975 68.4254 27.5121 69.1161C29.5628 70.1998 31.8546 70.7462 34.1737 70.7045C36.4926 70.7451 38.7842 70.1987 40.8353 69.1161C42.0405 68.4202 42.9719 67.3335 43.4753 66.036C43.4837 66.025 43.4911 66.0133 43.4973 66.0009Z" fill="#BA68C8"/>
</g>
<path d="M34.1692 8.00001C27.7591 8.00001 21.6116 10.5464 17.079 15.079C12.5464 19.6116 10 25.7592 10 32.1692C10 51.3532 25.84 54.5388 25.84 62.274C25.84 63.506 26.654 64.738 28.282 65.6752C31.538 67.5584 36.8136 67.5584 40.074 65.6752C41.702 64.738 42.516 63.506 42.516 62.274C42.516 54.5388 58.356 51.3532 58.356 32.1692C58.3566 28.9936 57.7313 25.8491 56.5158 22.9153C55.3002 19.9816 53.5184 17.3162 51.2721 15.0715C49.0258 12.8268 46.3591 11.0469 43.4245 9.83355C40.4898 8.62017 37.3448 7.99712 34.1692 8.00001Z" fill="#BA68C8"/>
<g style="mix-blend-mode:screen" opacity="0.3">
<path d="M34.1692 8.00001C27.7591 8.00001 21.6116 10.5464 17.079 15.079C12.5464 19.6116 10 25.7592 10 32.1692C10 51.3532 25.84 54.5388 25.84 62.274C25.84 63.506 26.654 64.738 28.282 65.6752C31.538 67.5584 36.8136 67.5584 40.074 65.6752C41.702 64.738 42.516 63.506 42.516 62.274C42.516 54.5388 58.356 51.3532 58.356 32.1692C58.3566 28.9936 57.7313 25.8491 56.5158 22.9153C55.3002 19.9816 53.5184 17.3162 51.2721 15.0715C49.0258 12.8268 46.3591 11.0469 43.4245 9.83355C40.4898 8.62017 37.3448 7.99712 34.1692 8.00001Z" fill="white"/>
</g>
<path opacity="0.1" d="M29.3599 65.0593C26.6935 63.5193 26.6935 61.0245 29.3599 59.4845C32.0263 57.9445 36.3515 57.9445 39.0399 59.4845C41.7283 61.0245 41.7063 63.5193 39.0399 65.0593C36.3735 66.5993 31.9999 66.5993 29.3599 65.0593Z" fill="black"/>
<g style="mix-blend-mode:screen" opacity="0.3">
<path d="M17.6648 23.8488C13.7488 23.8488 10.8184 31.7908 14.1756 41.0088C17.5328 50.2268 22.9756 52.9284 26.72 51.758C30.4644 50.5876 31.3224 41.0836 28.4272 34.0436C25.1052 25.952 21.2728 23.8444 17.6648 23.8488Z" fill="white"/>
</g>
<path d="M146 73.9909C146 74.8435 145.744 75.6765 145.263 76.3811C144.783 77.0858 144.102 77.6293 143.308 77.9408C142.514 78.2524 141.645 78.3175 140.814 78.1277C139.983 77.9378 139.228 77.5018 138.648 76.8766L138.369 76.5376C137.717 75.6682 137.423 74.5816 137.549 73.5022C137.675 72.4227 138.21 71.4328 139.045 70.7365C139.879 70.0402 140.949 69.6907 142.033 69.7601C143.118 69.8296 144.134 70.3127 144.873 71.1097L145.162 71.4578C145.706 72.1903 146 73.0784 146 73.9909Z" fill="#455A64"/>
<path d="M147 76.9908C147 77.8434 146.744 78.6764 146.264 79.381C145.783 80.0857 145.102 80.6292 144.308 80.9407C143.515 81.2523 142.645 81.3174 141.814 81.1276C140.983 80.9377 140.228 80.5017 139.648 79.8765L139.369 79.5375L121.706 58.206L129.15 53.9094L145.873 74.1004L146.162 74.4486C146.708 75.1836 147.002 76.0752 147 76.9908Z" fill="#455A64"/>
<path d="M132.388 71.1047C133.13 71.8827 134.139 72.35 135.212 72.4123C136.286 72.4745 137.342 72.1269 138.169 71.4398C138.996 70.7528 139.531 69.7774 139.666 68.711C139.801 67.6446 139.526 66.5667 138.897 65.6951L136.712 63.0613C137.365 63.9312 137.659 65.0187 137.533 66.0991C137.407 67.1795 136.871 68.1702 136.035 68.8665C135.2 69.5628 134.128 69.9114 133.043 69.8404C131.957 69.7693 130.941 69.2839 130.203 68.4846L132.388 71.1047Z" fill="#BA68C8"/>
<path d="M127.866 17.3754C129.199 17.5238 130.488 17.9431 131.654 18.6076L126.281 15.4836C122.676 13.0056 117.486 13.1521 111.719 16.4776C100.831 22.7667 92 38.0611 92 50.6393C92 56.8184 94.1025 61.2341 97.5699 63.3319L97.6432 63.3777L103.378 66.6803C102.361 66.0186 101.475 65.1755 100.763 64.1931C102.176 64.3478 103.604 64.2657 104.99 63.9503C105.494 63.8404 106.003 63.7075 106.52 63.5426C106.453 63.5223 106.387 63.4962 106.323 63.4648C106.048 63.3357 105.784 63.1824 105.536 63.0067C105.085 62.6925 104.683 62.3127 104.345 61.8799C103.882 61.2873 103.505 60.6318 103.227 59.9332C102.854 59.9871 102.477 60.0147 102.1 60.0156C101.209 60.0335 100.324 59.8568 99.5075 59.498C99.3166 59.4106 99.1315 59.3112 98.9533 59.2003C98.793 59.0995 98.6326 58.9804 98.4952 58.8613C98.1639 57.3108 98.0026 55.7288 98.0143 54.1434C98.0143 41.5698 106.846 26.2708 117.743 19.9817C119.134 19.1701 120.608 18.5098 122.14 18.0121C122.553 18.1807 122.941 18.4041 123.294 18.6763C123.668 18.9632 124.005 19.2956 124.297 19.6657C124.762 20.2597 125.14 20.9167 125.42 21.617C125.794 21.5645 126.173 21.5384 126.551 21.5391C127.587 21.5113 128.611 21.7595 129.519 22.2582C129.749 22.3835 129.968 22.5275 130.174 22.6888C130.092 22.3224 130.005 21.9605 129.899 21.617C129.486 20.091 128.796 18.6535 127.866 17.3754Z" fill="#263238"/>
<path d="M131.654 18.6077L131.342 18.4382C130.26 17.8711 129.081 17.5107 127.866 17.3755C126.562 17.2301 125.244 17.2904 123.959 17.5542C123.339 17.6715 122.728 17.8244 122.126 18.0122C120.594 18.5099 119.12 19.1702 117.729 19.9818C106.832 26.2709 98.0006 41.5699 98.0006 54.1435C97.989 55.729 98.1502 57.311 98.4816 58.8615C98.5411 59.1409 98.6098 59.4065 98.6785 59.6722C99.0867 61.2935 99.7951 62.8239 100.767 64.184C101.201 64.7826 101.701 65.3311 102.256 65.8193C102.61 66.1307 102.987 66.4154 103.383 66.6713C106.978 68.9936 112.086 68.7921 117.72 65.5307C128.617 59.2416 137.448 43.9472 137.448 31.3691C137.444 25.08 135.231 20.6598 131.654 18.6077ZM129.501 22.2721C129.731 22.3973 129.95 22.5414 130.156 22.7027C130.501 22.9832 130.816 23.2995 131.095 23.6463C132.469 25.3686 133.197 28.0482 133.197 31.3828C133.197 42.3761 125.136 56.3559 115.594 61.8663C113.19 63.2405 110.876 63.9917 108.911 63.9917C108.092 64.0013 107.279 63.8455 106.52 63.5336C106.453 63.5132 106.387 63.4872 106.323 63.4557C106.048 63.3267 105.784 63.1734 105.536 62.9977C105.226 62.7808 104.941 62.532 104.684 62.2556C104.569 62.1365 104.459 62.0037 104.349 61.8709C103.886 61.2783 103.51 60.6228 103.232 59.9241C102.534 58.0757 102.201 56.1095 102.251 54.1343C102.251 53.9878 102.251 53.8458 102.251 53.6763C102.453 42.7288 110.428 29.0651 119.845 23.6325C120.06 23.5089 120.28 23.3852 120.5 23.2707C122.019 22.4223 123.677 21.853 125.397 21.5896C125.772 21.5371 126.15 21.5111 126.528 21.5117C127.343 21.5047 128.151 21.6604 128.905 21.9698C129.112 22.0519 129.311 22.1515 129.501 22.2675V22.2721Z" fill="#455A64"/>
<path opacity="0.6" d="M131.356 30.1093C131.356 41.1026 123.294 55.0824 113.753 60.5928C111.348 61.967 109.04 62.7182 107.07 62.7182C106.252 62.7278 105.44 62.572 104.684 62.2601C104.569 62.141 104.459 62.0082 104.349 61.8754C103.886 61.2827 103.51 60.6273 103.232 59.9286C102.534 58.0801 102.201 56.114 102.251 54.1388C102.251 53.9922 102.251 53.8502 102.251 53.6808C102.453 42.7333 110.428 29.0695 119.845 23.637C120.06 23.5133 120.28 23.3897 120.5 23.2751C122.019 22.4268 123.677 21.8575 125.397 21.5941C125.772 21.5416 126.15 21.5156 126.528 21.5162C127.343 21.5092 128.151 21.6649 128.905 21.9743C129.029 22.0979 129.144 22.2308 129.254 22.3636C130.628 24.0951 131.356 26.7747 131.356 30.1093Z" fill="white"/>
<path d="M54.7704 131.432L51.0886 137.825C50.8467 138.225 50.7734 138.704 50.8849 139.158C50.9964 139.612 51.2835 140.002 51.6831 140.244C52.0827 140.486 52.562 140.559 53.0157 140.448C53.4693 140.337 53.8601 140.049 54.102 139.65L57.8057 133.218C58.1618 132.604 57.7783 131.711 56.9455 131.229C56.1128 130.747 55.1266 130.834 54.7704 131.432Z" fill="#455A64"/>
<path d="M84.0715 120.172L90.4653 123.854C90.6618 123.976 90.8806 124.057 91.1089 124.093C91.3372 124.13 91.5704 124.12 91.795 124.066C92.0196 124.011 92.231 123.912 92.417 123.775C92.6029 123.637 92.7598 123.464 92.8783 123.266C92.9968 123.068 93.0746 122.847 93.1072 122.619C93.1398 122.39 93.1265 122.157 93.0682 121.933C93.0099 121.709 92.9076 121.5 92.7674 121.316C92.6271 121.132 92.4517 120.978 92.2514 120.863L85.8192 117.186C85.2056 116.83 84.3125 117.214 83.8304 118.047C83.3483 118.879 83.4578 119.816 84.0715 120.172Z" fill="#455A64"/>
<path d="M91.1556 91.3482H91.1227L75.5463 82.3574H75.5025C72.0837 80.4124 67.3719 80.7137 62.1724 83.7052C51.7242 89.7319 43.2539 104.41 43.2539 116.474C43.2539 122.501 45.3633 126.714 48.7656 128.698H48.793L64.3694 137.694H64.4078C67.8266 139.65 72.5439 139.338 77.7488 136.352C88.1915 130.325 96.6618 115.647 96.6618 103.588C96.6618 97.5612 94.558 93.3315 91.1556 91.3482Z" fill="#BA68C8"/>
<path opacity="0.1" d="M64.1175 137.513L48.7767 128.67H48.7438C45.3414 126.681 43.2375 122.452 43.2375 116.447C43.2375 111.067 44.925 105.171 47.7138 99.7582L63.2902 108.749C60.496 114.162 58.8139 120.057 58.8139 125.438C58.8249 131.3 60.8411 135.475 64.1175 137.513Z" fill="black"/>
<path opacity="0.4" d="M91.1241 122.215C98.5118 109.419 98.5122 95.5881 91.1251 91.3231C83.7379 87.0581 71.7605 93.9738 64.3727 106.77C56.985 119.566 56.9846 133.396 64.3718 137.661C71.759 141.926 83.7364 135.01 91.1241 122.215Z" fill="white"/>
<path d="M69.295 135.086C63.312 135.086 62.6655 128.325 62.6655 125.416C62.6655 114.776 70.451 101.309 79.65 95.9723C81.9949 94.619 84.2522 93.9067 86.1808 93.9067C92.1637 93.9067 92.8102 100.668 92.8102 103.577C92.8102 114.217 85.0248 127.684 75.8257 133.02C73.4753 134.374 71.218 135.086 69.295 135.086Z" fill="#FAFAFA"/>
<path d="M73.552 126.824C73.523 126.829 73.4933 126.829 73.4643 126.824C73.3959 126.799 73.3399 126.748 73.3082 126.683C73.2765 126.617 73.2716 126.542 73.2945 126.473L77.4858 114.502C77.5098 114.433 77.5602 114.376 77.626 114.344C77.6917 114.312 77.7675 114.308 77.8365 114.332C77.9055 114.356 77.9622 114.406 77.994 114.472C78.0259 114.538 78.0303 114.614 78.0063 114.683L73.8259 126.637C73.8077 126.695 73.7708 126.744 73.7211 126.778C73.6715 126.812 73.6119 126.828 73.552 126.824Z" fill="#BA68C8"/>
<path d="M84.0276 118.112C83.9163 118.114 83.806 118.092 83.7044 118.047L76.927 115.115V102.821C76.927 102.603 77.0136 102.394 77.1677 102.24C77.3218 102.086 77.5309 101.999 77.7488 101.999C77.9668 101.999 78.1758 102.086 78.33 102.24C78.4841 102.394 78.5707 102.603 78.5707 102.821V114.036L84.3563 116.54C84.5278 116.616 84.668 116.749 84.7534 116.916C84.8389 117.084 84.8646 117.275 84.8262 117.459C84.7877 117.642 84.6876 117.808 84.5423 117.926C84.397 118.045 84.2153 118.111 84.0276 118.112Z" fill="#37474F"/>
<path d="M77.7487 111.927C78.976 111.214 79.9731 111.79 79.9731 113.209C79.9275 113.977 79.7025 114.725 79.3162 115.391C78.93 116.056 78.3931 116.623 77.7487 117.044C76.516 117.756 75.5188 117.181 75.5188 115.756C75.5659 114.988 75.7921 114.242 76.1793 113.577C76.5665 112.912 77.104 112.347 77.7487 111.927Z" fill="#BA68C8"/>
<path d="M59.6465 103.106C56.9619 107.746 51.9049 109.85 48.1026 107.653C45.8721 106.364 44.2453 104.241 43.58 101.752C42.9147 99.2626 43.2654 96.6111 44.555 94.3807C45.8446 92.1502 47.9675 90.5233 50.4566 89.8581C52.9457 89.1928 55.5971 89.5435 57.8276 90.8331C61.6189 93.0794 62.3202 98.4597 59.6465 103.106Z" fill="#455A64"/>
<path d="M48.1026 107.653C51.9049 109.845 56.9619 107.746 59.6466 103.106C60.2463 102.065 60.6911 100.943 60.967 99.7746C60.8136 99.9773 56.3428 105.675 50.7873 104.07C45.1331 102.426 44.0702 98.0816 44.5578 94.3779C43.9186 95.4823 43.5033 96.7018 43.3356 97.9667C43.1678 99.2316 43.2509 100.517 43.58 101.75C43.9092 102.983 44.4781 104.139 45.2541 105.151C46.0301 106.164 46.998 107.014 48.1026 107.653Z" fill="#37474F"/>
<path d="M46.5412 93.4355L43.6593 91.7919C43.4628 91.6702 43.244 91.5889 43.0157 91.5526C42.7874 91.5163 42.5542 91.5258 42.3296 91.5806C42.1051 91.6353 41.8936 91.7342 41.7076 91.8715C41.5217 92.0087 41.3649 92.1816 41.2464 92.3801C41.1279 92.5786 41.05 92.7986 41.0174 93.0275C40.9848 93.2563 40.9981 93.4894 41.0564 93.713C41.1148 93.9367 41.217 94.1465 41.3572 94.3303C41.4975 94.514 41.6729 94.668 41.8732 94.7833L44.788 96.4708C45.4071 96.8269 46.3001 96.4434 46.7823 95.6106C47.2644 94.7778 47.1548 93.7917 46.5412 93.4355Z" fill="#BA68C8"/>
<path d="M89.5282 79.5357L91.1719 76.6593C91.2936 76.4628 91.3749 76.244 91.4112 76.0157C91.4475 75.7874 91.4379 75.5542 91.3832 75.3296C91.3284 75.1051 91.2296 74.8936 91.0923 74.7076C90.955 74.5217 90.7821 74.3649 90.5837 74.2464C90.3852 74.1279 90.1651 74.05 89.9363 74.0174C89.7075 73.9848 89.4744 73.9981 89.2508 74.0564C89.0271 74.1147 88.8173 74.217 88.6335 74.3572C88.4498 74.4975 88.2957 74.6729 88.1804 74.8732L86.4929 77.788C86.1368 78.4016 86.493 79.2947 87.3531 79.7768C88.2133 80.2589 89.1666 80.1548 89.5282 79.5357Z" fill="#BA68C8"/>
<path d="M75.6064 80.7247C76.245 79.6184 77.0952 78.6488 78.1085 77.8712C79.1217 77.0935 80.2783 76.523 81.512 76.1924C82.7457 75.8617 84.0325 75.7772 85.2989 75.9438C86.5653 76.1104 87.7865 76.5248 88.8927 77.1634C89.9989 77.8019 90.9685 78.6521 91.7462 79.6654C92.5238 80.6787 93.0943 81.8352 93.425 83.069C93.7557 84.3027 93.8401 85.5895 93.6735 86.8559C93.5069 88.1222 93.0925 89.3434 92.4539 90.4496L75.6064 80.7247Z" fill="#455A64"/>
<path d="M90.3173 78.1989C90.8652 79.3439 92.3554 84.1927 90.3173 85.3981C88.2791 86.6034 78.8665 82.6039 78.8665 82.6039L92.454 90.4496C93.5857 88.4798 93.9916 86.1757 93.6013 83.9378C93.2109 81.6998 92.049 79.6692 90.3173 78.1989Z" fill="#37474F"/>
</svg>
