<svg width="96" height="96" viewBox="0 0 96 96" fill="none" xmlns="http://www.w3.org/2000/svg">
<path opacity="0.5" d="M53.3426 95.7017C62.7762 94.6451 71.6848 90.8152 78.9419 84.696C86.199 78.5769 91.4788 70.4434 94.1137 61.3238C96.7487 52.2042 96.6205 42.5081 93.7453 33.4614C90.8701 24.4147 85.377 16.4237 77.9607 10.4986C70.5443 4.57346 61.5376 0.980411 52.0793 0.173683C42.621 -0.633046 33.1359 1.38278 24.8232 5.96628C16.5105 10.5498 9.74349 17.4951 5.37773 25.9242C1.01197 34.3533 -0.756485 43.8877 0.295958 53.3217C0.995015 59.5881 2.92181 65.6553 5.96629 71.1768C9.01076 76.6983 13.1132 81.5659 18.0394 85.5014C22.9655 89.437 28.6188 92.3635 34.6762 94.1137C40.7337 95.8639 47.0766 96.4035 53.3426 95.7017Z" fill="white"/>
<path d="M77.2694 40.1884H18.7494C17.9247 40.1884 17.2561 40.8569 17.2561 41.6817V66.0883C17.2561 66.9131 17.9247 67.5817 18.7494 67.5817H77.2694C78.0942 67.5817 78.7628 66.9131 78.7628 66.0883V41.6817C78.7628 40.8569 78.0942 40.1884 77.2694 40.1884Z" fill="#18A0FB"/>
<path d="M55.9894 35.8285H40.0227C38.8121 35.8268 37.6516 35.3451 36.7956 34.489C35.9395 33.633 35.4578 32.4725 35.4561 31.2619V27.1619C35.4578 25.9513 35.9395 24.7907 36.7956 23.9347C37.6516 23.0787 38.8121 22.597 40.0227 22.5952H55.9894C57.2005 22.5952 58.3621 23.0763 59.2185 23.9328C60.0749 24.7892 60.5561 25.9507 60.5561 27.1619V31.2419C60.5587 31.8433 60.4425 32.4392 60.2142 32.9956C59.9859 33.552 59.6499 34.0578 59.2256 34.4839C58.8013 34.9101 58.297 35.2483 57.7416 35.479C57.1862 35.7098 56.5908 35.8286 55.9894 35.8285ZM40.0227 25.9485C39.7014 25.952 39.3941 26.0807 39.1662 26.3073C38.9383 26.5339 38.8079 26.8406 38.8027 27.1619V31.2419C38.8027 31.569 38.9327 31.8827 39.164 32.114C39.3953 32.3453 39.709 32.4752 40.0361 32.4752H56.0027C56.3298 32.4752 56.6435 32.3453 56.8748 32.114C57.1061 31.8827 57.236 31.569 57.236 31.2419V27.1619C57.236 26.8348 57.1061 26.5211 56.8748 26.2898C56.6435 26.0585 56.3298 25.9285 56.0027 25.9285L40.0227 25.9485Z" fill="#18A0FB"/>
<path opacity="0.2" d="M77.2628 40.1884H18.7561C18.5594 40.1875 18.3645 40.2255 18.1826 40.3001C18.0006 40.3748 17.8352 40.4846 17.6959 40.6234C17.5565 40.7622 17.4459 40.9271 17.3704 41.1087C17.2949 41.2903 17.2561 41.485 17.2561 41.6817V49.515L47.7228 55.515C47.9095 55.5556 48.1027 55.5556 48.2894 55.515L78.7628 49.515V41.6817C78.7628 41.485 78.7239 41.2903 78.6484 41.1087C78.573 40.9271 78.4624 40.7622 78.323 40.6234C78.1836 40.4846 78.0182 40.3748 77.8363 40.3001C77.6543 40.2255 77.4594 40.1875 77.2628 40.1884Z" fill="black"/>
<path d="M78.8026 47.8287L48.276 53.8287C48.0863 53.8621 47.8923 53.8621 47.7027 53.8287L17.176 47.8287C16.8406 47.7625 16.5385 47.5823 16.321 47.3185C16.1034 47.0548 15.9839 46.7239 15.9827 46.3821V31.6487C15.9827 31.4553 16.0208 31.2637 16.0948 31.0849C16.1689 30.9062 16.2774 30.7438 16.4142 30.6069C16.551 30.4701 16.7134 30.3616 16.8922 30.2876C17.0709 30.2135 17.2625 30.1754 17.456 30.1754H78.536C78.7295 30.1754 78.921 30.2135 79.0998 30.2876C79.2785 30.3616 79.441 30.4701 79.5778 30.6069C79.7146 30.7438 79.8231 30.9062 79.8972 31.0849C79.9712 31.2637 80.0093 31.4553 80.0093 31.6487V46.4087C80.0026 46.7482 79.8789 47.075 79.659 47.3337C79.4391 47.5925 79.1366 47.7673 78.8026 47.8287Z" fill="#18A0FB"/>
<path d="M51.1695 49.8354H44.8562C44.0756 49.8354 43.4429 50.4682 43.4429 51.2488V55.2421C43.4429 56.0227 44.0756 56.6555 44.8562 56.6555H51.1695C51.9501 56.6555 52.5829 56.0227 52.5829 55.2421V51.2488C52.5829 50.4682 51.9501 49.8354 51.1695 49.8354Z" fill="#18A0FB"/>
<path opacity="0.4" d="M51.1695 49.8354H44.8562C44.0756 49.8354 43.4429 50.4682 43.4429 51.2488V55.2421C43.4429 56.0227 44.0756 56.6555 44.8562 56.6555H51.1695C51.9501 56.6555 52.5829 56.0227 52.5829 55.2421V51.2488C52.5829 50.4682 51.9501 49.8354 51.1695 49.8354Z" fill="black"/>
<path opacity="0.2" d="M53.3426 95.7017C62.7762 94.6451 71.6848 90.8152 78.9419 84.696C86.199 78.5769 91.4788 70.4434 94.1137 61.3238C96.7487 52.2042 96.6205 42.5081 93.7453 33.4614C90.8701 24.4147 85.377 16.4237 77.9607 10.4986C70.5443 4.57346 61.5376 0.980411 52.0793 0.173683C42.621 -0.633046 33.1359 1.38278 24.8232 5.96628C16.5105 10.5498 9.74349 17.4951 5.37773 25.9242C1.01197 34.3533 -0.756485 43.8877 0.295958 53.3217C0.995015 59.5881 2.92181 65.6553 5.96629 71.1768C9.01076 76.6983 13.1132 81.5659 18.0394 85.5014C22.9655 89.437 28.6188 92.3635 34.6762 94.1137C40.7337 95.8639 47.0766 96.4035 53.3426 95.7017Z" fill="white"/>
</svg>
