<svg width="36" height="36" fill="none" xmlns="http://www.w3.org/2000/svg"><path d="m14.29 25.17.335-.368V22.99L9.149 11.43H6.601L1.125 22.99v1.901l.298.323a8.743 8.743 0 0 0 6.414 2.812h.03a8.742 8.742 0 0 0 6.424-2.855zm-1.915-1.252a6.393 6.393 0 0 1-4.516 1.857h-.023a6.392 6.392 0 0 1-4.461-1.783v-.497l4.5-9.5 4.5 9.5v.423zM29.4 11.43h-2.55l-5.475 11.56v1.9l.298.323a8.743 8.743 0 0 0 6.414 2.812h.03a8.744 8.744 0 0 0 6.424-2.855l.334-.368V22.99l-5.476-11.56zm3.225 12.488a6.393 6.393 0 0 1-4.516 1.857h-.023a6.392 6.392 0 0 1-4.461-1.783v-.497l4.5-9.5 4.5 9.5v.423z" fill="#70AADF"/><path d="M19.125 11.828a3.953 3.953 0 0 0 2.648-2.648h7.477V6.93h-7.477a3.937 3.937 0 0 0-7.546 0H6.75v2.25h7.477a3.953 3.953 0 0 0 2.648 2.648v18.727H9.562v2.25h16.876v-2.25h-7.313V11.828zm-2.813-3.773a1.688 1.688 0 1 1 3.376 0 1.688 1.688 0 0 1-3.375 0z" fill="#70AADF"/></svg>