<svg width="36" height="36" fill="none" xmlns="http://www.w3.org/2000/svg"><path d="m32.61 22.114-4.585-2.818 1.765-3.04c.426-.76.65-1.604.65-2.462v-4.82a6.656 6.656 0 0 0-1.202-3.816 7.306 7.306 0 0 0-3.232-2.574 7.843 7.843 0 0 0-4.205-.487A7.6 7.6 0 0 0 18 3.855l1.55 1.572a5.265 5.265 0 0 1 2.631-1.214 5.432 5.432 0 0 1 2.91.339 5.059 5.059 0 0 1 2.237 1.781 4.61 4.61 0 0 1 .832 2.641v4.82c0 .5-.127.992-.371 1.436l-2.773 4.775 6.345 3.9c.42.258.763.61 1 1.024.237.414.36.878.36 1.348v3.581h-5.13V32H35v-5.723a4.72 4.72 0 0 0-.633-2.367 5.088 5.088 0 0 0-1.758-1.796z" fill="#DFAC70"/><path d="m22.604 24.112-4.595-2.818 1.77-3.04c.426-.76.65-1.605.65-2.463v-4.82c0-1.847-.784-3.619-2.177-4.926S14.97 4.003 13 4c-4.093 0-7.423 3.127-7.423 6.971v4.82a4.961 4.961 0 0 0 .644 2.462l1.778 3.057-4.568 2.802a5.094 5.094 0 0 0-1.76 1.794 4.712 4.712 0 0 0-.635 2.364L1 34h24v-5.724a4.714 4.714 0 0 0-.634-2.367 5.096 5.096 0 0 0-1.762-1.797zm.11 7.746H3.299l.022-3.582c-.001-.47.122-.934.36-1.348a2.9 2.9 0 0 1 1.002-1.023l6.333-3.885-2.788-4.793a2.977 2.977 0 0 1-.365-1.436v-4.82c0-1.278.542-2.504 1.506-3.408.964-.904 2.272-1.412 3.635-1.412 1.364 0 2.672.508 3.636 1.412.964.904 1.506 2.13 1.506 3.408v4.82c0 .5-.128.992-.373 1.436l-2.779 4.777 6.36 3.9c.42.258.764.61 1.002 1.024.238.414.362.878.36 1.348v3.582z" fill="#DFAC70"/></svg>