<svg width="36" height="36" fill="none" xmlns="http://www.w3.org/2000/svg"><path d="M18 3C9.716 3 3 9.716 3 18c0 8.284 6.716 15 15 15 8.284 0 15-6.716 15-15 0-8.284-6.716-15-15-15zm-3.719 4.065c.547.294 1.192.573 1.938.835a6.656 6.656 0 0 0 2.222.394c.542 0 1.084-.135 1.544-.473.446-.267.878-.48 1.45-.425.588.064 1.207.267 1.827.3.777.42 1.534.945 2.27 1.575a15.87 15.87 0 0 0-1.136.111c-.399.053-.787.13-1.165.236a5.11 5.11 0 0 0-1.04.41c-.315.168-.547.378-.694.63a5.515 5.515 0 0 0-.488.96c-.194.545-.148 1.414-.598 1.813a.954.954 0 0 0-.237.22.473.473 0 0 0-.079.331c.01.137.08.331.206.583.063.147.114.326.156.536.4-.001.813-.061 1.167-.315l2.08.189c.537-.605 1.163-.615 1.701 0 .168.168.347.42.536.757l-.883.598c-.21-.063-.462-.189-.756-.378a5.345 5.345 0 0 1-.441-.284c-.839-.407-2.48.067-3.404.127-.12.24-.217.476-.503.535-.05.156-.002.323-.064.473-.399.63-.535 1.292-.41 1.985.232 1.093.799 1.639 1.702 1.639h.347c.44 0 .751.02.93.063.178.042.268.074.268.095-.105.252-.142.45-.11.598.103.472.444.829.409 1.34-.033.648-.237 1.208-.015 1.86.252.63.57 1.316.803 1.968a.61.61 0 0 0 .426.347c.378.063.85-.19 1.418-.756.42-.462.662-.967.724-1.513.084-.484.424-.913.536-1.418v-.41a6.16 6.16 0 0 0 .268-.614c.105-.29.117-.66.142-.993.33-.33.652-.625.882-1.04.147-.252.19-.472.126-.661-.02-.042-.072-.084-.157-.127l-.473-.189c.008-.264.493-.224.724-.189l1.134-.693a12.448 12.448 0 0 1-.834 4.144 11.005 11.005 0 0 1-2.285 3.608 11.337 11.337 0 0 1-4.837 3.151c-1.88.63-3.819.756-5.815.378.344-.607.543-1.29.947-1.89 0-.316.047-.584.141-.804.401-.928 1.056-1.17 1.812-1.89.764-.797.757-1.737.788-2.884-.01-.726-1.172-1.172-1.702-1.576-1.23-.829-2.011-2.049-3.765-1.686-.627.064-.78.186-1.246-.204l-.189-.095.016-.063.08-.158c.187-.197-.08-.444-.332-.363a.88.88 0 0 1-.173.017c-.058-.282-.247-.544-.284-.851.294.23.547.405.757.52.21.116.388.195.536.237a.651.651 0 0 0 .378.062c.23-.042.361-.273.393-.693.031-.42.016-.903-.047-1.45a.708.708 0 0 0 .126-.252c.222-1.148.81-.897 1.702-1.228.147-.084.178-.19.094-.316 0-.02-.005-.031-.015-.031-.01 0-.017-.011-.017-.032.486-.244.771-.743 1.072-1.197-.256-.406-.654-.745-1.103-.977-.24-.297-1.185-.115-1.387-.599a1.22 1.22 0 0 1-.378-.095c-.85-.551-1.21-1.515-2.126-1.906a5.368 5.368 0 0 0-1.088.016 11.207 11.207 0 0 1 3.498-1.923zm-7.657 8.887c.189.315.42.6.693.851 1.418 1.302 2.75 1.578 4.569 2.237.084.063.2.168.347.315.198.15.365.331.568.473 0 .105-.016.252-.048.441-.031.19-.037.494-.016.914.06 1.17 1.025 2.095 1.292 3.214-.237 1.451-.24 2.877-.41 4.317a11.302 11.302 0 0 1-3.765-2.52 11.512 11.512 0 0 1-2.506-3.813 12.021 12.021 0 0 1-.803-3.2 12.3 12.3 0 0 1 .079-3.229z" fill="#DF70C7"/></svg>