<svg width="36" height="36" fill="none" xmlns="http://www.w3.org/2000/svg"><g clip-path="url(#a)"><path d="M11.7 22.8c-.134 0-.269.02-.397.061A7.42 7.42 0 0 1 9 23.25a7.427 7.427 0 0 1-2.303-.389A1.284 1.284 0 0 0 6.3 22.8 6.3 6.3 0 0 0 0 29.135C.008 30.612 1.222 31.8 2.7 31.8h12.6c1.478 0 2.692-1.188 2.7-2.665a6.3 6.3 0 0 0-6.3-6.335zM9 21a5.4 5.4 0 1 0 0-10.8A5.4 5.4 0 0 0 9 21zM33.3 3H11.7C10.211 3 9 4.252 9 5.79V8.4c1.317 0 2.537.381 3.6 1.001V6.6h19.8v16.2h-3.6v-3.6h-7.2v3.6h-4.289a7.17 7.17 0 0 1 2.233 3.6H33.3c1.489 0 2.7-1.252 2.7-2.79V5.79C36 4.251 34.79 3 33.3 3z" fill="#DFC770"/></g><defs><clipPath id="a"><path fill="#fff" d="M0 0h36v36H0z"/></clipPath></defs></svg>