<svg width="36" height="36" fill="none" xmlns="http://www.w3.org/2000/svg"><path d="M28.934 7.379a3.277 3.277 0 0 0-1.266.387l-5.309 2.812-7.172-1.758-.421-.105-.422.21-2.426 1.407-1.44.843 1.335 1.02 3.058 2.32-3.831 2.04-4.114-1.864-.492-.21-.493.246-1.969 1.054-1.3.703.984 1.056 6.082 6.538.563.668.774-.421 5.8-3.094-1.16 6.398-.387 2.04 1.934-.81 2.882-1.23.422-.176.177-.422 4.183-10.16 5.906-3.164c1.627-.874 2.281-2.944 1.406-4.57a3.362 3.362 0 0 0-2.004-1.618 3.51 3.51 0 0 0-1.3-.14zm.21 2.25c.14-.01.286-.005.422.036a1.101 1.101 0 0 1 .212 2.038l-6.294 3.41-.352.176-.14.386-4.183 10.056-.493.21 1.196-6.644.422-2.285-2.04 1.09-7.1 3.832-4.466-4.852.176-.106 4.114 1.83.526.244.457-.28 17.123-9.036a.997.997 0 0 1 .42-.105zm-14.097 1.477 4.324 1.054-2.32 1.196-2.532-1.934.528-.316z" fill="#DF7084"/></svg>