<svg width="48" height="48" viewBox="0 0 48 48" fill="none" xmlns="http://www.w3.org/2000/svg">
<path d="M42.8571 0H5.14286C3.77889 0 2.47078 0.541835 1.50631 1.50631C0.541835 2.47078 0 3.77889 0 5.14286L0 42.8571C0 44.2211 0.541835 45.5292 1.50631 46.4937C2.47078 47.4582 3.77889 48 5.14286 48H19.8482V31.6811H13.0982V24H19.8482V18.1457C19.8482 11.4868 23.8125 7.80857 29.8843 7.80857C32.7921 7.80857 35.8329 8.32714 35.8329 8.32714V14.8629H32.4825C29.1814 14.8629 28.1518 16.9114 28.1518 19.0125V24H35.5211L34.3425 31.6811H28.1518V48H42.8571C44.2211 48 45.5292 47.4582 46.4937 46.4937C47.4582 45.5292 48 44.2211 48 42.8571V5.14286C48 3.77889 47.4582 2.47078 46.4937 1.50631C45.5292 0.541835 44.2211 0 42.8571 0Z" fill="#1096F5"/>
</svg>
